<?xml version="1.0" encoding="UTF-8"?><!-- Generator: Adobe Illustrator 16.0.3, SVG Export Plug-In . SVG Version: 6.00 Build 0)  --><!DOCTYPE svg PUBLIC "-//W3C//DTD SVG 1.1//EN" "http://www.w3.org/Graphics/SVG/1.1/DTD/svg11.dtd">
<svg xmlns="http://www.w3.org/2000/svg" xmlns:xlink="http://www.w3.org/1999/xlink" version="1.1" id="Layer_1" x="0px" y="0px" width="182.333px" height="227px" viewBox="0 0 182.333 227" enable-background="new 0 0 182.333 227" xml:space="preserve" preserveAspectRatio="xMidYMid meet" zoomAndPan="magnify" contentScriptType="application/ecmascript" contentStyleType="text/css">
<g>
	<polyline fill="#FFFFFF" stroke="#000000" stroke-width="0.4" points="103.287,10.356 96.59,5.703 72.825,5.703 65.71,10.333  "/>
	<polyline fill="none" stroke="#000000" stroke-width="0.4" stroke-linejoin="round" points="103.287,10.356 96.59,5.703    72.825,5.703 65.71,10.333  "/>
	<rect x="64.249" y="9.677" fill="#FFFFFF" stroke="#000000" stroke-width="0.4" width="39.992" height="24.081"/>
	
		<rect x="64.248" y="9.677" fill="none" stroke="#000000" stroke-width="0.4" stroke-linecap="round" stroke-linejoin="round" stroke-miterlimit="500" width="39.992" height="24.081"/>
	<path fill="#FFFFFF" stroke="#000000" stroke-width="0.4" d="M66.526,9.827c-1.266,0-1.305,0.197-1.582,1.225   c-0.277,1.029-1.187,4.863-1.187,6.365c0,1.504,1.266,6.643,1.424,7.868c0.158,1.227,0.475,4.508,0.595,5.219   c0.117,0.713,0.236,1.106,1.106,1.187c0.87,0.08,8.422,0.397,10.318,0.397c1.899,0,10.518-0.517,10.518-0.517   s4.825,0.478,7.75,0.478c2.927,0,5.693-0.239,6.288-0.358c0.592-0.119,0.947-0.08,0.986-1.463c0.04-1.383,0.436-3.598,0.713-5.931   c0.276-2.332,1.186-4.192,1.226-6.009c0.039-1.819-0.079-2.61-0.437-4.429c-0.354-1.818-0.75-2.817-0.869-3.203   c-0.156-0.514-0.354-0.829-1.225-0.829C101.28,9.827,66.526,9.827,66.526,9.827"/>
	
		<path fill="none" stroke="#000000" stroke-width="0.4" stroke-linecap="round" stroke-linejoin="round" stroke-miterlimit="500" d="   M103.257,10.3l0.982-0.623l-1.536,0.15 M65.776,9.827l-1.527-0.15l0.893,0.584 M66.526,9.827c-1.266,0-1.305,0.197-1.582,1.225   c-0.277,1.029-1.187,4.863-1.187,6.365c0,1.504,1.266,6.643,1.424,7.868c0.158,1.227,0.475,4.508,0.595,5.219   c0.117,0.713,0.236,1.106,1.106,1.187c0.87,0.08,8.422,0.397,10.318,0.397c1.899,0,10.518-0.517,10.518-0.517   s4.825,0.478,7.75,0.478c2.927,0,5.693-0.239,6.288-0.358c0.592-0.119,0.947-0.08,0.986-1.463c0.04-1.383,0.436-3.598,0.713-5.931   c0.276-2.332,1.186-4.192,1.226-6.009c0.039-1.819-0.079-2.61-0.437-4.429c-0.354-1.818-0.75-2.817-0.869-3.203   c-0.156-0.514-0.354-0.829-1.225-0.829C101.28,9.827,66.526,9.827,66.526,9.827z"/>
	
		<path fill="none" stroke="#000000" stroke-width="0.4" stroke-linecap="round" stroke-linejoin="round" stroke-miterlimit="500" d="   M98.674,21.32c0,0,1.041-4.063-0.129-8.556 M97.114,21.32c0,0,1.079-4.045-0.147-8.646 M95.557,21.32c0,0,1.058-4.584-0.141-8.585    M93.998,21.32c0,0,1.04-4.51-0.093-8.425 M92.439,21.32c0,0,1.02-4.23-0.042-8.16 M90.88,21.32c0,0,1.058-3.116,0.069-7.845    M89.19,21.728c-0.205,0.52,1.357-2.95,0.163-8.476 M87.521,22.102c-0.205,0.519,1.539-3.545,0.199-9.073 M85.907,22.38   c-0.206,0.519,1.743-4.066,0.24-9.503 M84.266,22.584c-0.206,0.521,1.826-4.418,0.322-9.856 M82.67,22.733   c-0.206,0.52,1.917-4.509,0.289-10.09 M81.111,22.845c-0.205,0.52,1.93-4.702,0.304-10.282 M79.558,22.874   c-0.204,0.521,1.918-4.76,0.29-10.342 M77.992,22.874c-0.206,0.521,1.755-5.153,0.289-10.342 M76.442,22.814   c0,0,1.871-4.684,0.288-10.282 M74.92,22.677c0,0,1.825-4.502,0.243-10.099 M73.414,22.556c0,0,1.521-4.442,0.243-9.901    M71.954,22.327c0,0,1.476-4.137,0.198-9.598 M70.463,22.084c0,0,1.416-3.773,0.137-9.232"/>
	<path fill="#FFFFFF" stroke="#000000" stroke-width="0.4" d="M91.158,14.691c0,0-2.658-0.021-3.865,0.261   c-1.204,0.279-1.605,0.601-0.04,0.923c1.568,0.32,4.08,0.358,4.08,0.358S91.238,15.051,91.158,14.691"/>
	
		<path fill="none" stroke="#000000" stroke-width="0.4" stroke-linecap="round" stroke-linejoin="round" stroke-miterlimit="500" d="   M90.88,21.32c0,0,7.581,0.097,8.222,0.055c0.641-0.038,0.923-0.079,1.044-1.405c0.12-1.325,0.493-3.86-0.403-6.545   c-0.199-0.603-0.44-0.603-0.843-0.681c-0.401-0.081-4.095-0.323-7.951,0.731c0,0-5.783-0.933-10.883-0.974   c-3.577-0.028-9.317,0.281-9.961,0.361c-0.641,0.08-1.043,0.402-1.164,1.566c-0.12,1.166-0.393,3.896,0.081,6.265   c0.12,0.603,0.12,1.086,0.763,1.286c0.642,0.2,5.422,1.125,11.164,0.884C86.692,22.622,90.88,21.32,90.88,21.32z M91.158,14.691   c0,0-2.658-0.021-3.865,0.261c-1.204,0.279-1.605,0.601-0.04,0.923c1.568,0.32,4.08,0.358,4.08,0.358S91.238,15.051,91.158,14.691z   "/>
	
		<path fill="none" stroke="#000000" stroke-width="0.4" stroke-linecap="round" stroke-linejoin="round" stroke-miterlimit="500" d="   M90.534,23.867c0,0-1.178,5.836-4.07,9.904 M90.748,12.675c0,0-0.268-2.087-0.696-2.998 M66.652,13.158   c0.188-0.625,0.482-0.804,1.339-0.911c0.856-0.108,8.406-0.643,11.833-0.589c3.428,0.053,10.924,1.017,10.924,1.017   s3.855-0.803,5.462-0.856c1.605-0.054,3.801,0.215,4.391,0.32c0.589,0.108,0.855,0.269,1.07,0.857   c0.216,0.589,0.644,3.053,0.644,4.285s-0.59,4.766-0.858,5.515c-0.267,0.75-0.534,1.124-1.283,1.124   c-0.75,0-9.639-0.053-9.639-0.053s-4.605,1.444-10.71,1.713c-6.103,0.269-10.495-0.804-11.191-0.962   c-0.696-0.162-1.125-0.162-1.499-1.341c-0.375-1.176-0.963-3.48-1.018-5.032C66.062,16.691,66.491,13.693,66.652,13.158z"/>
	
		<path fill="none" stroke="#000000" stroke-width="0.4" stroke-linecap="round" stroke-linejoin="round" stroke-miterlimit="500" d="   M100.922,28.29c0,0.159-0.129,0.291-0.289,0.291H94.01c-0.161,0-0.29-0.132-0.29-0.291v-1.403c0-0.158,0.129-0.288,0.29-0.288   h6.624c0.16,0,0.289,0.13,0.289,0.288V28.29z"/>
</g>
<g>
	
		<rect x="4.023" y="23.239" fill="#FFFFFF" stroke="#000000" stroke-width="0.4" stroke-miterlimit="500" width="159.392" height="19.188"/>
</g>
<rect x="9.996" y="33.822" fill="#FFFFFF" stroke="#000000" stroke-width="0.4" stroke-miterlimit="500" width="7.916" height="5.802"/>
<text transform="matrix(1 0 0 1 8.9844 31.4609)" font-family="'Helvetica'" font-size="7.6084">0a</text>
<line fill="none" stroke="#FFFFFF" stroke-width="3" stroke-linecap="round" stroke-linejoin="round" x1="13.992" y1="41.517" x2="13.992" y2="47.708"/>
<rect x="29.874" y="33.822" fill="#FFFFFF" stroke="#000000" stroke-width="0.4" stroke-miterlimit="500" width="7.916" height="5.802"/>
<text transform="matrix(1 0 0 1 28.79 31.4609)" font-family="'Helvetica'" font-size="7.6084">0b</text>
<rect x="49.032" y="33.75" fill="#FFFFFF" stroke="#000000" stroke-width="0.4" stroke-miterlimit="500" width="7.916" height="5.802"/>
<text transform="matrix(1 0 0 1 48.5933 31.4609)" font-family="'Helvetica'" font-size="7.6084">0c</text>
<rect x="68.767" y="33.822" fill="#FFFFFF" stroke="#000000" stroke-width="0.4" stroke-miterlimit="500" width="7.916" height="5.802"/>
<text transform="matrix(1 0 0 1 68.1138 31.4609)" font-family="'Helvetica'" font-size="7.6084">0d</text>
<rect x="90.758" y="33.822" fill="#FFFFFF" stroke="#000000" stroke-width="0.4" stroke-miterlimit="500" width="7.916" height="5.802"/>
<text transform="matrix(1 0 0 1 90.105 31.4609)" font-family="'Helvetica'" font-size="7.6084">0e</text>
<rect x="111.483" y="33.822" fill="#FFFFFF" stroke="#000000" stroke-width="0.4" stroke-miterlimit="500" width="7.916" height="5.802"/>
<text transform="matrix(1 0 0 1 111.5293 31.4609)" font-family="'Helvetica'" font-size="7.6084">0f</text>
<rect x="131.49" y="33.822" fill="#FFFFFF" stroke="#000000" stroke-width="0.4" stroke-miterlimit="500" width="7.916" height="5.802"/>
<text transform="matrix(1 0 0 1 130.8379 31.4609)" font-family="'Helvetica'" font-size="7.6084">0g</text>
<rect x="151.642" y="33.606" fill="#FFFFFF" stroke="#000000" stroke-width="0.4" stroke-miterlimit="500" width="7.917" height="5.802"/>
<text transform="matrix(1 0 0 1 151.2046 31.4609)" font-family="'Helvetica'" font-size="7.6084">0h</text>
<line fill="none" stroke="#000000" stroke-width="0.4" stroke-linecap="round" stroke-miterlimit="500" stroke-dasharray="2" x1="84.363" y1="41.78" x2="84.363" y2="23.262"/>
<polyline fill="none" stroke="#000000" stroke-linecap="round" points="13.917,39.831 13.917,155.489 27.266,155.489 "/>
<g>
	<rect x="113.46" y="136.85" fill="#FFFFFF" stroke="#000000" stroke-width="0.4" width="31.878" height="62.521"/>
	<polyline fill="none" stroke="#000000" stroke-width="0.4" points="142.75,197.781 142.75,138.731 115.939,138.731    116.005,197.781  "/>
	<path fill="#FFFFFF" stroke="#000000" stroke-width="0.4" d="M117.984,201.518c0.523,0,0.947-0.424,0.947-0.945   s-0.424-0.945-0.947-0.945c-0.521,0-0.945,0.424-0.945,0.945S117.462,201.518,117.984,201.518"/>
	<line fill="none" stroke="#000000" stroke-width="0.4" x1="117.267" y1="199.486" x2="117.267" y2="199.277"/>
	<path fill="none" stroke="#000000" stroke-width="0.4" d="M118.527,199.486 M116.007,199.486h2.52v-0.209h-2.52V199.486z"/>
	<line fill="none" stroke="#000000" stroke-width="0.4" x1="117.285" y1="200.59" x2="117.285" y2="199.471"/>
	<path fill="none" stroke="#000000" stroke-width="0.4" d="M117.511,200.59 M117.056,200.59h0.455v-1.119h-0.455V200.59z"/>
	<path fill="#FFFFFF" stroke="#000000" stroke-width="0.4" d="M142.316,201.518c0.521,0,0.945-0.424,0.945-0.945   s-0.424-0.945-0.945-0.945s-0.945,0.424-0.945,0.945S141.794,201.518,142.316,201.518"/>
	<line fill="none" stroke="#000000" stroke-width="0.4" x1="141.597" y1="199.486" x2="141.597" y2="199.277"/>
	<path fill="none" stroke="#000000" stroke-width="0.4" d="M142.859,199.486 M140.337,199.486h2.521v-0.209h-2.521V199.486z"/>
	<line fill="none" stroke="#000000" stroke-width="0.4" x1="141.615" y1="200.59" x2="141.615" y2="199.471"/>
	<path fill="none" stroke="#000000" stroke-width="0.4" d="M141.843,200.59 M141.388,200.59h0.455v-1.119h-0.455V200.59z"/>
	<line fill="none" stroke="#000000" stroke-width="0.4" x1="113.447" y1="197.621" x2="145.232" y2="197.621"/>
	<rect x="138.496" y="167.861" fill="none" stroke="#000000" stroke-width="0.4" width="1.5" height="9.002"/>
	<line fill="none" stroke="#000000" stroke-width="0.4" x1="115.846" y1="140.567" x2="142.842" y2="140.567"/>
	<line fill="none" stroke="#000000" stroke-width="0.4" x1="115.846" y1="148.062" x2="142.842" y2="148.062"/>
</g>
<text transform="matrix(1 0 0 1 148.1299 188.6123)"><tspan x="0" y="0" font-family="'Helvetica'" font-size="9.0004">Storage</tspan><tspan x="0" y="10.801" font-family="'Helvetica'" font-size="9.0004">array</tspan></text>
<rect x="33.947" y="143.586" fill="#D1D3D4" stroke="#000000" stroke-width="0.4" width="9.559" height="64"/>
<rect x="126.348" y="143.586" fill="#D1D3D4" stroke="#000000" stroke-width="0.4" width="9.559" height="64"/>
<ellipse fill="#FFFFFF" stroke="#000000" stroke-width="0.5" cx="135.865" cy="154.841" rx="6.448" ry="6.322"/>
<path d="M127.407,155.548c0,0.838,0.68,1.518,1.52,1.518c0.838,0,1.518-0.68,1.518-1.518s-0.68-1.52-1.518-1.52  C128.087,154.028,127.407,154.71,127.407,155.548"/>
<ellipse fill="#FFFFFF" stroke="#000000" stroke-width="0.5" cx="33.581" cy="155.394" rx="6.448" ry="6.324"/>
<path d="M38.574,155.548c0,0.838,0.68,1.518,1.52,1.518s1.52-0.68,1.52-1.518s-0.68-1.52-1.52-1.52S38.574,154.71,38.574,155.548"/>
<path fill="#231F20" d="M23.471,155.548"/>
<line fill="none" stroke="#000000" x1="41.314" y1="155.353" x2="128.444" y2="155.353"/>
<g>
	<rect x="51.987" y="144.737" fill="#FFFFFF" stroke="#000000" stroke-width="0.5" width="64.629" height="21.108"/>
	<text transform="matrix(1 0 0 1 61.5625 158.2354)" font-family="'Helvetica'" font-size="9.0004">LUN group</text>
</g>
<line fill="none" stroke="#FFFFFF" stroke-width="3" stroke-linecap="round" stroke-linejoin="round" x1="155.77" y1="41.517" x2="155.77" y2="62.824"/>
<path fill="#231F20" d="M23.471,178.506"/>
<polyline fill="none" stroke="#000000" stroke-linecap="round" points="155.608,39.686 155.608,154.913 142.905,154.913 "/>
<text transform="matrix(1 0 0 1 29.0825 158.2354)" font-family="'Helvetica-Bold'" font-size="7.2003">1A</text>
<text transform="matrix(1 0 0 1 131.752 157.2627)" font-family="'Helvetica-Bold'" font-size="7.2003">2A</text>
<rect x="12.837" y="213.047" fill="none" width="47.871" height="8.563"/>
<text transform="matrix(1 0 0 1 13.5166 219.5093)" font-family="'Helvetica'" font-size="9">Controller 1</text>
<rect x="106.509" y="213.047" fill="none" width="47.87" height="8.563"/>
<text transform="matrix(1 0 0 1 107.1875 219.5093)" font-family="'Helvetica'" font-size="9">Controller 2</text>
</svg>