<?xml version="1.0" encoding="UTF-8"?><!-- Generator: Adobe Illustrator 16.0.3, SVG Export Plug-In . SVG Version: 6.00 Build 0)  --><!DOCTYPE svg PUBLIC "-//W3C//DTD SVG 1.1//EN" "http://www.w3.org/Graphics/SVG/1.1/DTD/svg11.dtd">
<svg xmlns="http://www.w3.org/2000/svg" xmlns:xlink="http://www.w3.org/1999/xlink" version="1.1" x="0px" y="0px" width="182px" height="208px" viewBox="0 0 182 208" enable-background="new 0 0 182 208" xml:space="preserve" preserveAspectRatio="xMidYMid meet" zoomAndPan="magnify" contentScriptType="application/ecmascript" contentStyleType="text/css">
<g id="Layer_1">
</g>
<g id="Layer_2">
	<polyline fill="none" stroke="#FFFFFF" stroke-width="3" points="10.544,46.558 10.544,162.181 33.025,162.181  "/>
	<polyline fill="none" stroke="#000000" points="10.185,45.376 10.185,162.181 32.988,162.181  "/>
	<line stroke="#000000" stroke-width="2" x1="52.684" y1="28.697" x2="129.018" y2="28.697"/>
	<line stroke="#000000" stroke-width="2" x1="52.684" y1="20.696" x2="129.018" y2="20.696"/>
	<text transform="matrix(1 0 0 1 145.5156 172.8789)"><tspan x="0" y="0" font-family="'Helvetica'" font-size="9.0004">Storage</tspan><tspan x="0" y="10.801" font-family="'Helvetica'" font-size="9.0004">array</tspan></text>
	<g>
		<rect x="110.906" y="121.156" fill="#FFFFFF" stroke="#000000" stroke-width="0.4" width="31.876" height="62.525"/>
		<polyline fill="none" stroke="#000000" stroke-width="0.4" points="140.194,182.092 140.194,123.037 113.385,123.037     113.451,182.092   "/>
		<path fill="#FFFFFF" stroke="#000000" stroke-width="0.4" d="M115.43,185.828c0.522,0,0.947-0.424,0.947-0.945    s-0.425-0.945-0.947-0.945s-0.945,0.424-0.945,0.945S114.907,185.828,115.43,185.828"/>
		<line fill="none" stroke="#000000" stroke-width="0.4" x1="114.712" y1="183.797" x2="114.712" y2="183.588"/>
		<path fill="none" stroke="#000000" stroke-width="0.4" d="M115.973,183.797 M113.452,183.797h2.521v-0.209h-2.521V183.797z"/>
		<line fill="none" stroke="#000000" stroke-width="0.4" x1="114.73" y1="184.9" x2="114.73" y2="183.781"/>
		<path fill="none" stroke="#000000" stroke-width="0.4" d="M114.956,184.9 M114.502,184.9h0.454v-1.119h-0.454V184.9z"/>
		<path fill="#FFFFFF" stroke="#000000" stroke-width="0.4" d="M139.761,185.828c0.521,0,0.945-0.424,0.945-0.945    s-0.424-0.945-0.945-0.945s-0.945,0.424-0.945,0.945S139.239,185.828,139.761,185.828"/>
		<line fill="none" stroke="#000000" stroke-width="0.4" x1="139.043" y1="183.797" x2="139.043" y2="183.588"/>
		<path fill="none" stroke="#000000" stroke-width="0.4" d="M140.305,183.797 M137.782,183.797h2.522v-0.209h-2.522V183.797z"/>
		<line fill="none" stroke="#000000" stroke-width="0.4" x1="139.061" y1="184.9" x2="139.061" y2="183.781"/>
		<path fill="none" stroke="#000000" stroke-width="0.4" d="M139.289,184.9 M138.834,184.9h0.455v-1.119h-0.455V184.9z"/>
		<line fill="none" stroke="#000000" stroke-width="0.4" x1="110.893" y1="181.932" x2="142.677" y2="181.932"/>
		<rect x="135.94" y="152.172" fill="none" stroke="#000000" stroke-width="0.4" width="1.5" height="9.002"/>
		<line fill="none" stroke="#000000" stroke-width="0.4" x1="113.29" y1="124.873" x2="140.286" y2="124.873"/>
		<line fill="none" stroke="#000000" stroke-width="0.4" x1="113.29" y1="132.369" x2="140.286" y2="132.369"/>
	</g>
	<text transform="matrix(1 0 0 1 29.2612 10.1812)" font-family="'Helvetica'" font-size="9.0004">vs1</text>
	<g>
		<polyline fill="#FFFFFF" stroke="#000000" stroke-width="0.4" points="53.588,17.047 46.892,12.395 23.127,12.395 16.012,17.024       "/>
		<polyline fill="none" stroke="#000000" stroke-width="0.4" stroke-linejoin="round" points="53.588,17.047 46.892,12.395     23.127,12.395 16.012,17.024   "/>
		<rect x="14.551" y="16.369" fill="#FFFFFF" stroke="#000000" stroke-width="0.4" width="39.992" height="24.081"/>
		
			<rect x="14.55" y="16.369" fill="none" stroke="#000000" stroke-width="0.4" stroke-linecap="round" stroke-linejoin="round" stroke-miterlimit="500" width="39.992" height="24.081"/>
		<path fill="#FFFFFF" stroke="#000000" stroke-width="0.4" d="M16.828,16.519c-1.266,0-1.305,0.197-1.582,1.225    c-0.277,1.029-1.187,4.863-1.187,6.365c0,1.504,1.266,6.643,1.424,7.868c0.158,1.227,0.475,4.508,0.595,5.219    c0.117,0.713,0.236,1.106,1.106,1.187c0.87,0.08,8.422,0.397,10.318,0.397c1.899,0,10.518-0.517,10.518-0.517    s4.825,0.478,7.75,0.478c2.927,0,5.693-0.239,6.288-0.358c0.592-0.119,0.947-0.08,0.986-1.463c0.04-1.383,0.436-3.598,0.713-5.931    c0.276-2.332,1.186-4.192,1.226-6.009c0.039-1.819-0.079-2.61-0.437-4.429c-0.354-1.818-0.75-2.817-0.869-3.203    c-0.156-0.514-0.354-0.829-1.225-0.829C51.582,16.519,16.828,16.519,16.828,16.519"/>
		
			<path fill="none" stroke="#000000" stroke-width="0.4" stroke-linecap="round" stroke-linejoin="round" stroke-miterlimit="500" d="    M53.559,16.992l0.982-0.623l-1.536,0.15 M16.078,16.519l-1.527-0.15l0.893,0.584 M16.828,16.519c-1.266,0-1.305,0.197-1.582,1.225    c-0.277,1.029-1.187,4.863-1.187,6.365c0,1.504,1.266,6.643,1.424,7.868c0.158,1.227,0.475,4.508,0.595,5.219    c0.117,0.713,0.236,1.106,1.106,1.187c0.87,0.08,8.422,0.397,10.318,0.397c1.899,0,10.518-0.517,10.518-0.517    s4.825,0.478,7.75,0.478c2.927,0,5.693-0.239,6.288-0.358c0.592-0.119,0.947-0.08,0.986-1.463c0.04-1.383,0.436-3.598,0.713-5.931    c0.276-2.332,1.186-4.192,1.226-6.009c0.039-1.819-0.079-2.61-0.437-4.429c-0.354-1.818-0.75-2.817-0.869-3.203    c-0.156-0.514-0.354-0.829-1.225-0.829C51.582,16.519,16.828,16.519,16.828,16.519z"/>
		
			<path fill="none" stroke="#000000" stroke-width="0.4" stroke-linecap="round" stroke-linejoin="round" stroke-miterlimit="500" d="    M48.976,28.012c0,0,1.041-4.063-0.129-8.556 M47.416,28.012c0,0,1.079-4.045-0.147-8.646 M45.859,28.012    c0,0,1.058-4.584-0.141-8.585 M44.3,28.012c0,0,1.04-4.51-0.093-8.425 M42.741,28.012c0,0,1.02-4.23-0.042-8.16 M41.182,28.012    c0,0,1.058-3.116,0.069-7.845 M39.492,28.419c-0.205,0.52,1.357-2.95,0.163-8.476 M37.823,28.793    c-0.205,0.519,1.539-3.545,0.199-9.073 M36.208,29.072c-0.206,0.519,1.743-4.066,0.24-9.503 M34.568,29.275    c-0.206,0.521,1.826-4.418,0.322-9.856 M32.972,29.425c-0.206,0.52,1.917-4.509,0.289-10.09 M31.413,29.537    c-0.205,0.52,1.93-4.702,0.304-10.282 M29.86,29.565c-0.204,0.521,1.918-4.76,0.29-10.342 M28.294,29.565    c-0.206,0.521,1.755-5.153,0.289-10.342 M26.744,29.505c0,0,1.871-4.684,0.288-10.282 M25.222,29.369    c0,0,1.825-4.502,0.243-10.099 M23.716,29.248c0,0,1.521-4.442,0.243-9.901 M22.256,29.019c0,0,1.476-4.137,0.198-9.598     M20.765,28.775c0,0,1.416-3.773,0.137-9.232"/>
		<path fill="#FFFFFF" stroke="#000000" stroke-width="0.4" d="M41.46,21.383c0,0-2.658-0.021-3.865,0.261    c-1.204,0.279-1.605,0.601-0.04,0.923c1.568,0.32,4.08,0.358,4.08,0.358S41.54,21.743,41.46,21.383"/>
		
			<path fill="none" stroke="#000000" stroke-width="0.4" stroke-linecap="round" stroke-linejoin="round" stroke-miterlimit="500" d="    M41.182,28.012c0,0,7.581,0.097,8.222,0.055c0.641-0.038,0.923-0.079,1.044-1.405c0.12-1.325,0.493-3.86-0.403-6.545    c-0.199-0.603-0.44-0.603-0.843-0.681c-0.401-0.081-4.095-0.323-7.951,0.731c0,0-5.783-0.933-10.883-0.974    c-3.577-0.028-9.317,0.281-9.961,0.361c-0.641,0.08-1.043,0.402-1.164,1.566c-0.12,1.166-0.393,3.896,0.081,6.265    c0.12,0.603,0.12,1.086,0.763,1.286c0.642,0.2,5.422,1.125,11.164,0.884C36.994,29.313,41.182,28.012,41.182,28.012z     M41.46,21.383c0,0-2.658-0.021-3.865,0.261c-1.204,0.279-1.605,0.601-0.04,0.923c1.568,0.32,4.08,0.358,4.08,0.358    S41.54,21.743,41.46,21.383z"/>
		
			<path fill="none" stroke="#000000" stroke-width="0.4" stroke-linecap="round" stroke-linejoin="round" stroke-miterlimit="500" d="    M40.836,30.559c0,0-1.178,5.836-4.07,9.904 M41.05,19.367c0,0-0.268-2.087-0.696-2.998 M16.954,19.85    c0.188-0.625,0.482-0.804,1.339-0.911c0.856-0.108,8.406-0.643,11.833-0.589c3.428,0.053,10.924,1.017,10.924,1.017    s3.855-0.803,5.462-0.856c1.605-0.054,3.801,0.215,4.391,0.32c0.589,0.108,0.855,0.269,1.07,0.857    c0.216,0.589,0.644,3.053,0.644,4.285s-0.59,4.766-0.858,5.515c-0.267,0.75-0.534,1.124-1.283,1.124    c-0.75,0-9.639-0.053-9.639-0.053s-4.605,1.444-10.71,1.713c-6.103,0.269-10.495-0.804-11.191-0.962    c-0.696-0.162-1.125-0.162-1.499-1.341c-0.375-1.176-0.963-3.48-1.018-5.032C16.364,23.383,16.793,20.385,16.954,19.85z"/>
		
			<path fill="none" stroke="#000000" stroke-width="0.4" stroke-linecap="round" stroke-linejoin="round" stroke-miterlimit="500" d="    M51.224,34.981c0,0.159-0.129,0.291-0.289,0.291h-6.624c-0.161,0-0.29-0.132-0.29-0.291v-1.403c0-0.158,0.129-0.288,0.29-0.288    h6.624c0.16,0,0.289,0.13,0.289,0.288V34.981z"/>
	</g>
	<text transform="matrix(1 0 0 1 141.2803 10.1812)" font-family="'Helvetica'" font-size="9.0004">vs2</text>
	<g>
		
			<rect x="2.758" y="30.386" fill="#FFFFFF" stroke="#000000" stroke-width="0.4" stroke-miterlimit="500" width="63.535" height="17.128"/>
	</g>
	
		<rect x="6.884" y="39.575" fill="#FFFFFF" stroke="#000000" stroke-width="0.4" stroke-miterlimit="500" width="7.916" height="5.802"/>
	<text transform="matrix(1 0 0 1 6.2314 37.6475)" font-family="'Helvetica'" font-size="7.6084">0a</text>
	
		<rect x="22.939" y="39.575" fill="#FFFFFF" stroke="#000000" stroke-width="0.4" stroke-miterlimit="500" width="7.916" height="5.802"/>
	<text transform="matrix(1 0 0 1 21.9277 37.6475)" font-family="'Helvetica'" font-size="7.6084">0b</text>
	
		<rect x="41.156" y="39.36" fill="#FFFFFF" stroke="#000000" stroke-width="0.4" stroke-miterlimit="500" width="7.916" height="5.802"/>
	<text transform="matrix(1 0 0 1 40.7173 37.6475)" font-family="'Helvetica'" font-size="7.6084">0c</text>
	
		<rect x="53.971" y="39.36" fill="#FFFFFF" stroke="#000000" stroke-width="0.4" stroke-miterlimit="500" width="7.916" height="5.802"/>
	<text transform="matrix(1 0 0 1 53.3184 37.6475)" font-family="'Helvetica'" font-size="7.6084">0d</text>
	
		<line fill="none" stroke="#000000" stroke-width="0.4" stroke-linecap="round" stroke-miterlimit="500" stroke-dasharray="2" x1="35.884" y1="47.488" x2="35.884" y2="30.958"/>
	<g>
		<polyline fill="#FFFFFF" stroke="#000000" stroke-width="0.4" points="165.59,17.047 158.893,12.395 135.127,12.395     128.012,17.024   "/>
		<polyline fill="none" stroke="#000000" stroke-width="0.4" stroke-linejoin="round" points="165.59,17.047 158.893,12.395     135.127,12.395 128.012,17.024   "/>
		<rect x="126.552" y="16.369" fill="#FFFFFF" stroke="#000000" stroke-width="0.4" width="39.991" height="24.081"/>
		
			<rect x="126.551" y="16.369" fill="none" stroke="#000000" stroke-width="0.4" stroke-linecap="round" stroke-linejoin="round" stroke-miterlimit="500" width="39.992" height="24.081"/>
		<path fill="#FFFFFF" stroke="#000000" stroke-width="0.4" d="M128.827,16.519c-1.266,0-1.305,0.197-1.582,1.225    c-0.276,1.029-1.186,4.863-1.186,6.365c0,1.504,1.267,6.643,1.425,7.868c0.156,1.227,0.475,4.508,0.593,5.219    c0.117,0.713,0.237,1.106,1.107,1.187s8.422,0.397,10.317,0.397c1.9,0,10.518-0.517,10.518-0.517s4.825,0.478,7.752,0.478    c2.926,0,5.693-0.239,6.286-0.358s0.948-0.08,0.986-1.463c0.041-1.383,0.437-3.598,0.713-5.931    c0.278-2.332,1.187-4.192,1.228-6.009c0.038-1.819-0.081-2.61-0.438-4.429c-0.354-1.818-0.75-2.817-0.87-3.203    c-0.155-0.514-0.354-0.829-1.225-0.829S128.827,16.519,128.827,16.519"/>
		
			<path fill="none" stroke="#000000" stroke-width="0.4" stroke-linecap="round" stroke-linejoin="round" stroke-miterlimit="500" d="    M165.561,16.992l0.982-0.623l-1.537,0.15 M128.077,16.519l-1.525-0.15l0.893,0.584 M128.827,16.519    c-1.266,0-1.305,0.197-1.582,1.225c-0.276,1.029-1.186,4.863-1.186,6.365c0,1.504,1.267,6.643,1.425,7.868    c0.156,1.227,0.475,4.508,0.593,5.219c0.117,0.713,0.237,1.106,1.107,1.187s8.422,0.397,10.317,0.397    c1.9,0,10.518-0.517,10.518-0.517s4.825,0.478,7.752,0.478c2.926,0,5.693-0.239,6.286-0.358s0.948-0.08,0.986-1.463    c0.041-1.383,0.437-3.598,0.713-5.931c0.278-2.332,1.187-4.192,1.228-6.009c0.038-1.819-0.081-2.61-0.438-4.429    c-0.354-1.818-0.75-2.817-0.87-3.203c-0.155-0.514-0.354-0.829-1.225-0.829S128.827,16.519,128.827,16.519z"/>
		
			<path fill="none" stroke="#000000" stroke-width="0.4" stroke-linecap="round" stroke-linejoin="round" stroke-miterlimit="500" d="    M160.977,28.012c0,0,1.041-4.063-0.129-8.556 M159.415,28.012c0,0,1.08-4.045-0.146-8.646 M157.859,28.012    c0,0,1.059-4.584-0.141-8.585 M156.301,28.012c0,0,1.039-4.51-0.095-8.425 M154.742,28.012c0,0,1.019-4.23-0.044-8.16     M153.182,28.012c0,0,1.058-3.116,0.07-7.845 M151.492,28.419c-0.206,0.52,1.356-2.95,0.164-8.476 M149.823,28.793    c-0.204,0.519,1.54-3.545,0.199-9.073 M148.209,29.072c-0.206,0.519,1.743-4.066,0.239-9.503 M146.568,29.275    c-0.205,0.521,1.825-4.418,0.321-9.856 M144.973,29.425c-0.207,0.52,1.917-4.509,0.288-10.09 M143.414,29.537    c-0.205,0.52,1.93-4.702,0.304-10.282 M141.86,29.565c-0.204,0.521,1.918-4.76,0.29-10.342 M140.294,29.565    c-0.205,0.521,1.755-5.153,0.29-10.342 M138.744,29.505c0,0,1.87-4.684,0.288-10.282 M137.223,29.369    c0,0,1.825-4.502,0.242-10.099 M135.716,29.248c0,0,1.522-4.442,0.243-9.901 M134.256,29.019c0,0,1.476-4.137,0.199-9.598     M132.765,28.775c0,0,1.417-3.773,0.138-9.232"/>
		<path fill="#FFFFFF" stroke="#000000" stroke-width="0.4" d="M153.46,21.383c0,0-2.658-0.021-3.865,0.261    c-1.204,0.279-1.605,0.601-0.039,0.923c1.567,0.32,4.08,0.358,4.08,0.358S153.54,21.743,153.46,21.383"/>
		
			<path fill="none" stroke="#000000" stroke-width="0.4" stroke-linecap="round" stroke-linejoin="round" stroke-miterlimit="500" d="    M153.182,28.012c0,0,7.582,0.097,8.222,0.055c0.641-0.038,0.924-0.079,1.045-1.405c0.12-1.325,0.492-3.86-0.404-6.545    c-0.199-0.603-0.438-0.603-0.842-0.681c-0.401-0.081-4.096-0.323-7.95,0.731c0,0-5.783-0.933-10.883-0.974    c-3.579-0.028-9.317,0.281-9.962,0.361c-0.642,0.08-1.043,0.402-1.163,1.566c-0.121,1.166-0.395,3.896,0.079,6.265    c0.121,0.603,0.121,1.086,0.765,1.286c0.641,0.2,5.422,1.125,11.164,0.884C148.994,29.313,153.182,28.012,153.182,28.012z     M153.46,21.383c0,0-2.658-0.021-3.865,0.261c-1.204,0.279-1.605,0.601-0.039,0.923c1.567,0.32,4.08,0.358,4.08,0.358    S153.54,21.743,153.46,21.383z"/>
		
			<path fill="none" stroke="#000000" stroke-width="0.4" stroke-linecap="round" stroke-linejoin="round" stroke-miterlimit="500" d="    M152.836,30.559c0,0-1.179,5.836-4.07,9.904 M153.051,19.367c0,0-0.269-2.087-0.697-2.998 M128.955,19.85    c0.188-0.625,0.48-0.804,1.339-0.911c0.856-0.108,8.404-0.643,11.833-0.589c3.428,0.053,10.924,1.017,10.924,1.017    s3.855-0.803,5.463-0.856c1.605-0.054,3.801,0.215,4.39,0.32c0.589,0.108,0.856,0.269,1.07,0.857    c0.216,0.589,0.644,3.053,0.644,4.285s-0.59,4.766-0.857,5.515c-0.268,0.75-0.536,1.124-1.283,1.124    c-0.75,0-9.641-0.053-9.641-0.053s-4.604,1.444-10.709,1.713s-10.496-0.804-11.191-0.962c-0.696-0.162-1.125-0.162-1.5-1.341    c-0.375-1.176-0.963-3.48-1.017-5.032C128.364,23.383,128.794,20.385,128.955,19.85z"/>
		
			<path fill="none" stroke="#000000" stroke-width="0.4" stroke-linecap="round" stroke-linejoin="round" stroke-miterlimit="500" d="    M163.224,34.981c0,0.159-0.129,0.291-0.288,0.291h-6.623c-0.16,0-0.29-0.132-0.29-0.291v-1.403c0-0.158,0.13-0.288,0.29-0.288    h6.623c0.159,0,0.288,0.13,0.288,0.288V34.981z"/>
	</g>
	<g>
		
			<rect x="114.758" y="30.386" fill="#FFFFFF" stroke="#000000" stroke-width="0.4" stroke-miterlimit="1" width="63.535" height="17.128"/>
	</g>
	
		<rect x="118.885" y="39.432" fill="#FFFFFF" stroke="#000000" stroke-width="0.4" stroke-miterlimit="500" width="7.916" height="5.802"/>
	<text transform="matrix(1 0 0 1 118.2334 37.2168)" font-family="'Helvetica'" font-size="7.6084">0a</text>
	
		<rect x="134.438" y="39.073" fill="#FFFFFF" stroke="#000000" stroke-width="0.4" stroke-miterlimit="500" width="7.915" height="5.802"/>
	<polyline fill="none" stroke="#FFFFFF" stroke-width="3" points="44.786,46.374 44.786,81.005 164.469,81.005  "/>
	<polyline fill="none" stroke="#000000" stroke-linecap="round" points="45.001,44.861 45.001,80.321 164.975,80.321    164.975,161.144 139.479,161.144  "/>
	<text transform="matrix(1 0 0 1 133.9287 37.6475)" font-family="'Helvetica'" font-size="7.6084">0b</text>
	
		<rect x="153.156" y="39.503" fill="#FFFFFF" stroke="#000000" stroke-width="0.4" stroke-miterlimit="500" width="7.916" height="5.802"/>
	<text transform="matrix(1 0 0 1 152.7178 37.6475)" font-family="'Helvetica'" font-size="7.6084">0c</text>
	
		<rect x="165.973" y="39.503" fill="#FFFFFF" stroke="#000000" stroke-width="0.4" stroke-miterlimit="500" width="7.916" height="5.802"/>
	<text transform="matrix(1 0 0 1 165.3193 37.6475)" font-family="'Helvetica'" font-size="7.6084">0d</text>
	
		<line fill="none" stroke="#000000" stroke-width="0.4" stroke-linecap="round" stroke-miterlimit="500" stroke-dasharray="2" x1="147.885" y1="47.488" x2="147.885" y2="30.958"/>
	<polyline fill="none" stroke="#FFFFFF" stroke-width="3" stroke-linecap="round" points="123.277,50.245 123.277,71.005    35.483,71.366  "/>
	<polyline fill="none" stroke="#000000" stroke-linecap="round" stroke-linejoin="round" stroke-dasharray="5,4" points="   123.132,42.376 123.132,72.084 17.191,72.225 17.191,140.111 24.596,140.111  "/>
	<rect x="31.033" y="127.533" fill="#D1D3D4" stroke="#000000" stroke-width="0.4" width="9.559" height="64.002"/>
	<rect x="123.432" y="127.533" fill="#D1D3D4" stroke="#000000" stroke-width="0.4" width="9.558" height="64.002"/>
	<ellipse fill="#FFFFFF" stroke="#000000" stroke-width="0.5" cx="132.948" cy="138.788" rx="6.449" ry="6.322"/>
	<path d="M124.489,139.495c0,0.838,0.68,1.518,1.521,1.518c0.838,0,1.518-0.68,1.518-1.518s-0.68-1.52-1.518-1.52   C125.169,137.976,124.489,138.657,124.489,139.495"/>
	<ellipse fill="#FFFFFF" stroke="#000000" stroke-width="0.5" cx="30.667" cy="139.341" rx="6.448" ry="6.324"/>
	<path d="M35.66,139.495c0,0.838,0.68,1.518,1.52,1.518s1.52-0.68,1.52-1.518s-0.68-1.52-1.52-1.52S35.66,138.657,35.66,139.495"/>
	<line fill="none" stroke="#000000" x1="38.4" y1="139.3" x2="125.527" y2="139.3"/>
	<ellipse fill="#FFFFFF" stroke="#000000" stroke-width="0.5" cx="132.948" cy="161.748" rx="6.449" ry="6.322"/>
	<path d="M124.489,162.455c0,0.838,0.68,1.518,1.521,1.518c0.838,0,1.518-0.68,1.518-1.518s-0.68-1.52-1.518-1.52   C125.169,160.936,124.489,161.617,124.489,162.455"/>
	<ellipse fill="#FFFFFF" stroke="#000000" stroke-width="0.5" cx="30.667" cy="162.301" rx="6.448" ry="6.324"/>
	<path d="M35.66,162.455c0,0.838,0.68,1.518,1.52,1.518s1.52-0.68,1.52-1.518s-0.68-1.52-1.52-1.52S35.66,161.617,35.66,162.455"/>
	<line fill="none" stroke="#000000" stroke-linecap="round" x1="38.4" y1="162.26" x2="125.527" y2="162.26"/>
	<rect x="49.192" y="136.021" fill="#FFFFFF" stroke="#000000" stroke-width="0.5" width="64.917" height="28.442"/>
	<text transform="matrix(1 0 0 1 59.9575 153.0957)" font-family="'Helvetica'" font-size="9.0004">LUN group</text>
	<line fill="none" stroke="#FFFFFF" stroke-width="3" x1="157.023" y1="47.087" x2="157.023" y2="95.647"/>
	<polyline fill="none" stroke="#000000" stroke-linecap="round" stroke-dasharray="5,4" points="156.973,45.993 156.973,138.322    139.677,138.322  "/>
	<text transform="matrix(1 0 0 1 25.7681 141.8535)" font-family="'Helvetica-Bold'" font-size="7.2003">1A</text>
	<text transform="matrix(1 0 0 1 25.7681 164.4639)" font-family="'Helvetica-Bold'" font-size="7.2003">1B</text>
	<text transform="matrix(1 0 0 1 128.2109 141.0127)" font-family="'Helvetica-Bold'" font-size="7.2003">2A</text>
	<text transform="matrix(1 0 0 1 128.2109 164.4639)" font-family="'Helvetica-Bold'" font-size="7.2003">2B</text>
	<rect x="10.906" y="197.027" fill="none" width="47.871" height="8.563"/>
	<text transform="matrix(1 0 0 1 11.5854 203.4893)" font-family="'Helvetica'" font-size="9">Controller 1</text>
	<rect x="107.12" y="197.027" fill="none" width="47.87" height="8.563"/>
	<text transform="matrix(1 0 0 1 107.7988 203.4893)" font-family="'Helvetica'" font-size="9">Controller 2</text>
</g>
</svg>