<?xml version="1.0" encoding="utf-8"?>
<!-- Generator: Adobe Illustrator 16.0.0, SVG Export Plug-In . SVG Version: 6.00 Build 0)  -->
<!DOCTYPE svg PUBLIC "-//W3C//DTD SVG 1.1//EN" "http://www.w3.org/Graphics/SVG/1.1/DTD/svg11.dtd">
<svg version="1.1" id="Layer_1" xmlns="http://www.w3.org/2000/svg" xmlns:xlink="http://www.w3.org/1999/xlink" x="0px" y="0px"
	 width="261px" height="353px" viewBox="0 0 261 353" enable-background="new 0 0 261 353" xml:space="preserve">
<path fill="#010101" d="M50.968,336.83c-0.764,0-1.358,0.246-1.783,0.738c-0.424,0.491-0.637,1.165-0.637,2.021
	c0,0.845,0.221,1.525,0.664,2.04s1.041,0.771,1.795,0.771c0.966,0,1.693-0.478,2.18-1.435l0.764,0.382
	c-0.284,0.594-0.684,1.047-1.199,1.355c-0.514,0.312-1.111,0.466-1.79,0.466c-0.695,0-1.297-0.145-1.805-0.434
	c-0.508-0.288-0.895-0.702-1.161-1.239s-0.399-1.174-0.399-1.907c0-1.102,0.297-1.963,0.892-2.586
	c0.594-0.624,1.417-0.936,2.469-0.936c0.735,0,1.349,0.143,1.842,0.431c0.493,0.287,0.855,0.713,1.087,1.278l-0.887,0.294
	c-0.16-0.401-0.417-0.709-0.771-0.922C51.875,336.937,51.455,336.83,50.968,336.83z M59.489,340.417
	c0,0.927-0.204,1.617-0.612,2.072c-0.409,0.453-1.001,0.68-1.779,0.68c-0.773,0-1.358-0.235-1.753-0.707s-0.592-1.153-0.592-2.045
	c0-1.829,0.792-2.743,2.375-2.743c0.81,0,1.407,0.222,1.789,0.67C59.298,338.787,59.489,339.481,59.489,340.417z M58.563,340.417
	c0-0.731-0.108-1.263-0.326-1.595c-0.217-0.331-0.582-0.498-1.094-0.498c-0.517,0-0.89,0.169-1.12,0.509
	c-0.23,0.337-0.346,0.865-0.346,1.584c0,0.699,0.114,1.224,0.341,1.574s0.583,0.526,1.07,0.526c0.529,0,0.907-0.168,1.134-0.51
	C58.45,341.669,58.563,341.139,58.563,340.417z M63.951,343.072v-3.36c0-0.35-0.034-0.62-0.104-0.813
	c-0.068-0.193-0.177-0.332-0.329-0.416c-0.149-0.086-0.37-0.128-0.661-0.128c-0.425,0-0.759,0.145-1.003,0.436
	c-0.246,0.291-0.368,0.695-0.368,1.209v3.073h-0.882v-4.169c0-0.617-0.01-0.995-0.029-1.132h0.832
	c0.004,0.017,0.007,0.061,0.01,0.132c0.003,0.072,0.007,0.154,0.012,0.248c0.004,0.094,0.011,0.269,0.017,0.525h0.015
	c0.203-0.365,0.437-0.624,0.703-0.774c0.267-0.153,0.597-0.229,0.992-0.229c0.582,0,1.007,0.145,1.276,0.433
	c0.27,0.289,0.405,0.767,0.405,1.433v3.533H63.951z M68.301,343.032c-0.291,0.078-0.588,0.118-0.892,0.118
	c-0.705,0-1.058-0.4-1.058-1.2v-3.537h-0.612v-0.642h0.647l0.259-1.186h0.587v1.186h0.98v0.642h-0.98v3.346
	c0,0.255,0.042,0.434,0.125,0.536c0.083,0.104,0.228,0.154,0.433,0.154c0.117,0,0.288-0.022,0.51-0.069V343.032z M69.062,343.072
	v-4.066c0-0.372-0.009-0.784-0.029-1.234h0.833c0.026,0.601,0.04,0.962,0.04,1.082h0.02c0.14-0.454,0.302-0.764,0.484-0.931
	c0.184-0.166,0.442-0.249,0.774-0.249c0.117,0,0.236,0.017,0.357,0.049v0.808c-0.117-0.033-0.274-0.048-0.47-0.048
	c-0.366,0-0.645,0.158-0.838,0.472c-0.193,0.315-0.289,0.767-0.289,1.354v2.764H69.062z M76.864,340.417
	c0,0.927-0.205,1.617-0.612,2.072c-0.409,0.453-1.001,0.68-1.778,0.68c-0.774,0-1.358-0.235-1.753-0.707
	c-0.396-0.472-0.593-1.153-0.593-2.045c0-1.829,0.792-2.743,2.376-2.743c0.81,0,1.406,0.222,1.788,0.67
	C76.673,338.787,76.864,339.481,76.864,340.417z M75.938,340.417c0-0.731-0.109-1.263-0.325-1.595
	c-0.218-0.331-0.583-0.498-1.095-0.498c-0.517,0-0.89,0.169-1.12,0.509c-0.23,0.337-0.345,0.865-0.345,1.584
	c0,0.699,0.114,1.224,0.341,1.574c0.227,0.351,0.583,0.526,1.069,0.526c0.529,0,0.908-0.168,1.134-0.51
	C75.825,341.669,75.938,341.139,75.938,340.417z M78.06,343.072v-7.27h0.882v7.27H78.06z M80.288,343.072v-7.27h0.881v7.27H80.288z
	 M83.19,340.606c0,0.609,0.125,1.077,0.377,1.407c0.251,0.33,0.618,0.494,1.101,0.494c0.383,0,0.689-0.076,0.919-0.23
	c0.23-0.152,0.386-0.347,0.467-0.583l0.774,0.222c-0.317,0.836-1.037,1.253-2.161,1.253c-0.783,0-1.38-0.234-1.79-0.7
	c-0.411-0.467-0.615-1.16-0.615-2.08c0-0.876,0.204-1.548,0.615-2.015c0.41-0.467,0.996-0.7,1.756-0.7
	c1.558,0,2.336,0.938,2.336,2.815v0.117H83.19z M86.061,339.932c-0.048-0.559-0.191-0.966-0.426-1.223
	c-0.235-0.256-0.573-0.385-1.014-0.385c-0.428,0-0.767,0.142-1.017,0.43c-0.25,0.285-0.384,0.678-0.404,1.178H86.061z
	 M88.212,343.072v-4.066c0-0.372-0.01-0.784-0.03-1.234h0.833c0.026,0.601,0.039,0.962,0.039,1.082h0.02
	c0.141-0.454,0.302-0.764,0.485-0.931c0.183-0.166,0.441-0.249,0.774-0.249c0.117,0,0.236,0.017,0.357,0.049v0.808
	c-0.117-0.033-0.274-0.048-0.469-0.048c-0.367,0-0.646,0.158-0.838,0.472c-0.192,0.315-0.289,0.767-0.289,1.354v2.764H88.212z
	 M94.4,343.072v-0.75h1.758v-5.311l-1.557,1.112v-0.832l1.63-1.122h0.813v6.152h1.68v0.75H94.4z"/>
<path fill="#010101" d="M169.35,336.83c-0.764,0-1.357,0.246-1.781,0.738c-0.424,0.491-0.639,1.165-0.639,2.021
	c0,0.845,0.221,1.525,0.665,2.04c0.44,0.515,1.04,0.771,1.794,0.771c0.967,0,1.692-0.478,2.18-1.435l0.765,0.382
	c-0.284,0.594-0.683,1.047-1.196,1.355c-0.517,0.312-1.114,0.466-1.793,0.466c-0.695,0-1.297-0.145-1.805-0.434
	c-0.507-0.288-0.894-0.702-1.16-1.239s-0.4-1.174-0.4-1.907c0-1.102,0.299-1.963,0.893-2.586c0.596-0.624,1.416-0.936,2.468-0.936
	c0.737,0,1.35,0.143,1.843,0.431c0.494,0.287,0.855,0.713,1.088,1.278l-0.887,0.294c-0.161-0.401-0.416-0.709-0.771-0.922
	C170.256,336.937,169.838,336.83,169.35,336.83z M177.76,340.417c0,0.927-0.204,1.617-0.613,2.072
	c-0.408,0.453-0.998,0.68-1.776,0.68c-0.773,0-1.358-0.235-1.752-0.707c-0.396-0.472-0.595-1.153-0.595-2.045
	c0-1.829,0.792-2.743,2.376-2.743c0.811,0,1.407,0.222,1.788,0.67C177.57,338.787,177.76,339.481,177.76,340.417z M176.835,340.417
	c0-0.731-0.108-1.263-0.325-1.595c-0.218-0.331-0.583-0.498-1.096-0.498c-0.515,0-0.889,0.169-1.118,0.509
	c-0.229,0.337-0.346,0.865-0.346,1.584c0,0.699,0.112,1.224,0.34,1.574c0.227,0.351,0.585,0.526,1.071,0.526
	c0.527,0,0.907-0.168,1.134-0.51C176.721,341.669,176.835,341.139,176.835,340.417z M182.323,343.072v-3.36
	c0-0.35-0.034-0.62-0.103-0.813s-0.18-0.332-0.33-0.416c-0.148-0.086-0.369-0.128-0.66-0.128c-0.424,0-0.76,0.145-1.004,0.436
	c-0.246,0.291-0.366,0.695-0.366,1.209v3.073h-0.882v-4.169c0-0.617-0.011-0.995-0.03-1.132h0.832
	c0.004,0.017,0.008,0.061,0.012,0.132c0.003,0.072,0.005,0.154,0.012,0.248c0.003,0.094,0.011,0.269,0.016,0.525h0.016
	c0.201-0.365,0.437-0.624,0.703-0.774c0.265-0.153,0.597-0.229,0.991-0.229c0.581,0,1.007,0.145,1.275,0.433
	c0.27,0.289,0.406,0.767,0.406,1.433v3.533H182.323z M186.574,343.032c-0.29,0.078-0.589,0.118-0.892,0.118
	c-0.705,0-1.06-0.4-1.06-1.2v-3.537h-0.611v-0.642h0.647l0.259-1.186h0.588v1.186h0.979v0.642h-0.979v3.346
	c0,0.255,0.041,0.434,0.124,0.536c0.084,0.104,0.229,0.154,0.435,0.154c0.117,0,0.288-0.022,0.51-0.069V343.032z M187.333,343.072
	v-4.066c0-0.372-0.009-0.784-0.029-1.234h0.831c0.028,0.601,0.042,0.962,0.042,1.082h0.019c0.139-0.454,0.304-0.764,0.485-0.931
	c0.183-0.166,0.442-0.249,0.774-0.249c0.118,0,0.235,0.017,0.356,0.049v0.808c-0.119-0.033-0.274-0.048-0.47-0.048
	c-0.366,0-0.646,0.158-0.838,0.472c-0.192,0.315-0.289,0.767-0.289,1.354v2.764H187.333z M195.137,340.417
	c0,0.927-0.205,1.617-0.613,2.072c-0.407,0.453-1.001,0.68-1.777,0.68c-0.774,0-1.358-0.235-1.755-0.707
	c-0.394-0.472-0.591-1.153-0.591-2.045c0-1.829,0.79-2.743,2.374-2.743c0.812,0,1.405,0.222,1.787,0.67
	C194.944,338.787,195.137,339.481,195.137,340.417z M194.21,340.417c0-0.731-0.106-1.263-0.326-1.595
	c-0.216-0.331-0.582-0.498-1.095-0.498c-0.516,0-0.888,0.169-1.118,0.509c-0.23,0.337-0.346,0.865-0.346,1.584
	c0,0.699,0.114,1.224,0.341,1.574c0.228,0.351,0.583,0.526,1.069,0.526c0.528,0,0.906-0.168,1.135-0.51
	C194.096,341.669,194.21,341.139,194.21,340.417z M196.333,343.072v-7.27h0.881v7.27H196.333z M198.56,343.072v-7.27h0.882v7.27
	H198.56z M201.562,340.606c0,0.609,0.126,1.077,0.377,1.407c0.253,0.33,0.62,0.494,1.102,0.494c0.383,0,0.69-0.076,0.92-0.23
	c0.231-0.152,0.385-0.347,0.467-0.583l0.775,0.222c-0.317,0.836-1.037,1.253-2.162,1.253c-0.783,0-1.38-0.234-1.788-0.7
	c-0.41-0.467-0.615-1.16-0.615-2.08c0-0.876,0.205-1.548,0.615-2.015c0.408-0.467,0.993-0.7,1.756-0.7
	c1.556,0,2.336,0.938,2.336,2.815v0.117H201.562z M204.432,339.932c-0.048-0.559-0.189-0.966-0.426-1.223
	c-0.233-0.256-0.572-0.385-1.014-0.385c-0.429,0-0.767,0.142-1.017,0.43c-0.249,0.285-0.384,0.678-0.403,1.178H204.432z
	 M206.483,343.072v-4.066c0-0.372-0.008-0.784-0.029-1.234h0.835c0.024,0.601,0.038,0.962,0.038,1.082h0.019
	c0.142-0.454,0.303-0.764,0.486-0.931c0.183-0.166,0.44-0.249,0.773-0.249c0.117,0,0.235,0.017,0.357,0.049v0.808
	c-0.118-0.033-0.274-0.048-0.47-0.048c-0.367,0-0.646,0.158-0.839,0.472c-0.192,0.315-0.289,0.767-0.289,1.354v2.764H206.483z
	 M212.414,343.072v-0.623c0.165-0.382,0.369-0.719,0.607-1.012c0.242-0.292,0.493-0.558,0.757-0.793
	c0.266-0.237,0.528-0.456,0.787-0.659c0.261-0.202,0.493-0.404,0.702-0.606c0.209-0.204,0.38-0.415,0.508-0.638
	c0.13-0.222,0.193-0.474,0.193-0.754c0-0.38-0.112-0.673-0.332-0.881c-0.223-0.21-0.532-0.313-0.928-0.313
	c-0.375,0-0.685,0.1-0.927,0.306c-0.244,0.202-0.388,0.49-0.43,0.859l-0.899-0.085c0.063-0.551,0.299-0.989,0.702-1.316
	c0.402-0.325,0.922-0.489,1.554-0.489c0.696,0,1.23,0.164,1.604,0.492c0.375,0.327,0.561,0.795,0.561,1.398
	c0,0.268-0.06,0.533-0.183,0.798c-0.122,0.264-0.304,0.529-0.547,0.794c-0.242,0.265-0.704,0.674-1.386,1.229
	c-0.375,0.308-0.674,0.584-0.896,0.829c-0.224,0.247-0.382,0.485-0.48,0.714h3.6v0.75H212.414z"/>
<polygon fill-rule="evenodd" clip-rule="evenodd" fill="#FFFFFF" points="227.148,16.817 219.681,11.578 193.153,11.578 
	185.237,16.706 "/>
<polygon fill="none" stroke="#010101" stroke-width="0.3962" stroke-linejoin="round" stroke-miterlimit="10" points="
	227.148,16.817 219.681,11.578 193.153,11.578 185.237,16.706 "/>
<polyline fill="none" stroke="#010101" stroke-width="0.3962" stroke-linejoin="round" stroke-miterlimit="10" points="
	227.148,16.817 219.681,11.578 193.153,11.578 185.237,16.706 "/>
<polygon fill-rule="evenodd" clip-rule="evenodd" fill="#FFFFFF" points="205.857,42.899 183.566,42.899 183.566,16.037 
	228.263,16.037 228.263,42.899 "/>
<polygon fill="none" stroke="#010101" stroke-width="0.3962" stroke-linejoin="round" stroke-miterlimit="10" points="
	205.857,42.899 183.566,42.899 183.566,16.037 228.263,16.037 228.263,42.899 "/>
<polygon fill="none" stroke="#010101" stroke-width="0.3962" stroke-linejoin="round" stroke-miterlimit="10" points="
	205.857,42.899 183.566,42.899 183.566,16.037 228.263,16.037 228.263,42.899 "/>
<path fill-rule="evenodd" clip-rule="evenodd" fill="#FFFFFF" d="M186.13,16.148c-1.451,0-1.451,0.223-1.784,1.337
	c-0.333,1.227-1.337,5.462-1.337,7.134c0,1.672,1.449,7.468,1.562,8.806c0.222,1.337,0.557,5.017,0.666,5.796
	c0.113,0.78,0.336,1.226,1.228,1.337c1.003,0.112,9.475,0.446,11.593,0.446c2.117,0,11.702-0.557,11.702-0.557
	s5.353,0.557,8.695,0.557c3.231,0,6.353-0.334,7.022-0.446c0.557-0.111,1.002-0.111,1.002-1.56c0.111-1.561,0.557-4.013,0.781-6.688
	c0.334-2.564,1.338-4.682,1.448-6.688c0-2.007-0.11-2.898-0.558-5.016c-0.334-2.007-0.779-3.122-0.891-3.567
	c-0.225-0.558-0.446-0.892-1.338-0.892C224.919,16.148,186.13,16.148,186.13,16.148z"/>
<path fill="none" stroke="#010101" stroke-width="0.3962" stroke-linejoin="round" stroke-miterlimit="10" d="M186.13,16.148
	c-1.451,0-1.451,0.223-1.784,1.337c-0.333,1.227-1.337,5.462-1.337,7.134c0,1.672,1.449,7.468,1.562,8.806
	c0.222,1.337,0.557,5.017,0.666,5.796c0.113,0.78,0.336,1.226,1.228,1.337c1.003,0.112,9.475,0.446,11.593,0.446
	c2.117,0,11.702-0.557,11.702-0.557s5.353,0.557,8.695,0.557c3.231,0,6.353-0.334,7.022-0.446c0.557-0.111,1.002-0.111,1.002-1.56
	c0.111-1.561,0.557-4.013,0.781-6.688c0.334-2.564,1.338-4.682,1.448-6.688c0-2.007-0.11-2.898-0.558-5.016
	c-0.334-2.007-0.779-3.122-0.891-3.567c-0.225-0.558-0.446-0.892-1.338-0.892C224.919,16.148,186.13,16.148,186.13,16.148z"/>
<polyline fill="none" stroke="#010101" stroke-width="0.3962" stroke-linejoin="round" stroke-miterlimit="10" points="
	227.148,16.706 228.151,16.037 226.479,16.148 "/>
<polyline fill="none" stroke="#010101" stroke-width="0.3962" stroke-linejoin="round" stroke-miterlimit="10" points="
	185.237,16.148 183.566,16.037 184.571,16.706 "/>
<path fill="none" stroke="#010101" stroke-width="0.3962" stroke-linejoin="round" stroke-miterlimit="10" d="M186.13,16.148
	c-1.451,0-1.451,0.223-1.784,1.449c-0.333,1.114-1.337,5.35-1.337,7.021c0,1.672,1.449,7.468,1.562,8.806
	c0.222,1.337,0.557,5.017,0.666,5.796c0.113,0.78,0.336,1.226,1.228,1.337c1.003,0.112,9.475,0.446,11.593,0.446
	c2.117,0,11.702-0.557,11.702-0.557s5.353,0.557,8.695,0.557c3.231,0,6.353-0.334,7.022-0.446c0.557-0.111,1.002-0.111,1.002-1.56
	c0.111-1.561,0.557-4.013,0.781-6.688c0.334-2.564,1.338-4.682,1.448-6.688c0-2.007-0.11-2.898-0.558-4.904
	c-0.334-2.007-0.779-3.233-0.891-3.567c-0.225-0.669-0.446-1.003-1.338-1.003C224.919,16.148,186.13,16.148,186.13,16.148z"/>
<path fill="none" stroke="#010101" stroke-width="0.3962" stroke-linejoin="round" stroke-miterlimit="10" d="M222.02,28.967
	c0,0,1.115-4.57-0.11-9.586"/>
<path fill="none" stroke="#010101" stroke-width="0.3962" stroke-linejoin="round" stroke-miterlimit="10" d="M220.238,28.967
	c0,0,1.226-4.458-0.112-9.586"/>
<path fill="none" stroke="#010101" stroke-width="0.3962" stroke-linejoin="round" stroke-miterlimit="10" d="M218.566,28.967
	c0,0,1.115-5.127-0.225-9.586"/>
<path fill="none" stroke="#010101" stroke-width="0.3962" stroke-linejoin="round" stroke-miterlimit="10" d="M216.782,28.967
	c0,0,1.115-5.016-0.11-9.363"/>
<path fill="none" stroke="#010101" stroke-width="0.3962" stroke-linejoin="round" stroke-miterlimit="10" d="M215,28.967
	c0,0,1.226-4.682,0-9.14"/>
<path fill="none" stroke="#010101" stroke-width="0.3962" stroke-linejoin="round" stroke-miterlimit="10" d="M213.328,28.967
	c0,0,1.114-3.455,0.112-8.806"/>
<path fill="none" stroke="#010101" stroke-width="0.3962" stroke-linejoin="round" stroke-miterlimit="10" d="M211.431,29.413
	c-0.221,0.668,1.451-3.233,0.113-9.475"/>
<path fill="none" stroke="#010101" stroke-width="0.3962" stroke-linejoin="round" stroke-miterlimit="10" d="M209.539,29.858
	c-0.226,0.558,1.782-4.013,0.221-10.143"/>
<path fill="none" stroke="#010101" stroke-width="0.3962" stroke-linejoin="round" stroke-miterlimit="10" d="M207.754,30.193
	c-0.225,0.557,1.895-4.57,0.222-10.59"/>
<path fill="none" stroke="#010101" stroke-width="0.3962" stroke-linejoin="round" stroke-miterlimit="10" d="M205.97,30.416
	c-0.334,0.557,2.006-4.904,0.335-11.035"/>
<path fill="none" stroke="#010101" stroke-width="0.3962" stroke-linejoin="round" stroke-miterlimit="10" d="M204.186,30.527
	c-0.222,0.669,2.119-5.015,0.224-11.258"/>
<path fill="none" stroke="#010101" stroke-width="0.3962" stroke-linejoin="round" stroke-miterlimit="10" d="M202.403,30.75
	c-0.221,0.557,2.119-5.351,0.335-11.593"/>
<path fill="none" stroke="#010101" stroke-width="0.3962" stroke-linejoin="round" stroke-miterlimit="10" d="M200.622,30.75
	c-0.224,0.557,2.229-5.351,0.333-11.593"/>
<path fill="none" stroke="#010101" stroke-width="0.3962" stroke-linejoin="round" stroke-miterlimit="10" d="M198.949,30.75
	c-0.222,0.557,1.895-5.797,0.335-11.593"/>
<path fill="none" stroke="#010101" stroke-width="0.3962" stroke-linejoin="round" stroke-miterlimit="10" d="M197.165,30.639
	c0,0,2.119-5.239,0.335-11.481"/>
<path fill="none" stroke="#010101" stroke-width="0.3962" stroke-linejoin="round" stroke-miterlimit="10" d="M195.493,30.527
	c0,0,2.007-5.015,0.223-11.258"/>
<path fill="none" stroke="#010101" stroke-width="0.3962" stroke-linejoin="round" stroke-miterlimit="10" d="M193.821,30.416
	c0,0,1.672-5.017,0.222-11.147"/>
<path fill="none" stroke="#010101" stroke-width="0.3962" stroke-linejoin="round" stroke-miterlimit="10" d="M192.149,30.081
	c0,0,1.672-4.569,0.223-10.7"/>
<path fill="none" stroke="#010101" stroke-width="0.3962" stroke-linejoin="round" stroke-miterlimit="10" d="M190.476,29.858
	c0,0,1.673-4.235,0.224-10.366"/>
<path fill-rule="evenodd" clip-rule="evenodd" fill="#FFFFFF" d="M213.661,21.61c0,0-3.008-0.111-4.348,0.223
	c-1.337,0.334-1.783,0.668-0.111,1.115c1.785,0.333,4.57,0.333,4.57,0.333S213.661,21.944,213.661,21.61z"/>
<path fill="none" stroke="#010101" stroke-width="0.3962" stroke-linejoin="round" stroke-miterlimit="10" d="M213.661,21.61
	c0,0-3.008-0.111-4.348,0.223c-1.337,0.334-1.783,0.668-0.111,1.115c1.785,0.333,4.57,0.333,4.57,0.333
	S213.661,21.944,213.661,21.61z"/>
<path fill="none" stroke="#010101" stroke-width="0.3962" stroke-linejoin="round" stroke-miterlimit="10" d="M213.215,28.967
	c0,0,8.471,0.111,9.252,0.111c0.668,0,1.002-0.111,1.115-1.561c0.223-1.561,0.557-4.347-0.447-7.356
	c-0.223-0.669-0.444-0.669-0.892-0.78c-0.446,0-4.57-0.334-8.916,0.78c0,0-6.465-1.003-12.149-1.003
	c-4.014,0-10.367,0.334-11.036,0.446c-0.78,0-1.226,0.334-1.338,1.673c-0.11,1.337-0.445,4.347,0.112,7.021
	c0.11,0.669,0.11,1.226,0.78,1.448c0.779,0.224,6.131,1.227,12.485,1.004C208.644,30.416,213.215,28.967,213.215,28.967z"/>
<path fill="none" stroke="#010101" stroke-width="0.3962" stroke-linejoin="round" stroke-miterlimit="10" d="M213.549,21.61
	c0,0-2.896,0-4.236,0.223c-1.337,0.334-1.783,0.668-0.111,1.115c1.785,0.333,4.57,0.333,4.57,0.333S213.661,21.944,213.549,21.61z"
	/>
<path fill="none" stroke="#010101" stroke-width="0.3962" stroke-linejoin="round" stroke-miterlimit="10" d="M212.882,31.865
	c0,0-1.338,6.465-4.459,11.035"/>
<path fill="none" stroke="#010101" stroke-width="0.3962" stroke-linejoin="round" stroke-miterlimit="10" d="M213.104,19.381
	c0,0-0.334-2.341-0.778-3.344"/>
<path fill="none" stroke="#010101" stroke-width="0.3962" stroke-linejoin="round" stroke-miterlimit="10" d="M186.24,19.938
	c0.225-0.78,0.558-0.892,1.45-1.003c1.004-0.223,9.475-0.781,13.265-0.668c3.788,0,12.149,1.114,12.149,1.114
	s4.348-0.892,6.13-1.003c1.784,0,4.235,0.222,4.905,0.334c0.668,0.223,0.891,0.334,1.226,1.003c0.223,0.668,0.669,3.456,0.669,4.793
	c0,1.337-0.669,5.35-1.004,6.13c-0.223,0.892-0.558,1.226-1.337,1.226c-0.893,0-10.811,0-10.811,0s-5.128,1.561-11.928,1.894
	c-6.799,0.336-11.703-0.891-12.485-1.114c-0.779-0.111-1.225-0.111-1.672-1.449c-0.445-1.338-1.112-3.902-1.112-5.573
	C185.573,23.839,186.018,20.495,186.24,19.938z"/>
<path fill="none" stroke="#010101" stroke-width="0.3962" stroke-linejoin="round" stroke-miterlimit="10" d="M224.472,36.77
	c0,0.222-0.109,0.333-0.333,0.333h-7.357c-0.222,0-0.335-0.111-0.335-0.333v-1.561c0-0.223,0.113-0.334,0.335-0.334h7.357
	c0.224,0,0.333,0.111,0.333,0.334V36.77z"/>
<polygon fill-rule="evenodd" clip-rule="evenodd" fill="#FFFFFF" points="206.416,55.216 170.972,55.216 170.972,32.143 
	241.862,32.143 241.862,55.216 "/>
<polygon fill="none" stroke="#010101" stroke-width="0.3962" stroke-linejoin="round" stroke-miterlimit="10" points="
	206.416,54.938 170.972,54.938 170.972,31.865 241.862,31.865 241.862,54.938 "/>
<polygon fill="none" stroke="#010101" stroke-width="0.3962" stroke-miterlimit="7.6613" points="198.727,308.072 179.22,308.072 
	179.22,206.751 218.231,206.751 218.231,308.072 "/>
<polyline fill="none" stroke="#010101" stroke-width="0.3962" stroke-miterlimit="7.6613" points="215.333,306.066 215.333,209.092 
	182.229,209.092 182.34,306.066 "/>
<path fill-rule="evenodd" clip-rule="evenodd" fill="#FFFFFF" d="M184.679,310.636c0.671,0,1.229-0.445,1.229-1.115
	c0-0.669-0.558-1.226-1.229-1.226c-0.556,0-1.113,0.557-1.113,1.226C183.566,310.19,184.124,310.636,184.679,310.636z"/>
<path fill="none" stroke="#010101" stroke-width="0.3962" stroke-miterlimit="7.6613" d="M184.679,310.636
	c0.671,0,1.229-0.445,1.229-1.115c0-0.669-0.558-1.226-1.229-1.226c-0.556,0-1.113,0.557-1.113,1.226
	C183.566,310.19,184.124,310.636,184.679,310.636z"/>
<line fill="none" stroke="#010101" stroke-width="0.3962" stroke-miterlimit="7.6613" x1="183.901" y1="308.072" x2="183.901" y2="307.849"/>
<rect x="182.34" y="307.849" fill="none" stroke="#010101" stroke-width="0.3962" stroke-miterlimit="7.6613" width="3.01" height="0.334"/>
<line fill="none" stroke="#010101" stroke-width="0.3962" stroke-miterlimit="7.6613" x1="183.901" y1="309.521" x2="183.901" y2="308.072"/>
<rect x="183.566" y="308.072" fill="none" stroke="#010101" stroke-width="0.3962" stroke-miterlimit="7.6613" width="0.67" height="1.448"/>
<path fill-rule="evenodd" clip-rule="evenodd" fill="#FFFFFF" d="M214.554,310.636c0.558,0,1.114-0.445,1.114-1.115
	c0-0.669-0.557-1.226-1.114-1.226c-0.67,0-1.227,0.557-1.227,1.226C213.328,310.19,213.884,310.636,214.554,310.636z"/>
<path fill="none" stroke="#010101" stroke-width="0.3962" stroke-miterlimit="7.6613" d="M214.554,310.636
	c0.558,0,1.114-0.445,1.114-1.115c0-0.669-0.557-1.226-1.114-1.226c-0.67,0-1.227,0.557-1.227,1.226
	C213.328,310.19,213.884,310.636,214.554,310.636z"/>
<line fill="none" stroke="#010101" stroke-width="0.3962" stroke-miterlimit="7.6613" x1="213.661" y1="308.072" x2="213.661" y2="307.849"/>
<rect x="212.1" y="307.849" fill="none" stroke="#010101" stroke-width="0.3962" stroke-miterlimit="7.6613" width="3.122" height="0.334"/>
<line fill="none" stroke="#010101" stroke-width="0.3962" stroke-miterlimit="7.6613" x1="213.661" y1="309.521" x2="213.661" y2="308.072"/>
<rect x="213.328" y="308.072" fill="none" stroke="#010101" stroke-width="0.3962" stroke-miterlimit="7.6613" width="0.557" height="1.448"/>
<line fill="none" stroke="#010101" stroke-width="0.3962" stroke-miterlimit="7.6613" x1="179.22" y1="305.842" x2="218.009" y2="305.842"/>
<line fill="none" stroke="#010101" stroke-width="0.3962" stroke-miterlimit="7.6613" x1="182.117" y1="211.322" x2="215.112" y2="211.322"/>
<line fill="none" stroke="#010101" stroke-width="0.3962" stroke-miterlimit="7.6613" x1="182.117" y1="220.461" x2="215.112" y2="220.461"/>
<polygon fill-rule="evenodd" clip-rule="evenodd" fill="#D2D3D4" points="71.546,326.353 66.306,326.353 66.306,218.678 
	76.896,218.678 76.896,326.353 "/>
<polygon fill="none" stroke="#010101" stroke-width="0.3962" stroke-miterlimit="7.6613" points="71.546,326.353 66.306,326.353 
	66.306,218.678 76.896,218.678 76.896,326.353 "/>
<rect x="188.025" y="218.678" fill-rule="evenodd" clip-rule="evenodd" fill="#D2D3D4" width="10.702" height="107.675"/>
<rect x="188.025" y="218.678" fill="none" stroke="#010101" stroke-width="0.3962" stroke-miterlimit="7.6613" width="10.702" height="107.675"/>
<line fill="none" stroke="#010101" stroke-width="2.0093" stroke-miterlimit="7.6613" x1="83.137" y1="29.636" x2="184.903" y2="29.636"/>
<line fill="none" stroke="#010101" stroke-width="2.0093" stroke-miterlimit="7.6613" x1="83.137" y1="20.719" x2="184.903" y2="20.719"/>
<line fill="none" stroke="#010101" stroke-width="0.9905" stroke-miterlimit="7.6613" x1="65.192" y1="231.942" x2="205.19" y2="231.942"/>
<line fill="none" stroke="#010101" stroke-width="0.9905" stroke-miterlimit="7.6613" x1="65.192" y1="251.448" x2="205.19" y2="251.448"/>
<line fill="none" stroke="#010101" stroke-width="0.9905" stroke-miterlimit="7.6613" x1="65.192" y1="294.249" x2="205.19" y2="294.249"/>
<line fill="none" stroke="#010101" stroke-width="0.9905" stroke-miterlimit="7.6613" x1="65.192" y1="273.519" x2="205.19" y2="273.519"/>
<polygon fill-rule="evenodd" clip-rule="evenodd" fill="#FFFFFF" points="81.354,16.817 73.886,11.578 47.357,11.578 39.443,16.706 
	"/>
<polygon fill="none" stroke="#010101" stroke-width="0.3962" stroke-linejoin="round" stroke-miterlimit="10" points="
	81.354,16.817 73.886,11.578 47.357,11.578 39.443,16.706 "/>
<polyline fill="none" stroke="#010101" stroke-width="0.3962" stroke-linejoin="round" stroke-miterlimit="10" points="
	81.354,16.817 73.886,11.578 47.357,11.578 39.443,16.706 "/>
<polygon fill-rule="evenodd" clip-rule="evenodd" fill="#FFFFFF" points="60.064,42.899 37.771,42.899 37.771,16.037 82.357,16.037 
	82.357,42.899 "/>
<polygon fill="none" stroke="#010101" stroke-width="0.3962" stroke-linejoin="round" stroke-miterlimit="10" points="
	60.064,42.899 37.771,42.899 37.771,16.037 82.357,16.037 82.357,42.899 "/>
<polygon fill="none" stroke="#010101" stroke-width="0.3962" stroke-linejoin="round" stroke-miterlimit="10" points="
	60.064,42.899 37.771,42.899 37.771,16.037 82.357,16.037 82.357,42.899 "/>
<path fill-rule="evenodd" clip-rule="evenodd" fill="#FFFFFF" d="M40.335,16.148c-1.45,0-1.45,0.223-1.784,1.337
	c-0.334,1.227-1.338,5.462-1.338,7.134c0,1.672,1.449,7.468,1.561,8.806c0.223,1.337,0.558,5.017,0.668,5.796
	c0.112,0.78,0.334,1.226,1.226,1.337c1.003,0.112,9.475,0.446,11.592,0.446c2.118,0,11.704-0.557,11.704-0.557
	s5.351,0.557,8.583,0.557c3.344,0,6.354-0.334,7.022-0.446c0.668-0.111,1.114-0.111,1.114-1.56c0.111-1.561,0.557-4.013,0.78-6.688
	c0.334-2.564,1.338-4.682,1.449-6.688c0-2.007-0.111-2.898-0.557-5.016c-0.334-2.007-0.78-3.122-0.892-3.567
	c-0.223-0.558-0.445-0.892-1.449-0.892C79.125,16.148,40.335,16.148,40.335,16.148z"/>
<path fill="none" stroke="#010101" stroke-width="0.3962" stroke-linejoin="round" stroke-miterlimit="10" d="M40.335,16.148
	c-1.45,0-1.45,0.223-1.784,1.337c-0.334,1.227-1.338,5.462-1.338,7.134c0,1.672,1.449,7.468,1.561,8.806
	c0.223,1.337,0.558,5.017,0.668,5.796c0.112,0.78,0.334,1.226,1.226,1.337c1.003,0.112,9.475,0.446,11.592,0.446
	c2.118,0,11.704-0.557,11.704-0.557s5.351,0.557,8.583,0.557c3.344,0,6.354-0.334,7.022-0.446c0.668-0.111,1.114-0.111,1.114-1.56
	c0.111-1.561,0.557-4.013,0.78-6.688c0.334-2.564,1.338-4.682,1.449-6.688c0-2.007-0.111-2.898-0.557-5.016
	c-0.334-2.007-0.78-3.122-0.892-3.567c-0.223-0.558-0.445-0.892-1.449-0.892C79.125,16.148,40.335,16.148,40.335,16.148z"/>
<polyline fill="none" stroke="#010101" stroke-width="0.3962" stroke-linejoin="round" stroke-miterlimit="10" points="
	81.242,16.706 82.357,16.037 80.685,16.148 "/>
<polyline fill="none" stroke="#010101" stroke-width="0.3962" stroke-linejoin="round" stroke-miterlimit="10" points="
	39.443,16.148 37.771,16.037 38.775,16.706 "/>
<path fill="none" stroke="#010101" stroke-width="0.3962" stroke-linejoin="round" stroke-miterlimit="10" d="M40.335,16.148
	c-1.45,0-1.45,0.223-1.784,1.449c-0.334,1.114-1.338,5.35-1.338,7.021c0,1.672,1.449,7.468,1.561,8.806
	c0.223,1.337,0.558,5.017,0.668,5.796c0.112,0.78,0.334,1.226,1.226,1.337c1.003,0.112,9.475,0.446,11.592,0.446
	c2.118,0,11.704-0.557,11.704-0.557s5.351,0.557,8.583,0.557c3.344,0,6.354-0.334,7.022-0.446c0.668-0.111,1.114-0.111,1.114-1.56
	c0.111-1.561,0.557-4.013,0.78-6.688c0.334-2.564,1.338-4.682,1.449-6.688c0-2.007-0.111-2.898-0.557-4.904
	c-0.334-2.007-0.78-3.233-0.892-3.567c-0.223-0.669-0.445-1.003-1.449-1.003C79.125,16.148,40.335,16.148,40.335,16.148z"/>
<path fill="none" stroke="#010101" stroke-width="0.3962" stroke-linejoin="round" stroke-miterlimit="10" d="M76.227,28.967
	c0,0,1.114-4.57-0.223-9.586"/>
<path fill="none" stroke="#010101" stroke-width="0.3962" stroke-linejoin="round" stroke-miterlimit="10" d="M74.443,28.967
	c0,0,1.225-4.458-0.112-9.586"/>
<path fill="none" stroke="#010101" stroke-width="0.3962" stroke-linejoin="round" stroke-miterlimit="10" d="M72.66,28.967
	c0,0,1.227-5.127-0.111-9.586"/>
<path fill="none" stroke="#010101" stroke-width="0.3962" stroke-linejoin="round" stroke-miterlimit="10" d="M70.988,28.967
	c0,0,1.115-5.016-0.112-9.363"/>
<path fill="none" stroke="#010101" stroke-width="0.3962" stroke-linejoin="round" stroke-miterlimit="10" d="M69.205,28.967
	c0,0,1.114-4.682,0-9.14"/>
<path fill="none" stroke="#010101" stroke-width="0.3962" stroke-linejoin="round" stroke-miterlimit="10" d="M67.532,28.967
	c0,0,1.115-3.455,0-8.806"/>
<path fill="none" stroke="#010101" stroke-width="0.3962" stroke-linejoin="round" stroke-miterlimit="10" d="M65.637,29.413
	c-0.222,0.668,1.45-3.233,0.113-9.475"/>
<path fill="none" stroke="#010101" stroke-width="0.3962" stroke-linejoin="round" stroke-miterlimit="10" d="M63.742,29.858
	c-0.223,0.558,1.672-4.013,0.223-10.143"/>
<path fill="none" stroke="#010101" stroke-width="0.3962" stroke-linejoin="round" stroke-miterlimit="10" d="M61.96,30.193
	c-0.224,0.557,1.895-4.57,0.222-10.59"/>
<path fill="none" stroke="#010101" stroke-width="0.3962" stroke-linejoin="round" stroke-miterlimit="10" d="M60.175,30.416
	c-0.334,0.557,2.007-4.904,0.335-11.035"/>
<path fill="none" stroke="#010101" stroke-width="0.3962" stroke-linejoin="round" stroke-miterlimit="10" d="M58.281,30.527
	c-0.223,0.669,2.229-5.015,0.334-11.258"/>
<path fill="none" stroke="#010101" stroke-width="0.3962" stroke-linejoin="round" stroke-miterlimit="10" d="M56.609,30.75
	c-0.223,0.557,2.118-5.351,0.333-11.593"/>
<path fill="none" stroke="#010101" stroke-width="0.3962" stroke-linejoin="round" stroke-miterlimit="10" d="M54.826,30.75
	c-0.223,0.557,2.117-5.351,0.334-11.593"/>
<path fill="none" stroke="#010101" stroke-width="0.3962" stroke-linejoin="round" stroke-miterlimit="10" d="M53.154,30.75
	c-0.223,0.557,1.895-5.797,0.222-11.593"/>
<path fill="none" stroke="#010101" stroke-width="0.3962" stroke-linejoin="round" stroke-miterlimit="10" d="M51.37,30.639
	c0,0,2.118-5.239,0.334-11.481"/>
<path fill="none" stroke="#010101" stroke-width="0.3962" stroke-linejoin="round" stroke-miterlimit="10" d="M49.698,30.527
	c0,0,2.006-5.015,0.223-11.258"/>
<path fill="none" stroke="#010101" stroke-width="0.3962" stroke-linejoin="round" stroke-miterlimit="10" d="M48.026,30.416
	c0,0,1.672-5.017,0.223-11.147"/>
<path fill="none" stroke="#010101" stroke-width="0.3962" stroke-linejoin="round" stroke-miterlimit="10" d="M46.354,30.081
	c0,0,1.672-4.569,0.223-10.7"/>
<path fill="none" stroke="#010101" stroke-width="0.3962" stroke-linejoin="round" stroke-miterlimit="10" d="M44.682,29.858
	c0,0,1.561-4.235,0.223-10.366"/>
<path fill-rule="evenodd" clip-rule="evenodd" fill="#FFFFFF" d="M67.755,21.61c0,0-2.898-0.111-4.235,0.223
	c-1.449,0.334-1.895,0.668-0.111,1.115c1.783,0.333,4.57,0.333,4.57,0.333S67.867,21.944,67.755,21.61z"/>
<path fill="none" stroke="#010101" stroke-width="0.3962" stroke-linejoin="round" stroke-miterlimit="10" d="M67.755,21.61
	c0,0-2.898-0.111-4.235,0.223c-1.449,0.334-1.895,0.668-0.111,1.115c1.783,0.333,4.57,0.333,4.57,0.333S67.867,21.944,67.755,21.61z
	"/>
<path fill="none" stroke="#010101" stroke-width="0.3962" stroke-linejoin="round" stroke-miterlimit="10" d="M67.421,28.967
	c0,0,8.471,0.111,9.251,0.111c0.668,0,1.003-0.111,1.115-1.561c0.11-1.561,0.557-4.347-0.447-7.356
	c-0.222-0.669-0.445-0.669-0.892-0.78c-0.445,0-4.57-0.334-8.917,0.78c0,0-6.464-1.003-12.149-1.003
	c-4.013,0-10.366,0.334-11.146,0.446c-0.669,0-1.115,0.334-1.227,1.673c-0.223,1.337-0.446,4.347,0,7.021
	c0.223,0.669,0.223,1.226,0.892,1.448c0.78,0.224,6.13,1.227,12.484,1.004C62.74,30.416,67.421,28.967,67.421,28.967z"/>
<path fill="none" stroke="#010101" stroke-width="0.3962" stroke-linejoin="round" stroke-miterlimit="10" d="M67.755,21.61
	c0,0-3.009,0-4.235,0.223c-1.449,0.334-1.895,0.668-0.111,1.115c1.783,0.333,4.57,0.333,4.57,0.333S67.867,21.944,67.755,21.61z"/>
<path fill="none" stroke="#010101" stroke-width="0.3962" stroke-linejoin="round" stroke-miterlimit="10" d="M67.087,31.865
	c0,0-1.337,6.465-4.57,11.035"/>
<path fill="none" stroke="#010101" stroke-width="0.3962" stroke-linejoin="round" stroke-miterlimit="10" d="M67.31,19.381
	c0,0-0.335-2.341-0.78-3.344"/>
<path fill="none" stroke="#010101" stroke-width="0.3962" stroke-linejoin="round" stroke-miterlimit="10" d="M40.447,19.938
	c0.222-0.78,0.558-0.892,1.448-1.003c1.003-0.223,9.363-0.781,13.265-0.668c3.79,0,12.149,1.114,12.149,1.114
	s4.347-0.892,6.13-1.003c1.784,0,4.236,0.222,4.905,0.334c0.668,0.223,0.892,0.334,1.227,1.003c0.222,0.668,0.668,3.456,0.668,4.793
	c0,1.337-0.668,5.35-1.003,6.13c-0.223,0.892-0.557,1.226-1.338,1.226c-0.892,0-10.811,0-10.811,0s-5.127,1.561-11.927,1.894
	c-6.799,0.336-11.704-0.891-12.484-1.114c-0.781-0.111-1.338-0.111-1.671-1.449c-0.447-1.338-1.115-3.902-1.115-5.573
	C39.777,23.839,40.224,20.495,40.447,19.938z"/>
<path fill="none" stroke="#010101" stroke-width="0.3962" stroke-linejoin="round" stroke-miterlimit="10" d="M78.679,36.77
	c0,0.222-0.111,0.333-0.334,0.333h-7.468c-0.111,0-0.223-0.111-0.223-0.333v-1.561c0-0.223,0.112-0.334,0.223-0.334h7.468
	c0.223,0,0.334,0.111,0.334,0.334V36.77z"/>
<polygon fill-rule="evenodd" clip-rule="evenodd" fill="#FFFFFF" points="60.621,55.216 25.176,55.216 25.176,32.143 96.067,32.143 
	96.067,55.216 "/>
<polygon fill="none" stroke="#010101" stroke-width="0.3962" stroke-linejoin="round" stroke-miterlimit="10" points="
	60.621,54.938 25.176,54.938 25.176,31.865 96.067,31.865 96.067,54.938 "/>
<polygon fill-rule="evenodd" clip-rule="evenodd" fill="#FFFFFF" points="35.542,49.588 31.083,49.588 31.083,43.123 39.89,43.123 
	39.89,49.588 "/>
<polygon fill="none" stroke="#010101" stroke-width="0.3962" stroke-linejoin="round" stroke-miterlimit="10" points="
	35.542,49.588 31.083,49.588 31.083,43.123 39.89,43.123 39.89,49.588 "/>
<polygon fill-rule="evenodd" clip-rule="evenodd" fill="#FFFFFF" points="53.376,49.588 48.918,49.588 48.918,43.123 57.835,43.123 
	57.835,49.588 "/>
<polygon fill="none" stroke="#010101" stroke-width="0.3962" stroke-linejoin="round" stroke-miterlimit="10" points="
	53.376,49.588 48.918,49.588 48.918,43.123 57.835,43.123 57.835,49.588 "/>
<polygon fill-rule="evenodd" clip-rule="evenodd" fill="#FFFFFF" points="73.663,49.364 69.316,49.364 69.316,42.788 78.121,42.788 
	78.121,49.364 "/>
<polygon fill="none" stroke="#010101" stroke-width="0.3962" stroke-linejoin="round" stroke-miterlimit="10" points="
	73.663,49.364 69.316,49.364 69.316,42.788 78.121,42.788 78.121,49.364 "/>
<polygon fill-rule="evenodd" clip-rule="evenodd" fill="#FFFFFF" points="89.602,49.364 85.143,49.364 85.143,42.788 94.061,42.788 
	94.061,49.364 "/>
<polygon fill="none" stroke="#010101" stroke-width="0.3962" stroke-linejoin="round" stroke-miterlimit="10" points="
	89.602,49.364 85.143,49.364 85.143,42.788 94.061,42.788 94.061,49.364 "/>
<line fill="none" stroke="#010101" stroke-width="0.3962" stroke-linejoin="round" stroke-miterlimit="10" x1="63.409" y1="54.938" x2="63.409" y2="52.708"/>
<line fill="none" stroke="#010101" stroke-width="0.3962" stroke-linejoin="round" stroke-miterlimit="10" x1="63.409" y1="50.479" x2="63.409" y2="48.25"/>
<line fill="none" stroke="#010101" stroke-width="0.3962" stroke-linejoin="round" stroke-miterlimit="10" x1="63.409" y1="45.909" x2="63.409" y2="43.68"/>
<line fill="none" stroke="#010101" stroke-width="0.3962" stroke-linejoin="round" stroke-miterlimit="10" x1="63.409" y1="41.45" x2="63.409" y2="39.221"/>
<line fill="none" stroke="#010101" stroke-width="0.3962" stroke-linejoin="round" stroke-miterlimit="10" x1="63.409" y1="36.992" x2="63.409" y2="34.762"/>
<polygon fill-rule="evenodd" clip-rule="evenodd" fill="#FFFFFF" points="179.665,49.476 175.206,49.476 175.206,42.899 
	184.013,42.899 184.013,49.476 "/>
<polygon fill="none" stroke="#010101" stroke-width="0.3962" stroke-linejoin="round" stroke-miterlimit="10" points="
	179.665,49.476 175.206,49.476 175.206,42.899 184.013,42.899 184.013,49.476 "/>
<polygon fill-rule="evenodd" clip-rule="evenodd" fill="#FFFFFF" points="196.943,49.03 192.595,49.03 192.595,42.565 
	201.401,42.565 201.401,49.03 "/>
<polygon fill="none" stroke="#010101" stroke-width="0.3962" stroke-linejoin="round" stroke-miterlimit="10" points="
	196.943,49.03 192.595,49.03 192.595,42.565 201.401,42.565 201.401,49.03 "/>
<polygon fill-rule="evenodd" clip-rule="evenodd" fill="#FFFFFF" points="217.785,49.476 213.44,49.476 213.44,43.012 
	222.244,43.012 222.244,49.476 "/>
<polygon fill-rule="evenodd" clip-rule="evenodd" fill="#FFFFFF" points="233.725,49.476 229.266,49.476 229.266,43.012 
	238.183,43.012 238.183,49.476 "/>
<polygon fill="none" stroke="#010101" stroke-width="0.3962" stroke-linejoin="round" stroke-miterlimit="10" points="
	233.725,49.476 229.266,49.476 229.266,43.012 238.183,43.012 238.183,49.476 "/>
<line fill="none" stroke="#010101" stroke-width="0.3962" stroke-linejoin="round" stroke-miterlimit="10" x1="207.53" y1="54.938" x2="207.53" y2="52.708"/>
<line fill="none" stroke="#010101" stroke-width="0.3962" stroke-linejoin="round" stroke-miterlimit="10" x1="207.53" y1="50.479" x2="207.53" y2="48.25"/>
<line fill="none" stroke="#010101" stroke-width="0.3962" stroke-linejoin="round" stroke-miterlimit="10" x1="207.53" y1="45.909" x2="207.53" y2="43.68"/>
<line fill="none" stroke="#010101" stroke-width="0.3962" stroke-linejoin="round" stroke-miterlimit="10" x1="207.53" y1="41.45" x2="207.53" y2="39.221"/>
<line fill="none" stroke="#010101" stroke-width="0.3962" stroke-linejoin="round" stroke-miterlimit="10" x1="207.53" y1="36.992" x2="207.53" y2="34.762"/>
<polygon fill-rule="evenodd" clip-rule="evenodd" fill="#FFFFFF" points="132.515,259 96.401,259 96.401,224.586 168.742,224.586 
	168.742,259 "/>
<polygon fill="none" stroke="#010101" stroke-width="0.5094" stroke-miterlimit="7.6613" points="132.515,256.115 96.401,256.115 
	96.401,224.586 168.742,224.586 168.742,256.115 "/>
<path fill-rule="evenodd" clip-rule="evenodd" fill="#FFFFFF" d="M72.882,230.939c0,5.35-4.458,9.697-9.92,9.697
	c-5.35,0-9.809-4.348-9.809-9.697c0-5.24,4.458-9.586,9.809-9.586C68.424,221.354,72.882,225.699,72.882,230.939z"/>
<path fill="none" stroke="#010101" stroke-width="0.5094" stroke-miterlimit="7.6613" d="M72.882,230.939
	c0,5.35-4.458,9.697-9.92,9.697c-5.35,0-9.809-4.348-9.809-9.697c0-5.24,4.458-9.586,9.809-9.586
	C68.424,221.354,72.882,225.699,72.882,230.939z"/>
<path fill-rule="evenodd" clip-rule="evenodd" fill="#FFFFFF" d="M72.882,252.006c0,5.35-4.458,9.585-9.92,9.585
	c-5.35,0-9.809-4.235-9.809-9.585c0-5.351,4.458-9.697,9.809-9.697C68.424,242.309,72.882,246.655,72.882,252.006z"/>
<path fill="none" stroke="#010101" stroke-width="0.5094" stroke-miterlimit="7.6613" d="M72.882,252.006
	c0,5.35-4.458,9.585-9.92,9.585c-5.35,0-9.809-4.235-9.809-9.585c0-5.351,4.458-9.697,9.809-9.697
	C68.424,242.309,72.882,246.655,72.882,252.006z"/>
<path fill-rule="evenodd" clip-rule="evenodd" fill="#FFFFFF" d="M72.882,272.961c0,1.783-0.446,3.233-1.336,4.793
	c-0.893,1.561-2.008,2.676-3.567,3.566c-1.672,0.892-3.122,1.226-5.016,1.226c-1.784,0-3.345-0.334-4.905-1.226
	c-1.56-0.891-2.675-2.006-3.566-3.566c-0.892-1.56-1.337-3.01-1.337-4.793s0.445-3.344,1.337-4.794
	c0.892-1.561,2.007-2.675,3.566-3.565c1.56-0.893,3.121-1.338,4.905-1.338c1.895,0,3.344,0.445,5.016,1.338
	c1.56,0.891,2.675,2.005,3.567,3.565C72.436,269.617,72.882,271.178,72.882,272.961z"/>
<path fill="none" stroke="#010101" stroke-width="0.5094" stroke-miterlimit="7.6613" d="M72.882,272.961
	c0,1.783-0.446,3.233-1.336,4.793c-0.893,1.561-2.008,2.676-3.567,3.566c-1.672,0.892-3.122,1.226-5.016,1.226
	c-1.784,0-3.345-0.334-4.905-1.226c-1.56-0.891-2.675-2.006-3.566-3.566c-0.892-1.56-1.337-3.01-1.337-4.793
	s0.445-3.344,1.337-4.794c0.892-1.561,2.007-2.675,3.566-3.565c1.56-0.893,3.121-1.338,4.905-1.338c1.895,0,3.344,0.445,5.016,1.338
	c1.56,0.891,2.675,2.005,3.567,3.565C72.436,269.617,72.882,271.178,72.882,272.961z"/>
<path fill-rule="evenodd" clip-rule="evenodd" fill="#FFFFFF" d="M72.882,293.916c0,5.349-4.458,9.697-9.92,9.697
	c-5.35,0-9.809-4.349-9.809-9.697c0-5.351,4.458-9.697,9.809-9.697C68.424,284.219,72.882,288.565,72.882,293.916z"/>
<path fill="none" stroke="#010101" stroke-width="0.5094" stroke-miterlimit="7.6613" d="M72.882,293.916
	c0,5.349-4.458,9.697-9.92,9.697c-5.35,0-9.809-4.349-9.809-9.697c0-5.351,4.458-9.697,9.809-9.697
	C68.424,284.219,72.882,288.565,72.882,293.916z"/>
<path fill-rule="evenodd" clip-rule="evenodd" fill="#FFFFFF" d="M211.21,230.939c0,5.35-4.459,9.697-9.922,9.697
	c-5.35,0-9.808-4.348-9.808-9.697c0-5.24,4.458-9.586,9.808-9.586C206.751,221.354,211.21,225.699,211.21,230.939z"/>
<path fill="none" stroke="#010101" stroke-width="0.5094" stroke-miterlimit="7.6613" d="M211.21,230.939
	c0,5.35-4.459,9.697-9.922,9.697c-5.35,0-9.808-4.348-9.808-9.697c0-5.24,4.458-9.586,9.808-9.586
	C206.751,221.354,211.21,225.699,211.21,230.939z"/>
<path fill-rule="evenodd" clip-rule="evenodd" fill="#FFFFFF" d="M211.21,252.006c0,5.35-4.459,9.585-9.922,9.585
	c-5.35,0-9.808-4.235-9.808-9.585c0-5.351,4.458-9.697,9.808-9.697C206.751,242.309,211.21,246.655,211.21,252.006z"/>
<path fill="none" stroke="#010101" stroke-width="0.5094" stroke-miterlimit="7.6613" d="M211.21,252.006
	c0,5.35-4.459,9.585-9.922,9.585c-5.35,0-9.808-4.235-9.808-9.585c0-5.351,4.458-9.697,9.808-9.697
	C206.751,242.309,211.21,246.655,211.21,252.006z"/>
<path fill-rule="evenodd" clip-rule="evenodd" fill="#FFFFFF" d="M211.21,272.961c0,5.351-4.459,9.585-9.922,9.585
	c-5.35,0-9.808-4.234-9.808-9.585s4.458-9.697,9.808-9.697C206.751,263.264,211.21,267.61,211.21,272.961z"/>
<path fill="none" stroke="#010101" stroke-width="0.5094" stroke-miterlimit="7.6613" d="M211.21,272.961
	c0,5.351-4.459,9.585-9.922,9.585c-5.35,0-9.808-4.234-9.808-9.585s4.458-9.697,9.808-9.697
	C206.751,263.264,211.21,267.61,211.21,272.961z"/>
<path fill-rule="evenodd" clip-rule="evenodd" fill="#FFFFFF" d="M211.21,293.916c0,5.349-4.459,9.697-9.922,9.697
	c-5.35,0-9.808-4.349-9.808-9.697c0-5.351,4.458-9.697,9.808-9.697C206.751,284.219,211.21,288.565,211.21,293.916z"/>
<path fill="none" stroke="#010101" stroke-width="0.5094" stroke-miterlimit="7.6613" d="M211.21,293.916
	c0,5.349-4.459,9.697-9.922,9.697c-5.35,0-9.808-4.349-9.808-9.697c0-5.351,4.458-9.697,9.808-9.697
	C206.751,284.219,211.21,288.565,211.21,293.916z"/>
<path fill-rule="evenodd" clip-rule="evenodd" fill="#010101" d="M71.434,232.053c0,0.892,0.781,1.673,1.672,1.673
	c1.003,0,1.783-0.781,1.783-1.673c0-1.002-0.78-1.783-1.783-1.783C72.214,230.27,71.434,231.051,71.434,232.053z"/>
<path fill-rule="evenodd" clip-rule="evenodd" fill="#010101" d="M71.434,251.782c0,1.004,0.781,1.783,1.672,1.783
	c1.003,0,1.783-0.779,1.783-1.783c0-0.892-0.78-1.672-1.783-1.672C72.214,250.11,71.434,250.891,71.434,251.782z"/>
<path fill-rule="evenodd" clip-rule="evenodd" fill="#010101" d="M71.434,273.519c0,1.004,0.781,1.783,1.672,1.783
	c1.003,0,1.783-0.779,1.783-1.783c0-0.892-0.78-1.673-1.783-1.673C72.214,271.846,71.434,272.627,71.434,273.519z"/>
<path fill-rule="evenodd" clip-rule="evenodd" fill="#010101" d="M71.434,294.361c0,0.891,0.781,1.673,1.672,1.673
	c1.003,0,1.783-0.782,1.783-1.673c0-1.003-0.78-1.784-1.783-1.784C72.214,292.577,71.434,293.358,71.434,294.361z"/>
<path fill-rule="evenodd" clip-rule="evenodd" fill="#010101" d="M189.362,232.053c0,0.892,0.78,1.673,1.673,1.673
	c1.003,0,1.784-0.781,1.784-1.673c0-1.002-0.781-1.783-1.784-1.783C190.142,230.27,189.362,231.051,189.362,232.053z"/>
<path fill-rule="evenodd" clip-rule="evenodd" fill="#010101" d="M189.362,251.782c0,1.004,0.78,1.783,1.673,1.783
	c1.003,0,1.784-0.779,1.784-1.783c0-0.892-0.781-1.672-1.784-1.672C190.142,250.11,189.362,250.891,189.362,251.782z"/>
<path fill-rule="evenodd" clip-rule="evenodd" fill="#010101" d="M189.362,273.519c0,1.004,0.78,1.783,1.673,1.783
	c1.003,0,1.784-0.779,1.784-1.783c0-0.892-0.781-1.673-1.784-1.673C190.142,271.846,189.362,272.627,189.362,273.519z"/>
<path fill-rule="evenodd" clip-rule="evenodd" fill="#010101" d="M189.362,294.361c0,0.891,0.78,1.673,1.673,1.673
	c1.003,0,1.784-0.782,1.784-1.673c0-1.003-0.781-1.784-1.784-1.784C190.142,292.577,189.362,293.358,189.362,294.361z"/>
<path fill="#010101" d="M58.051,11.021h-1.043l-1.925-5.3h0.94l1.166,3.449c0.042,0.13,0.155,0.517,0.338,1.16l0.171-0.573
	l0.191-0.578l1.205-3.458h0.935L58.051,11.021z M64.718,9.557c0,0.5-0.189,0.884-0.567,1.156c-0.376,0.271-0.905,0.407-1.584,0.407
	c-0.659,0-1.167-0.108-1.526-0.326c-0.358-0.217-0.59-0.556-0.697-1.016l0.778-0.153c0.076,0.285,0.231,0.493,0.466,0.625
	c0.235,0.132,0.561,0.198,0.979,0.198c0.447,0,0.775-0.068,0.982-0.206c0.208-0.137,0.311-0.343,0.311-0.618
	c0-0.208-0.071-0.378-0.215-0.509c-0.144-0.131-0.375-0.238-0.696-0.323l-0.631-0.167c-0.507-0.131-0.866-0.259-1.08-0.385
	c-0.214-0.125-0.382-0.278-0.503-0.458c-0.121-0.18-0.181-0.4-0.181-0.661c0-0.483,0.173-0.851,0.517-1.105
	c0.345-0.252,0.847-0.379,1.507-0.379c0.584,0,1.048,0.103,1.394,0.309c0.344,0.205,0.563,0.535,0.653,0.989L63.83,7.034
	c-0.048-0.235-0.18-0.416-0.393-0.542c-0.214-0.125-0.501-0.188-0.859-0.188c-0.399,0-0.693,0.06-0.883,0.181
	c-0.189,0.121-0.283,0.303-0.283,0.549c0,0.15,0.039,0.273,0.117,0.372c0.078,0.098,0.194,0.182,0.348,0.25
	c0.153,0.069,0.477,0.164,0.97,0.285c0.467,0.117,0.804,0.226,1.009,0.326c0.206,0.1,0.369,0.209,0.488,0.33
	c0.119,0.121,0.211,0.261,0.276,0.418C64.685,9.174,64.718,9.354,64.718,9.557z M65.844,11.021v-0.749h1.759v-5.31l-1.558,1.112
	V5.242l1.632-1.122h0.813v6.152h1.68v0.749H65.844z"/>
<path fill="#010101" d="M34.684,36.863c0,0.973-0.17,1.716-0.515,2.229c-0.344,0.513-0.851,0.77-1.52,0.77
	c-0.67,0-1.174-0.255-1.51-0.766c-0.336-0.51-0.505-1.254-0.505-2.233c0-1.001,0.163-1.751,0.49-2.25s0.844-0.749,1.55-0.749
	c0.686,0,1.192,0.252,1.52,0.757C34.521,35.125,34.684,35.873,34.684,36.863z M33.927,36.863c0-0.841-0.097-1.451-0.292-1.829
	c-0.194-0.378-0.515-0.566-0.961-0.566c-0.458,0-0.787,0.186-0.987,0.558c-0.2,0.373-0.3,0.985-0.3,1.837
	c0,0.827,0.101,1.433,0.304,1.815c0.203,0.384,0.525,0.575,0.966,0.575c0.438,0,0.759-0.196,0.963-0.587
	C33.825,38.274,33.927,37.673,33.927,36.863z M36.701,39.861c-0.45,0-0.788-0.118-1.013-0.355c-0.226-0.237-0.34-0.563-0.34-0.976
	c0-0.463,0.153-0.82,0.458-1.067c0.305-0.248,0.796-0.381,1.475-0.397l1.005-0.017v-0.244c0-0.364-0.077-0.625-0.231-0.781
	c-0.155-0.157-0.398-0.236-0.729-0.236c-0.333,0-0.576,0.057-0.728,0.17c-0.151,0.114-0.242,0.293-0.272,0.542l-0.778-0.07
	c0.127-0.805,0.725-1.208,1.795-1.208c0.563,0,0.986,0.129,1.27,0.387c0.284,0.258,0.427,0.63,0.427,1.119v1.927
	c0,0.221,0.028,0.387,0.086,0.499c0.058,0.111,0.168,0.167,0.331,0.167c0.072,0,0.153-0.009,0.244-0.028v0.462
	c-0.188,0.044-0.379,0.065-0.575,0.065c-0.276,0-0.477-0.072-0.602-0.217c-0.125-0.145-0.196-0.371-0.213-0.68h-0.025
	c-0.19,0.342-0.412,0.583-0.663,0.726C37.369,39.791,37.062,39.861,36.701,39.861z M36.87,39.303c0.273,0,0.517-0.062,0.729-0.186
	c0.212-0.125,0.38-0.294,0.503-0.51c0.123-0.217,0.184-0.439,0.184-0.668V37.57l-0.815,0.016c-0.35,0.006-0.616,0.042-0.796,0.108
	c-0.18,0.066-0.318,0.168-0.416,0.305c-0.096,0.139-0.145,0.319-0.145,0.542c0,0.243,0.066,0.43,0.196,0.563
	C36.44,39.237,36.627,39.303,36.87,39.303z"/>
<path fill="#010101" d="M52.295,36.863c0,0.973-0.171,1.716-0.515,2.229s-0.851,0.77-1.521,0.77c-0.669,0-1.173-0.255-1.509-0.766
	c-0.337-0.51-0.505-1.254-0.505-2.233c0-1.001,0.164-1.751,0.491-2.25c0.326-0.499,0.843-0.749,1.549-0.749
	c0.687,0,1.193,0.252,1.52,0.757C52.131,35.125,52.295,35.873,52.295,36.863z M51.538,36.863c0-0.841-0.097-1.451-0.291-1.829
	c-0.195-0.378-0.515-0.566-0.962-0.566c-0.458,0-0.787,0.186-0.987,0.558c-0.2,0.373-0.3,0.985-0.3,1.837
	c0,0.827,0.102,1.433,0.304,1.815c0.203,0.384,0.524,0.575,0.965,0.575c0.438,0,0.76-0.196,0.964-0.587
	C51.436,38.274,51.538,37.673,51.538,36.863z M56.836,37.52c0,1.561-0.549,2.341-1.646,2.341c-0.339,0-0.622-0.061-0.846-0.184
	c-0.225-0.122-0.407-0.32-0.548-0.593h-0.008c0,0.085-0.005,0.215-0.016,0.391c-0.011,0.175-0.021,0.276-0.025,0.304h-0.719
	c0.016-0.149,0.024-0.456,0.024-0.922V33.64h0.745v1.75c0,0.18-0.006,0.391-0.016,0.633h0.016c0.138-0.287,0.32-0.492,0.548-0.617
	c0.228-0.124,0.509-0.186,0.846-0.186c0.565,0,0.981,0.19,1.247,0.571C56.703,36.172,56.836,36.748,56.836,37.52z M56.055,37.545
	c0-0.626-0.083-1.074-0.249-1.345c-0.165-0.27-0.434-0.404-0.807-0.404c-0.418,0-0.724,0.143-0.915,0.43
	c-0.192,0.287-0.288,0.742-0.288,1.365c0,0.587,0.094,1.021,0.281,1.301c0.188,0.279,0.493,0.42,0.914,0.42
	c0.375,0,0.647-0.139,0.813-0.416C55.971,38.618,56.055,38.168,56.055,37.545z"/>
<path fill="#010101" d="M73.138,36.863c0,0.973-0.171,1.716-0.514,2.229c-0.344,0.513-0.85,0.77-1.521,0.77
	c-0.669,0-1.173-0.255-1.51-0.766c-0.336-0.51-0.504-1.254-0.504-2.233c0-1.001,0.163-1.751,0.489-2.25
	c0.327-0.499,0.843-0.749,1.55-0.749c0.687,0,1.193,0.252,1.52,0.757C72.976,35.125,73.138,35.873,73.138,36.863z M72.382,36.863
	c0-0.841-0.097-1.451-0.292-1.829s-0.516-0.566-0.961-0.566c-0.459,0-0.787,0.186-0.987,0.558c-0.2,0.373-0.3,0.985-0.3,1.837
	c0,0.827,0.101,1.433,0.304,1.815c0.203,0.384,0.524,0.575,0.966,0.575c0.438,0,0.76-0.196,0.964-0.587
	C72.28,38.274,72.382,37.673,72.382,36.863z M74.581,37.52c0,0.596,0.093,1.037,0.281,1.324c0.187,0.287,0.47,0.43,0.848,0.43
	c0.264,0,0.486-0.071,0.664-0.216c0.178-0.142,0.287-0.364,0.329-0.661l0.753,0.049c-0.059,0.43-0.241,0.773-0.551,1.03
	c-0.308,0.257-0.701,0.385-1.174,0.385c-0.625,0-1.104-0.198-1.433-0.594c-0.33-0.396-0.495-0.972-0.495-1.731
	c0-0.753,0.166-1.327,0.497-1.722c0.331-0.396,0.806-0.594,1.423-0.594c0.458,0,0.837,0.118,1.14,0.356
	c0.302,0.237,0.492,0.564,0.568,0.98l-0.765,0.058c-0.039-0.248-0.137-0.445-0.294-0.591s-0.38-0.219-0.67-0.219
	c-0.395,0-0.68,0.131-0.856,0.393C74.668,36.458,74.581,36.899,74.581,37.52z"/>
<path fill="#010101" d="M88.855,36.863c0,0.973-0.171,1.716-0.514,2.229c-0.344,0.513-0.851,0.77-1.521,0.77
	c-0.669,0-1.173-0.255-1.509-0.766c-0.337-0.51-0.505-1.254-0.505-2.233c0-1.001,0.164-1.751,0.49-2.25
	c0.327-0.499,0.843-0.749,1.549-0.749c0.687,0,1.193,0.252,1.521,0.757C88.692,35.125,88.855,35.873,88.855,36.863z M88.098,36.863
	c0-0.841-0.097-1.451-0.292-1.829c-0.194-0.378-0.516-0.566-0.962-0.566c-0.458,0-0.787,0.186-0.986,0.558
	c-0.201,0.373-0.301,0.985-0.301,1.837c0,0.827,0.102,1.433,0.304,1.815c0.204,0.384,0.525,0.575,0.966,0.575
	c0.438,0,0.76-0.196,0.964-0.587S88.098,37.673,88.098,36.863z M92.556,39.058c-0.139,0.288-0.321,0.492-0.548,0.617
	c-0.227,0.125-0.51,0.187-0.846,0.187c-0.565,0-0.981-0.189-1.247-0.57c-0.266-0.381-0.398-0.958-0.398-1.729
	c0-1.562,0.548-2.342,1.646-2.342c0.34,0,0.622,0.062,0.848,0.186c0.226,0.125,0.408,0.322,0.546,0.593h0.008l-0.008-0.501V33.64
	h0.745v5.216c0,0.466,0.008,0.773,0.024,0.922h-0.711c-0.008-0.044-0.018-0.146-0.027-0.306c-0.009-0.161-0.014-0.298-0.014-0.415
	H92.556z M90.297,37.537c0,0.626,0.083,1.074,0.249,1.344c0.165,0.271,0.434,0.406,0.807,0.406c0.421,0,0.728-0.146,0.917-0.438
	c0.191-0.292,0.286-0.746,0.286-1.36c0-0.593-0.095-1.027-0.286-1.303c-0.19-0.275-0.494-0.414-0.909-0.414
	c-0.375,0-0.646,0.139-0.813,0.416C90.38,36.463,90.297,36.914,90.297,37.537z"/>
<path fill="#010101" d="M201.838,11.133h-1.042l-1.926-5.3h0.941l1.167,3.448c0.042,0.131,0.154,0.518,0.335,1.162l0.172-0.574
	l0.191-0.578l1.204-3.458h0.938L201.838,11.133z M208.505,9.667c0,0.5-0.188,0.886-0.565,1.156
	c-0.377,0.272-0.905,0.407-1.585,0.407c-0.658,0-1.169-0.109-1.524-0.326c-0.359-0.217-0.591-0.556-0.699-1.017l0.777-0.152
	c0.076,0.285,0.232,0.492,0.468,0.625c0.233,0.132,0.562,0.199,0.979,0.199c0.449,0,0.775-0.069,0.982-0.206
	c0.206-0.137,0.311-0.342,0.311-0.617c0-0.209-0.07-0.379-0.215-0.509c-0.144-0.13-0.376-0.239-0.695-0.324l-0.633-0.167
	c-0.504-0.13-0.865-0.259-1.079-0.385c-0.215-0.125-0.381-0.278-0.502-0.458s-0.182-0.4-0.182-0.661
	c0-0.483,0.171-0.852,0.516-1.104c0.346-0.253,0.847-0.379,1.509-0.379c0.583,0,1.048,0.103,1.393,0.309
	c0.344,0.206,0.563,0.535,0.654,0.989l-0.795,0.098c-0.048-0.235-0.18-0.416-0.394-0.542s-0.5-0.188-0.858-0.188
	c-0.398,0-0.693,0.06-0.883,0.181C205.295,6.717,205.2,6.9,205.2,7.145c0,0.151,0.04,0.275,0.118,0.373
	c0.077,0.098,0.192,0.181,0.348,0.25c0.151,0.068,0.477,0.163,0.968,0.283c0.469,0.118,0.806,0.227,1.011,0.326
	c0.205,0.1,0.368,0.21,0.486,0.331c0.119,0.121,0.213,0.26,0.277,0.418C208.473,9.285,208.505,9.466,208.505,9.667z M209.374,11.133
	V10.51c0.165-0.382,0.368-0.719,0.61-1.011c0.238-0.292,0.49-0.557,0.754-0.794c0.266-0.236,0.527-0.456,0.787-0.658
	s0.495-0.405,0.704-0.607c0.207-0.203,0.376-0.416,0.506-0.637c0.131-0.222,0.194-0.473,0.194-0.754
	c0-0.379-0.109-0.672-0.333-0.881c-0.223-0.209-0.53-0.313-0.927-0.313c-0.376,0-0.683,0.102-0.928,0.306
	c-0.243,0.203-0.385,0.491-0.43,0.859l-0.899-0.083c0.063-0.552,0.3-0.991,0.703-1.318c0.402-0.327,0.921-0.49,1.554-0.49
	c0.696,0,1.229,0.164,1.604,0.492c0.374,0.329,0.562,0.795,0.562,1.399c0,0.268-0.062,0.534-0.185,0.798
	c-0.121,0.265-0.304,0.529-0.544,0.794c-0.241,0.264-0.705,0.674-1.388,1.229c-0.376,0.308-0.674,0.584-0.896,0.83
	c-0.224,0.247-0.383,0.485-0.481,0.713h3.6v0.75H209.374z"/>
<path fill="#010101" d="M178.807,36.305c0,0.973-0.173,1.716-0.515,2.229c-0.344,0.513-0.851,0.769-1.521,0.769
	c-0.67,0-1.172-0.254-1.51-0.765c-0.336-0.51-0.505-1.254-0.505-2.233c0-1.001,0.164-1.751,0.491-2.25
	c0.326-0.499,0.842-0.749,1.548-0.749c0.687,0,1.193,0.252,1.521,0.756C178.643,34.567,178.807,35.316,178.807,36.305z
	 M178.049,36.305c0-0.841-0.097-1.45-0.292-1.829c-0.194-0.377-0.515-0.566-0.962-0.566c-0.458,0-0.787,0.187-0.984,0.559
	c-0.2,0.373-0.301,0.984-0.301,1.836c0,0.827,0.101,1.433,0.303,1.816c0.204,0.383,0.524,0.575,0.966,0.575
	c0.438,0,0.761-0.195,0.965-0.587C177.949,37.718,178.049,37.116,178.049,36.305z M180.823,39.304c-0.449,0-0.787-0.118-1.013-0.355
	c-0.226-0.237-0.34-0.563-0.34-0.976c0-0.463,0.151-0.82,0.457-1.067c0.305-0.248,0.796-0.38,1.475-0.396l1.005-0.017v-0.244
	c0-0.363-0.077-0.625-0.231-0.781c-0.153-0.157-0.397-0.236-0.729-0.236c-0.333,0-0.575,0.056-0.728,0.169
	c-0.151,0.113-0.242,0.293-0.271,0.542l-0.78-0.07c0.128-0.806,0.728-1.208,1.797-1.208c0.563,0,0.985,0.129,1.268,0.387
	c0.286,0.258,0.428,0.63,0.428,1.119v1.927c0,0.222,0.029,0.387,0.088,0.499c0.058,0.111,0.167,0.167,0.33,0.167
	c0.073,0,0.153-0.01,0.244-0.029v0.464c-0.188,0.043-0.379,0.065-0.574,0.065c-0.275,0-0.475-0.073-0.604-0.218
	c-0.125-0.144-0.194-0.371-0.213-0.68h-0.024c-0.19,0.342-0.411,0.583-0.664,0.726C181.491,39.233,181.184,39.304,180.823,39.304z
	 M180.994,38.745c0.272,0,0.515-0.062,0.727-0.186c0.212-0.124,0.381-0.294,0.504-0.51c0.122-0.216,0.183-0.439,0.183-0.668v-0.368
	l-0.815,0.016c-0.348,0.006-0.614,0.042-0.795,0.108c-0.18,0.066-0.319,0.168-0.416,0.305c-0.098,0.139-0.145,0.319-0.145,0.542
	c0,0.243,0.065,0.43,0.196,0.563C180.563,38.68,180.75,38.745,180.994,38.745z"/>
<path fill="#010101" d="M196.308,36.863c0,0.973-0.175,1.716-0.516,2.229c-0.344,0.513-0.85,0.77-1.521,0.77
	c-0.669,0-1.173-0.255-1.509-0.766c-0.337-0.51-0.505-1.254-0.505-2.233c0-1.001,0.164-1.751,0.49-2.25
	c0.327-0.499,0.841-0.749,1.549-0.749c0.687,0,1.192,0.252,1.519,0.757C196.143,35.125,196.308,35.873,196.308,36.863z
	 M195.548,36.863c0-0.841-0.097-1.451-0.291-1.829s-0.515-0.566-0.961-0.566c-0.459,0-0.788,0.186-0.986,0.558
	c-0.201,0.373-0.301,0.985-0.301,1.837c0,0.827,0.102,1.433,0.305,1.815c0.203,0.384,0.523,0.575,0.966,0.575
	c0.438,0,0.759-0.196,0.965-0.587C195.446,38.274,195.548,37.673,195.548,36.863z M200.966,37.52c0,1.561-0.549,2.341-1.646,2.341
	c-0.34,0-0.621-0.061-0.846-0.184c-0.225-0.122-0.406-0.32-0.548-0.593h-0.009c0,0.085-0.004,0.215-0.017,0.391
	c-0.011,0.175-0.02,0.276-0.024,0.304h-0.719c0.016-0.149,0.023-0.456,0.023-0.922V33.64h0.745v1.75c0,0.18-0.006,0.391-0.018,0.633
	h0.018c0.139-0.287,0.319-0.492,0.548-0.617c0.228-0.124,0.51-0.186,0.846-0.186c0.565,0,0.98,0.19,1.246,0.571
	C200.833,36.172,200.966,36.748,200.966,37.52z M200.184,37.545c0-0.626-0.082-1.074-0.248-1.345
	c-0.165-0.27-0.436-0.404-0.807-0.404c-0.419,0-0.725,0.143-0.914,0.43c-0.194,0.287-0.289,0.742-0.289,1.365
	c0,0.587,0.094,1.021,0.281,1.301c0.188,0.279,0.492,0.42,0.914,0.42c0.373,0,0.646-0.139,0.813-0.416
	C200.102,38.618,200.184,38.168,200.184,37.545z"/>
<path fill="#010101" d="M217.262,36.863c0,0.973-0.172,1.716-0.516,2.229c-0.343,0.513-0.851,0.77-1.521,0.77
	c-0.671,0-1.173-0.255-1.51-0.766c-0.336-0.51-0.505-1.254-0.505-2.233c0-1.001,0.165-1.751,0.491-2.25s0.843-0.749,1.55-0.749
	c0.687,0,1.191,0.252,1.518,0.757C217.099,35.125,217.262,35.873,217.262,36.863z M216.503,36.863c0-0.841-0.097-1.451-0.291-1.829
	s-0.516-0.566-0.96-0.566c-0.46,0-0.788,0.186-0.987,0.558c-0.2,0.373-0.3,0.985-0.3,1.837c0,0.827,0.1,1.433,0.304,1.815
	c0.203,0.384,0.523,0.575,0.966,0.575c0.439,0,0.76-0.196,0.965-0.587C216.404,38.274,216.503,37.673,216.503,36.863z
	 M218.702,37.52c0,0.596,0.094,1.037,0.283,1.324c0.188,0.287,0.469,0.43,0.849,0.43c0.265,0,0.485-0.071,0.664-0.216
	c0.177-0.142,0.287-0.364,0.327-0.661l0.752,0.049c-0.057,0.43-0.24,0.773-0.548,1.03c-0.311,0.257-0.702,0.385-1.175,0.385
	c-0.627,0-1.104-0.198-1.433-0.594c-0.333-0.396-0.494-0.972-0.494-1.731c0-0.753,0.164-1.327,0.495-1.722
	c0.331-0.396,0.805-0.594,1.424-0.594c0.456,0,0.837,0.118,1.138,0.356c0.303,0.237,0.493,0.564,0.568,0.98l-0.766,0.058
	c-0.037-0.248-0.136-0.445-0.293-0.591s-0.38-0.219-0.669-0.219c-0.395,0-0.68,0.131-0.858,0.393
	C218.791,36.458,218.702,36.899,218.702,37.52z"/>
<path fill="#010101" d="M232.977,36.863c0,0.973-0.171,1.716-0.515,2.229s-0.85,0.77-1.519,0.77c-0.672,0-1.175-0.255-1.51-0.766
	c-0.338-0.51-0.507-1.254-0.507-2.233c0-1.001,0.165-1.751,0.491-2.25s0.843-0.749,1.55-0.749c0.686,0,1.193,0.252,1.519,0.757
	C232.815,35.125,232.977,35.873,232.977,36.863z M232.22,36.863c0-0.841-0.096-1.451-0.29-1.829
	c-0.195-0.378-0.516-0.566-0.962-0.566c-0.458,0-0.787,0.186-0.987,0.558c-0.199,0.373-0.3,0.985-0.3,1.837
	c0,0.827,0.102,1.433,0.303,1.815c0.203,0.384,0.526,0.575,0.966,0.575c0.44,0,0.761-0.196,0.966-0.587
	C232.119,38.274,232.22,37.673,232.22,36.863z M236.677,39.058c-0.136,0.288-0.319,0.492-0.549,0.617
	c-0.226,0.125-0.508,0.187-0.844,0.187c-0.566,0-0.981-0.189-1.247-0.57c-0.266-0.381-0.401-0.958-0.401-1.729
	c0-1.562,0.551-2.342,1.648-2.342c0.338,0,0.62,0.062,0.849,0.186c0.227,0.125,0.408,0.322,0.544,0.593h0.009l-0.009-0.501V33.64
	h0.745v5.216c0,0.466,0.009,0.773,0.024,0.922h-0.711c-0.01-0.044-0.018-0.146-0.026-0.306c-0.011-0.161-0.014-0.298-0.014-0.415
	H236.677z M234.42,37.537c0,0.626,0.083,1.074,0.248,1.344c0.166,0.271,0.433,0.406,0.808,0.406c0.42,0,0.726-0.146,0.915-0.438
	c0.192-0.292,0.286-0.746,0.286-1.36c0-0.593-0.094-1.027-0.286-1.303c-0.189-0.275-0.491-0.414-0.908-0.414
	c-0.376,0-0.646,0.139-0.812,0.416C234.503,36.463,234.42,36.914,234.42,37.537z"/>
<polygon fill-rule="evenodd" clip-rule="evenodd" fill="#FFFFFF" points="132.515,301.753 96.401,301.753 96.401,267.339 
	168.742,267.339 168.742,301.753 "/>
<polygon fill="none" stroke="#010101" stroke-width="0.5094" stroke-miterlimit="7.6613" points="132.515,298.868 96.401,298.868 
	96.401,267.339 168.742,267.339 168.742,298.868 "/>
<path fill="#010101" d="M174.612,200.509c0,0.637-0.248,1.13-0.745,1.477c-0.499,0.352-1.199,0.526-2.104,0.526
	c-1.683,0-2.656-0.584-2.925-1.754l0.906-0.182c0.104,0.416,0.328,0.72,0.667,0.914s0.802,0.292,1.385,0.292
	c0.605,0,1.071-0.104,1.398-0.311c0.33-0.209,0.493-0.513,0.493-0.915c0-0.224-0.051-0.407-0.154-0.548
	c-0.103-0.14-0.247-0.257-0.434-0.348c-0.188-0.091-0.407-0.168-0.666-0.23c-0.259-0.062-0.543-0.129-0.856-0.201
	c-0.544-0.121-0.959-0.241-1.242-0.362c-0.282-0.12-0.505-0.255-0.668-0.404s-0.29-0.321-0.376-0.521
	c-0.087-0.2-0.128-0.429-0.128-0.688c0-0.59,0.226-1.047,0.677-1.365c0.452-0.32,1.1-0.48,1.943-0.48
	c0.783,0,1.382,0.12,1.796,0.359c0.415,0.24,0.705,0.65,0.872,1.227l-0.92,0.162c-0.101-0.364-0.295-0.631-0.578-0.795
	c-0.283-0.166-0.679-0.249-1.182-0.249c-0.55,0-0.972,0.092-1.263,0.275c-0.289,0.183-0.437,0.457-0.437,0.817
	c0,0.213,0.057,0.389,0.169,0.526c0.113,0.141,0.275,0.257,0.487,0.354c0.213,0.095,0.637,0.214,1.27,0.354
	c0.212,0.05,0.424,0.099,0.635,0.148c0.209,0.051,0.411,0.112,0.604,0.182c0.194,0.071,0.375,0.153,0.543,0.248
	c0.168,0.094,0.313,0.21,0.438,0.348c0.124,0.137,0.221,0.299,0.291,0.483C174.579,200.038,174.612,200.258,174.612,200.509z
	 M177.777,202.374c-0.29,0.079-0.587,0.119-0.892,0.119c-0.704,0-1.056-0.4-1.056-1.2v-3.538h-0.614v-0.642h0.646l0.26-1.184h0.588
	v1.184h0.981v0.642h-0.981v3.346c0,0.255,0.041,0.434,0.124,0.538c0.084,0.102,0.229,0.152,0.434,0.152
	c0.118,0,0.288-0.021,0.51-0.067V202.374z M183,199.76c0,0.927-0.205,1.617-0.613,2.071c-0.408,0.455-1.001,0.681-1.777,0.681
	c-0.775,0-1.357-0.236-1.754-0.707c-0.395-0.473-0.593-1.154-0.593-2.045c0-1.829,0.792-2.744,2.376-2.744
	c0.811,0,1.406,0.224,1.789,0.67C182.81,198.131,183,198.821,183,199.76z M182.073,199.76c0-0.732-0.106-1.264-0.324-1.596
	c-0.216-0.332-0.584-0.496-1.095-0.496c-0.517,0-0.889,0.169-1.12,0.507c-0.23,0.339-0.345,0.865-0.345,1.585
	c0,0.698,0.113,1.223,0.341,1.573c0.228,0.352,0.584,0.527,1.069,0.527c0.528,0,0.909-0.17,1.136-0.509
	C181.961,201.012,182.073,200.48,182.073,199.76z M184.115,202.413v-4.064c0-0.373-0.008-0.783-0.028-1.235h0.833
	c0.024,0.601,0.039,0.963,0.039,1.083h0.02c0.14-0.454,0.301-0.765,0.484-0.931c0.183-0.166,0.44-0.25,0.773-0.25
	c0.117,0,0.236,0.017,0.359,0.049v0.809c-0.117-0.032-0.275-0.049-0.471-0.049c-0.366,0-0.646,0.156-0.838,0.474
	c-0.194,0.314-0.29,0.766-0.29,1.354v2.762H184.115z M188.788,202.512c-0.532,0-0.933-0.141-1.199-0.421
	c-0.268-0.281-0.402-0.667-0.402-1.157c0-0.548,0.182-0.969,0.542-1.264c0.36-0.293,0.942-0.449,1.745-0.469l1.191-0.021v-0.288
	c0-0.432-0.091-0.74-0.276-0.926c-0.181-0.186-0.468-0.278-0.86-0.278c-0.395,0-0.682,0.067-0.863,0.201
	c-0.179,0.133-0.285,0.348-0.322,0.64l-0.92-0.082c0.149-0.954,0.858-1.431,2.126-1.431c0.666,0,1.165,0.152,1.502,0.458
	c0.336,0.305,0.505,0.748,0.505,1.325v2.283c0,0.262,0.036,0.458,0.104,0.589c0.068,0.134,0.198,0.198,0.391,0.198
	c0.087,0,0.183-0.01,0.291-0.034v0.55c-0.223,0.052-0.45,0.077-0.682,0.077c-0.328,0-0.564-0.086-0.712-0.256
	c-0.149-0.172-0.233-0.44-0.252-0.807h-0.03c-0.227,0.406-0.487,0.692-0.788,0.86C189.58,202.428,189.215,202.512,188.788,202.512z
	 M188.989,201.85c0.323,0,0.609-0.072,0.863-0.22c0.249-0.146,0.448-0.348,0.596-0.605c0.144-0.255,0.217-0.519,0.217-0.789v-0.438
	l-0.966,0.019c-0.415,0.007-0.728,0.05-0.942,0.129c-0.214,0.078-0.377,0.199-0.493,0.362c-0.113,0.163-0.171,0.378-0.171,0.641
	c0,0.289,0.078,0.51,0.233,0.667C188.482,201.771,188.702,201.85,188.989,201.85z M197.34,202.261c0,1.491-0.737,2.233-2.217,2.233
	c-0.578,0-1.04-0.112-1.381-0.339c-0.344-0.228-0.564-0.55-0.662-0.969l0.886-0.127c0.061,0.246,0.19,0.435,0.39,0.567
	c0.201,0.131,0.464,0.197,0.791,0.197c0.88,0,1.317-0.514,1.317-1.544v-0.851h-0.01c-0.166,0.34-0.396,0.595-0.684,0.767
	c-0.293,0.171-0.632,0.257-1.021,0.257c-0.649,0-1.126-0.217-1.433-0.647c-0.306-0.431-0.458-1.107-0.458-2.033
	c0-0.935,0.164-1.628,0.493-2.073c0.327-0.446,0.827-0.67,1.497-0.67c0.374,0,0.7,0.087,0.976,0.259
	c0.276,0.171,0.491,0.416,0.64,0.732h0.011c0-0.098,0.007-0.268,0.019-0.51c0.016-0.241,0.027-0.374,0.041-0.397h0.835
	c-0.019,0.177-0.029,0.543-0.029,1.098V202.261L197.34,202.261z M196.464,199.764c0-0.43-0.058-0.803-0.176-1.113
	c-0.117-0.313-0.284-0.552-0.498-0.716c-0.214-0.166-0.455-0.247-0.728-0.247c-0.449,0-0.779,0.163-0.984,0.489
	c-0.204,0.327-0.308,0.856-0.308,1.587c0,0.725,0.096,1.245,0.289,1.563c0.192,0.317,0.521,0.476,0.989,0.476
	c0.277,0,0.524-0.082,0.74-0.245c0.215-0.163,0.382-0.398,0.499-0.703C196.407,200.548,196.464,200.185,196.464,199.764z
	 M199.369,199.948c0,0.608,0.125,1.078,0.376,1.407s0.62,0.494,1.103,0.494c0.383,0,0.688-0.076,0.917-0.229
	c0.231-0.153,0.388-0.348,0.47-0.584l0.773,0.221c-0.318,0.836-1.037,1.254-2.16,1.254c-0.782,0-1.38-0.233-1.791-0.702
	c-0.41-0.464-0.615-1.159-0.615-2.08c0-0.875,0.205-1.547,0.615-2.015c0.411-0.465,0.995-0.699,1.756-0.699
	c1.559,0,2.337,0.94,2.337,2.816v0.116H199.369z M202.238,199.274c-0.048-0.56-0.191-0.968-0.426-1.223
	c-0.235-0.257-0.573-0.384-1.014-0.384c-0.428,0-0.767,0.143-1.017,0.427c-0.251,0.286-0.384,0.679-0.403,1.18H202.238z
	 M211.638,202.413l-0.79-2.018h-3.145l-0.793,2.018h-0.97l2.816-6.901h1.063l2.771,6.901H211.638z M209.276,196.218l-0.044,0.138
	c-0.082,0.271-0.202,0.617-0.362,1.043l-0.882,2.268h2.582l-0.887-2.279c-0.091-0.224-0.182-0.479-0.274-0.763L209.276,196.218z
	 M213.298,202.413v-4.064c0-0.373-0.012-0.783-0.03-1.235h0.833c0.025,0.601,0.037,0.963,0.037,1.083h0.022
	c0.141-0.454,0.301-0.765,0.484-0.931c0.181-0.166,0.439-0.25,0.774-0.25c0.116,0,0.236,0.017,0.357,0.049v0.809
	c-0.117-0.032-0.276-0.049-0.47-0.049c-0.366,0-0.647,0.156-0.841,0.474c-0.191,0.314-0.285,0.766-0.285,1.354v2.762H213.298z
	 M216.638,202.413v-4.064c0-0.373-0.009-0.783-0.029-1.235h0.833c0.025,0.601,0.039,0.963,0.039,1.083h0.021
	c0.14-0.454,0.302-0.765,0.483-0.931c0.183-0.166,0.441-0.25,0.774-0.25c0.117,0,0.235,0.017,0.358,0.049v0.809
	c-0.118-0.032-0.275-0.049-0.471-0.049c-0.366,0-0.646,0.156-0.839,0.474c-0.192,0.314-0.287,0.766-0.287,1.354v2.762H216.638z
	 M221.31,202.512c-0.531,0-0.931-0.141-1.198-0.421c-0.27-0.281-0.402-0.667-0.402-1.157c0-0.548,0.182-0.969,0.54-1.264
	c0.362-0.293,0.943-0.449,1.747-0.469l1.19-0.021v-0.288c0-0.432-0.092-0.74-0.274-0.926s-0.471-0.278-0.861-0.278
	c-0.396,0-0.684,0.067-0.863,0.201c-0.18,0.133-0.286,0.348-0.323,0.64l-0.921-0.082c0.151-0.954,0.859-1.431,2.128-1.431
	c0.665,0,1.166,0.152,1.503,0.458c0.336,0.305,0.504,0.748,0.504,1.325v2.283c0,0.262,0.033,0.458,0.102,0.589
	c0.068,0.134,0.2,0.198,0.393,0.198c0.085,0,0.182-0.01,0.289-0.034v0.55c-0.223,0.052-0.45,0.077-0.682,0.077
	c-0.325,0-0.564-0.086-0.711-0.256c-0.149-0.172-0.233-0.44-0.253-0.807h-0.029c-0.225,0.406-0.488,0.692-0.785,0.86
	C222.102,202.428,221.737,202.512,221.31,202.512z M221.511,201.85c0.323,0,0.611-0.072,0.862-0.22
	c0.252-0.146,0.45-0.348,0.596-0.605c0.146-0.255,0.218-0.519,0.218-0.789v-0.438l-0.966,0.019c-0.413,0.007-0.728,0.05-0.943,0.129
	c-0.212,0.078-0.376,0.199-0.49,0.362c-0.115,0.163-0.172,0.378-0.172,0.641c0,0.289,0.077,0.51,0.231,0.667
	C221.003,201.771,221.225,201.85,221.511,201.85z M225.896,204.494c-0.242,0-0.443-0.017-0.608-0.053v-0.661
	c0.125,0.021,0.262,0.028,0.413,0.028c0.548,0,0.983-0.402,1.304-1.209l0.082-0.209l-2.101-5.277h0.94l1.116,2.93
	c0.017,0.045,0.035,0.1,0.059,0.165c0.024,0.063,0.097,0.275,0.222,0.638c0.122,0.362,0.189,0.565,0.2,0.608l0.342-0.966
	l1.162-3.375h0.93l-2.037,5.3c-0.218,0.566-0.423,0.985-0.613,1.262c-0.188,0.276-0.398,0.481-0.628,0.617
	C226.447,204.428,226.187,204.494,225.896,204.494z"/>
<polygon fill="none" stroke="#010101" stroke-width="0.3962" stroke-linejoin="round" stroke-miterlimit="10" points="
	217.785,49.476 213.44,49.476 213.44,43.012 222.244,43.012 222.244,49.476 "/>
<polyline fill="none" stroke="#000000" stroke-miterlimit="10" points="35.542,49.588 35.542,98.36 11.559,98.36 11.559,230.995 
	53.154,230.995 "/>
<polyline fill="none" stroke="#ED1C24" stroke-miterlimit="10" points="53.895,49.588 53.895,102.333 21.333,102.333 
	21.333,272.515 53.154,272.515 "/>
<polyline fill="none" stroke="#ED1C24" stroke-miterlimit="10" points="89.602,49.364 89.602,151.667 240,151.667 240,273.574 
	211.21,273.574 "/>
<polyline fill="none" stroke="#000000" stroke-miterlimit="10" points="73.663,49.364 73.663,169.333 230.959,169.333 
	230.959,230.995 211.21,230.995 "/>
<g>
	<g>
		<line fill="none" stroke="#000000" stroke-miterlimit="10" x1="179.665" y1="49.476" x2="179.665" y2="50.476"/>
		
			<line fill="none" stroke="#000000" stroke-miterlimit="10" stroke-dasharray="1.9425,1.9425" x1="179.665" y1="52.418" x2="179.665" y2="117.493"/>
		<polyline fill="none" stroke="#000000" stroke-miterlimit="10" points="179.665,118.464 179.665,119.464 178.665,119.464 		"/>
		
			<line fill="none" stroke="#000000" stroke-miterlimit="10" stroke-dasharray="2.0201,2.0201" x1="176.645" y1="119.464" x2="48.365" y2="119.464"/>
		<polyline fill="none" stroke="#000000" stroke-miterlimit="10" points="47.354,119.464 46.354,119.464 46.354,120.464 		"/>
		
			<line fill="none" stroke="#000000" stroke-miterlimit="10" stroke-dasharray="2.0085,2.0085" x1="46.354" y1="122.472" x2="46.354" y2="250.009"/>
		<polyline fill="none" stroke="#000000" stroke-miterlimit="10" points="46.354,251.014 46.354,252.014 47.354,252.014 		"/>
		
			<line fill="none" stroke="#000000" stroke-miterlimit="10" stroke-dasharray="1.7422,1.7422" x1="49.097" y1="252.014" x2="51.71" y2="252.014"/>
		<line fill="none" stroke="#000000" stroke-miterlimit="10" x1="52.581" y1="252.014" x2="53.581" y2="252.014"/>
	</g>
</g>
<g>
	<g>
		<line fill="none" stroke="#21409A" stroke-miterlimit="10" x1="196.943" y1="49.03" x2="196.943" y2="50.03"/>
		
			<line fill="none" stroke="#21409A" stroke-miterlimit="10" stroke-dasharray="1.9811,1.9811" x1="196.943" y1="52.011" x2="196.943" y2="138.189"/>
		<polyline fill="none" stroke="#21409A" stroke-miterlimit="10" points="196.943,139.18 196.943,140.18 195.943,140.18 		"/>
		
			<line fill="none" stroke="#21409A" stroke-miterlimit="10" stroke-dasharray="2.0072,2.0072" x1="193.936" y1="140.18" x2="34.36" y2="140.18"/>
		<polyline fill="none" stroke="#21409A" stroke-miterlimit="10" points="33.356,140.18 32.356,140.18 32.356,141.18 		"/>
		
			<line fill="none" stroke="#21409A" stroke-miterlimit="10" stroke-dasharray="2.0231,2.0231" x1="32.356" y1="143.203" x2="32.356" y2="291.904"/>
		<polyline fill="none" stroke="#21409A" stroke-miterlimit="10" points="32.356,292.916 32.356,293.916 33.356,293.916 		"/>
		
			<line fill="none" stroke="#21409A" stroke-miterlimit="10" stroke-dasharray="1.9524,1.9524" x1="35.309" y1="293.916" x2="46.047" y2="293.916"/>
		<line fill="none" stroke="#21409A" stroke-miterlimit="10" x1="47.023" y1="293.916" x2="48.023" y2="293.916"/>
	</g>
</g>
<g>
	<g>
		<line fill="none" stroke="#000000" stroke-miterlimit="10" x1="217.417" y1="49.476" x2="217.417" y2="50.476"/>
		
			<line fill="none" stroke="#000000" stroke-miterlimit="10" stroke-dasharray="1.9871,1.9871" x1="217.417" y1="52.463" x2="217.417" y2="134.929"/>
		<polyline fill="none" stroke="#000000" stroke-miterlimit="10" points="217.417,135.923 217.417,136.923 218.417,136.923 		"/>
		
			<line fill="none" stroke="#000000" stroke-miterlimit="10" stroke-dasharray="1.95,1.95" x1="220.367" y1="136.923" x2="246.692" y2="136.923"/>
		<polyline fill="none" stroke="#000000" stroke-miterlimit="10" points="247.667,136.923 248.667,136.923 248.667,137.923 		"/>
		
			<line fill="none" stroke="#000000" stroke-miterlimit="10" stroke-dasharray="1.984,1.984" x1="248.667" y1="139.907" x2="248.667" y2="250.021"/>
		<polyline fill="none" stroke="#000000" stroke-miterlimit="10" points="248.667,251.014 248.667,252.014 247.667,252.014 		"/>
		
			<line fill="none" stroke="#000000" stroke-miterlimit="10" stroke-dasharray="2.0857,2.0857" x1="245.582" y1="252.014" x2="213.253" y2="252.014"/>
		<line fill="none" stroke="#000000" stroke-miterlimit="10" x1="212.21" y1="252.014" x2="211.21" y2="252.014"/>
	</g>
</g>
<g>
	<g>
		<line fill="none" stroke="#21409A" stroke-miterlimit="10" x1="233.725" y1="49.476" x2="233.725" y2="50.476"/>
		
			<line fill="none" stroke="#21409A" stroke-miterlimit="10" stroke-dasharray="2.0205,2.0205" x1="233.725" y1="52.497" x2="233.725" y2="116.143"/>
		<polyline fill="none" stroke="#21409A" stroke-miterlimit="10" points="233.725,117.153 233.725,118.153 234.725,118.153 		"/>
		
			<line fill="none" stroke="#21409A" stroke-miterlimit="10" stroke-dasharray="1.9038,1.9038" x1="236.629" y1="118.153" x2="254.715" y2="118.153"/>
		<polyline fill="none" stroke="#21409A" stroke-miterlimit="10" points="255.667,118.153 256.667,118.153 256.667,119.153 		"/>
		
			<line fill="none" stroke="#21409A" stroke-miterlimit="10" stroke-dasharray="1.9973,1.9973" x1="256.667" y1="121.15" x2="256.667" y2="291.917"/>
		<polyline fill="none" stroke="#21409A" stroke-miterlimit="10" points="256.667,292.916 256.667,293.916 255.667,293.916 		"/>
		
			<line fill="none" stroke="#21409A" stroke-miterlimit="10" stroke-dasharray="2.0693,2.0693" x1="253.597" y1="293.916" x2="213.245" y2="293.916"/>
		<line fill="none" stroke="#21409A" stroke-miterlimit="10" x1="212.21" y1="293.916" x2="211.21" y2="293.916"/>
	</g>
</g>
<text transform="matrix(1 0 0 1 55 235.3652)" font-family="'HelveticaNeue-Roman'" font-size="12">1A</text>
<text transform="matrix(1 0 0 1 55 256.1152)" font-family="'HelveticaNeue-Roman'" font-size="12">1B</text>
<text transform="matrix(1 0 0 1 55 277.3652)" font-family="'HelveticaNeue-Roman'" font-size="12">1A</text>
<text transform="matrix(1 0 0 1 55 298.1152)" font-family="'HelveticaNeue-Roman'" font-size="12">1B</text>
<text transform="matrix(1 0 0 1 193.376 235.2231)" font-family="'HelveticaNeue-Roman'" font-size="12">2A</text>
<text transform="matrix(1 0 0 1 193.376 255.9731)" font-family="'HelveticaNeue-Roman'" font-size="12">2B</text>
<text transform="matrix(1 0 0 1 193.376 277.2231)" font-family="'HelveticaNeue-Roman'" font-size="12">2A</text>
<text transform="matrix(1 0 0 1 193.376 297.9731)" font-family="'HelveticaNeue-Roman'" font-size="12">2B</text>
<text transform="matrix(1 0 0 1 101.75 244.4756)" font-family="'MyriadPro-Regular'" font-size="12">LUN Group 1</text>
<text transform="matrix(1 0 0 1 101.75 286.7139)" font-family="'MyriadPro-Regular'" font-size="12">LUN Group 2</text>
</svg>
