<?xml version="1.0" encoding="UTF-8"?><!-- Generator: Adobe Illustrator 12.0.0, SVG Export Plug-In . SVG Version: 6.00 Build 51448)  --><!DOCTYPE svg PUBLIC "-//W3C//DTD SVG 1.1//EN" "http://www.w3.org/Graphics/SVG/1.1/DTD/svg11.dtd">
<svg xmlns="http://www.w3.org/2000/svg" xmlns:xlink="http://www.w3.org/1999/xlink" version="1.1" width="338.915" height="484.853" viewBox="0 0 338.915 484.853" overflow="visible" enable-background="new 0 0 338.915 484.853" xml:space="preserve" preserveAspectRatio="xMidYMid meet" zoomAndPan="magnify" contentScriptType="application/ecmascript" contentStyleType="text/css">
<g id="arrows">
	<g>
		
			<line fill="#FFFFFF" stroke="#000000" stroke-width="0.5" stroke-linecap="round" stroke-linejoin="round" x1="166.25" y1="115.071" x2="135.654" y2="143.179"/>
		<polygon fill="#010101" stroke="#000000" stroke-width="0.5" stroke-linecap="round" stroke-linejoin="round" points="    130.006,148.534 131.952,145.274 133.897,142.014 135.364,143.611 136.833,145.209 133.419,146.872   "/>
	</g>
	<g>
		
			<line fill="#FFFFFF" stroke="#000000" stroke-width="0.5" stroke-linecap="round" stroke-linejoin="round" x1="208.038" y1="117.934" x2="240.692" y2="143.622"/>
		<polygon fill="#010101" stroke="#000000" stroke-width="0.5" stroke-linecap="round" stroke-linejoin="round" points="    246.883,148.338 243.354,146.941 239.824,145.544 241.165,143.84 242.506,142.134 244.695,145.235   "/>
	</g>
	<g>
		
			<line fill="#FFFFFF" stroke="#000000" stroke-width="0.5" stroke-linecap="round" stroke-linejoin="round" x1="124.25" y1="402.405" x2="93.654" y2="430.512"/>
		<polygon fill="#010101" stroke="#000000" stroke-width="0.5" stroke-linecap="round" stroke-linejoin="round" points="    88.006,435.868 89.952,432.608 91.897,429.348 93.364,430.945 94.833,432.542 91.419,434.206   "/>
	</g>
	<g>
		
			<line fill="#FFFFFF" stroke="#000000" stroke-width="0.5" stroke-linecap="round" stroke-linejoin="round" x1="74.916" y1="275.738" x2="44.32" y2="303.846"/>
		<polygon fill="#010101" stroke="#000000" stroke-width="0.5" stroke-linecap="round" stroke-linejoin="round" points="    38.673,309.202 40.618,305.941 42.563,302.682 44.03,304.278 45.499,305.876 42.086,307.539   "/>
	</g>
	<g>
		
			<line fill="#FFFFFF" stroke="#000000" stroke-width="0.5" stroke-linecap="round" stroke-linejoin="round" x1="126.894" y1="333.782" x2="126.621" y2="375.327"/>
		<polygon fill="#010101" stroke="#000000" stroke-width="0.5" stroke-linecap="round" stroke-linejoin="round" points="    126.693,383.11 125.633,379.465 124.572,375.821 126.74,375.834 128.91,375.848 127.802,379.479   "/>
	</g>
	<g>
		
			<line fill="#FFFFFF" stroke="#000000" stroke-width="0.5" stroke-linecap="round" stroke-linejoin="round" x1="81.227" y1="179.781" x2="80.954" y2="221.326"/>
		<polygon fill="#010101" stroke="#000000" stroke-width="0.5" stroke-linecap="round" stroke-linejoin="round" points="    81.026,229.109 79.966,225.465 78.905,221.82 81.073,221.834 83.243,221.848 82.135,225.479   "/>
	</g>
	<g>
		<polygon fill="#010101" stroke="#000000" stroke-width="0.5" stroke-linecap="round" stroke-linejoin="round" points="    139.077,178.065 142.721,177.004 146.366,175.943 146.352,178.112 146.338,180.282 142.708,179.174   "/>
		<polyline fill="none" stroke="#000000" stroke-width="0.5" stroke-linecap="round" stroke-linejoin="round" points="    145.25,178.271 194.583,178.271 194.583,355.271 242.917,355.271 242.917,330.938   "/>
	</g>
	<g>
		
			<line fill="#FFFFFF" stroke="#000000" stroke-width="0.5" stroke-linecap="round" stroke-linejoin="round" x1="256.227" y1="164.115" x2="255.954" y2="205.66"/>
		<polygon fill="#010101" stroke="#000000" stroke-width="0.5" stroke-linecap="round" stroke-linejoin="round" points="    256.026,213.443 254.965,209.798 253.905,206.154 256.073,206.167 258.243,206.181 257.135,209.812   "/>
	</g>
	<g>
		
			<line fill="#FFFFFF" stroke="#000000" stroke-width="0.5" stroke-linecap="round" stroke-linejoin="round" x1="259.56" y1="253.115" x2="259.287" y2="294.66"/>
		<polygon fill="#010101" stroke="#000000" stroke-width="0.5" stroke-linecap="round" stroke-linejoin="round" points="    259.359,302.443 258.298,298.798 257.238,295.154 259.406,295.167 261.576,295.181 260.468,298.812   "/>
	</g>
	<g>
		
			<line fill="#FFFFFF" stroke="#000000" stroke-width="0.5" stroke-linecap="round" stroke-linejoin="round" x1="176.561" y1="21.115" x2="176.287" y2="62.66"/>
		<polygon fill="#010101" stroke="#000000" stroke-width="0.5" stroke-linecap="round" stroke-linejoin="round" points="    176.359,70.443 175.299,66.798 174.238,63.154 176.406,63.167 178.576,63.181 177.469,66.812   "/>
	</g>
	<g>
		
			<line fill="#FFFFFF" stroke="#000000" stroke-width="0.5" stroke-linecap="round" stroke-linejoin="round" x1="126.038" y1="405.268" x2="158.692" y2="430.956"/>
		<polygon fill="#010101" stroke="#000000" stroke-width="0.5" stroke-linecap="round" stroke-linejoin="round" points="    164.883,435.671 161.354,434.274 157.824,432.877 159.165,431.173 160.506,429.467 162.695,432.569   "/>
	</g>
	<g>
		
			<line fill="#FFFFFF" stroke="#000000" stroke-width="0.5" stroke-linecap="round" stroke-linejoin="round" x1="76.704" y1="275.935" x2="109.358" y2="301.623"/>
		<polygon fill="#010101" stroke="#000000" stroke-width="0.5" stroke-linecap="round" stroke-linejoin="round" points="    115.549,306.338 112.02,304.941 108.491,303.544 109.831,301.84 111.172,300.134 113.362,303.236   "/>
	</g>
	<g>
		
			<line fill="#FFFFFF" stroke="#000000" stroke-width="0.5" stroke-linecap="round" stroke-linejoin="round" x1="255.85" y1="332.042" x2="275.316" y2="368.747"/>
		<polygon fill="#010101" stroke="#000000" stroke-width="0.5" stroke-linecap="round" stroke-linejoin="round" points="    279.069,375.564 276.407,372.859 273.745,370.154 275.66,369.136 277.577,368.121 278.324,371.842   "/>
	</g>
</g>
<g id="boxes">
	
		<rect x="128.917" y="0.603" fill="#FFFFFF" stroke="#000000" stroke-width="0.5" stroke-linecap="round" stroke-linejoin="round" width="101.334" height="47.333"/>
	
		<rect x="128.917" y="73.936" fill="#FFFFFF" stroke="#000000" stroke-width="0.5" stroke-linecap="round" stroke-linejoin="round" width="101.334" height="47.333"/>
	
		<rect x="34.25" y="150.603" fill="#FFFFFF" stroke="#000000" stroke-width="0.5" stroke-linecap="round" stroke-linejoin="round" width="101.334" height="47.333"/>
	
		<rect x="208.25" y="150.603" fill="#FFFFFF" stroke="#000000" stroke-width="0.5" stroke-linecap="round" stroke-linejoin="round" width="101.334" height="47.333"/>
	
		<rect x="34.25" y="231.936" fill="#FFFFFF" stroke="#000000" stroke-width="0.5" stroke-linecap="round" stroke-linejoin="round" width="101.334" height="47.333"/>
	
		<rect x="83.583" y="308.602" fill="#FFFFFF" stroke="#000000" stroke-width="0.5" stroke-linecap="round" stroke-linejoin="round" width="101.334" height="47.334"/>
	
		<rect x="233.583" y="376.602" fill="#FFFFFF" stroke="#000000" stroke-width="0.5" stroke-linecap="round" stroke-linejoin="round" width="88.667" height="47.334"/>
	
		<rect x="129.583" y="437.269" fill="#FFFFFF" stroke="#000000" stroke-width="0.5" stroke-linecap="round" stroke-linejoin="round" width="88.667" height="47.334"/>
	
		<rect x="208.25" y="214.603" fill="#FFFFFF" stroke="#000000" stroke-width="0.5" stroke-linecap="round" stroke-linejoin="round" width="112.667" height="73"/>
	
		<rect x="0.25" y="311.269" fill="#FFFFFF" stroke="#000000" stroke-width="0.5" stroke-linecap="round" stroke-linejoin="round" width="66" height="30"/>
	
		<rect x="226.25" y="303.935" fill="#FFFFFF" stroke="#000000" stroke-width="0.5" stroke-linecap="round" stroke-linejoin="round" width="66" height="30"/>
	
		<rect x="94.917" y="383.268" fill="#FFFFFF" stroke="#000000" stroke-width="0.5" stroke-linecap="round" stroke-linejoin="round" width="66" height="30"/>
	
		<rect x="50.917" y="440.602" fill="#FFFFFF" stroke="#000000" stroke-width="0.5" stroke-linecap="round" stroke-linejoin="round" width="66" height="30"/>
</g>
<g id="text">
	<rect x="111.917" y="126.936" fill="none" width="28" height="17.333"/>
	<text transform="matrix(1 0 0 1 120.1655 133.3984)" font-family="'Helvetica'" font-size="9">No</text>
	<rect x="232.25" y="127.269" fill="none" width="28" height="17.333"/>
	<text transform="matrix(1 0 0 1 238.4966 133.7305)" font-family="'Helvetica'" font-size="9">Yes</text>
	<rect x="14.917" y="289.936" fill="none" width="28" height="17.333"/>
	<text transform="matrix(1 0 0 1 21.1631 296.3984)" font-family="'Helvetica'" font-size="9">Yes</text>
	<rect x="105.583" y="289.936" fill="none" width="28" height="17.333"/>
	<text transform="matrix(1 0 0 1 113.8325 296.3984)" font-family="'Helvetica'" font-size="9">No</text>
	<rect x="63.917" y="417.269" fill="none" width="28" height="17.333"/>
	<text transform="matrix(1 0 0 1 70.1631 423.731)" font-family="'Helvetica'" font-size="9">Yes</text>
	<rect x="208.25" y="359.936" fill="none" width="28" height="17.333"/>
	<text transform="matrix(1 0 0 1 214.4961 366.3989)" font-family="'Helvetica'" font-size="9">Yes</text>
	<rect x="155.583" y="417.269" fill="none" width="28" height="17.333"/>
	<text transform="matrix(1 0 0 1 163.8325 423.731)" font-family="'Helvetica'" font-size="9">No</text>
	<rect x="265.25" y="342.936" fill="none" width="28" height="17.333"/>
	<text transform="matrix(1 0 0 1 273.4985 349.3989)" font-family="'Helvetica'" font-size="9">No</text>
	<rect x="144.25" y="1.269" fill="none" width="81.332" height="40"/>
	<text transform="matrix(1 0 0 1 144.25 18.5308)"><tspan x="0" y="0" font-family="'Helvetica'" font-size="9">Run </tspan><tspan x="19.008" y="0" font-family="'Courier'" font-size="9">storage  </tspan><tspan x="0" y="10.8" font-family="'Courier'" font-size="9">array config </tspan><tspan x="0" y="21.6" font-family="'Courier'" font-size="9">show</tspan></text>
	<rect x="218.583" y="153.936" fill="none" width="81.332" height="40"/>
	<text transform="matrix(1 0 0 1 218.583 171.1978)"><tspan x="0" y="0" font-family="'Helvetica'" font-size="9">Run command and </tspan><tspan x="0" y="10.8" font-family="'Helvetica'" font-size="9">review message</tspan></text>
	<rect x="43.25" y="236.603" fill="none" width="81.332" height="40"/>
	<text transform="matrix(1 0 0 1 43.2495 253.8647)"><tspan x="0" y="0" font-family="'Helvetica'" font-size="9">Were intentions </tspan><tspan x="0" y="10.8" font-family="'Helvetica'" font-size="9">met?</tspan></text>
	<rect x="19.583" y="311.937" fill="none" width="43.998" height="26.667"/>
	<text transform="matrix(1 0 0 1 19.583 329.1978)" font-family="'Helvetica'" font-size="9">Done</text>
	<rect x="68.917" y="441.27" fill="none" width="43.998" height="26.667"/>
	<text transform="matrix(1 0 0 1 68.917 458.5317)" font-family="'Helvetica'" font-size="9">Done</text>
	<rect x="244.583" y="303.94" fill="none" width="43.998" height="26.667"/>
	<text transform="matrix(1 0 0 1 244.5825 321.2017)" font-family="'Helvetica'" font-size="9">Fixed?</text>
	<rect x="112.917" y="383.937" fill="none" width="43.998" height="26.667"/>
	<text transform="matrix(1 0 0 1 112.9165 401.1978)" font-family="'Helvetica'" font-size="9">Fixed?</text>
	<rect x="212.583" y="209.603" fill="none" width="104.664" height="75.333"/>
	<text transform="matrix(1 0 0 1 212.583 226.8643)"><tspan x="0" y="0" font-family="'Helvetica'" font-size="9">Review documentation </tspan><tspan x="0" y="10.8" font-family="'Helvetica'" font-size="9">and proceed as </tspan><tspan x="0" y="21.6" font-family="'Helvetica'" font-size="9">instructed, including </tspan><tspan x="0" y="32.4" font-family="'Helvetica'" font-size="9">running </tspan><tspan x="32.517" y="32.4" font-family="'Courier'" font-size="9">storage disk </tspan><tspan x="0" y="43.2" font-family="'Courier'" font-size="9">show</tspan><tspan x="21.601" y="43.2" font-family="'Helvetica'" font-size="9"> when further details </tspan><tspan x="0" y="54" font-family="'Helvetica'" font-size="9">are needed.</tspan></text>
	<rect x="243.583" y="379.269" fill="none" width="95.331" height="40"/>
	<text transform="matrix(1 0 0 1 243.5825 396.5308)"><tspan x="0" y="0" font-family="'Helvetica'" font-size="9">Contact technical </tspan><tspan x="0" y="10.8" font-family="'Helvetica'" font-size="9">support</tspan></text>
	<rect x="137.583" y="439.935" fill="none" width="95.331" height="40"/>
	<text transform="matrix(1 0 0 1 137.583 457.1968)"><tspan x="0" y="0" font-family="'Helvetica'" font-size="9">Contact technical </tspan><tspan x="0" y="10.8" font-family="'Helvetica'" font-size="9">support</tspan></text>
	<rect x="88.916" y="308.269" fill="none" width="95.332" height="40"/>
	<text transform="matrix(1 0 0 1 88.916 325.5308)"><tspan x="0" y="0" font-family="'Helvetica'" font-size="9">Review documentation </tspan><tspan x="0" y="10.8" font-family="'Helvetica'" font-size="9">and proceed as </tspan><tspan x="0" y="21.601" font-family="'Helvetica'" font-size="9">instructed</tspan></text>
	<rect x="144.25" y="74.603" fill="none" width="81.332" height="40"/>
	<text transform="matrix(1 0 0 1 144.25 91.8638)"><tspan x="0" y="0" font-family="'Helvetica'" font-size="9">Instructed to run </tspan><tspan x="0" y="10.8" font-family="'Courier'" font-size="9">storage  </tspan><tspan x="0" y="21.6" font-family="'Courier'" font-size="9">errors show?</tspan></text>
	<rect x="43.25" y="150.603" fill="none" width="81.332" height="53.333"/>
	<text transform="matrix(1 0 0 1 43.25 167.8638)"><tspan x="0" y="0" font-family="'Helvetica'" font-size="9">Review </tspan><tspan x="32.004" y="0" font-family="'Courier'" font-size="9">storage  </tspan><tspan x="0" y="10.8" font-family="'Courier'" font-size="9">array config </tspan><tspan x="0" y="21.6" font-family="'Courier'" font-size="9">show </tspan><tspan x="27.002" y="21.6" font-family="'Helvetica'" font-size="9">output</tspan></text>
</g>
</svg>