<?xml version="1.0" encoding="UTF-8"?><!-- Generator: Adobe Illustrator 12.0.0, SVG Export Plug-In . SVG Version: 6.00 Build 51448)  --><!DOCTYPE svg PUBLIC "-//W3C//DTD SVG 1.1//EN" "http://www.w3.org/Graphics/SVG/1.1/DTD/svg11.dtd">
<svg xmlns="http://www.w3.org/2000/svg" xmlns:xlink="http://www.w3.org/1999/xlink" version="1.1" width="328.835" height="280.906" viewBox="0 0 328.835 280.906" overflow="visible" enable-background="new 0 0 328.835 280.906" xml:space="preserve" preserveAspectRatio="xMidYMid meet" zoomAndPan="magnify" contentScriptType="application/ecmascript" contentStyleType="text/css">
<g id="Dimension_Layer">
	<polyline fill="none" stroke="#000000" points="108.291,169.941 101.355,169.941 101.355,104.019  "/>
	<polyline fill="none" stroke="#000000" points="107.957,188.033 94.581,188.033 94.581,103.064  "/>
	<line fill="none" stroke="#FFFFFF" stroke-width="3" x1="1.5" y1="77.102" x2="1.5" y2="139.707"/>
	<g>
		<polyline fill="none" stroke="#000000" stroke-linecap="round" stroke-linejoin="round" points="265.467,169.608 273.182,169.608     273.182,103.686   "/>
	</g>
	<polyline fill="none" stroke="#000000" stroke-linecap="round" stroke-linejoin="round" points="264.799,187.111 279.075,187.111    279.075,103.731  "/>
</g>
<g id="Text">
	<g>
		<rect x="253.928" y="194.312" fill="#FFFFFF" stroke="#000000" stroke-width="0.4" width="31.877" height="72.27"/>
		<polyline fill="none" stroke="#000000" stroke-width="0.4" points="283.434,264.992 283.434,196.193 256.407,196.193     256.473,264.992   "/>
		<path fill="#FFFFFF" stroke="#000000" stroke-width="0.4" d="M258.452,268.728c0.523,0,0.947-0.424,0.947-0.945    s-0.424-0.945-0.947-0.945c-0.521,0-0.945,0.424-0.945,0.945S257.93,268.728,258.452,268.728"/>
		<line fill="none" stroke="#000000" stroke-width="0.4" x1="257.735" y1="266.697" x2="257.735" y2="266.488"/>
		<path fill="none" stroke="#000000" stroke-width="0.4" d="M258.995,266.697 M256.475,266.697h2.52v-0.209h-2.52V266.697z"/>
		<line fill="none" stroke="#000000" stroke-width="0.4" x1="257.752" y1="267.8" x2="257.752" y2="266.681"/>
		<path fill="none" stroke="#000000" stroke-width="0.4" d="M257.979,267.8 M257.524,267.8h0.455v-1.119h-0.455V267.8z"/>
		<path fill="#FFFFFF" stroke="#000000" stroke-width="0.4" d="M282.784,268.728c0.521,0,0.945-0.424,0.945-0.945    s-0.424-0.945-0.945-0.945s-0.945,0.424-0.945,0.945S282.262,268.728,282.784,268.728"/>
		<line fill="none" stroke="#000000" stroke-width="0.4" x1="282.065" y1="266.697" x2="282.065" y2="266.488"/>
		<path fill="none" stroke="#000000" stroke-width="0.4" d="M283.327,266.697 M280.805,266.697h2.521v-0.209h-2.521V266.697z"/>
		<line fill="none" stroke="#000000" stroke-width="0.4" x1="282.083" y1="267.8" x2="282.083" y2="266.681"/>
		<path fill="none" stroke="#000000" stroke-width="0.4" d="M282.311,267.8 M281.856,267.8h0.455v-1.119h-0.455V267.8z"/>
		<line fill="none" stroke="#000000" stroke-width="0.4" x1="253.915" y1="264.832" x2="285.7" y2="264.832"/>
		<rect x="278.963" y="208.738" fill="none" stroke="#000000" stroke-width="0.4" width="1.5" height="9.002"/>
		<line fill="none" stroke="#000000" stroke-width="0.4" x1="256.313" y1="198.029" x2="283.309" y2="198.029"/>
		<line fill="none" stroke="#000000" stroke-width="0.4" x1="256.313" y1="205.527" x2="283.309" y2="205.527"/>
	</g>
	<line stroke="#000000" stroke-width="2" x1="141.107" y1="29.486" x2="232.334" y2="29.486"/>
	<line stroke="#000000" stroke-width="2" x1="141.107" y1="21.485" x2="232.334" y2="21.485"/>
	<rect x="115.439" y="158.02" fill="#D1D3D4" stroke="#000000" stroke-width="0.4" width="9.559" height="77.212"/>
	<polygon fill="#D1D3D4" stroke="#000000" stroke-width="0.4" points="258.061,235.398 248.502,235.232 248.502,158.02    258.061,158.02  "/>
	<line fill="none" stroke="#000000" x1="122.806" y1="169.787" x2="250.598" y2="169.787"/>
	<line fill="none" stroke="#000000" x1="122.806" y1="187.453" x2="250.598" y2="187.453"/>
	<ellipse fill="#FFFFFF" stroke="#000000" stroke-width="0.5" cx="258.019" cy="186.707" rx="6.448" ry="6.322"/>
	<text transform="matrix(1 0 0 1 255.3872 189.7461)" font-family="'Helvetica-Bold'" font-size="7.2003">B</text>
	<g>
		<polyline fill="#FFFFFF" stroke="#000000" stroke-width="0.4" points="141.107,18.989 134.411,14.336 110.646,14.336     103.531,18.966   "/>
		<polyline fill="none" stroke="#000000" stroke-width="0.4" stroke-linejoin="round" points="141.107,18.989 134.411,14.336     110.646,14.336 103.531,18.966   "/>
		<rect x="102.07" y="18.31" fill="#FFFFFF" stroke="#000000" stroke-width="0.4" width="39.992" height="24.081"/>
		
			<rect x="102.069" y="18.31" fill="none" stroke="#000000" stroke-width="0.4" stroke-linecap="round" stroke-linejoin="round" stroke-miterlimit="500" width="39.992" height="24.081"/>
		<path fill="#FFFFFF" stroke="#000000" stroke-width="0.4" d="M104.347,18.46c-1.266,0-1.305,0.197-1.582,1.225    c-0.277,1.029-1.187,4.863-1.187,6.365c0,1.504,1.266,6.643,1.424,7.868c0.158,1.227,0.475,4.508,0.595,5.219    c0.117,0.713,0.236,1.106,1.106,1.187c0.87,0.08,8.422,0.397,10.318,0.397c1.899,0,10.518-0.517,10.518-0.517    s4.825,0.478,7.75,0.478c2.927,0,5.693-0.239,6.288-0.358c0.592-0.119,0.947-0.08,0.986-1.463c0.04-1.383,0.436-3.598,0.713-5.931    c0.276-2.332,1.186-4.192,1.226-6.009c0.039-1.819-0.079-2.61-0.437-4.429c-0.354-1.818-0.75-2.817-0.869-3.203    c-0.156-0.514-0.354-0.829-1.225-0.829C139.101,18.46,104.347,18.46,104.347,18.46"/>
		
			<path fill="none" stroke="#000000" stroke-width="0.4" stroke-linecap="round" stroke-linejoin="round" stroke-miterlimit="500" d="    M141.078,18.933l0.982-0.623l-1.536,0.15 M103.597,18.46l-1.527-0.15l0.893,0.584 M104.347,18.46    c-1.266,0-1.305,0.197-1.582,1.225c-0.277,1.029-1.187,4.863-1.187,6.365c0,1.504,1.266,6.643,1.424,7.868    c0.158,1.227,0.475,4.508,0.595,5.219c0.117,0.713,0.236,1.106,1.106,1.187c0.87,0.08,8.422,0.397,10.318,0.397    c1.899,0,10.518-0.517,10.518-0.517s4.825,0.478,7.75,0.478c2.927,0,5.693-0.239,6.288-0.358c0.592-0.119,0.947-0.08,0.986-1.463    c0.04-1.383,0.436-3.598,0.713-5.931c0.276-2.332,1.186-4.192,1.226-6.009c0.039-1.819-0.079-2.61-0.437-4.429    c-0.354-1.818-0.75-2.817-0.869-3.203c-0.156-0.514-0.354-0.829-1.225-0.829C139.101,18.46,104.347,18.46,104.347,18.46z"/>
		
			<path fill="none" stroke="#000000" stroke-width="0.4" stroke-linecap="round" stroke-linejoin="round" stroke-miterlimit="500" d="    M136.495,29.953c0,0,1.041-4.063-0.129-8.556 M134.935,29.953c0,0,1.079-4.045-0.147-8.646 M133.378,29.953    c0,0,1.058-4.584-0.141-8.585 M131.819,29.953c0,0,1.04-4.51-0.093-8.425 M130.26,29.953c0,0,1.02-4.23-0.042-8.16     M128.701,29.953c0,0,1.058-3.116,0.069-7.845 M127.011,30.361c-0.205,0.52,1.357-2.95,0.163-8.476 M125.342,30.735    c-0.205,0.519,1.539-3.545,0.199-9.073 M123.728,31.013c-0.206,0.519,1.743-4.066,0.24-9.503 M122.087,31.217    c-0.206,0.521,1.826-4.418,0.322-9.856 M120.491,31.366c-0.206,0.52,1.917-4.509,0.289-10.09 M118.932,31.478    c-0.205,0.52,1.93-4.702,0.304-10.282 M117.379,31.507c-0.204,0.521,1.918-4.76,0.29-10.342 M115.813,31.507    c-0.206,0.521,1.755-5.153,0.289-10.342 M114.263,31.447c0,0,1.871-4.684,0.288-10.282 M112.741,31.31    c0,0,1.825-4.502,0.243-10.099 M111.235,31.189c0,0,1.521-4.442,0.243-9.901 M109.775,30.96c0,0,1.476-4.137,0.198-9.598     M108.284,30.717c0,0,1.416-3.773,0.137-9.232"/>
		<path fill="#FFFFFF" stroke="#000000" stroke-width="0.4" d="M128.979,23.324c0,0-2.658-0.021-3.865,0.261    c-1.204,0.279-1.605,0.601-0.04,0.923c1.568,0.32,4.08,0.358,4.08,0.358S129.059,23.684,128.979,23.324"/>
		
			<path fill="none" stroke="#000000" stroke-width="0.4" stroke-linecap="round" stroke-linejoin="round" stroke-miterlimit="500" d="    M128.701,29.953c0,0,7.581,0.097,8.222,0.055c0.641-0.038,0.923-0.079,1.044-1.405c0.12-1.325,0.493-3.86-0.403-6.545    c-0.199-0.603-0.44-0.603-0.843-0.681c-0.401-0.081-4.095-0.323-7.951,0.731c0,0-5.783-0.933-10.883-0.974    c-3.577-0.028-9.317,0.281-9.961,0.361c-0.641,0.08-1.043,0.402-1.164,1.566c-0.12,1.166-0.393,3.896,0.081,6.265    c0.12,0.603,0.12,1.086,0.763,1.286c0.642,0.2,5.422,1.125,11.164,0.884C124.513,31.255,128.701,29.953,128.701,29.953z     M128.979,23.324c0,0-2.658-0.021-3.865,0.261c-1.204,0.279-1.605,0.601-0.04,0.923c1.568,0.32,4.08,0.358,4.08,0.358    S129.059,23.684,128.979,23.324z"/>
		
			<path fill="none" stroke="#000000" stroke-width="0.4" stroke-linecap="round" stroke-linejoin="round" stroke-miterlimit="500" d="    M128.355,32.5c0,0-1.178,5.836-4.07,9.904 M128.569,21.308c0,0-0.268-2.087-0.696-2.998 M104.473,21.791    c0.188-0.625,0.482-0.804,1.339-0.911c0.856-0.108,8.406-0.643,11.833-0.589c3.428,0.053,10.924,1.017,10.924,1.017    s3.855-0.803,5.462-0.856c1.605-0.054,3.801,0.215,4.391,0.32c0.589,0.108,0.855,0.269,1.07,0.857    c0.216,0.589,0.644,3.053,0.644,4.285s-0.59,4.766-0.858,5.515c-0.267,0.75-0.534,1.124-1.283,1.124    c-0.75,0-9.639-0.053-9.639-0.053s-4.605,1.444-10.71,1.713c-6.103,0.269-10.495-0.804-11.191-0.962    c-0.696-0.162-1.125-0.162-1.499-1.341c-0.375-1.176-0.963-3.48-1.018-5.032C103.883,25.324,104.312,22.326,104.473,21.791z"/>
		
			<path fill="none" stroke="#000000" stroke-width="0.4" stroke-linecap="round" stroke-linejoin="round" stroke-miterlimit="500" d="    M138.743,36.922c0,0.159-0.129,0.291-0.289,0.291h-6.624c-0.161,0-0.29-0.132-0.29-0.291v-1.403c0-0.158,0.129-0.288,0.29-0.288    h6.624c0.16,0,0.289,0.13,0.289,0.288V36.922z"/>
	</g>
	<g>
		
			<rect x="90.277" y="32.327" fill="#FFFFFF" stroke="#000000" stroke-width="0.4" stroke-miterlimit="500" width="63.535" height="17.128"/>
	</g>
	
		<rect x="94.403" y="41.517" fill="#FFFFFF" stroke="#000000" stroke-width="0.4" stroke-miterlimit="500" width="7.916" height="5.802"/>
	<text transform="matrix(1 0 0 1 93.7505 39.5889)" font-family="'Helvetica'" font-size="7.6084">0a</text>
	
		<rect x="110.458" y="41.517" fill="#FFFFFF" stroke="#000000" stroke-width="0.4" stroke-miterlimit="500" width="7.916" height="5.802"/>
	<text transform="matrix(1 0 0 1 109.4468 39.5889)" font-family="'Helvetica'" font-size="7.6084">0b</text>
	<text transform="matrix(1 0 0 1 128.2363 39.5889)" font-family="'Helvetica'" font-size="7.6084">0c</text>
	
		<rect x="142.931" y="41.301" fill="#FFFFFF" stroke="#000000" stroke-width="0.4" stroke-miterlimit="500" width="7.916" height="5.802"/>
	<text transform="matrix(1 0 0 1 142.2778 39.5889)" font-family="'Helvetica'" font-size="7.6084">0d</text>
	
		<line fill="none" stroke="#000000" stroke-width="0.4" stroke-linecap="round" stroke-miterlimit="500" stroke-dasharray="2" x1="123.403" y1="49.43" x2="123.403" y2="32.899"/>
	<g>
		<polyline fill="#FFFFFF" stroke="#000000" stroke-width="0.4" points="270.393,18.989 263.696,14.336 239.932,14.336     232.817,18.966   "/>
		<polyline fill="none" stroke="#000000" stroke-width="0.4" stroke-linejoin="round" points="270.393,18.989 263.696,14.336     239.932,14.336 232.817,18.966   "/>
		<rect x="231.356" y="18.31" fill="#FFFFFF" stroke="#000000" stroke-width="0.4" width="39.99" height="24.081"/>
		
			<rect x="231.354" y="18.31" fill="none" stroke="#000000" stroke-width="0.4" stroke-linecap="round" stroke-linejoin="round" stroke-miterlimit="500" width="39.992" height="24.081"/>
		<path fill="#FFFFFF" stroke="#000000" stroke-width="0.4" d="M233.631,18.46c-1.266,0-1.305,0.197-1.582,1.225    c-0.275,1.029-1.186,4.863-1.186,6.365c0,1.504,1.266,6.643,1.424,7.868c0.158,1.227,0.475,4.508,0.594,5.219    c0.117,0.713,0.236,1.106,1.107,1.187c0.869,0.08,8.422,0.397,10.318,0.397c1.898,0,10.518-0.517,10.518-0.517    s4.824,0.478,7.75,0.478s5.693-0.239,6.287-0.358c0.592-0.119,0.947-0.08,0.986-1.463c0.041-1.383,0.436-3.598,0.713-5.931    c0.277-2.332,1.186-4.192,1.227-6.009c0.039-1.819-0.08-2.61-0.438-4.429c-0.354-1.818-0.75-2.817-0.869-3.203    c-0.156-0.514-0.354-0.829-1.225-0.829S233.631,18.46,233.631,18.46"/>
		
			<path fill="none" stroke="#000000" stroke-width="0.4" stroke-linecap="round" stroke-linejoin="round" stroke-miterlimit="500" d="    M270.364,18.933l0.982-0.623l-1.537,0.15 M232.881,18.46l-1.525-0.15l0.893,0.584 M233.631,18.46    c-1.266,0-1.305,0.197-1.582,1.225c-0.275,1.029-1.186,4.863-1.186,6.365c0,1.504,1.266,6.643,1.424,7.868    c0.158,1.227,0.475,4.508,0.594,5.219c0.117,0.713,0.236,1.106,1.107,1.187c0.869,0.08,8.422,0.397,10.318,0.397    c1.898,0,10.518-0.517,10.518-0.517s4.824,0.478,7.75,0.478s5.693-0.239,6.287-0.358c0.592-0.119,0.947-0.08,0.986-1.463    c0.041-1.383,0.436-3.598,0.713-5.931c0.277-2.332,1.186-4.192,1.227-6.009c0.039-1.819-0.08-2.61-0.438-4.429    c-0.354-1.818-0.75-2.817-0.869-3.203c-0.156-0.514-0.354-0.829-1.225-0.829S233.631,18.46,233.631,18.46z"/>
		
			<path fill="none" stroke="#000000" stroke-width="0.4" stroke-linecap="round" stroke-linejoin="round" stroke-miterlimit="500" d="    M265.78,29.953c0,0,1.041-4.063-0.129-8.556 M264.219,29.953c0,0,1.08-4.045-0.146-8.646 M262.663,29.953    c0,0,1.059-4.584-0.141-8.585 M261.104,29.953c0,0,1.039-4.51-0.094-8.425 M259.545,29.953c0,0,1.02-4.23-0.043-8.16     M257.987,29.953c0,0,1.057-3.116,0.068-7.845 M256.295,30.361c-0.205,0.52,1.357-2.95,0.164-8.476 M254.627,30.735    c-0.205,0.519,1.539-3.545,0.199-9.073 M253.012,31.013c-0.205,0.519,1.744-4.066,0.24-9.503 M251.372,31.217    c-0.205,0.521,1.826-4.418,0.322-9.856 M249.776,31.366c-0.205,0.52,1.918-4.509,0.289-10.09 M248.217,31.478    c-0.205,0.52,1.93-4.702,0.305-10.282 M246.665,31.507c-0.205,0.521,1.918-4.76,0.289-10.342 M245.098,31.507    c-0.205,0.521,1.756-5.153,0.289-10.342 M243.547,31.447c0,0,1.871-4.684,0.289-10.282 M242.026,31.31    c0,0,1.826-4.502,0.244-10.099 M240.52,31.189c0,0,1.521-4.442,0.242-9.901 M239.061,30.96c0,0,1.475-4.137,0.197-9.598     M237.569,30.717c0,0,1.416-3.773,0.137-9.232"/>
		<path fill="#FFFFFF" stroke="#000000" stroke-width="0.4" d="M258.264,23.324c0,0-2.658-0.021-3.865,0.261    c-1.203,0.279-1.605,0.601-0.039,0.923c1.566,0.32,4.08,0.358,4.08,0.358S258.344,23.684,258.264,23.324"/>
		
			<path fill="none" stroke="#000000" stroke-width="0.4" stroke-linecap="round" stroke-linejoin="round" stroke-miterlimit="500" d="    M257.987,29.953c0,0,7.58,0.097,8.221,0.055c0.641-0.038,0.924-0.079,1.045-1.405c0.119-1.325,0.492-3.86-0.404-6.545    c-0.199-0.603-0.439-0.603-0.842-0.681c-0.402-0.081-4.096-0.323-7.951,0.731c0,0-5.783-0.933-10.883-0.974    c-3.578-0.028-9.316,0.281-9.961,0.361c-0.641,0.08-1.043,0.402-1.164,1.566c-0.121,1.166-0.393,3.896,0.08,6.265    c0.121,0.603,0.121,1.086,0.764,1.286c0.643,0.2,5.422,1.125,11.164,0.884C253.797,31.255,257.987,29.953,257.987,29.953z     M258.264,23.324c0,0-2.658-0.021-3.865,0.261c-1.203,0.279-1.605,0.601-0.039,0.923c1.566,0.32,4.08,0.358,4.08,0.358    S258.344,23.684,258.264,23.324z"/>
		
			<path fill="none" stroke="#000000" stroke-width="0.4" stroke-linecap="round" stroke-linejoin="round" stroke-miterlimit="500" d="    M257.641,32.5c0,0-1.18,5.836-4.07,9.904 M257.854,21.308c0,0-0.268-2.087-0.695-2.998 M233.758,21.791    c0.188-0.625,0.482-0.804,1.34-0.911c0.855-0.108,8.404-0.643,11.832-0.589c3.428,0.053,10.924,1.017,10.924,1.017    s3.855-0.803,5.463-0.856c1.605-0.054,3.801,0.215,4.391,0.32c0.588,0.108,0.855,0.269,1.07,0.857    c0.215,0.589,0.643,3.053,0.643,4.285s-0.59,4.766-0.857,5.515c-0.268,0.75-0.535,1.124-1.283,1.124    c-0.75,0-9.639-0.053-9.639-0.053s-4.605,1.444-10.711,1.713c-6.104,0.269-10.494-0.804-11.191-0.962    c-0.695-0.162-1.125-0.162-1.498-1.341c-0.375-1.176-0.963-3.48-1.018-5.032C233.168,25.324,233.598,22.326,233.758,21.791z"/>
		
			<path fill="none" stroke="#000000" stroke-width="0.4" stroke-linecap="round" stroke-linejoin="round" stroke-miterlimit="500" d="    M268.028,36.922c0,0.159-0.129,0.291-0.289,0.291h-6.623c-0.16,0-0.289-0.132-0.289-0.291v-1.403c0-0.158,0.129-0.288,0.289-0.288    h6.623c0.16,0,0.289,0.13,0.289,0.288V36.922z"/>
	</g>
	<g>
		
			<rect x="219.563" y="32.327" fill="#FFFFFF" stroke="#000000" stroke-width="0.4" stroke-miterlimit="1" width="63.533" height="17.128"/>
	</g>
	<text transform="matrix(1 0 0 1 223.0366 39.1582)" font-family="'Helvetica'" font-size="7.6084">0a</text>
	
		<rect x="239.241" y="41.014" fill="#FFFFFF" stroke="#000000" stroke-width="0.4" stroke-miterlimit="500" width="7.916" height="5.802"/>
	<text transform="matrix(1 0 0 1 238.7319 39.5889)" font-family="'Helvetica'" font-size="7.6084">0b</text>
	
		<rect x="257.959" y="41.445" fill="#FFFFFF" stroke="#000000" stroke-width="0.4" stroke-miterlimit="500" width="7.916" height="5.802"/>
	<text transform="matrix(1 0 0 1 257.521 39.5889)" font-family="'Helvetica'" font-size="7.6084">0c</text>
	
		<rect x="272.217" y="41.445" fill="#FFFFFF" stroke="#000000" stroke-width="0.4" stroke-miterlimit="500" width="7.916" height="5.802"/>
	<text transform="matrix(1 0 0 1 271.564 39.5889)" font-family="'Helvetica'" font-size="7.6084">0d</text>
	
		<line fill="none" stroke="#000000" stroke-width="0.4" stroke-linecap="round" stroke-miterlimit="500" stroke-dasharray="2" x1="252.688" y1="49.43" x2="252.688" y2="32.899"/>
	<rect x="154.624" y="163.373" fill="#FFFFFF" stroke="#000000" stroke-width="0.5" width="64.916" height="28.439"/>
	<path fill="none" stroke="#FFFFFF" stroke-width="3" d="M227.899,49.129"/>
	<path fill="none" stroke="#000000" d="M227.899,47.459"/>
	<ellipse fill="#FFFFFF" stroke="#000000" stroke-width="0.5" cx="258.019" cy="169.275" rx="6.448" ry="6.322"/>
	<text transform="matrix(1 0 0 1 255.3872 171.9565)" font-family="'Helvetica-Bold'" font-size="7.2003">A</text>
	<path d="M249.561,169.982c0,0.838,0.68,1.518,1.52,1.518c0.838,0,1.518-0.68,1.518-1.518s-0.68-1.52-1.518-1.52   C250.241,168.462,249.561,169.144,249.561,169.982"/>
	<ellipse fill="#FFFFFF" stroke="#000000" stroke-width="0.5" cx="115.073" cy="169.828" rx="6.448" ry="6.324"/>
	<text transform="matrix(1 0 0 1 112.2271 172.1499)" font-family="'Helvetica-Bold'" font-size="7.2003">A</text>
	<path d="M120.066,169.982c0,0.838,0.68,1.518,1.52,1.518s1.52-0.68,1.52-1.518s-0.68-1.52-1.52-1.52   S120.066,169.144,120.066,169.982"/>
	<path d="M249.561,187.746c0,0.838,0.68,1.518,1.52,1.518c0.838,0,1.518-0.68,1.518-1.518s-0.68-1.52-1.518-1.52   C250.241,186.226,249.561,186.908,249.561,187.746"/>
	<ellipse fill="#FFFFFF" stroke="#000000" stroke-width="0.5" cx="115.073" cy="187.259" rx="6.448" ry="6.324"/>
	<text transform="matrix(1 0 0 1 112.3711 190.2998)" font-family="'Helvetica-Bold'" font-size="7.2003">B</text>
	<path d="M120.066,187.746c0,0.838,0.68,1.518,1.52,1.518s1.52-0.68,1.52-1.518s-0.68-1.52-1.52-1.52   S120.066,186.908,120.066,187.746"/>
	<g>
		<path fill="#FFFFFF" stroke="#000000" stroke-width="0.4" stroke-linecap="round" stroke-linejoin="round" d="M94.708,100.889    v10.527 M75.429,97.159v10.525l19.28,3.731l30.28-2.792V98.099"/>
		<g>
			<polygon fill="#FFFFFF" stroke="#000000" stroke-width="0.4" stroke-linecap="round" stroke-linejoin="round" points="     124.989,98.099 94.708,100.889 75.429,97.159 105.707,94.368    "/>
		</g>
	</g>
	<g>
		<path fill="none" stroke="#FFFFFF" stroke-width="3" d="M133.355,34.364"/>
		<path fill="none" stroke="#FFFFFF" stroke-width="3" d="M126.622,104.646"/>
		<path fill="none" stroke="#000000" d="M45.032,96.73"/>
		<path fill="none" stroke="#000000" d="M126.622,104.646"/>
		<path fill="none" stroke="#000000" d="M133.355,32.551"/>
	</g>
	<g>
		<path fill="#FFFFFF" stroke="#000000" stroke-width="0.4" stroke-linecap="round" stroke-linejoin="round" d="M267.69,100.889    v10.527 M248.411,97.159v10.525l19.279,3.731l30.27-2.792V98.099"/>
		<polygon fill="#FFFFFF" stroke="#000000" stroke-width="0.4" stroke-linecap="round" stroke-linejoin="round" points="    297.959,98.099 267.69,100.889 248.411,97.159 278.688,94.368   "/>
	</g>
	
		<rect x="128.675" y="41.301" fill="#FFFFFF" stroke="#000000" stroke-width="0.4" stroke-miterlimit="500" width="7.916" height="5.802"/>
	
		<rect x="223.688" y="41.373" fill="#FFFFFF" stroke="#000000" stroke-width="0.4" stroke-miterlimit="500" width="7.916" height="5.802"/>
	<rect x="247.487" y="238.542" fill="#FFFFFF" width="12.516" height="11.297"/>
	<text transform="matrix(1 0 0 1 230.4341 247.0435)" font-family="'Helvetica'" font-size="9">Controller 2</text>
	<text transform="matrix(1 0 0 1 74.6914 60.7002)"><tspan x="0" y="0" font-family="'Helvetica'" font-size="9">    z</tspan><tspan x="14.553" y="0" font-family="'Helvetica'" font-size="9">1</tspan></text>
	<text transform="matrix(1 0 0 1 106.4609 121.3794)"><tspan x="0" y="0" font-family="'Helvetica'" font-size="9">z</tspan><tspan x="4.509" y="0" font-family="'Helvetica'" font-size="9">1</tspan></text>
	<text transform="matrix(1 0 0 1 243.854 121.3794)"><tspan x="0" y="0" font-family="'Helvetica'" font-size="9">      </tspan><tspan x="15.066" y="0" font-family="'Helvetica'" font-size="9">z3</tspan></text>
	<text transform="matrix(1 0 0 1 199.2944 60.938)"><tspan x="0" y="0" font-family="'Helvetica'" font-size="9">      </tspan><tspan x="15.065" y="0" font-family="'Helvetica'" font-size="9">z3</tspan></text>
	<text transform="matrix(1 0 0 1 264.8618 60.7002)"><tspan x="0" y="0" font-family="'Helvetica'" font-size="9">z</tspan><tspan x="4.508" y="0" font-family="'Helvetica'" font-size="9">4</tspan></text>
	<text transform="matrix(1 0 0 1 45.1255 118.0298)" font-family="'Helvetica'" font-size="9.0004">Switch 1</text>
	<text transform="matrix(1 0 0 1 294.8228 118.0298)" font-family="'Helvetica'" font-size="9.0004">Switch 2</text>
	<text transform="matrix(1 0 0 1 46.6284 95.3955)" font-family="'Helvetica'" font-size="9.0004">Fabric 1</text>
	<text transform="matrix(1 0 0 1 294.8228 95.395)" font-family="'Helvetica'" font-size="9.0004">Fabric 2</text>
	<g>
		<text transform="matrix(1 0 0 1 244.0972 278.8813)" font-family="'Helvetica'" font-size="9">Storage array</text>
	</g>
	<text transform="matrix(1 0 0 1 96.6675 245.603)" font-family="'Helvetica'" font-size="9">Controller 1</text>
	<text transform="matrix(1 0 0 1 126.6079 61.2578)"><tspan x="0" y="0" font-family="'Helvetica'" font-size="9">    z</tspan><tspan x="14.553" y="0" font-family="'Helvetica'" font-size="9">2</tspan></text>
	<text transform="matrix(1 0 0 1 71.7334 183.4697)"><tspan x="0" y="0" font-family="'Helvetica'" font-size="9">    z</tspan><tspan x="14.553" y="0" font-family="'Helvetica'" font-size="9">2</tspan></text>
	<text transform="matrix(1 0 0 1 281.1274 187.1206)"><tspan x="0" y="0" font-family="'Helvetica'" font-size="9"> z</tspan><tspan x="7.02" y="0" font-family="'Helvetica'" font-size="9">4</tspan></text>
	<text transform="matrix(1 0 0 1 161.5752 181.1704)" font-family="'Helvetica'" font-size="9.0004">LUN group 1</text>
	<g>
		<text transform="matrix(1 0 0 1 172.3262 7.7314)"><tspan x="0" y="0" font-family="'Helvetica'" font-size="9.0004">Cluster</tspan><tspan x="-24.517" y="9" font-family="'Helvetica'" font-size="9.0004">interconnect cables</tspan></text>
	</g>
	<text transform="matrix(1 0 0 1 244.8979 10.6821)" font-family="'Helvetica'" font-size="9.0004">vs2</text>
	<text transform="matrix(1 0 0 1 115.9165 10.6074)" font-family="'Helvetica'" font-size="9.0004">vs1</text>
	<line fill="none" stroke="#000000" x1="98.167" y1="47.587" x2="98.167" y2="94.706"/>
	<line fill="none" stroke="#000000" x1="262.167" y1="47.587" x2="262.167" y2="95.706"/>
	<polyline fill="none" stroke="#000000" points="132.912,47.398 132.912,104.398 124.912,104.398  "/>
	<polyline fill="none" stroke="#000000" points="228.246,47.064 228.246,104.064 248.579,104.064  "/>
</g>
</svg>