<?xml version="1.0" encoding="utf-8"?>
<!-- Generator: Adobe Illustrator 12.0.1, SVG Export Plug-In . SVG Version: 6.00 Build 51448)  -->
<!DOCTYPE svg PUBLIC "-//W3C//DTD SVG 1.1//EN" "http://www.w3.org/Graphics/SVG/1.1/DTD/svg11.dtd" [
	<!ENTITY ns_svg "http://www.w3.org/2000/svg">
	<!ENTITY ns_xlink "http://www.w3.org/1999/xlink">
]>
<svg  version="1.1" id="Layer_2" xmlns="&ns_svg;" xmlns:xlink="&ns_xlink;" width="214.672" height="184.757"
	 viewBox="0 0 214.672 184.757" overflow="visible" enable-background="new 0 0 214.672 184.757" xml:space="preserve">
<g>
	<g>
		<polygon fill="#FFFFFF" stroke="#000000" stroke-width="0.5" points="32.076,9.836 32.076,72.108 0.343,72.13 0.422,9.836 		"/>
		<polygon fill="none" stroke="#000000" stroke-width="0.3" points="29.551,70.708 29.551,11.655 2.743,11.655 2.807,70.708 		"/>
		<g>
			<circle fill="#FFFFFF" stroke="#000000" stroke-width="0.5" cx="4.787" cy="73.5" r="0.945"/>
			<rect x="2.809" y="72.204" fill="#FFFFFF" stroke="#000000" stroke-width="0.5" width="2.521" height="0.21"/>
			<rect x="3.859" y="72.397" fill="#FFFFFF" stroke="#000000" stroke-width="0.5" width="0.456" height="1.12"/>
		</g>
		<g>
			<circle fill="#FFFFFF" stroke="#000000" stroke-width="0.5" cx="29.117" cy="73.5" r="0.945"/>
			<rect x="27.139" y="72.204" fill="#FFFFFF" stroke="#000000" stroke-width="0.5" width="2.521" height="0.21"/>
			<rect x="28.188" y="72.397" fill="#FFFFFF" stroke="#000000" stroke-width="0.5" width="0.456" height="1.12"/>
		</g>
		<path fill="#FFFFFF" stroke="#000000" stroke-width="0.5" d="M32.033,70.549v1.538c-0.028,0.051-0.061,0.147-0.428,0.147
			L1.055,72.275c0.218,0-0.638-0.021-0.805-0.102v-1.625H32.033z"/>
	</g>
	<rect x="2.869" y="12.291" fill="none" stroke="#000000" stroke-width="0.3" width="26.5" height="10"/>
	<rect x="25.369" y="40.791" fill="none" stroke="#000000" stroke-width="0.3" width="1.5" height="9"/>
</g>
<text transform="matrix(1 0 0 1 35.7925 7.731)"><tspan x="0" y="0" font-family="'Helvetica'" font-size="9">Storage array 1, </tspan><tspan x="0" y="10" font-family="'Helvetica'" font-size="9">Family A</tspan></text>
<path fill="#FFFFFF" stroke="#999999" stroke-width="2" d="M59.701,38.107c0,3.579-2.901,6.48-6.48,6.48H24.135
	c-3.579,0-6.48-2.901-6.48-6.48v-4.683c0-3.579,2.901-6.48,6.48-6.48h29.086c3.579,0,6.48,2.901,6.48,6.48V38.107z"/>
<text transform="matrix(1 0 0 1 22.6455 38.876)" font-family="'Helvetica'" font-size="9">LUN 1</text>
<circle cx="52.791" cy="35.948" r="1.516"/>
<path fill="#FFFFFF" stroke="#999999" stroke-width="2" d="M59.701,59.068c0,3.579-2.901,6.48-6.48,6.48H24.135
	c-3.579,0-6.48-2.901-6.48-6.48v-4.683c0-3.579,2.901-6.48,6.48-6.48h29.086c3.579,0,6.48,2.901,6.48,6.48V59.068z"/>
<text transform="matrix(1 0 0 1 22.6455 59.8374)" font-family="'Helvetica'" font-size="9">LUN 2</text>
<circle cx="52.791" cy="56.91" r="1.516"/>
<g>
	<g>
		<polygon fill="#FFFFFF" stroke="#000000" stroke-width="0.5" points="32.076,109.836 32.076,172.108 0.343,172.13 0.422,109.836 
					"/>
		<polygon fill="none" stroke="#000000" stroke-width="0.3" points="29.551,170.708 29.551,111.655 2.743,111.655 2.807,170.708 		
			"/>
		<g>
			<circle fill="#FFFFFF" stroke="#000000" stroke-width="0.5" cx="4.787" cy="173.5" r="0.945"/>
			<rect x="2.809" y="172.204" fill="#FFFFFF" stroke="#000000" stroke-width="0.5" width="2.521" height="0.21"/>
			<rect x="3.859" y="172.397" fill="#FFFFFF" stroke="#000000" stroke-width="0.5" width="0.456" height="1.12"/>
		</g>
		<g>
			<circle fill="#FFFFFF" stroke="#000000" stroke-width="0.5" cx="29.117" cy="173.5" r="0.945"/>
			<rect x="27.139" y="172.204" fill="#FFFFFF" stroke="#000000" stroke-width="0.5" width="2.521" height="0.21"/>
			<rect x="28.188" y="172.397" fill="#FFFFFF" stroke="#000000" stroke-width="0.5" width="0.456" height="1.12"/>
		</g>
		<path fill="#FFFFFF" stroke="#000000" stroke-width="0.5" d="M32.033,170.549v1.538c-0.028,0.051-0.061,0.147-0.428,0.147
			l-30.549,0.041c0.218,0-0.638-0.021-0.805-0.102v-1.625H32.033z"/>
	</g>
	<rect x="2.869" y="112.291" fill="none" stroke="#000000" stroke-width="0.3" width="26.5" height="10"/>
	<rect x="25.369" y="140.791" fill="none" stroke="#000000" stroke-width="0.3" width="1.5" height="9"/>
</g>
<text transform="matrix(1 0 0 1 36.7241 172.7314)"><tspan x="0" y="0" font-family="'Helvetica'" font-size="9">Storage array 2, </tspan><tspan x="0" y="10" font-family="'Helvetica'" font-size="9">Family A</tspan></text>
<path fill="#FFFFFF" stroke="#999999" stroke-width="2" d="M59.701,133.454c0,3.578-2.901,6.48-6.48,6.48H24.135
	c-3.579,0-6.48-2.902-6.48-6.48v-4.684c0-3.578,2.901-6.479,6.48-6.479h29.086c3.579,0,6.48,2.901,6.48,6.479V133.454z"/>
<text transform="matrix(1 0 0 1 22.6455 134.2227)" font-family="'Helvetica'" font-size="9">LUN 1</text>
<circle cx="52.791" cy="131.295" r="1.516"/>
<g>
	<g>
		<path fill="#FFFFFF" d="M133.743,95.12c-3.19-0.96-7.475-1.721-10.654-1.5l4.664-3.03l1.646-5.313
			C130.053,88.396,131.95,92.312,133.743,95.12z"/>
		<path fill="#FFFFFF" d="M54.668,35.312c3.191,0.96,7.475,1.721,10.654,1.5l-4.664,3.03l-1.646,5.313
			C58.359,42.036,56.461,38.12,54.668,35.312z"/>
	</g>
	<g>
		<line fill="none" stroke="#000000" stroke-width="0.5" x1="59.963" y1="39.316" x2="128.448" y2="91.115"/>
		<path d="M131.096,93.117c-1.596-0.479-3.737-0.86-5.327-0.749l2.332-1.516l0.823-2.656
			C129.25,89.756,130.199,91.714,131.096,93.117z"/>
		<path d="M57.316,37.314c1.595,0.48,3.737,0.86,5.327,0.75l-2.332,1.515l-0.823,2.656C59.161,40.676,58.212,38.718,57.316,37.314z"
			/>
	</g>
</g>
<g>
	<g>
		<path fill="#FFFFFF" d="M133.435,123.445c-3.111-1.191-7.328-2.264-10.515-2.276l4.874-2.681l2.031-5.178
			C130.248,116.469,131.854,120.514,133.435,123.445z"/>
		<path fill="#FFFFFF" d="M54.977,54.498c3.112,1.191,7.329,2.265,10.515,2.277l-4.874,2.68l-2.032,5.177
			C58.164,61.475,56.559,57.431,54.977,54.498z"/>
	</g>
	<g>
		<line fill="none" stroke="#000000" stroke-width="0.5" x1="59.963" y1="58.88" x2="128.448" y2="119.063"/>
		<path d="M130.941,121.255c-1.556-0.596-3.664-1.133-5.257-1.139l2.437-1.34l1.016-2.589
			C129.348,117.767,130.15,119.788,130.941,121.255z"/>
		<path d="M57.47,56.689c1.556,0.596,3.664,1.132,5.257,1.138l-2.437,1.34l-1.016,2.589C59.063,60.178,58.261,58.155,57.47,56.689z"
			/>
	</g>
</g>
<g>
	<g>
		<path fill="#FFFFFF" d="M134.157,99.856c-2.479,2.226-5.359,5.487-6.825,8.316l-0.161-5.56l-3.68-4.17
			C126.495,99.509,130.826,99.926,134.157,99.856z"/>
		<path fill="#FFFFFF" d="M54.418,131.325c2.48-2.225,5.359-5.486,6.825-8.316l0.161,5.561l3.68,4.17
			C62.081,131.674,57.749,131.257,54.418,131.325z"/>
	</g>
	<g>
		<line fill="none" stroke="#000000" stroke-width="0.5" x1="60.593" y1="128.889" x2="127.982" y2="102.294"/>
		<path d="M131.07,101.075c-1.24,1.112-2.68,2.744-3.413,4.158l-0.08-2.779l-1.84-2.086
			C127.239,100.901,129.404,101.11,131.07,101.075z"/>
		<path d="M57.506,130.107c1.24-1.112,2.68-2.744,3.413-4.158l0.08,2.779l1.84,2.086C61.337,130.281,59.171,130.072,57.506,130.107z
			"/>
	</g>
</g>
<path fill="#FFFFFF" stroke="#999999" stroke-width="2" d="M59.701,154.56c0,3.578-2.901,6.48-6.48,6.48H24.135
	c-3.579,0-6.48-2.902-6.48-6.48v-4.684c0-3.578,2.901-6.479,6.48-6.479h29.086c3.579,0,6.48,2.901,6.48,6.479V154.56z"/>
<text transform="matrix(1 0 0 1 22.6455 155.3281)" font-family="'Helvetica'" font-size="9">LUN 2</text>
<circle cx="52.791" cy="152.4" r="1.516"/>
<g>
	<g>
		<path fill="#FFFFFF" d="M134.263,126.228c-2.579,2.109-5.604,5.236-7.199,7.996l0.094-5.562l-3.485-4.335
			C126.624,125.529,130.932,126.145,134.263,126.228z"/>
		<path fill="#FFFFFF" d="M55.091,153.356c2.58-2.109,5.605-5.236,7.199-7.996l-0.094,5.562l3.485,4.335
			C62.73,154.055,58.422,153.439,55.091,153.356z"/>
	</g>
	<g>
		<line fill="none" stroke="#000000" stroke-width="0.5" x1="61.372" y1="151.204" x2="127.982" y2="128.38"/>
		<path d="M131.122,127.304c-1.289,1.055-2.802,2.618-3.599,3.998l0.047-2.78l-1.743-2.168
			C127.303,126.955,129.457,127.263,131.122,127.304z"/>
		<path d="M58.231,152.28c1.29-1.055,2.802-2.618,3.599-3.998l-0.047,2.78l1.743,2.168C62.051,152.629,59.897,152.321,58.231,152.28
			z"/>
	</g>
</g>
<text transform="matrix(1 0 0 1 186.6514 71.3418)" font-family="'Helvetica'" font-size="9">vs-1</text>
<g>
	<g>
		<polyline fill="#FFFFFF" stroke="#000000" stroke-width="0.5" stroke-linejoin="round" points="213.021,81.354 206.324,76.702 
			182.561,76.702 175.445,81.332 		"/>
	</g>
	<g>
		
			<rect x="173.984" y="80.676" fill="#FFFFFF" stroke="#000000" stroke-width="0.5" stroke-linecap="round" stroke-linejoin="round" stroke-miterlimit="500" width="39.99" height="24.079"/>
		
			<path fill="#FFFFFF" stroke="#000000" stroke-width="0.5" stroke-linecap="round" stroke-linejoin="round" stroke-miterlimit="500" d="
			M176.262,80.825c-1.266,0-1.305,0.197-1.582,1.226s-1.187,4.862-1.187,6.364c0,1.504,1.266,6.643,1.424,7.868
			c0.158,1.227,0.475,4.508,0.595,5.219c0.117,0.713,0.236,1.107,1.105,1.188c0.87,0.079,8.422,0.396,10.318,0.396
			c1.898,0,10.518-0.515,10.518-0.515s4.824,0.476,7.749,0.476c2.927,0,5.694-0.237,6.288-0.356c0.592-0.119,0.948-0.08,0.987-1.464
			c0.04-1.383,0.435-3.598,0.713-5.931c0.275-2.332,1.185-4.191,1.225-6.009c0.039-1.818-0.079-2.61-0.436-4.429
			c-0.355-1.818-0.75-2.817-0.869-3.203c-0.157-0.514-0.355-0.829-1.225-0.829C211.015,80.825,176.262,80.825,176.262,80.825z"/>
		
			<polyline fill="none" stroke="#000000" stroke-width="0.5" stroke-linecap="round" stroke-linejoin="round" stroke-miterlimit="500" points="
			175.512,80.825 173.984,80.676 174.878,81.26 		"/>
		
			<polyline fill="none" stroke="#000000" stroke-width="0.5" stroke-linecap="round" stroke-linejoin="round" stroke-miterlimit="500" points="
			212.991,81.299 213.975,80.676 212.438,80.825 		"/>
		
			<path fill="none" stroke="#000000" stroke-width="0.4" stroke-linecap="round" stroke-linejoin="round" stroke-miterlimit="500" d="
			M180.198,93.082c0,0,1.416-3.772,0.137-9.231"/>
		
			<path fill="none" stroke="#000000" stroke-width="0.4" stroke-linecap="round" stroke-linejoin="round" stroke-miterlimit="500" d="
			M181.082,83.791"/>
		
			<path fill="none" stroke="#000000" stroke-width="0.4" stroke-linecap="round" stroke-linejoin="round" stroke-miterlimit="500" d="
			M181.689,93.325c0,0,1.476-4.137,0.198-9.598"/>
		
			<path fill="none" stroke="#000000" stroke-width="0.4" stroke-linecap="round" stroke-linejoin="round" stroke-miterlimit="500" d="
			M182.603,83.682"/>
		
			<path fill="none" stroke="#000000" stroke-width="0.4" stroke-linecap="round" stroke-linejoin="round" stroke-miterlimit="500" d="
			M183.149,93.554c0,0,1.521-4.441,0.243-9.9"/>
		
			<path fill="none" stroke="#000000" stroke-width="0.4" stroke-linecap="round" stroke-linejoin="round" stroke-miterlimit="500" d="
			M184.107,83.607"/>
		
			<path fill="none" stroke="#000000" stroke-width="0.4" stroke-linecap="round" stroke-linejoin="round" stroke-miterlimit="500" d="
			M184.655,93.675c0,0,1.825-4.502,0.243-10.099"/>
		
			<path fill="none" stroke="#000000" stroke-width="0.4" stroke-linecap="round" stroke-linejoin="round" stroke-miterlimit="500" d="
			M185.66,83.53"/>
		
			<path fill="none" stroke="#000000" stroke-width="0.4" stroke-linecap="round" stroke-linejoin="round" stroke-miterlimit="500" d="
			M186.177,93.813c0,0,1.871-4.685,0.288-10.282"/>
		
			<path fill="none" stroke="#000000" stroke-width="0.4" stroke-linecap="round" stroke-linejoin="round" stroke-miterlimit="500" d="
			M187.195,83.517"/>
		
			<path fill="none" stroke="#000000" stroke-width="0.4" stroke-linecap="round" stroke-linejoin="round" stroke-miterlimit="500" d="
			M187.728,93.872c-0.206,0.521,1.755-5.153,0.289-10.342"/>
		
			<path fill="none" stroke="#000000" stroke-width="0.4" stroke-linecap="round" stroke-linejoin="round" stroke-miterlimit="500" d="
			M188.747,83.517"/>
		
			<path fill="none" stroke="#000000" stroke-width="0.4" stroke-linecap="round" stroke-linejoin="round" stroke-miterlimit="500" d="
			M189.293,93.872c-0.204,0.521,1.918-4.76,0.29-10.342"/>
		
			<path fill="none" stroke="#000000" stroke-width="0.4" stroke-linecap="round" stroke-linejoin="round" stroke-miterlimit="500" d="
			M190.328,83.53"/>
		
			<path fill="none" stroke="#000000" stroke-width="0.4" stroke-linecap="round" stroke-linejoin="round" stroke-miterlimit="500" d="
			M190.846,93.843c-0.205,0.521,1.931-4.701,0.305-10.281"/>
		
			<path fill="none" stroke="#000000" stroke-width="0.4" stroke-linecap="round" stroke-linejoin="round" stroke-miterlimit="500" d="
			M191.925,83.59"/>
		
			<path fill="none" stroke="#000000" stroke-width="0.4" stroke-linecap="round" stroke-linejoin="round" stroke-miterlimit="500" d="
			M192.405,93.731c-0.206,0.52,1.917-4.509,0.289-10.09"/>
		
			<path fill="none" stroke="#000000" stroke-width="0.4" stroke-linecap="round" stroke-linejoin="round" stroke-miterlimit="500" d="
			M193.469,83.673"/>
		
			<path fill="none" stroke="#000000" stroke-width="0.4" stroke-linecap="round" stroke-linejoin="round" stroke-miterlimit="500" d="
			M194.001,93.582c-0.206,0.521,1.826-4.418,0.322-9.855"/>
		
			<path fill="none" stroke="#000000" stroke-width="0.4" stroke-linecap="round" stroke-linejoin="round" stroke-miterlimit="500" d="
			M195.015,83.799"/>
		
			<path fill="none" stroke="#000000" stroke-width="0.4" stroke-linecap="round" stroke-linejoin="round" stroke-miterlimit="500" d="
			M195.642,93.378c-0.206,0.519,1.743-4.065,0.24-9.503"/>
		
			<path fill="none" stroke="#000000" stroke-width="0.4" stroke-linecap="round" stroke-linejoin="round" stroke-miterlimit="500" d="
			M196.63,83.965"/>
		
			<path fill="none" stroke="#000000" stroke-width="0.4" stroke-linecap="round" stroke-linejoin="round" stroke-miterlimit="500" d="
			M197.256,93.1c-0.205,0.52,1.539-3.544,0.199-9.072"/>
		
			<path fill="none" stroke="#000000" stroke-width="0.4" stroke-linecap="round" stroke-linejoin="round" stroke-miterlimit="500" d="
			M198.202,84.116"/>
		
			<path fill="none" stroke="#000000" stroke-width="0.4" stroke-linecap="round" stroke-linejoin="round" stroke-miterlimit="500" d="
			M198.925,92.727c-0.205,0.52,1.356-2.95,0.163-8.477"/>
		
			<path fill="none" stroke="#000000" stroke-width="0.4" stroke-linecap="round" stroke-linejoin="round" stroke-miterlimit="500" d="
			M199.835,84.34"/>
		
			<path fill="none" stroke="#000000" stroke-width="0.4" stroke-linecap="round" stroke-linejoin="round" stroke-miterlimit="500" d="
			M200.614,92.318c0,0,1.059-3.116,0.069-7.845"/>
		
			<path fill="none" stroke="#000000" stroke-width="0.4" stroke-linecap="round" stroke-linejoin="round" stroke-miterlimit="500" d="
			M201.361,84.316"/>
		
			<path fill="none" stroke="#000000" stroke-width="0.4" stroke-linecap="round" stroke-linejoin="round" stroke-miterlimit="500" d="
			M202.174,92.318c0,0,1.02-4.23-0.042-8.16"/>
		
			<path fill="none" stroke="#000000" stroke-width="0.4" stroke-linecap="round" stroke-linejoin="round" stroke-miterlimit="500" d="
			M202.81,84.003"/>
		
			<path fill="none" stroke="#000000" stroke-width="0.4" stroke-linecap="round" stroke-linejoin="round" stroke-miterlimit="500" d="
			M203.732,92.318c0,0,1.04-4.51-0.093-8.425"/>
		
			<path fill="none" stroke="#000000" stroke-width="0.4" stroke-linecap="round" stroke-linejoin="round" stroke-miterlimit="500" d="
			M204.368,83.815"/>
		
			<path fill="none" stroke="#000000" stroke-width="0.4" stroke-linecap="round" stroke-linejoin="round" stroke-miterlimit="500" d="
			M205.291,92.318c0,0,1.059-4.584-0.14-8.585"/>
		
			<path fill="none" stroke="#000000" stroke-width="0.4" stroke-linecap="round" stroke-linejoin="round" stroke-miterlimit="500" d="
			M205.866,83.708"/>
		
			<path fill="none" stroke="#000000" stroke-width="0.4" stroke-linecap="round" stroke-linejoin="round" stroke-miterlimit="500" d="
			M206.849,92.318c0,0,1.079-4.045-0.148-8.646"/>
		
			<path fill="none" stroke="#000000" stroke-width="0.4" stroke-linecap="round" stroke-linejoin="round" stroke-miterlimit="500" d="
			M207.431,83.705"/>
		
			<path fill="none" stroke="#000000" stroke-width="0.4" stroke-linecap="round" stroke-linejoin="round" stroke-miterlimit="500" d="
			M208.408,92.318c0,0,1.041-4.063-0.129-8.556"/>
		
			<path fill="none" stroke="#000000" stroke-width="0.4" stroke-linecap="round" stroke-linejoin="round" stroke-miterlimit="500" d="
			M209.281,84.005"/>
		
			<path fill="#FFFFFF" stroke="#000000" stroke-width="0.4" stroke-linecap="round" stroke-linejoin="round" stroke-miterlimit="500" d="
			M200.893,85.689c0,0-2.658-0.021-3.864,0.261c-1.204,0.279-1.605,0.601-0.04,0.923c1.567,0.32,4.079,0.358,4.079,0.358
			S200.973,86.05,200.893,85.689z"/>
		
			<path fill="none" stroke="#000000" stroke-width="0.4" stroke-linecap="round" stroke-linejoin="round" stroke-miterlimit="500" d="
			M200.614,92.318c0,0,7.58,0.097,8.222,0.055c0.642-0.038,0.924-0.079,1.044-1.405c0.12-1.324,0.493-3.859-0.402-6.544
			c-0.2-0.604-0.441-0.604-0.843-0.682c-0.401-0.081-4.096-0.322-7.951,0.731c0,0-5.782-0.934-10.883-0.975
			c-3.576-0.027-9.316,0.281-9.96,0.361c-0.642,0.08-1.043,0.402-1.164,1.566c-0.12,1.165-0.394,3.896,0.081,6.265
			c0.12,0.603,0.12,1.086,0.763,1.286c0.642,0.199,5.422,1.124,11.163,0.884C196.427,93.62,200.614,92.318,200.614,92.318z"/>
		
			<path fill="none" stroke="#000000" stroke-width="0.5" stroke-linecap="round" stroke-linejoin="round" stroke-miterlimit="500" d="
			M176.388,84.156c0.188-0.625,0.482-0.804,1.339-0.911s8.405-0.643,11.833-0.589c3.428,0.053,10.923,1.018,10.923,1.018
			s3.855-0.804,5.462-0.856c1.606-0.054,3.801,0.215,4.391,0.32c0.589,0.107,0.856,0.269,1.07,0.856
			c0.216,0.589,0.644,3.053,0.644,4.285c0,1.231-0.59,4.766-0.857,5.515c-0.268,0.75-0.535,1.124-1.284,1.124
			c-0.75,0-9.639-0.053-9.639-0.053s-4.604,1.443-10.709,1.713c-6.104,0.269-10.495-0.804-11.191-0.962
			c-0.695-0.162-1.124-0.162-1.498-1.341c-0.375-1.177-0.964-3.48-1.019-5.032C175.798,87.689,176.227,84.691,176.388,84.156z"/>
		
			<path fill="none" stroke="#000000" stroke-width="0.5" stroke-linecap="round" stroke-linejoin="round" stroke-miterlimit="500" d="
			M200.482,83.674c0,0-0.268-2.087-0.695-2.998"/>
		
			<path fill="none" stroke="#000000" stroke-width="0.5" stroke-linecap="round" stroke-linejoin="round" stroke-miterlimit="500" d="
			M200.269,94.865c0,0-1.178,5.835-4.069,9.904"/>
		
			<path fill="none" stroke="#000000" stroke-width="0.4" stroke-linecap="round" stroke-linejoin="round" stroke-miterlimit="500" d="
			M210.656,99.287c0,0.16-0.129,0.29-0.289,0.29h-6.623c-0.16,0-0.29-0.13-0.29-0.29v-1.402c0-0.159,0.13-0.289,0.29-0.289h6.623
			c0.16,0,0.289,0.13,0.289,0.289V99.287z"/>
	</g>
</g>
<g>
	<path fill="#FFFFFF" stroke="#000000" stroke-width="0.5" d="M190.368,105.073c0,3.579-2.901,6.48-6.48,6.48h-43.094
		c-3.579,0-6.48-2.901-6.48-6.48v-7.977c0-3.579,2.901-6.48,6.48-6.48h43.094c3.579,0,6.48,2.901,6.48,6.48V105.073z"/>
	<text transform="matrix(1 0 0 1 137.792 103.8799)" font-family="'Helvetica'" font-size="9">Aggregate 1</text>
</g>
<g>
	<path fill="#FFFFFF" stroke="#000000" stroke-width="0.5" d="M190.368,131.158c0,3.579-2.901,6.48-6.48,6.48h-43.094
		c-3.579,0-6.48-2.901-6.48-6.48v-7.977c0-3.579,2.901-6.48,6.48-6.48h43.094c3.579,0,6.48,2.901,6.48,6.48V131.158z"/>
	<text transform="matrix(1 0 0 1 137.792 129.9648)" font-family="'Helvetica'" font-size="9">Aggregate 2</text>
</g>
</svg>
