<?xml version="1.0" encoding="utf-8"?>
<!-- Generator: Adobe Illustrator 12.0.1, SVG Export Plug-In . SVG Version: 6.00 Build 51448)  -->
<!DOCTYPE svg PUBLIC "-//W3C//DTD SVG 1.1//EN" "http://www.w3.org/Graphics/SVG/1.1/DTD/svg11.dtd" [
	<!ENTITY ns_svg "http://www.w3.org/2000/svg">
	<!ENTITY ns_xlink "http://www.w3.org/1999/xlink">
]>
<svg  version="1.1" id="Layer_2" xmlns="&ns_svg;" xmlns:xlink="&ns_xlink;" width="214.672" height="165.109"
	 viewBox="0 0 214.672 165.109" overflow="visible" enable-background="new 0 0 214.672 165.109" xml:space="preserve">
<g>
	<g>
		<polygon fill="#FFFFFF" stroke="#000000" stroke-width="0.5" points="32.076,0.25 32.076,62.522 0.343,62.544 0.422,0.25 		"/>
		<polygon fill="none" stroke="#000000" stroke-width="0.3" points="29.551,61.122 29.551,2.069 2.743,2.069 2.807,61.122 		"/>
		<g>
			<circle fill="#FFFFFF" stroke="#000000" stroke-width="0.5" cx="4.787" cy="63.914" r="0.945"/>
			<rect x="2.809" y="62.618" fill="#FFFFFF" stroke="#000000" stroke-width="0.5" width="2.521" height="0.21"/>
			<rect x="3.859" y="62.812" fill="#FFFFFF" stroke="#000000" stroke-width="0.5" width="0.456" height="1.12"/>
		</g>
		<g>
			<circle fill="#FFFFFF" stroke="#000000" stroke-width="0.5" cx="29.117" cy="63.914" r="0.945"/>
			<rect x="27.139" y="62.618" fill="#FFFFFF" stroke="#000000" stroke-width="0.5" width="2.521" height="0.21"/>
			<rect x="28.188" y="62.812" fill="#FFFFFF" stroke="#000000" stroke-width="0.5" width="0.456" height="1.12"/>
		</g>
		<path fill="#FFFFFF" stroke="#000000" stroke-width="0.5" d="M32.033,60.963v1.538c-0.028,0.051-0.061,0.147-0.428,0.147
			L1.055,62.689c0.218,0-0.638-0.021-0.805-0.102v-1.625H32.033z"/>
	</g>
	<rect x="2.869" y="2.705" fill="none" stroke="#000000" stroke-width="0.3" width="26.5" height="10"/>
	<rect x="25.369" y="31.205" fill="none" stroke="#000000" stroke-width="0.3" width="1.5" height="9"/>
</g>
<text transform="matrix(1 0 0 1 35.7925 18.3013)"><tspan x="0" y="0" font-family="'Helvetica'" font-size="9">Storage array 1, </tspan><tspan x="0" y="10" font-family="'Helvetica'" font-size="9">Family A</tspan></text>
<text transform="matrix(1 0 0 1 185.667 62.7637)" font-family="'Helvetica'" font-size="9">vs-1</text>
<g>
	<g>
		<polyline fill="#FFFFFF" stroke="#000000" stroke-width="0.5" stroke-linejoin="round" points="213.021,72.776 206.324,68.124 
			182.561,68.124 175.445,72.754 		"/>
	</g>
	<g>
		
			<rect x="173.984" y="72.098" fill="#FFFFFF" stroke="#000000" stroke-width="0.5" stroke-linecap="round" stroke-linejoin="round" stroke-miterlimit="500" width="39.99" height="24.079"/>
		
			<path fill="#FFFFFF" stroke="#000000" stroke-width="0.5" stroke-linecap="round" stroke-linejoin="round" stroke-miterlimit="500" d="
			M176.262,72.247c-1.266,0-1.305,0.197-1.582,1.226s-1.187,4.862-1.187,6.364c0,1.504,1.266,6.643,1.424,7.868
			c0.158,1.227,0.475,4.508,0.595,5.219c0.117,0.713,0.236,1.107,1.105,1.188c0.87,0.079,8.422,0.396,10.318,0.396
			c1.898,0,10.518-0.515,10.518-0.515s4.824,0.476,7.749,0.476c2.927,0,5.694-0.237,6.288-0.356c0.592-0.119,0.948-0.08,0.987-1.464
			c0.04-1.383,0.435-3.598,0.713-5.931c0.275-2.332,1.185-4.191,1.225-6.009c0.039-1.818-0.079-2.61-0.436-4.429
			c-0.355-1.818-0.75-2.817-0.869-3.203c-0.157-0.514-0.355-0.829-1.225-0.829C211.015,72.247,176.262,72.247,176.262,72.247z"/>
		
			<polyline fill="none" stroke="#000000" stroke-width="0.5" stroke-linecap="round" stroke-linejoin="round" stroke-miterlimit="500" points="
			175.512,72.247 173.984,72.098 174.878,72.682 		"/>
		
			<polyline fill="none" stroke="#000000" stroke-width="0.5" stroke-linecap="round" stroke-linejoin="round" stroke-miterlimit="500" points="
			212.991,72.721 213.975,72.098 212.438,72.247 		"/>
		
			<path fill="none" stroke="#000000" stroke-width="0.4" stroke-linecap="round" stroke-linejoin="round" stroke-miterlimit="500" d="
			M180.198,84.504c0,0,1.416-3.772,0.137-9.231"/>
		
			<path fill="none" stroke="#000000" stroke-width="0.4" stroke-linecap="round" stroke-linejoin="round" stroke-miterlimit="500" d="
			M181.082,75.213"/>
		
			<path fill="none" stroke="#000000" stroke-width="0.4" stroke-linecap="round" stroke-linejoin="round" stroke-miterlimit="500" d="
			M181.689,84.747c0,0,1.476-4.137,0.198-9.598"/>
		
			<path fill="none" stroke="#000000" stroke-width="0.4" stroke-linecap="round" stroke-linejoin="round" stroke-miterlimit="500" d="
			M182.603,75.104"/>
		
			<path fill="none" stroke="#000000" stroke-width="0.4" stroke-linecap="round" stroke-linejoin="round" stroke-miterlimit="500" d="
			M183.149,84.976c0,0,1.521-4.441,0.243-9.9"/>
		
			<path fill="none" stroke="#000000" stroke-width="0.4" stroke-linecap="round" stroke-linejoin="round" stroke-miterlimit="500" d="
			M184.107,75.029"/>
		
			<path fill="none" stroke="#000000" stroke-width="0.4" stroke-linecap="round" stroke-linejoin="round" stroke-miterlimit="500" d="
			M184.655,85.097c0,0,1.825-4.502,0.243-10.099"/>
		
			<path fill="none" stroke="#000000" stroke-width="0.4" stroke-linecap="round" stroke-linejoin="round" stroke-miterlimit="500" d="
			M185.66,74.952"/>
		
			<path fill="none" stroke="#000000" stroke-width="0.4" stroke-linecap="round" stroke-linejoin="round" stroke-miterlimit="500" d="
			M186.177,85.234c0,0,1.871-4.685,0.288-10.282"/>
		
			<path fill="none" stroke="#000000" stroke-width="0.4" stroke-linecap="round" stroke-linejoin="round" stroke-miterlimit="500" d="
			M187.195,74.938"/>
		
			<path fill="none" stroke="#000000" stroke-width="0.4" stroke-linecap="round" stroke-linejoin="round" stroke-miterlimit="500" d="
			M187.728,85.294c-0.206,0.521,1.755-5.153,0.289-10.342"/>
		
			<path fill="none" stroke="#000000" stroke-width="0.4" stroke-linecap="round" stroke-linejoin="round" stroke-miterlimit="500" d="
			M188.747,74.938"/>
		
			<path fill="none" stroke="#000000" stroke-width="0.4" stroke-linecap="round" stroke-linejoin="round" stroke-miterlimit="500" d="
			M189.293,85.294c-0.204,0.521,1.918-4.76,0.29-10.342"/>
		
			<path fill="none" stroke="#000000" stroke-width="0.4" stroke-linecap="round" stroke-linejoin="round" stroke-miterlimit="500" d="
			M190.328,74.952"/>
		
			<path fill="none" stroke="#000000" stroke-width="0.4" stroke-linecap="round" stroke-linejoin="round" stroke-miterlimit="500" d="
			M190.846,85.265c-0.205,0.521,1.931-4.701,0.305-10.281"/>
		
			<path fill="none" stroke="#000000" stroke-width="0.4" stroke-linecap="round" stroke-linejoin="round" stroke-miterlimit="500" d="
			M191.925,75.012"/>
		
			<path fill="none" stroke="#000000" stroke-width="0.4" stroke-linecap="round" stroke-linejoin="round" stroke-miterlimit="500" d="
			M192.405,85.153c-0.206,0.52,1.917-4.509,0.289-10.09"/>
		
			<path fill="none" stroke="#000000" stroke-width="0.4" stroke-linecap="round" stroke-linejoin="round" stroke-miterlimit="500" d="
			M193.469,75.095"/>
		
			<path fill="none" stroke="#000000" stroke-width="0.4" stroke-linecap="round" stroke-linejoin="round" stroke-miterlimit="500" d="
			M194.001,85.004c-0.206,0.521,1.826-4.418,0.322-9.855"/>
		
			<path fill="none" stroke="#000000" stroke-width="0.4" stroke-linecap="round" stroke-linejoin="round" stroke-miterlimit="500" d="
			M195.015,75.221"/>
		
			<path fill="none" stroke="#000000" stroke-width="0.4" stroke-linecap="round" stroke-linejoin="round" stroke-miterlimit="500" d="
			M195.642,84.8c-0.206,0.519,1.743-4.065,0.24-9.503"/>
		
			<path fill="none" stroke="#000000" stroke-width="0.4" stroke-linecap="round" stroke-linejoin="round" stroke-miterlimit="500" d="
			M196.63,75.387"/>
		
			<path fill="none" stroke="#000000" stroke-width="0.4" stroke-linecap="round" stroke-linejoin="round" stroke-miterlimit="500" d="
			M197.256,84.521c-0.205,0.52,1.539-3.544,0.199-9.072"/>
		
			<path fill="none" stroke="#000000" stroke-width="0.4" stroke-linecap="round" stroke-linejoin="round" stroke-miterlimit="500" d="
			M198.202,75.538"/>
		
			<path fill="none" stroke="#000000" stroke-width="0.4" stroke-linecap="round" stroke-linejoin="round" stroke-miterlimit="500" d="
			M198.925,84.148c-0.205,0.52,1.356-2.95,0.163-8.477"/>
		
			<path fill="none" stroke="#000000" stroke-width="0.4" stroke-linecap="round" stroke-linejoin="round" stroke-miterlimit="500" d="
			M199.835,75.762"/>
		
			<path fill="none" stroke="#000000" stroke-width="0.4" stroke-linecap="round" stroke-linejoin="round" stroke-miterlimit="500" d="
			M200.614,83.74c0,0,1.059-3.116,0.069-7.845"/>
		
			<path fill="none" stroke="#000000" stroke-width="0.4" stroke-linecap="round" stroke-linejoin="round" stroke-miterlimit="500" d="
			M201.361,75.738"/>
		
			<path fill="none" stroke="#000000" stroke-width="0.4" stroke-linecap="round" stroke-linejoin="round" stroke-miterlimit="500" d="
			M202.174,83.74c0,0,1.02-4.23-0.042-8.16"/>
		
			<path fill="none" stroke="#000000" stroke-width="0.4" stroke-linecap="round" stroke-linejoin="round" stroke-miterlimit="500" d="
			M202.81,75.425"/>
		
			<path fill="none" stroke="#000000" stroke-width="0.4" stroke-linecap="round" stroke-linejoin="round" stroke-miterlimit="500" d="
			M203.732,83.74c0,0,1.04-4.51-0.093-8.425"/>
		
			<path fill="none" stroke="#000000" stroke-width="0.4" stroke-linecap="round" stroke-linejoin="round" stroke-miterlimit="500" d="
			M204.368,75.237"/>
		
			<path fill="none" stroke="#000000" stroke-width="0.4" stroke-linecap="round" stroke-linejoin="round" stroke-miterlimit="500" d="
			M205.291,83.74c0,0,1.059-4.584-0.14-8.585"/>
		
			<path fill="none" stroke="#000000" stroke-width="0.4" stroke-linecap="round" stroke-linejoin="round" stroke-miterlimit="500" d="
			M205.866,75.13"/>
		
			<path fill="none" stroke="#000000" stroke-width="0.4" stroke-linecap="round" stroke-linejoin="round" stroke-miterlimit="500" d="
			M206.849,83.74c0,0,1.079-4.045-0.148-8.646"/>
		
			<path fill="none" stroke="#000000" stroke-width="0.4" stroke-linecap="round" stroke-linejoin="round" stroke-miterlimit="500" d="
			M207.431,75.127"/>
		
			<path fill="none" stroke="#000000" stroke-width="0.4" stroke-linecap="round" stroke-linejoin="round" stroke-miterlimit="500" d="
			M208.408,83.74c0,0,1.041-4.063-0.129-8.556"/>
		
			<path fill="none" stroke="#000000" stroke-width="0.4" stroke-linecap="round" stroke-linejoin="round" stroke-miterlimit="500" d="
			M209.281,75.427"/>
		
			<path fill="#FFFFFF" stroke="#000000" stroke-width="0.4" stroke-linecap="round" stroke-linejoin="round" stroke-miterlimit="500" d="
			M200.893,77.111c0,0-2.658-0.021-3.864,0.261c-1.204,0.279-1.605,0.601-0.04,0.923c1.567,0.32,4.079,0.358,4.079,0.358
			S200.973,77.472,200.893,77.111z"/>
		
			<path fill="none" stroke="#000000" stroke-width="0.4" stroke-linecap="round" stroke-linejoin="round" stroke-miterlimit="500" d="
			M200.614,83.74c0,0,7.58,0.097,8.222,0.055c0.642-0.038,0.924-0.079,1.044-1.405c0.12-1.324,0.493-3.859-0.402-6.544
			c-0.2-0.604-0.441-0.604-0.843-0.682c-0.401-0.081-4.096-0.322-7.951,0.731c0,0-5.782-0.934-10.883-0.975
			c-3.576-0.027-9.316,0.281-9.96,0.361c-0.642,0.08-1.043,0.402-1.164,1.566c-0.12,1.165-0.394,3.896,0.081,6.265
			c0.12,0.603,0.12,1.086,0.763,1.286c0.642,0.199,5.422,1.124,11.163,0.884C196.427,85.042,200.614,83.74,200.614,83.74z"/>
		
			<path fill="none" stroke="#000000" stroke-width="0.5" stroke-linecap="round" stroke-linejoin="round" stroke-miterlimit="500" d="
			M176.388,75.578c0.188-0.625,0.482-0.804,1.339-0.911s8.405-0.643,11.833-0.589c3.428,0.053,10.923,1.018,10.923,1.018
			s3.855-0.804,5.462-0.856c1.606-0.054,3.801,0.215,4.391,0.32c0.589,0.107,0.856,0.269,1.07,0.856
			c0.216,0.589,0.644,3.053,0.644,4.285c0,1.231-0.59,4.766-0.857,5.515c-0.268,0.75-0.535,1.124-1.284,1.124
			c-0.75,0-9.639-0.053-9.639-0.053S195.664,87.73,189.56,88c-6.104,0.269-10.495-0.804-11.191-0.962
			c-0.695-0.162-1.124-0.162-1.498-1.341c-0.375-1.177-0.964-3.48-1.019-5.032C175.798,79.111,176.227,76.113,176.388,75.578z"/>
		
			<path fill="none" stroke="#000000" stroke-width="0.5" stroke-linecap="round" stroke-linejoin="round" stroke-miterlimit="500" d="
			M200.482,75.096c0,0-0.268-2.087-0.695-2.998"/>
		
			<path fill="none" stroke="#000000" stroke-width="0.5" stroke-linecap="round" stroke-linejoin="round" stroke-miterlimit="500" d="
			M200.269,86.287c0,0-1.178,5.835-4.069,9.904"/>
		
			<path fill="none" stroke="#000000" stroke-width="0.4" stroke-linecap="round" stroke-linejoin="round" stroke-miterlimit="500" d="
			M210.656,90.709c0,0.16-0.129,0.29-0.289,0.29h-6.623c-0.16,0-0.29-0.13-0.29-0.29v-1.402c0-0.159,0.13-0.289,0.29-0.289h6.623
			c0.16,0,0.289,0.13,0.289,0.289V90.709z"/>
	</g>
</g>
<path fill="#FFFFFF" stroke="#999999" stroke-width="2" d="M59.701,47.197c0,3.579-2.901,6.48-6.48,6.48H24.135
	c-3.579,0-6.48-2.901-6.48-6.48v-4.683c0-3.579,2.901-6.48,6.48-6.48h29.086c3.579,0,6.48,2.901,6.48,6.48V47.197z"/>
<text transform="matrix(1 0 0 1 22.6455 47.9658)" font-family="'Helvetica'" font-size="9">LUN 1</text>
<circle cx="52.791" cy="45.038" r="1.516"/>
<g>
	<g>
		<polygon fill="#FFFFFF" stroke="#000000" stroke-width="0.5" points="32.076,100.25 32.076,162.522 0.343,162.544 0.422,100.25 		
			"/>
		<polygon fill="none" stroke="#000000" stroke-width="0.3" points="29.551,161.122 29.551,102.069 2.743,102.069 2.807,161.122 		
			"/>
		<g>
			<circle fill="#FFFFFF" stroke="#000000" stroke-width="0.5" cx="4.787" cy="163.914" r="0.945"/>
			<rect x="2.809" y="162.618" fill="#FFFFFF" stroke="#000000" stroke-width="0.5" width="2.521" height="0.21"/>
			<rect x="3.859" y="162.812" fill="#FFFFFF" stroke="#000000" stroke-width="0.5" width="0.456" height="1.12"/>
		</g>
		<g>
			<circle fill="#FFFFFF" stroke="#000000" stroke-width="0.5" cx="29.117" cy="163.914" r="0.945"/>
			<rect x="27.139" y="162.618" fill="#FFFFFF" stroke="#000000" stroke-width="0.5" width="2.521" height="0.21"/>
			<rect x="28.188" y="162.812" fill="#FFFFFF" stroke="#000000" stroke-width="0.5" width="0.456" height="1.12"/>
		</g>
		<path fill="#FFFFFF" stroke="#000000" stroke-width="0.5" d="M32.033,160.963v1.538c-0.028,0.051-0.061,0.147-0.428,0.147
			l-30.549,0.041c0.218,0-0.638-0.021-0.805-0.102v-1.625H32.033z"/>
	</g>
	<rect x="2.869" y="102.705" fill="none" stroke="#000000" stroke-width="0.3" width="26.5" height="10"/>
	<rect x="25.369" y="131.205" fill="none" stroke="#000000" stroke-width="0.3" width="1.5" height="9"/>
</g>
<text transform="matrix(1 0 0 1 35.7925 144.3018)"><tspan x="0" y="0" font-family="'Helvetica'" font-size="9">Storage array 2, </tspan><tspan x="0" y="10" font-family="'Helvetica'" font-size="9">Family A</tspan></text>
<path fill="#FFFFFF" stroke="#999999" stroke-width="2" d="M59.701,123.868c0,3.578-2.901,6.48-6.48,6.48H24.135
	c-3.579,0-6.48-2.902-6.48-6.48v-4.684c0-3.578,2.901-6.479,6.48-6.479h29.086c3.579,0,6.48,2.901,6.48,6.479V123.868z"/>
<text transform="matrix(1 0 0 1 22.6455 124.6367)" font-family="'Helvetica'" font-size="9">LUN 1</text>
<circle cx="52.791" cy="121.709" r="1.516"/>
<g>
	<path fill="#FFFFFF" stroke="#000000" stroke-width="0.5" d="M190.368,96.495c0,3.579-2.901,6.48-6.48,6.48h-43.094
		c-3.579,0-6.48-2.901-6.48-6.48v-7.977c0-3.579,2.901-6.48,6.48-6.48h43.094c3.579,0,6.48,2.901,6.48,6.48V96.495z"/>
	<text transform="matrix(1 0 0 1 137.792 95.3018)" font-family="'Helvetica'" font-size="9">Aggregate 1</text>
</g>
<g>
	<g>
		<path fill="#FFFFFF" d="M138.678,90.593c-3.301-0.454-7.651-0.542-10.757,0.169l4.138-3.716l0.803-5.504
			C133.99,84.521,136.472,88.097,138.678,90.593z"/>
		<path fill="#FFFFFF" d="M54.112,45.271c3.301,0.454,7.651,0.542,10.757-0.169l-4.138,3.716l-0.804,5.503
			C58.8,51.341,56.318,47.767,54.112,45.271z"/>
	</g>
	<g>
		<line fill="none" stroke="#000000" stroke-width="0.5" x1="59.963" y1="48.406" x2="132.826" y2="87.457"/>
		<path d="M135.752,89.025c-1.65-0.228-3.826-0.271-5.379,0.084l2.069-1.858l0.401-2.752
			C133.408,85.989,134.648,87.776,135.752,89.025z"/>
		<path d="M57.038,46.838c1.65,0.227,3.826,0.271,5.379-0.084l-2.069,1.858l-0.401,2.752C59.381,49.874,58.141,48.086,57.038,46.838
			z"/>
	</g>
</g>
<g>
	<g>
		<path fill="#FFFFFF" d="M138.739,94.902c-2.637,2.037-5.746,5.081-7.414,7.796l0.246-5.557l-3.366-4.428
			C131.122,93.995,135.412,94.728,138.739,94.902z"/>
		<path fill="#FFFFFF" d="M54.31,121.282c2.636-2.037,5.746-5.081,7.414-7.796l-0.246,5.557l3.366,4.428
			C61.927,122.189,57.637,121.457,54.31,121.282z"/>
	</g>
	<g>
		<line fill="none" stroke="#000000" stroke-width="0.5" x1="60.646" y1="119.303" x2="132.402" y2="96.882"/>
		<path d="M135.57,95.892c-1.317,1.02-2.872,2.541-3.707,3.898l0.123-2.778l-1.683-2.214
			C131.763,95.438,133.907,95.805,135.57,95.892z"/>
		<path d="M57.478,120.293c1.318-1.02,2.873-2.541,3.707-3.898l-0.123,2.778l1.683,2.214
			C61.287,120.746,59.142,120.38,57.478,120.293z"/>
	</g>
</g>
</svg>
