<?xml version="1.0" encoding="utf-8"?>
<!-- Generator: Adobe Illustrator 12.0.1, SVG Export Plug-In . SVG Version: 6.00 Build 51448)  -->
<!DOCTYPE svg PUBLIC "-//W3C//DTD SVG 1.1//EN" "http://www.w3.org/Graphics/SVG/1.1/DTD/svg11.dtd" [
	<!ENTITY ns_svg "http://www.w3.org/2000/svg">
	<!ENTITY ns_xlink "http://www.w3.org/1999/xlink">
]>
<svg  version="1.1" id="Layer_2" xmlns="&ns_svg;" xmlns:xlink="&ns_xlink;" width="214.672" height="184.757"
	 viewBox="0 0 214.672 184.757" overflow="visible" enable-background="new 0 0 214.672 184.757" xml:space="preserve">
<g>
	<g>
		<polygon fill="#FFFFFF" stroke="#000000" stroke-width="0.5" points="32.076,9.836 32.076,72.108 0.343,72.13 0.422,9.836 		"/>
		<polygon fill="none" stroke="#000000" stroke-width="0.3" points="29.551,70.708 29.551,11.655 2.743,11.655 2.807,70.708 		"/>
		<g>
			<circle fill="#FFFFFF" stroke="#000000" stroke-width="0.5" cx="4.787" cy="73.5" r="0.945"/>
			<rect x="2.809" y="72.204" fill="#FFFFFF" stroke="#000000" stroke-width="0.5" width="2.521" height="0.21"/>
			<rect x="3.859" y="72.397" fill="#FFFFFF" stroke="#000000" stroke-width="0.5" width="0.456" height="1.12"/>
		</g>
		<g>
			<circle fill="#FFFFFF" stroke="#000000" stroke-width="0.5" cx="29.117" cy="73.5" r="0.945"/>
			<rect x="27.139" y="72.204" fill="#FFFFFF" stroke="#000000" stroke-width="0.5" width="2.521" height="0.21"/>
			<rect x="28.188" y="72.397" fill="#FFFFFF" stroke="#000000" stroke-width="0.5" width="0.456" height="1.12"/>
		</g>
		<path fill="#FFFFFF" stroke="#000000" stroke-width="0.5" d="M32.033,70.549v1.538c-0.028,0.051-0.061,0.147-0.428,0.147
			L1.055,72.275c0.218,0-0.638-0.021-0.805-0.102v-1.625H32.033z"/>
	</g>
	<rect x="2.869" y="12.291" fill="none" stroke="#000000" stroke-width="0.3" width="26.5" height="10"/>
	<rect x="25.369" y="40.791" fill="none" stroke="#000000" stroke-width="0.3" width="1.5" height="9"/>
</g>
<text transform="matrix(1 0 0 1 35.7925 7.731)"><tspan x="0" y="0" font-family="'Helvetica'" font-size="9">Storage array 1, </tspan><tspan x="0" y="10" font-family="'Helvetica'" font-size="9">Family A</tspan></text>
<text transform="matrix(1 0 0 1 185.6592 71.3418)" font-family="'Helvetica'" font-size="9">vs-1</text>
<g>
	<g>
		<polyline fill="#FFFFFF" stroke="#000000" stroke-width="0.5" stroke-linejoin="round" points="213.021,81.354 206.324,76.702 
			182.561,76.702 175.445,81.332 		"/>
	</g>
	<g>
		
			<rect x="173.984" y="80.676" fill="#FFFFFF" stroke="#000000" stroke-width="0.5" stroke-linecap="round" stroke-linejoin="round" stroke-miterlimit="500" width="39.99" height="24.079"/>
		
			<path fill="#FFFFFF" stroke="#000000" stroke-width="0.5" stroke-linecap="round" stroke-linejoin="round" stroke-miterlimit="500" d="
			M176.262,80.825c-1.266,0-1.305,0.197-1.582,1.226s-1.187,4.862-1.187,6.364c0,1.504,1.266,6.643,1.424,7.868
			c0.158,1.227,0.475,4.508,0.595,5.219c0.117,0.713,0.236,1.107,1.105,1.188c0.87,0.079,8.422,0.396,10.318,0.396
			c1.898,0,10.518-0.515,10.518-0.515s4.824,0.476,7.749,0.476c2.927,0,5.694-0.237,6.288-0.356c0.592-0.119,0.948-0.08,0.987-1.464
			c0.04-1.383,0.435-3.598,0.713-5.931c0.275-2.332,1.185-4.191,1.225-6.009c0.039-1.818-0.079-2.61-0.436-4.429
			c-0.355-1.818-0.75-2.817-0.869-3.203c-0.157-0.514-0.355-0.829-1.225-0.829C211.015,80.825,176.262,80.825,176.262,80.825z"/>
		
			<polyline fill="none" stroke="#000000" stroke-width="0.5" stroke-linecap="round" stroke-linejoin="round" stroke-miterlimit="500" points="
			175.512,80.825 173.984,80.676 174.878,81.26 		"/>
		
			<polyline fill="none" stroke="#000000" stroke-width="0.5" stroke-linecap="round" stroke-linejoin="round" stroke-miterlimit="500" points="
			212.991,81.299 213.975,80.676 212.438,80.825 		"/>
		
			<path fill="none" stroke="#000000" stroke-width="0.4" stroke-linecap="round" stroke-linejoin="round" stroke-miterlimit="500" d="
			M180.198,93.082c0,0,1.416-3.772,0.137-9.231"/>
		
			<path fill="none" stroke="#000000" stroke-width="0.4" stroke-linecap="round" stroke-linejoin="round" stroke-miterlimit="500" d="
			M181.082,83.791"/>
		
			<path fill="none" stroke="#000000" stroke-width="0.4" stroke-linecap="round" stroke-linejoin="round" stroke-miterlimit="500" d="
			M181.689,93.325c0,0,1.476-4.137,0.198-9.598"/>
		
			<path fill="none" stroke="#000000" stroke-width="0.4" stroke-linecap="round" stroke-linejoin="round" stroke-miterlimit="500" d="
			M182.603,83.682"/>
		
			<path fill="none" stroke="#000000" stroke-width="0.4" stroke-linecap="round" stroke-linejoin="round" stroke-miterlimit="500" d="
			M183.149,93.554c0,0,1.521-4.441,0.243-9.9"/>
		
			<path fill="none" stroke="#000000" stroke-width="0.4" stroke-linecap="round" stroke-linejoin="round" stroke-miterlimit="500" d="
			M184.107,83.607"/>
		
			<path fill="none" stroke="#000000" stroke-width="0.4" stroke-linecap="round" stroke-linejoin="round" stroke-miterlimit="500" d="
			M184.655,93.675c0,0,1.825-4.502,0.243-10.099"/>
		
			<path fill="none" stroke="#000000" stroke-width="0.4" stroke-linecap="round" stroke-linejoin="round" stroke-miterlimit="500" d="
			M185.66,83.53"/>
		
			<path fill="none" stroke="#000000" stroke-width="0.4" stroke-linecap="round" stroke-linejoin="round" stroke-miterlimit="500" d="
			M186.177,93.813c0,0,1.871-4.685,0.288-10.282"/>
		
			<path fill="none" stroke="#000000" stroke-width="0.4" stroke-linecap="round" stroke-linejoin="round" stroke-miterlimit="500" d="
			M187.195,83.517"/>
		
			<path fill="none" stroke="#000000" stroke-width="0.4" stroke-linecap="round" stroke-linejoin="round" stroke-miterlimit="500" d="
			M187.728,93.872c-0.206,0.521,1.755-5.153,0.289-10.342"/>
		
			<path fill="none" stroke="#000000" stroke-width="0.4" stroke-linecap="round" stroke-linejoin="round" stroke-miterlimit="500" d="
			M188.747,83.517"/>
		
			<path fill="none" stroke="#000000" stroke-width="0.4" stroke-linecap="round" stroke-linejoin="round" stroke-miterlimit="500" d="
			M189.293,93.872c-0.204,0.521,1.918-4.76,0.29-10.342"/>
		
			<path fill="none" stroke="#000000" stroke-width="0.4" stroke-linecap="round" stroke-linejoin="round" stroke-miterlimit="500" d="
			M190.328,83.53"/>
		
			<path fill="none" stroke="#000000" stroke-width="0.4" stroke-linecap="round" stroke-linejoin="round" stroke-miterlimit="500" d="
			M190.846,93.843c-0.205,0.521,1.931-4.701,0.305-10.281"/>
		
			<path fill="none" stroke="#000000" stroke-width="0.4" stroke-linecap="round" stroke-linejoin="round" stroke-miterlimit="500" d="
			M191.925,83.59"/>
		
			<path fill="none" stroke="#000000" stroke-width="0.4" stroke-linecap="round" stroke-linejoin="round" stroke-miterlimit="500" d="
			M192.405,93.731c-0.206,0.52,1.917-4.509,0.289-10.09"/>
		
			<path fill="none" stroke="#000000" stroke-width="0.4" stroke-linecap="round" stroke-linejoin="round" stroke-miterlimit="500" d="
			M193.469,83.673"/>
		
			<path fill="none" stroke="#000000" stroke-width="0.4" stroke-linecap="round" stroke-linejoin="round" stroke-miterlimit="500" d="
			M194.001,93.582c-0.206,0.521,1.826-4.418,0.322-9.855"/>
		
			<path fill="none" stroke="#000000" stroke-width="0.4" stroke-linecap="round" stroke-linejoin="round" stroke-miterlimit="500" d="
			M195.015,83.799"/>
		
			<path fill="none" stroke="#000000" stroke-width="0.4" stroke-linecap="round" stroke-linejoin="round" stroke-miterlimit="500" d="
			M195.642,93.378c-0.206,0.519,1.743-4.065,0.24-9.503"/>
		
			<path fill="none" stroke="#000000" stroke-width="0.4" stroke-linecap="round" stroke-linejoin="round" stroke-miterlimit="500" d="
			M196.63,83.965"/>
		
			<path fill="none" stroke="#000000" stroke-width="0.4" stroke-linecap="round" stroke-linejoin="round" stroke-miterlimit="500" d="
			M197.256,93.1c-0.205,0.52,1.539-3.544,0.199-9.072"/>
		
			<path fill="none" stroke="#000000" stroke-width="0.4" stroke-linecap="round" stroke-linejoin="round" stroke-miterlimit="500" d="
			M198.202,84.116"/>
		
			<path fill="none" stroke="#000000" stroke-width="0.4" stroke-linecap="round" stroke-linejoin="round" stroke-miterlimit="500" d="
			M198.925,92.727c-0.205,0.52,1.356-2.95,0.163-8.477"/>
		
			<path fill="none" stroke="#000000" stroke-width="0.4" stroke-linecap="round" stroke-linejoin="round" stroke-miterlimit="500" d="
			M199.835,84.34"/>
		
			<path fill="none" stroke="#000000" stroke-width="0.4" stroke-linecap="round" stroke-linejoin="round" stroke-miterlimit="500" d="
			M200.614,92.318c0,0,1.059-3.116,0.069-7.845"/>
		
			<path fill="none" stroke="#000000" stroke-width="0.4" stroke-linecap="round" stroke-linejoin="round" stroke-miterlimit="500" d="
			M201.361,84.316"/>
		
			<path fill="none" stroke="#000000" stroke-width="0.4" stroke-linecap="round" stroke-linejoin="round" stroke-miterlimit="500" d="
			M202.174,92.318c0,0,1.02-4.23-0.042-8.16"/>
		
			<path fill="none" stroke="#000000" stroke-width="0.4" stroke-linecap="round" stroke-linejoin="round" stroke-miterlimit="500" d="
			M202.81,84.003"/>
		
			<path fill="none" stroke="#000000" stroke-width="0.4" stroke-linecap="round" stroke-linejoin="round" stroke-miterlimit="500" d="
			M203.732,92.318c0,0,1.04-4.51-0.093-8.425"/>
		
			<path fill="none" stroke="#000000" stroke-width="0.4" stroke-linecap="round" stroke-linejoin="round" stroke-miterlimit="500" d="
			M204.368,83.815"/>
		
			<path fill="none" stroke="#000000" stroke-width="0.4" stroke-linecap="round" stroke-linejoin="round" stroke-miterlimit="500" d="
			M205.291,92.318c0,0,1.059-4.584-0.14-8.585"/>
		
			<path fill="none" stroke="#000000" stroke-width="0.4" stroke-linecap="round" stroke-linejoin="round" stroke-miterlimit="500" d="
			M205.866,83.708"/>
		
			<path fill="none" stroke="#000000" stroke-width="0.4" stroke-linecap="round" stroke-linejoin="round" stroke-miterlimit="500" d="
			M206.849,92.318c0,0,1.079-4.045-0.148-8.646"/>
		
			<path fill="none" stroke="#000000" stroke-width="0.4" stroke-linecap="round" stroke-linejoin="round" stroke-miterlimit="500" d="
			M207.431,83.705"/>
		
			<path fill="none" stroke="#000000" stroke-width="0.4" stroke-linecap="round" stroke-linejoin="round" stroke-miterlimit="500" d="
			M208.408,92.318c0,0,1.041-4.063-0.129-8.556"/>
		
			<path fill="none" stroke="#000000" stroke-width="0.4" stroke-linecap="round" stroke-linejoin="round" stroke-miterlimit="500" d="
			M209.281,84.005"/>
		
			<path fill="#FFFFFF" stroke="#000000" stroke-width="0.4" stroke-linecap="round" stroke-linejoin="round" stroke-miterlimit="500" d="
			M200.893,85.689c0,0-2.658-0.021-3.864,0.261c-1.204,0.279-1.605,0.601-0.04,0.923c1.567,0.32,4.079,0.358,4.079,0.358
			S200.973,86.05,200.893,85.689z"/>
		
			<path fill="none" stroke="#000000" stroke-width="0.4" stroke-linecap="round" stroke-linejoin="round" stroke-miterlimit="500" d="
			M200.614,92.318c0,0,7.58,0.097,8.222,0.055c0.642-0.038,0.924-0.079,1.044-1.405c0.12-1.324,0.493-3.859-0.402-6.544
			c-0.2-0.604-0.441-0.604-0.843-0.682c-0.401-0.081-4.096-0.322-7.951,0.731c0,0-5.782-0.934-10.883-0.975
			c-3.576-0.027-9.316,0.281-9.96,0.361c-0.642,0.08-1.043,0.402-1.164,1.566c-0.12,1.165-0.394,3.896,0.081,6.265
			c0.12,0.603,0.12,1.086,0.763,1.286c0.642,0.199,5.422,1.124,11.163,0.884C196.427,93.62,200.614,92.318,200.614,92.318z"/>
		
			<path fill="none" stroke="#000000" stroke-width="0.5" stroke-linecap="round" stroke-linejoin="round" stroke-miterlimit="500" d="
			M176.388,84.156c0.188-0.625,0.482-0.804,1.339-0.911s8.405-0.643,11.833-0.589c3.428,0.053,10.923,1.018,10.923,1.018
			s3.855-0.804,5.462-0.856c1.606-0.054,3.801,0.215,4.391,0.32c0.589,0.107,0.856,0.269,1.07,0.856
			c0.216,0.589,0.644,3.053,0.644,4.285c0,1.231-0.59,4.766-0.857,5.515c-0.268,0.75-0.535,1.124-1.284,1.124
			c-0.75,0-9.639-0.053-9.639-0.053s-4.604,1.443-10.709,1.713c-6.104,0.269-10.495-0.804-11.191-0.962
			c-0.695-0.162-1.124-0.162-1.498-1.341c-0.375-1.177-0.964-3.48-1.019-5.032C175.798,87.689,176.227,84.691,176.388,84.156z"/>
		
			<path fill="none" stroke="#000000" stroke-width="0.5" stroke-linecap="round" stroke-linejoin="round" stroke-miterlimit="500" d="
			M200.482,83.674c0,0-0.268-2.087-0.695-2.998"/>
		
			<path fill="none" stroke="#000000" stroke-width="0.5" stroke-linecap="round" stroke-linejoin="round" stroke-miterlimit="500" d="
			M200.269,94.865c0,0-1.178,5.835-4.069,9.904"/>
		
			<path fill="none" stroke="#000000" stroke-width="0.4" stroke-linecap="round" stroke-linejoin="round" stroke-miterlimit="500" d="
			M210.656,99.287c0,0.16-0.129,0.29-0.289,0.29h-6.623c-0.16,0-0.29-0.13-0.29-0.29v-1.402c0-0.159,0.13-0.289,0.29-0.289h6.623
			c0.16,0,0.289,0.13,0.289,0.289V99.287z"/>
	</g>
</g>
<path fill="#FFFFFF" stroke="#999999" stroke-width="2" d="M59.701,38.107c0,3.579-2.901,6.48-6.48,6.48H24.135
	c-3.579,0-6.48-2.901-6.48-6.48v-4.683c0-3.579,2.901-6.48,6.48-6.48h29.086c3.579,0,6.48,2.901,6.48,6.48V38.107z"/>
<text transform="matrix(1 0 0 1 22.6455 38.876)" font-family="'Helvetica'" font-size="9">LUN 1</text>
<circle cx="52.791" cy="35.948" r="1.516"/>
<path fill="#FFFFFF" stroke="#999999" stroke-width="2" d="M59.701,59.068c0,3.579-2.901,6.48-6.48,6.48H24.135
	c-3.579,0-6.48-2.901-6.48-6.48v-4.683c0-3.579,2.901-6.48,6.48-6.48h29.086c3.579,0,6.48,2.901,6.48,6.48V59.068z"/>
<text transform="matrix(1 0 0 1 22.6455 59.8374)" font-family="'Helvetica'" font-size="9">LUN 2</text>
<circle cx="52.791" cy="56.91" r="1.516"/>
<g>
	<g>
		<polygon fill="#FFFFFF" stroke="#000000" stroke-width="0.5" points="32.076,109.836 32.076,172.108 0.343,172.13 0.422,109.836 
					"/>
		<polygon fill="none" stroke="#000000" stroke-width="0.3" points="29.551,170.708 29.551,111.655 2.743,111.655 2.807,170.708 		
			"/>
		<g>
			<circle fill="#FFFFFF" stroke="#000000" stroke-width="0.5" cx="4.787" cy="173.5" r="0.945"/>
			<rect x="2.809" y="172.204" fill="#FFFFFF" stroke="#000000" stroke-width="0.5" width="2.521" height="0.21"/>
			<rect x="3.859" y="172.397" fill="#FFFFFF" stroke="#000000" stroke-width="0.5" width="0.456" height="1.12"/>
		</g>
		<g>
			<circle fill="#FFFFFF" stroke="#000000" stroke-width="0.5" cx="29.117" cy="173.5" r="0.945"/>
			<rect x="27.139" y="172.204" fill="#FFFFFF" stroke="#000000" stroke-width="0.5" width="2.521" height="0.21"/>
			<rect x="28.188" y="172.397" fill="#FFFFFF" stroke="#000000" stroke-width="0.5" width="0.456" height="1.12"/>
		</g>
		<path fill="#FFFFFF" stroke="#000000" stroke-width="0.5" d="M32.033,170.549v1.538c-0.028,0.051-0.061,0.147-0.428,0.147
			l-30.549,0.041c0.218,0-0.638-0.021-0.805-0.102v-1.625H32.033z"/>
	</g>
	<rect x="2.869" y="112.291" fill="none" stroke="#000000" stroke-width="0.3" width="26.5" height="10"/>
	<rect x="25.369" y="140.791" fill="none" stroke="#000000" stroke-width="0.3" width="1.5" height="9"/>
</g>
<text transform="matrix(1 0 0 1 36.7241 172.7314)"><tspan x="0" y="0" font-family="'Helvetica'" font-size="9">Storage array 2, </tspan><tspan x="0" y="10" font-family="'Helvetica'" font-size="9">Family B</tspan></text>
<path fill="#FFFFFF" stroke="#999999" stroke-width="2" d="M59.701,133.454c0,3.578-2.901,6.48-6.48,6.48H24.135
	c-3.579,0-6.48-2.902-6.48-6.48v-4.684c0-3.578,2.901-6.479,6.48-6.479h29.086c3.579,0,6.48,2.901,6.48,6.479V133.454z"/>
<text transform="matrix(1 0 0 1 22.6455 134.2227)" font-family="'Helvetica'" font-size="9">LUN 1</text>
<circle cx="52.791" cy="131.295" r="1.516"/>
<g>
	<path fill="#FFFFFF" stroke="#000000" stroke-width="0.5" d="M190.368,105.073c0,3.579-2.901,6.48-6.48,6.48h-43.094
		c-3.579,0-6.48-2.901-6.48-6.48v-7.977c0-3.579,2.901-6.48,6.48-6.48h43.094c3.579,0,6.48,2.901,6.48,6.48V105.073z"/>
	<text transform="matrix(1 0 0 1 137.792 103.8799)" font-family="'Helvetica'" font-size="9">Aggregate 1</text>
</g>
<g>
	<path fill="#FFFFFF" stroke="#000000" stroke-width="0.5" d="M190.368,131.158c0,3.579-2.901,6.48-6.48,6.48h-43.094
		c-3.579,0-6.48-2.901-6.48-6.48v-7.977c0-3.579,2.901-6.48,6.48-6.48h43.094c3.579,0,6.48,2.901,6.48,6.48V131.158z"/>
	<text transform="matrix(1 0 0 1 137.792 129.9648)" font-family="'Helvetica'" font-size="9">Aggregate 2</text>
</g>
<g>
	<g>
		<path fill="#FFFFFF" d="M134.932,93.921c-3.208-0.902-7.505-1.585-10.679-1.307l4.608-3.114l1.55-5.342
			C131.12,87.265,133.089,91.146,134.932,93.921z"/>
		<path fill="#FFFFFF" d="M54.597,35.408c3.208,0.902,7.505,1.586,10.679,1.308l-4.608,3.114l-1.55,5.342
			C58.408,42.064,56.44,38.184,54.597,35.408z"/>
	</g>
	<g>
		<line fill="none" stroke="#000000" stroke-width="0.5" x1="59.963" y1="39.316" x2="129.565" y2="90.013"/>
		<path d="M132.248,91.967c-1.604-0.451-3.752-0.793-5.339-0.653l2.304-1.558l0.775-2.67
			C130.343,88.639,131.327,90.579,132.248,91.967z"/>
		<path d="M57.28,37.362c1.604,0.451,3.752,0.792,5.339,0.653l-2.304,1.557l-0.775,2.671C59.186,40.69,58.202,38.75,57.28,37.362z"
			/>
	</g>
</g>
<g>
	<g>
		<path fill="#FFFFFF" d="M133.82,100.245c-3.292-0.516-7.64-0.684-10.759-0.031l4.206-3.639l0.905-5.487
			C129.246,94.088,131.66,97.708,133.82,100.245z"/>
		<path fill="#FFFFFF" d="M54.171,55.636c3.292,0.515,7.64,0.684,10.758,0.031l-4.206,3.639l-0.905,5.488
			C58.746,61.793,56.331,58.174,54.171,55.636z"/>
	</g>
	<g>
		<line fill="none" stroke="#000000" stroke-width="0.5" x1="59.963" y1="58.88" x2="128.028" y2="97.001"/>
		<path d="M130.924,98.623c-1.646-0.258-3.82-0.342-5.379-0.016l2.104-1.819l0.453-2.744
			C128.637,95.544,129.844,97.354,130.924,98.623z"/>
		<path d="M57.067,57.258c1.646,0.258,3.82,0.342,5.379,0.015l-2.104,1.82l-0.453,2.744C59.354,60.337,58.147,58.527,57.067,57.258z
			"/>
	</g>
</g>
<g>
	<g>
		<path fill="#FFFFFF" d="M133.879,126.772c-3.089,1.249-6.906,3.337-9.247,5.499l1.74-5.282l-2.042-5.174
			C126.792,123.839,130.723,125.704,133.879,126.772z"/>
		<path fill="#FFFFFF" d="M53.958,129.08c3.089-1.249,6.906-3.337,9.247-5.499l-1.74,5.282l2.042,5.174
			C61.044,132.014,57.113,130.148,53.958,129.08z"/>
	</g>
	<g>
		<line fill="none" stroke="#000000" stroke-width="0.5" x1="60.593" y1="128.889" x2="127.243" y2="126.964"/>
		<path d="M130.562,126.868c-1.545,0.624-3.454,1.669-4.624,2.75l0.87-2.642l-1.021-2.587
			C127.018,125.401,128.983,126.334,130.562,126.868z"/>
		<path d="M57.275,128.984c1.544-0.624,3.453-1.669,4.623-2.75l-0.87,2.642l1.021,2.587
			C60.819,130.451,58.854,129.519,57.275,128.984z"/>
	</g>
</g>
<path fill="#FFFFFF" stroke="#999999" stroke-width="2" d="M59.701,154.56c0,3.578-2.901,6.48-6.48,6.48H24.135
	c-3.579,0-6.48-2.902-6.48-6.48v-4.684c0-3.578,2.901-6.479,6.48-6.479h29.086c3.579,0,6.48,2.901,6.48,6.479V154.56z"/>
<text transform="matrix(1 0 0 1 22.6455 155.3281)" font-family="'Helvetica'" font-size="9">LUN 2</text>
<circle cx="52.791" cy="152.4" r="1.516"/>
<g>
	<g>
		<path fill="#FFFFFF" d="M135.049,133.296c-2.808,1.794-6.178,4.547-8.083,7.101l0.743-5.512l-2.955-4.712
			C127.544,131.711,131.751,132.824,135.049,133.296z"/>
		<path fill="#FFFFFF" d="M52.487,151.164c2.808-1.794,6.178-4.546,8.083-7.101l-0.743,5.512l2.955,4.712
			C59.991,152.749,55.785,151.636,52.487,151.164z"/>
	</g>
	<g>
		<line fill="none" stroke="#000000" stroke-width="0.5" x1="58.975" y1="149.76" x2="128.561" y2="134.7"/>
		<path d="M131.805,133.998c-1.404,0.896-3.089,2.273-4.041,3.551l0.371-2.757l-1.478-2.355
			C128.052,133.205,130.155,133.763,131.805,133.998z"/>
		<path d="M55.731,150.462c1.404-0.896,3.089-2.273,4.041-3.551l-0.371,2.757l1.478,2.355
			C59.483,151.255,57.38,150.697,55.731,150.462z"/>
	</g>
</g>
</svg>
