<?xml version="1.0" encoding="UTF-8"?><!-- Generator: Adobe Illustrator 16.0.3, SVG Export Plug-In . SVG Version: 6.00 Build 0)  --><!DOCTYPE svg PUBLIC "-//W3C//DTD SVG 1.1//EN" "http://www.w3.org/Graphics/SVG/1.1/DTD/svg11.dtd">
<svg xmlns="http://www.w3.org/2000/svg" xmlns:xlink="http://www.w3.org/1999/xlink" version="1.1" id="Layer_1" x="0px" y="0px" width="188px" height="231px" viewBox="0 0 188 231" enable-background="new 0 0 188 231" xml:space="preserve" preserveAspectRatio="xMidYMid meet" zoomAndPan="magnify" contentScriptType="application/ecmascript" contentStyleType="text/css">
<text transform="matrix(1 0 0 1 83.25 10.1616)" font-family="'Helvetica'" font-size="9.0004">vs1</text>
<g>
	<polyline fill="#FFFFFF" stroke="#000000" stroke-width="0.4" points="109.097,18.468 102.4,13.815 78.635,13.815 71.52,18.445     "/>
	<polyline fill="none" stroke="#000000" stroke-width="0.4" stroke-linejoin="round" points="109.097,18.468 102.4,13.815    78.635,13.815 71.52,18.445  "/>
	<rect x="70.059" y="17.79" fill="#FFFFFF" stroke="#000000" stroke-width="0.4" width="39.992" height="24.081"/>
	
		<rect x="70.058" y="17.79" fill="none" stroke="#000000" stroke-width="0.4" stroke-linecap="round" stroke-linejoin="round" stroke-miterlimit="500" width="39.992" height="24.081"/>
	<path fill="#FFFFFF" stroke="#000000" stroke-width="0.4" d="M72.336,17.939c-1.266,0-1.305,0.197-1.582,1.225   c-0.277,1.029-1.187,4.863-1.187,6.365c0,1.504,1.266,6.643,1.424,7.868c0.158,1.227,0.475,4.508,0.595,5.219   c0.117,0.713,0.236,1.106,1.106,1.187c0.87,0.08,8.422,0.397,10.318,0.397c1.899,0,10.518-0.517,10.518-0.517   s4.825,0.478,7.75,0.478c2.927,0,5.693-0.239,6.288-0.358c0.592-0.119,0.947-0.08,0.986-1.463c0.04-1.383,0.436-3.598,0.713-5.931   c0.276-2.332,1.186-4.192,1.226-6.009c0.039-1.819-0.079-2.61-0.437-4.429c-0.354-1.818-0.75-2.817-0.869-3.203   c-0.156-0.514-0.354-0.829-1.225-0.829C107.09,17.939,72.336,17.939,72.336,17.939"/>
	
		<path fill="none" stroke="#000000" stroke-width="0.4" stroke-linecap="round" stroke-linejoin="round" stroke-miterlimit="500" d="   M109.067,18.413l0.982-0.623l-1.536,0.15 M71.586,17.939l-1.527-0.15l0.893,0.584 M72.336,17.939c-1.266,0-1.305,0.197-1.582,1.225   c-0.277,1.029-1.187,4.863-1.187,6.365c0,1.504,1.266,6.643,1.424,7.868c0.158,1.227,0.475,4.508,0.595,5.219   c0.117,0.713,0.236,1.106,1.106,1.187c0.87,0.08,8.422,0.397,10.318,0.397c1.899,0,10.518-0.517,10.518-0.517   s4.825,0.478,7.75,0.478c2.927,0,5.693-0.239,6.288-0.358c0.592-0.119,0.947-0.08,0.986-1.463c0.04-1.383,0.436-3.598,0.713-5.931   c0.276-2.332,1.186-4.192,1.226-6.009c0.039-1.819-0.079-2.61-0.437-4.429c-0.354-1.818-0.75-2.817-0.869-3.203   c-0.156-0.514-0.354-0.829-1.225-0.829C107.09,17.939,72.336,17.939,72.336,17.939z"/>
	
		<path fill="none" stroke="#000000" stroke-width="0.4" stroke-linecap="round" stroke-linejoin="round" stroke-miterlimit="500" d="   M104.484,29.433c0,0,1.041-4.063-0.129-8.556 M102.924,29.433c0,0,1.079-4.045-0.147-8.646 M101.367,29.433   c0,0,1.058-4.584-0.141-8.585 M99.808,29.433c0,0,1.04-4.51-0.093-8.425 M98.249,29.433c0,0,1.02-4.23-0.042-8.16 M96.689,29.433   c0,0,1.059-3.116,0.07-7.845 M95,29.84c-0.205,0.52,1.356-2.95,0.163-8.476 M93.331,30.214c-0.205,0.519,1.539-3.545,0.199-9.073    M91.717,30.493c-0.206,0.519,1.743-4.066,0.24-9.503 M90.076,30.696c-0.206,0.521,1.826-4.418,0.322-9.856 M88.48,30.846   c-0.206,0.52,1.917-4.509,0.289-10.09 M86.921,30.958c-0.205,0.52,1.93-4.702,0.304-10.282 M85.368,30.986   c-0.204,0.521,1.918-4.76,0.29-10.342 M83.802,30.986c-0.206,0.521,1.755-5.153,0.289-10.342 M82.252,30.926   c0,0,1.871-4.684,0.288-10.282 M80.73,30.79c0,0,1.825-4.502,0.243-10.099 M79.224,30.668c0,0,1.521-4.442,0.243-9.901    M77.764,30.439c0,0,1.476-4.137,0.198-9.598 M76.273,30.196c0,0,1.416-3.773,0.137-9.232"/>
	<path fill="#FFFFFF" stroke="#000000" stroke-width="0.4" d="M96.969,22.804c0,0-2.659-0.021-3.866,0.261   c-1.204,0.279-1.605,0.601-0.04,0.923c1.568,0.32,4.081,0.358,4.081,0.358S97.048,23.164,96.969,22.804"/>
	
		<path fill="none" stroke="#000000" stroke-width="0.4" stroke-linecap="round" stroke-linejoin="round" stroke-miterlimit="500" d="   M96.689,29.433c0,0,7.581,0.097,8.223,0.055c0.641-0.038,0.923-0.079,1.044-1.405c0.12-1.325,0.493-3.86-0.403-6.545   c-0.199-0.603-0.44-0.603-0.843-0.681c-0.401-0.081-4.095-0.323-7.95,0.731c0,0-5.784-0.933-10.884-0.974   c-3.577-0.028-9.317,0.281-9.961,0.361c-0.641,0.08-1.043,0.402-1.164,1.566c-0.12,1.166-0.393,3.896,0.081,6.265   c0.12,0.603,0.12,1.086,0.763,1.286c0.642,0.2,5.422,1.125,11.164,0.884C92.502,30.734,96.689,29.433,96.689,29.433z    M96.969,22.804c0,0-2.659-0.021-3.866,0.261c-1.204,0.279-1.605,0.601-0.04,0.923c1.568,0.32,4.081,0.358,4.081,0.358   S97.048,23.164,96.969,22.804z"/>
	
		<path fill="none" stroke="#000000" stroke-width="0.4" stroke-linecap="round" stroke-linejoin="round" stroke-miterlimit="500" d="   M96.344,31.979c0,0-1.178,5.836-4.07,9.904 M96.558,20.788c0,0-0.268-2.087-0.696-2.998 M72.462,21.271   c0.188-0.625,0.482-0.804,1.339-0.911c0.856-0.108,8.406-0.643,11.833-0.589c3.428,0.053,10.923,1.017,10.923,1.017   s3.855-0.803,5.463-0.856c1.605-0.054,3.801,0.215,4.391,0.32c0.589,0.108,0.855,0.269,1.07,0.857   c0.216,0.589,0.644,3.053,0.644,4.285s-0.59,4.766-0.858,5.515c-0.267,0.75-0.534,1.124-1.283,1.124c-0.75,0-9.64-0.053-9.64-0.053   s-4.604,1.444-10.709,1.713c-6.103,0.269-10.495-0.804-11.191-0.962c-0.696-0.162-1.125-0.162-1.499-1.341   c-0.375-1.176-0.963-3.48-1.018-5.032C71.872,24.804,72.301,21.806,72.462,21.271z"/>
	
		<path fill="none" stroke="#000000" stroke-width="0.4" stroke-linecap="round" stroke-linejoin="round" stroke-miterlimit="500" d="   M106.732,36.402c0,0.159-0.129,0.291-0.289,0.291h-6.624c-0.16,0-0.289-0.132-0.289-0.291v-1.403c0-0.158,0.129-0.288,0.289-0.288   h6.624c0.16,0,0.289,0.13,0.289,0.288V36.402z"/>
</g>
<g>
	
		<rect x="9.833" y="31.351" fill="#FFFFFF" stroke="#000000" stroke-width="0.4" stroke-miterlimit="500" width="159.391" height="19.188"/>
</g>
<rect x="15.806" y="41.934" fill="#FFFFFF" stroke="#000000" stroke-width="0.4" stroke-miterlimit="500" width="7.916" height="5.802"/>
<text transform="matrix(1 0 0 1 14.7944 39.5732)" font-family="'Helvetica'" font-size="7.6084">0a</text>
<line fill="none" stroke="#FFFFFF" stroke-width="3" stroke-linecap="round" stroke-linejoin="round" x1="58.608" y1="49.629" x2="58.608" y2="70.937"/>
<rect x="35.684" y="41.934" fill="#FFFFFF" stroke="#000000" stroke-width="0.4" stroke-miterlimit="500" width="7.916" height="5.802"/>
<text transform="matrix(1 0 0 1 34.6001 39.5732)" font-family="'Helvetica'" font-size="7.6084">0b</text>
<rect x="54.842" y="41.862" fill="#FFFFFF" stroke="#000000" stroke-width="0.4" stroke-miterlimit="500" width="7.916" height="5.802"/>
<text transform="matrix(1 0 0 1 54.4033 39.5732)" font-family="'Helvetica'" font-size="7.6084">0c</text>
<rect x="74.577" y="41.934" fill="#FFFFFF" stroke="#000000" stroke-width="0.4" stroke-miterlimit="500" width="7.916" height="5.802"/>
<text transform="matrix(1 0 0 1 73.9238 39.5732)" font-family="'Helvetica'" font-size="7.6084">0d</text>
<rect x="96.568" y="41.934" fill="#FFFFFF" stroke="#000000" stroke-width="0.4" stroke-miterlimit="500" width="7.916" height="5.802"/>
<text transform="matrix(1 0 0 1 95.915 39.5732)" font-family="'Helvetica'" font-size="7.6084">0e</text>
<rect x="117.294" y="41.934" fill="#FFFFFF" stroke="#000000" stroke-width="0.4" stroke-miterlimit="500" width="7.916" height="5.802"/>
<text transform="matrix(1 0 0 1 117.3398 39.5732)" font-family="'Helvetica'" font-size="7.6084">0f</text>
<rect x="137.3" y="41.934" fill="#FFFFFF" stroke="#000000" stroke-width="0.4" stroke-miterlimit="500" width="7.916" height="5.802"/>
<text transform="matrix(1 0 0 1 136.6484 39.5732)" font-family="'Helvetica'" font-size="7.6084">0g</text>
<rect x="157.452" y="41.719" fill="#FFFFFF" stroke="#000000" stroke-width="0.4" stroke-miterlimit="500" width="7.917" height="5.802"/>
<text transform="matrix(1 0 0 1 157.0146 39.5732)" font-family="'Helvetica'" font-size="7.6084">0h</text>
<line fill="none" stroke="#000000" stroke-width="0.4" stroke-linecap="round" stroke-miterlimit="500" stroke-dasharray="2" x1="90.029" y1="49.893" x2="90.029" y2="31.374"/>
<line fill="none" stroke="#FFFFFF" stroke-width="3" stroke-linecap="round" stroke-linejoin="round" x1="58.589" y1="52.241" x2="58.589" y2="91.021"/>
<polyline fill="none" stroke="#000000" stroke-linecap="round" points="58.518,46.922 58.518,68.641 35.449,68.641 35.449,88.751   "/>
<line fill="none" stroke="#FFFFFF" stroke-width="3" stroke-linecap="round" stroke-linejoin="round" x1="121.536" y1="49.629" x2="121.536" y2="70.937"/>
<line fill="none" stroke="#FFFFFF" stroke-width="3" stroke-linecap="round" stroke-linejoin="round" x1="121.519" y1="52.241" x2="121.519" y2="91.021"/>
<polyline fill="none" stroke="#000000" stroke-linecap="round" points="121.447,46.922 121.447,68.641 142.36,68.641 142.36,90.061   "/>
<polyline fill="none" stroke="#000000" points="19.583,99.995 19.583,163.602 32.932,163.602 "/>
<g>
	<rect x="117.294" y="145.178" fill="#FFFFFF" stroke="#000000" stroke-width="0.4" width="31.878" height="62.522"/>
	<polyline fill="none" stroke="#000000" stroke-width="0.4" points="146.582,206.11 146.582,147.059 119.772,147.059    119.839,206.11  "/>
	<path fill="#FFFFFF" stroke="#000000" stroke-width="0.4" d="M121.816,209.847c0.523,0,0.948-0.424,0.948-0.945   s-0.425-0.945-0.948-0.945c-0.521,0-0.944,0.424-0.944,0.945S121.295,209.847,121.816,209.847"/>
	<line fill="none" stroke="#000000" stroke-width="0.4" x1="121.1" y1="207.815" x2="121.1" y2="207.606"/>
	<path fill="none" stroke="#000000" stroke-width="0.4" d="M122.36,207.815 M119.84,207.815h2.521v-0.209h-2.521V207.815z"/>
	<line fill="none" stroke="#000000" stroke-width="0.4" x1="121.118" y1="208.919" x2="121.118" y2="207.8"/>
	<path fill="none" stroke="#000000" stroke-width="0.4" d="M121.344,208.919 M120.89,208.919h0.454V207.8h-0.454V208.919z"/>
	<path fill="#FFFFFF" stroke="#000000" stroke-width="0.4" d="M146.148,209.847c0.521,0,0.945-0.424,0.945-0.945   s-0.424-0.945-0.945-0.945s-0.945,0.424-0.945,0.945S145.627,209.847,146.148,209.847"/>
	<line fill="none" stroke="#000000" stroke-width="0.4" x1="145.431" y1="207.815" x2="145.431" y2="207.606"/>
	<path fill="none" stroke="#000000" stroke-width="0.4" d="M146.691,207.815 M144.17,207.815h2.521v-0.209h-2.521V207.815z"/>
	<line fill="none" stroke="#000000" stroke-width="0.4" x1="145.448" y1="208.919" x2="145.448" y2="207.8"/>
	<path fill="none" stroke="#000000" stroke-width="0.4" d="M145.677,208.919 M145.221,208.919h0.456V207.8h-0.456V208.919z"/>
	<line fill="none" stroke="#000000" stroke-width="0.4" x1="117.28" y1="205.95" x2="149.064" y2="205.95"/>
	<rect x="142.328" y="176.19" fill="none" stroke="#000000" stroke-width="0.4" width="1.5" height="9.002"/>
	<line fill="none" stroke="#000000" stroke-width="0.4" x1="119.68" y1="148.895" x2="146.676" y2="148.895"/>
	<line fill="none" stroke="#000000" stroke-width="0.4" x1="119.68" y1="156.391" x2="146.676" y2="156.391"/>
</g>
<text transform="matrix(1 0 0 1 153.9395 198.2441)"><tspan x="0" y="0" font-family="'Helvetica'" font-size="9.0004">Storage</tspan><tspan x="0" y="10.801" font-family="'Helvetica'" font-size="9.0004">array</tspan></text>
<text transform="matrix(1 0 0 1 113.4941 225.9639)" font-family="'Helvetica'" font-size="9.0004">Controller 2</text>
<text transform="matrix(1 0 0 1 21.3516 225.9639)" font-family="'Helvetica'" font-size="9.0004">Controller 1</text>
<rect x="39.757" y="151.699" fill="#D2D3D4" stroke="#000000" stroke-width="0.4" width="9.559" height="64"/>
<rect x="132.157" y="151.699" fill="#D2D3D4" stroke="#000000" stroke-width="0.4" width="9.559" height="64"/>
<ellipse fill="#FFFFFF" stroke="#000000" stroke-width="0.5" cx="141.675" cy="162.953" rx="6.448" ry="6.322"/>
<text transform="matrix(1 0 0 1 137.1074 165.2686)" font-family="'Helvetica-Bold'" font-size="7.2003">2A</text>
<path d="M133.218,163.66c0,0.838,0.68,1.518,1.519,1.518c0.838,0,1.518-0.68,1.518-1.518s-0.68-1.52-1.518-1.52  C133.897,162.141,133.218,162.822,133.218,163.66"/>
<ellipse fill="#FFFFFF" stroke="#000000" stroke-width="0.5" cx="39.391" cy="163.506" rx="6.448" ry="6.324"/>
<text transform="matrix(1 0 0 1 34.3345 165.8223)" font-family="'Helvetica-Bold'" font-size="7.2003">1A</text>
<path d="M44.384,163.66c0,0.838,0.68,1.518,1.52,1.518s1.52-0.68,1.52-1.518s-0.68-1.52-1.52-1.52S44.384,162.822,44.384,163.66"/>
<path fill="#221F1F" d="M29.281,163.66"/>
<line fill="none" stroke="#000000" x1="47.125" y1="163.465" x2="134.254" y2="163.465"/>
<g>
	<rect x="57.797" y="152.849" fill="#FFFFFF" stroke="#000000" stroke-width="0.5" width="64.629" height="21.108"/>
	<text transform="matrix(1 0 0 1 66.0923 166.3477)" font-family="'Helvetica'" font-size="9.0004">LUN group 1</text>
</g>
<ellipse fill="#FFFFFF" stroke="#000000" stroke-width="0.5" cx="141.675" cy="185.911" rx="6.448" ry="6.322"/>
<text transform="matrix(1 0 0 1 137.54 188.2266)" font-family="'Helvetica-Bold'" font-size="7.2003">2B</text>
<path d="M133.218,186.618c0,0.838,0.68,1.518,1.519,1.518c0.838,0,1.518-0.68,1.518-1.518s-0.68-1.52-1.518-1.52  C133.897,185.099,133.218,185.78,133.218,186.618"/>
<ellipse fill="#FFFFFF" stroke="#000000" stroke-width="0.5" cx="39.391" cy="186.464" rx="6.448" ry="6.324"/>
<text transform="matrix(1 0 0 1 34.2622 188.7803)" font-family="'Helvetica-Bold'" font-size="7.2003">1B</text>
<path d="M44.384,186.618c0,0.838,0.68,1.518,1.52,1.518s1.52-0.68,1.52-1.518s-0.68-1.52-1.52-1.52S44.384,185.78,44.384,186.618"/>
<path fill="#221F1F" d="M29.281,186.618"/>
<line fill="none" stroke="#000000" stroke-linecap="round" x1="47.125" y1="186.423" x2="134.254" y2="186.423"/>
<g>
	<rect x="57.652" y="175.807" fill="#FFFFFF" stroke="#000000" stroke-width="0.5" width="64.92" height="21.108"/>
	<text transform="matrix(1 0 0 1 63.7871 189.3057)" font-family="'Helvetica'" font-size="9.0004">LUN group 2</text>
</g>
<polyline fill="none" stroke="#000000" stroke-linecap="round" points="157.963,100.683 157.963,163.314 148.931,163.314 "/>
<line fill="none" stroke="#FFFFFF" stroke-width="3" stroke-linecap="round" stroke-linejoin="round" x1="19.802" y1="49.629" x2="19.802" y2="70.937"/>
<line fill="none" stroke="#000000" stroke-linecap="round" stroke-linejoin="round" stroke-dasharray="5,4" x1="19.529" y1="47.121" x2="19.529" y2="93.405"/>
<polyline fill="none" stroke="#000000" stroke-linecap="round" stroke-linejoin="round" stroke-dasharray="5,4" points="  13.348,101.753 13.348,186.345 33,186.345 "/>
<line fill="none" stroke="#FFFFFF" stroke-width="3" stroke-linecap="round" stroke-linejoin="round" x1="161.58" y1="49.629" x2="161.58" y2="70.937"/>
<line fill="none" stroke="#000000" stroke-linecap="round" stroke-linejoin="round" stroke-dasharray="5,4" x1="161.595" y1="47.121" x2="161.595" y2="91.584"/>
<polyline fill="none" stroke="#000000" stroke-linecap="round" stroke-linejoin="round" stroke-dasharray="5,4" points="  163.56,102.043 163.56,185.477 148.517,185.477 "/>
<text transform="matrix(1 0 0 1 21.5254 114.1729)" font-family="'Helvetica'" font-size="9.0004">Switch 1</text>
<text transform="matrix(1 0 0 1 7.5547 83.6904)" font-family="'Helvetica'" font-size="9.0004">z1</text>
<text transform="matrix(1 0 0 1 38.6714 83.6904)" font-family="'Helvetica'" font-size="9.0004">z2</text>
<text transform="matrix(1 0 0 1 130.752 83.6904)" font-family="'Helvetica'" font-size="9.0004">z3</text>
<text transform="matrix(1 0 0 1 164.0918 83.6904)" font-family="'Helvetica'" font-size="9.0004">z4</text>
<text transform="matrix(1 0 0 1 151.709 183.1045)" font-family="'Helvetica'" font-size="9.0004">z4</text>
<text transform="matrix(1 0 0 1 146.9463 140.209)" font-family="'Helvetica'" font-size="9.0004">z3</text>
<text transform="matrix(1 0 0 1 22.478 160.5303)" font-family="'Helvetica'" font-size="9.0004">z2</text>
<text transform="matrix(1 0 0 1 16.6558 183.1045)" font-family="'Helvetica'" font-size="9.0004">z1</text>
<text transform="matrix(1 0 0 1 117.5586 114.1729)" font-family="'Helvetica'" font-size="9.0004">Switch 2</text>
<g>
	<path fill="#FFFFFF" stroke="#000000" stroke-width="0.4" stroke-linecap="round" stroke-linejoin="round" d="M30.389,94.171   v10.527 M11.108,90.441v10.525l19.281,3.731l30.279-2.792V91.381"/>
	<polygon fill="#FFFFFF" stroke="#000000" stroke-width="0.4" stroke-linecap="round" stroke-linejoin="round" points="   60.668,91.381 30.389,94.171 11.108,90.441 41.386,87.65  "/>
</g>
<g>
	<path fill="#FFFFFF" stroke="#000000" stroke-width="0.4" stroke-linecap="round" stroke-linejoin="round" d="M136.723,94.171   v10.527 M117.441,90.441v10.525l19.281,3.731l30.279-2.792V91.381"/>
	<polygon fill="#FFFFFF" stroke="#000000" stroke-width="0.4" stroke-linecap="round" stroke-linejoin="round" points="   167.002,91.381 136.723,94.171 117.441,90.441 147.72,87.65  "/>
</g>
</svg>