<?xml version="1.0" encoding="UTF-8"?><!-- Generator: Adobe Illustrator 16.0.3, SVG Export Plug-In . SVG Version: 6.00 Build 0)  --><!DOCTYPE svg PUBLIC "-//W3C//DTD SVG 1.1//EN" "http://www.w3.org/Graphics/SVG/1.1/DTD/svg11.dtd">
<svg xmlns="http://www.w3.org/2000/svg" xmlns:xlink="http://www.w3.org/1999/xlink" version="1.1" id="Layer_1" x="0px" y="0px" width="184.096px" height="230.25px" viewBox="0 0 184.096 230.25" enable-background="new 0 0 184.096 230.25" xml:space="preserve" preserveAspectRatio="xMidYMid meet" zoomAndPan="magnify" contentScriptType="application/ecmascript" contentStyleType="text/css">
<text transform="matrix(1 0 0 1 77.6016 9.8159)" font-family="'Helvetica'" font-size="9.0004">vs1</text>
<g>
	<polyline fill="#FFFFFF" stroke="#000000" stroke-width="0.4" points="103.448,18.123 96.752,13.47 72.987,13.47 65.872,18.1  "/>
	<polyline fill="none" stroke="#000000" stroke-width="0.4" stroke-linejoin="round" points="103.448,18.123 96.752,13.47    72.987,13.47 65.872,18.1  "/>
	<rect x="64.411" y="17.444" fill="#FFFFFF" stroke="#000000" stroke-width="0.4" width="39.992" height="24.081"/>
	
		<rect x="64.41" y="17.444" fill="none" stroke="#000000" stroke-width="0.4" stroke-linecap="round" stroke-linejoin="round" stroke-miterlimit="500" width="39.992" height="24.081"/>
	<path fill="#FFFFFF" stroke="#000000" stroke-width="0.4" d="M66.688,17.594c-1.266,0-1.305,0.197-1.582,1.225   c-0.277,1.029-1.187,4.863-1.187,6.365c0,1.504,1.266,6.643,1.424,7.868c0.158,1.227,0.475,4.508,0.595,5.219   c0.117,0.713,0.236,1.106,1.106,1.187c0.87,0.08,8.422,0.397,10.318,0.397c1.899,0,10.518-0.517,10.518-0.517   s4.825,0.478,7.75,0.478c2.927,0,5.693-0.239,6.288-0.358c0.592-0.119,0.947-0.08,0.986-1.463c0.04-1.383,0.436-3.598,0.713-5.931   c0.276-2.332,1.186-4.192,1.226-6.009c0.039-1.819-0.079-2.61-0.437-4.429c-0.354-1.818-0.75-2.817-0.869-3.203   c-0.156-0.514-0.354-0.829-1.225-0.829C101.441,17.594,66.688,17.594,66.688,17.594"/>
	
		<path fill="none" stroke="#000000" stroke-width="0.4" stroke-linecap="round" stroke-linejoin="round" stroke-miterlimit="500" d="   M103.419,18.067l0.982-0.623l-1.536,0.15 M65.938,17.594l-1.527-0.15l0.893,0.584 M66.688,17.594c-1.266,0-1.305,0.197-1.582,1.225   c-0.277,1.029-1.187,4.863-1.187,6.365c0,1.504,1.266,6.643,1.424,7.868c0.158,1.227,0.475,4.508,0.595,5.219   c0.117,0.713,0.236,1.106,1.106,1.187c0.87,0.08,8.422,0.397,10.318,0.397c1.899,0,10.518-0.517,10.518-0.517   s4.825,0.478,7.75,0.478c2.927,0,5.693-0.239,6.288-0.358c0.592-0.119,0.947-0.08,0.986-1.463c0.04-1.383,0.436-3.598,0.713-5.931   c0.276-2.332,1.186-4.192,1.226-6.009c0.039-1.819-0.079-2.61-0.437-4.429c-0.354-1.818-0.75-2.817-0.869-3.203   c-0.156-0.514-0.354-0.829-1.225-0.829C101.441,17.594,66.688,17.594,66.688,17.594z"/>
	
		<path fill="none" stroke="#000000" stroke-width="0.4" stroke-linecap="round" stroke-linejoin="round" stroke-miterlimit="500" d="   M98.836,29.087c0,0,1.041-4.063-0.129-8.556 M97.275,29.087c0,0,1.079-4.045-0.147-8.646 M95.719,29.087   c0,0,1.058-4.584-0.141-8.585 M94.16,29.087c0,0,1.039-4.51-0.094-8.425 M92.601,29.087c0,0,1.02-4.23-0.042-8.16 M91.042,29.087   c0,0,1.058-3.116,0.069-7.845 M89.352,29.495c-0.205,0.52,1.357-2.95,0.163-8.476 M87.683,29.869   c-0.205,0.519,1.539-3.545,0.199-9.073 M86.068,30.147c-0.206,0.519,1.743-4.066,0.24-9.503 M84.428,30.351   c-0.206,0.521,1.826-4.418,0.322-9.856 M82.832,30.5c-0.206,0.52,1.917-4.509,0.289-10.09 M81.272,30.612   c-0.205,0.52,1.93-4.702,0.304-10.282 M79.72,30.641c-0.204,0.521,1.918-4.76,0.29-10.342 M78.154,30.641   c-0.206,0.521,1.755-5.153,0.289-10.342 M76.604,30.581c0,0,1.871-4.684,0.288-10.282 M75.082,30.444c0,0,1.825-4.502,0.243-10.099    M73.576,30.323c0,0,1.521-4.442,0.243-9.901 M72.116,30.094c0,0,1.476-4.137,0.198-9.598 M70.625,29.851   c0,0,1.416-3.773,0.137-9.232"/>
	<path fill="#FFFFFF" stroke="#000000" stroke-width="0.4" d="M91.32,22.458c0,0-2.658-0.021-3.865,0.261   c-1.204,0.279-1.605,0.601-0.04,0.923c1.568,0.32,4.08,0.358,4.08,0.358S91.399,22.818,91.32,22.458"/>
	
		<path fill="none" stroke="#000000" stroke-width="0.4" stroke-linecap="round" stroke-linejoin="round" stroke-miterlimit="500" d="   M91.042,29.087c0,0,7.581,0.097,8.222,0.055c0.641-0.038,0.923-0.079,1.044-1.405c0.12-1.325,0.493-3.86-0.403-6.545   c-0.199-0.603-0.44-0.603-0.843-0.681c-0.401-0.081-4.095-0.323-7.951,0.731c0,0-5.783-0.933-10.883-0.974   c-3.577-0.028-9.317,0.281-9.961,0.361c-0.641,0.08-1.043,0.402-1.164,1.566c-0.12,1.166-0.393,3.896,0.081,6.265   c0.12,0.603,0.12,1.086,0.763,1.286c0.642,0.2,5.422,1.125,11.164,0.884C86.854,30.389,91.042,29.087,91.042,29.087z M91.32,22.458   c0,0-2.658-0.021-3.865,0.261c-1.204,0.279-1.605,0.601-0.04,0.923c1.568,0.32,4.08,0.358,4.08,0.358S91.399,22.818,91.32,22.458z"/>
	
		<path fill="none" stroke="#000000" stroke-width="0.4" stroke-linecap="round" stroke-linejoin="round" stroke-miterlimit="500" d="   M90.696,31.634c0,0-1.178,5.836-4.07,9.904 M90.91,20.442c0,0-0.268-2.087-0.696-2.998 M66.813,20.925   c0.188-0.625,0.482-0.804,1.339-0.911c0.856-0.108,8.406-0.643,11.833-0.589c3.428,0.053,10.924,1.017,10.924,1.017   s3.855-0.803,5.462-0.856c1.605-0.054,3.801,0.215,4.391,0.32c0.589,0.108,0.855,0.269,1.07,0.857   c0.216,0.589,0.644,3.053,0.644,4.285s-0.59,4.766-0.858,5.515c-0.267,0.75-0.534,1.124-1.283,1.124   c-0.75,0-9.639-0.053-9.639-0.053s-4.605,1.444-10.71,1.713c-6.103,0.269-10.495-0.804-11.191-0.962   c-0.696-0.162-1.125-0.162-1.499-1.341c-0.375-1.176-0.963-3.48-1.018-5.032C66.224,24.458,66.653,21.46,66.813,20.925z"/>
	
		<path fill="none" stroke="#000000" stroke-width="0.4" stroke-linecap="round" stroke-linejoin="round" stroke-miterlimit="500" d="   M101.084,36.056c0,0.159-0.129,0.291-0.289,0.291h-6.623c-0.161,0-0.29-0.132-0.29-0.291v-1.403c0-0.158,0.129-0.288,0.29-0.288   h6.623c0.16,0,0.289,0.13,0.289,0.288V36.056z"/>
</g>
<g>
	
		<rect x="4.185" y="31.005" fill="#FFFFFF" stroke="#000000" stroke-width="0.4" stroke-miterlimit="500" width="159.392" height="19.188"/>
</g>
<rect x="10.158" y="41.588" fill="#FFFFFF" stroke="#000000" stroke-width="0.4" stroke-miterlimit="500" width="7.916" height="5.802"/>
<text transform="matrix(1 0 0 1 9.146 39.2275)" font-family="'Helvetica'" font-size="7.6084">0a</text>
<rect x="30.035" y="41.588" fill="#FFFFFF" stroke="#000000" stroke-width="0.4" stroke-miterlimit="500" width="7.916" height="5.802"/>
<text transform="matrix(1 0 0 1 28.9517 39.2275)" font-family="'Helvetica'" font-size="7.6084">0b</text>
<rect x="49.193" y="41.517" fill="#FFFFFF" stroke="#000000" stroke-width="0.4" stroke-miterlimit="500" width="7.916" height="5.802"/>
<text transform="matrix(1 0 0 1 48.7549 39.2275)" font-family="'Helvetica'" font-size="7.6084">0c</text>
<rect x="68.928" y="41.588" fill="#FFFFFF" stroke="#000000" stroke-width="0.4" stroke-miterlimit="500" width="7.916" height="5.802"/>
<text transform="matrix(1 0 0 1 68.2754 39.2275)" font-family="'Helvetica'" font-size="7.6084">0d</text>
<rect x="90.919" y="41.588" fill="#FFFFFF" stroke="#000000" stroke-width="0.4" stroke-miterlimit="500" width="7.916" height="5.802"/>
<text transform="matrix(1 0 0 1 90.2661 39.2275)" font-family="'Helvetica'" font-size="7.6084">0e</text>
<rect x="111.645" y="41.588" fill="#FFFFFF" stroke="#000000" stroke-width="0.4" stroke-miterlimit="500" width="7.916" height="5.802"/>
<text transform="matrix(1 0 0 1 111.6914 39.2275)" font-family="'Helvetica'" font-size="7.6084">0f</text>
<rect x="131.651" y="41.588" fill="#FFFFFF" stroke="#000000" stroke-width="0.4" stroke-miterlimit="500" width="7.916" height="5.802"/>
<text transform="matrix(1 0 0 1 131 39.2275)" font-family="'Helvetica'" font-size="7.6084">0g</text>
<rect x="151.804" y="41.373" fill="#FFFFFF" stroke="#000000" stroke-width="0.4" stroke-miterlimit="500" width="7.916" height="5.802"/>
<text transform="matrix(1 0 0 1 151.3662 39.2275)" font-family="'Helvetica'" font-size="7.6084">0h</text>
<line fill="none" stroke="#000000" stroke-width="0.4" stroke-linecap="round" stroke-miterlimit="500" stroke-dasharray="2" x1="84.524" y1="49.547" x2="84.524" y2="31.028"/>
<polyline fill="none" stroke="#000000" points="14.079,99.649 14.079,163.256 52.125,163.256 "/>
<g>
	<rect x="113.622" y="144.401" fill="#FFFFFF" stroke="#000000" stroke-width="0.4" width="31.878" height="62.52"/>
	<polyline fill="none" stroke="#000000" stroke-width="0.4" points="142.911,205.331 142.911,146.282 116.101,146.282    116.167,205.331  "/>
	<path fill="#FFFFFF" stroke="#000000" stroke-width="0.4" d="M118.146,209.067c0.523,0,0.947-0.424,0.947-0.945   s-0.424-0.945-0.947-0.945c-0.521,0-0.945,0.424-0.945,0.945S117.624,209.067,118.146,209.067"/>
	<line fill="none" stroke="#000000" stroke-width="0.4" x1="117.429" y1="207.036" x2="117.429" y2="206.827"/>
	<path fill="none" stroke="#000000" stroke-width="0.4" d="M118.688,207.036 M116.169,207.036h2.52v-0.209h-2.52V207.036z"/>
	<line fill="none" stroke="#000000" stroke-width="0.4" x1="117.446" y1="208.14" x2="117.446" y2="207.021"/>
	<path fill="none" stroke="#000000" stroke-width="0.4" d="M117.673,208.14 M117.218,208.14h0.455v-1.119h-0.455V208.14z"/>
	<path fill="#FFFFFF" stroke="#000000" stroke-width="0.4" d="M142.478,209.067c0.521,0,0.945-0.424,0.945-0.945   s-0.424-0.945-0.945-0.945s-0.945,0.424-0.945,0.945S141.956,209.067,142.478,209.067"/>
	<line fill="none" stroke="#000000" stroke-width="0.4" x1="141.759" y1="207.036" x2="141.759" y2="206.827"/>
	<path fill="none" stroke="#000000" stroke-width="0.4" d="M143.021,207.036 M140.499,207.036h2.521v-0.209h-2.521V207.036z"/>
	<line fill="none" stroke="#000000" stroke-width="0.4" x1="141.776" y1="208.14" x2="141.776" y2="207.021"/>
	<path fill="none" stroke="#000000" stroke-width="0.4" d="M142.005,208.14 M141.55,208.14h0.455v-1.119h-0.455V208.14z"/>
	<line fill="none" stroke="#000000" stroke-width="0.4" x1="113.608" y1="205.171" x2="145.394" y2="205.171"/>
	<rect x="138.657" y="175.411" fill="none" stroke="#000000" stroke-width="0.4" width="1.5" height="9.002"/>
	<line fill="none" stroke="#000000" stroke-width="0.4" x1="116.008" y1="148.118" x2="143.004" y2="148.118"/>
	<line fill="none" stroke="#000000" stroke-width="0.4" x1="116.008" y1="155.611" x2="143.004" y2="155.611"/>
</g>
<text transform="matrix(1 0 0 1 148.291 196.3711)"><tspan x="0" y="0" font-family="'Helvetica'" font-size="9.0004">Storage</tspan><tspan x="0" y="10.801" font-family="'Helvetica'" font-size="9.0004">array</tspan></text>
<text transform="matrix(1 0 0 1 15.625 226.7041)" font-family="'Helvetica'" font-size="9.0004">Controller 1</text>
<text transform="matrix(1 0 0 1 107.958 226.7041)" font-family="'Helvetica'" font-size="9.0004">Controller 2</text>
<rect x="34.109" y="151.354" fill="#D1D3D4" stroke="#000000" stroke-width="0.4" width="9.559" height="64"/>
<ellipse fill="#FFFFFF" stroke="#000000" stroke-width="0.5" cx="33.743" cy="163.16" rx="6.448" ry="6.324"/>
<path d="M38.736,163.314c0,0.838,0.68,1.518,1.52,1.518s1.52-0.68,1.52-1.518s-0.68-1.52-1.52-1.52S38.736,162.477,38.736,163.314"/>
<path fill="#231F20" d="M23.632,163.314"/>
<line fill="none" x1="41.476" y1="163.119" x2="128.606" y2="163.119"/>
<g>
	<rect x="52.149" y="152.504" fill="#FFFFFF" stroke="#000000" stroke-width="0.5" width="64.628" height="21.107"/>
	<text transform="matrix(1 0 0 1 62.4438 166.002)" font-family="'Helvetica'" font-size="9.0004">LUN group</text>
</g>
<line fill="none" stroke="#FFFFFF" stroke-width="3" stroke-linecap="round" stroke-linejoin="round" x1="155.932" y1="49.284" x2="155.932" y2="70.591"/>
<path fill="#231F20" d="M23.632,186.272"/>
<polyline fill="none" stroke="#000000" stroke-linecap="round" points="155.77,47.452 155.77,163.256 116.769,163.256 "/>
<line fill="none" stroke="#FFFFFF" stroke-width="3" stroke-linecap="round" stroke-linejoin="round" x1="14.153" y1="49.284" x2="14.153" y2="70.591"/>
<text transform="matrix(1 0 0 1 15.877 113.8271)" font-family="'Helvetica'" font-size="9.0004">Switch 1</text>
<text transform="matrix(1 0 0 1 119.2441 113.8271)" font-family="'Helvetica'" font-size="9.0004">Switch 2</text>
<line fill="none" stroke="#000000" stroke-linecap="round" x1="13.87" y1="47.297" x2="13.87" y2="91.336"/>
<g>
	<path fill="#FFFFFF" stroke="#000000" stroke-width="0.4" stroke-linecap="round" stroke-linejoin="round" d="M134.676,93.825   v10.527 M115.395,90.096v10.525l19.281,3.731l30.276-2.792V91.035"/>
	<polygon fill="#FFFFFF" stroke="#000000" stroke-width="0.4" stroke-linecap="round" stroke-linejoin="round" points="   164.952,91.035 134.676,93.825 115.395,90.096 145.673,87.305  "/>
</g>
<g>
	<path fill="#FFFFFF" stroke="#000000" stroke-width="0.4" stroke-linecap="round" stroke-linejoin="round" d="M24.741,93.825   v10.527 M5.459,90.096v10.525l19.281,3.731l30.279-2.792V91.035"/>
	<polygon fill="#FFFFFF" stroke="#000000" stroke-width="0.4" stroke-linecap="round" stroke-linejoin="round" points="   55.02,91.035 24.741,93.825 5.459,90.096 35.738,87.305  "/>
</g>
<text transform="matrix(1 0 0 1 28.291 166.0371)" font-family="'Helvetica'" font-size="8.0004">1A</text>
<rect x="126.51" y="151.354" fill="#D1D3D4" stroke="#000000" stroke-width="0.4" width="9.559" height="64"/>
<ellipse fill="#FFFFFF" stroke="#000000" stroke-width="0.5" cx="136.026" cy="162.607" rx="6.448" ry="6.322"/>
<text transform="matrix(1 0 0 1 130.958 165.0371)" font-family="'Helvetica'" font-size="8.0004">2A</text>
<path d="M127.568,163.314c0,0.838,0.68,1.518,1.521,1.518c0.838,0,1.518-0.68,1.518-1.518s-0.68-1.52-1.518-1.52  C128.248,161.795,127.568,162.477,127.568,163.314"/>
</svg>