<?xml version="1.0" encoding="UTF-8"?><!-- Generator: Adobe Illustrator 16.0.3, SVG Export Plug-In . SVG Version: 6.00 Build 0)  --><!DOCTYPE svg PUBLIC "-//W3C//DTD SVG 1.1//EN" "http://www.w3.org/Graphics/SVG/1.1/DTD/svg11.dtd">
<svg xmlns="http://www.w3.org/2000/svg" xmlns:xlink="http://www.w3.org/1999/xlink" version="1.1" id="Layer_1" x="0px" y="0px" width="186.334px" height="233px" viewBox="0 0 186.334 233" enable-background="new 0 0 186.334 233" xml:space="preserve" preserveAspectRatio="xMidYMid meet" zoomAndPan="magnify" contentScriptType="application/ecmascript" contentStyleType="text/css">
<g>
	<rect x="113.354" y="143.055" fill="#FFFFFF" stroke="#010101" stroke-width="0.4" width="31.879" height="62.519"/>
	<polyline fill="none" stroke="#010101" stroke-width="0.4" points="142.643,203.983 142.643,144.936 115.832,144.936    115.898,203.983  "/>
	<path fill="#FFFFFF" stroke="#010101" stroke-width="0.4" d="M117.877,207.72c0.523,0,0.947-0.424,0.947-0.945   s-0.424-0.945-0.947-0.945c-0.521,0-0.945,0.424-0.945,0.945S117.355,207.72,117.877,207.72"/>
	<line fill="none" stroke="#010101" stroke-width="0.4" x1="117.16" y1="205.688" x2="117.16" y2="205.479"/>
	<path fill="none" stroke="#010101" stroke-width="0.4" d="M118.42,205.688 M115.9,205.688h2.52v-0.209h-2.52V205.688z"/>
	<line fill="none" stroke="#010101" stroke-width="0.4" x1="117.178" y1="206.792" x2="117.178" y2="205.673"/>
	<path fill="none" stroke="#010101" stroke-width="0.4" d="M117.404,206.792 M116.949,206.792h0.455v-1.119h-0.455V206.792z"/>
	<path fill="#FFFFFF" stroke="#010101" stroke-width="0.4" d="M142.209,207.72c0.521,0,0.945-0.424,0.945-0.945   s-0.424-0.945-0.945-0.945s-0.945,0.424-0.945,0.945S141.688,207.72,142.209,207.72"/>
	<line fill="none" stroke="#010101" stroke-width="0.4" x1="141.49" y1="205.688" x2="141.49" y2="205.479"/>
	<path fill="none" stroke="#010101" stroke-width="0.4" d="M142.752,205.688 M140.23,205.688h2.521v-0.209h-2.521V205.688z"/>
	<line fill="none" stroke="#010101" stroke-width="0.4" x1="141.508" y1="206.792" x2="141.508" y2="205.673"/>
	<path fill="none" stroke="#010101" stroke-width="0.4" d="M141.736,206.792 M141.281,206.792h0.455v-1.119h-0.455V206.792z"/>
	<line fill="none" stroke="#010101" stroke-width="0.4" x1="113.34" y1="203.823" x2="145.125" y2="203.823"/>
	<rect x="138.389" y="174.063" fill="none" stroke="#010101" stroke-width="0.4" width="1.5" height="9.002"/>
	<line fill="none" stroke="#010101" stroke-width="0.4" x1="115.74" y1="146.771" x2="142.736" y2="146.771"/>
	<line fill="none" stroke="#010101" stroke-width="0.4" x1="115.74" y1="154.265" x2="142.736" y2="154.265"/>
</g>
<polyline fill="none" stroke="#010101" stroke-linecap="round" points="116.51,161.771 157.775,161.771 157.775,100.851 "/>
<line x1="56.824" y1="29.342" x2="133.158" y2="29.342"/>
<line fill="none" stroke="#000000" stroke-width="2" x1="56.824" y1="29.342" x2="133.158" y2="29.342"/>
<line x1="56.824" y1="21.341" x2="133.158" y2="21.341"/>
<line fill="none" stroke="#000000" stroke-width="2" x1="56.824" y1="21.341" x2="133.158" y2="21.341"/>
<text transform="matrix(1 0 0 1 34.1875 9.3848)" font-family="'Helvetica'" font-size="9.0004">vs1</text>
<polyline fill="#FFFFFF" points="57.729,17.692 51.033,13.039 27.268,13.039 20.152,17.669 "/>
<polyline fill="none" stroke="#000000" stroke-width="0.4" points="57.729,17.692 51.033,13.039 27.268,13.039 20.152,17.669 "/>
<polyline fill="none" stroke="#000000" stroke-width="0.4" stroke-linejoin="round" points="57.729,17.692 51.033,13.039   27.268,13.039 20.152,17.669 "/>
<rect x="18.691" y="17.013" fill="#FFFFFF" width="39.992" height="24.081"/>
<polygon fill="none" stroke="#000000" stroke-width="0.4" points="18.691,41.094 58.683,41.094 58.683,17.013 18.691,17.013   18.691,41.094 "/>
<polygon fill="none" stroke="#000000" stroke-width="0.4" stroke-linecap="round" stroke-linejoin="round" stroke-miterlimit="500" points="  58.682,41.094 18.69,41.094 18.69,17.013 58.682,17.013 58.682,41.094 "/>
<path fill="#FFFFFF" d="M20.967,17.163c-1.266,0-1.304,0.197-1.582,1.225c-0.276,1.029-1.187,4.863-1.187,6.365  c0,1.504,1.266,6.643,1.425,7.868c0.157,1.227,0.474,4.508,0.594,5.219c0.118,0.713,0.237,1.107,1.106,1.187  c0.87,0.08,8.423,0.397,10.319,0.397c1.899,0,10.517-0.516,10.517-0.516s4.826,0.477,7.751,0.477c2.927,0,5.693-0.239,6.288-0.358  c0.592-0.119,0.947-0.08,0.986-1.463c0.04-1.383,0.436-3.598,0.713-5.931c0.276-2.332,1.186-4.192,1.226-6.009  c0.039-1.819-0.079-2.61-0.437-4.429c-0.354-1.818-0.75-2.817-0.869-3.203c-0.156-0.514-0.354-0.829-1.225-0.829H20.967"/>
<path fill="none" stroke="#000000" stroke-width="0.4" d="M20.967,17.163c-1.266,0-1.304,0.197-1.582,1.225  c-0.276,1.029-1.187,4.863-1.187,6.365c0,1.504,1.266,6.643,1.425,7.868c0.157,1.227,0.474,4.508,0.594,5.219  c0.118,0.713,0.237,1.107,1.106,1.187c0.87,0.08,8.423,0.397,10.319,0.397c1.899,0,10.517-0.516,10.517-0.516  s4.826,0.477,7.751,0.477c2.927,0,5.693-0.239,6.288-0.358c0.592-0.119,0.947-0.08,0.986-1.463c0.04-1.383,0.436-3.598,0.713-5.931  c0.276-2.332,1.186-4.192,1.226-6.009c0.039-1.819-0.079-2.61-0.437-4.429c-0.354-1.818-0.75-2.817-0.869-3.203  c-0.156-0.514-0.354-0.829-1.225-0.829H20.967"/>
<path fill="none" stroke="#000000" stroke-width="0.4" stroke-linecap="round" stroke-linejoin="round" stroke-miterlimit="500" d="  M20.967,17.163c-1.266,0-1.304,0.197-1.582,1.225c-0.276,1.029-1.187,4.863-1.187,6.365c0,1.504,1.266,6.643,1.425,7.868  c0.157,1.227,0.474,4.508,0.594,5.219c0.118,0.713,0.237,1.107,1.106,1.187c0.87,0.08,8.423,0.397,10.319,0.397  c1.899,0,10.517-0.516,10.517-0.516s4.826,0.477,7.751,0.477c2.927,0,5.693-0.239,6.288-0.358c0.592-0.119,0.947-0.08,0.986-1.463  c0.04-1.383,0.436-3.598,0.713-5.931c0.276-2.332,1.186-4.192,1.226-6.009c0.039-1.819-0.079-2.61-0.437-4.429  c-0.354-1.818-0.75-2.817-0.869-3.203c-0.156-0.514-0.354-0.829-1.225-0.829H20.967L20.967,17.163z M20.217,17.163l-1.526-0.15  l0.893,0.584 M57.7,17.636l0.982-0.623l-1.536,0.15 M24.904,29.42c0,0,1.416-3.773,0.138-9.232 M26.396,29.663  c0,0,1.476-4.137,0.197-9.598 M27.856,29.892c0,0,1.521-4.442,0.242-9.901 M29.361,30.013c0,0,1.826-4.502,0.244-10.099   M30.883,30.15c0,0,1.872-4.684,0.289-10.282 M32.435,30.21c-0.206,0.521,1.755-5.153,0.288-10.342 M34,30.21  c-0.204,0.521,1.918-4.76,0.29-10.342 M35.553,30.181c-0.205,0.52,1.931-4.702,0.305-10.282 M37.111,30.069  c-0.206,0.52,1.917-4.509,0.29-10.09 M38.708,29.92c-0.206,0.521,1.825-4.418,0.321-9.856 M40.349,29.716  c-0.205,0.519,1.743-4.066,0.241-9.503 M41.963,29.438c-0.206,0.519,1.539-3.545,0.199-9.073 M43.631,29.064  c-0.205,0.52,1.357-2.95,0.164-8.476 M45.321,28.656c0,0,1.059-3.116,0.07-7.845 M46.881,28.656c0,0,1.02-4.23-0.042-8.16   M48.44,28.656c0,0,1.039-4.51-0.094-8.425 M50,28.656c0,0,1.057-4.584-0.141-8.585 M51.556,28.656c0,0,1.079-4.045-0.147-8.646   M53.117,28.656c0,0,1.041-4.063-0.129-8.556"/>
<path fill="#FFFFFF" d="M45.601,22.027c0,0-2.658-0.021-3.865,0.261c-1.205,0.279-1.605,0.601-0.041,0.923  c1.568,0.32,4.081,0.358,4.081,0.358S45.68,22.387,45.601,22.027"/>
<path fill="none" stroke="#000000" stroke-width="0.4" d="M45.601,22.027c0,0-2.658-0.021-3.865,0.261  c-1.205,0.279-1.605,0.601-0.041,0.923c1.568,0.32,4.081,0.358,4.081,0.358S45.68,22.387,45.601,22.027"/>
<path fill="none" stroke="#000000" stroke-width="0.4" stroke-linecap="round" stroke-linejoin="round" stroke-miterlimit="500" d="  M45.601,22.027c0,0-2.658-0.021-3.865,0.261c-1.205,0.279-1.605,0.601-0.041,0.923c1.568,0.32,4.081,0.358,4.081,0.358  S45.68,22.387,45.601,22.027L45.601,22.027z M45.321,28.656c0,0,7.581,0.097,8.223,0.055c0.64-0.038,0.922-0.079,1.044-1.405  c0.12-1.325,0.493-3.86-0.404-6.545c-0.199-0.603-0.44-0.603-0.843-0.681c-0.401-0.081-4.094-0.323-7.95,0.73  c0,0-5.783-0.933-10.884-0.974c-3.577-0.028-9.316,0.281-9.96,0.361c-0.642,0.08-1.043,0.402-1.165,1.566  c-0.12,1.166-0.393,3.896,0.082,6.265c0.12,0.603,0.12,1.086,0.763,1.286c0.641,0.2,5.422,1.125,11.164,0.884  C41.133,29.958,45.321,28.656,45.321,28.656L45.321,28.656z M21.094,20.494c0.188-0.625,0.482-0.804,1.34-0.911  c0.856-0.108,8.406-0.643,11.833-0.589c3.427,0.053,10.924,1.017,10.924,1.017s3.855-0.803,5.462-0.856  c1.605-0.054,3.801,0.215,4.391,0.32c0.588,0.108,0.855,0.27,1.07,0.857c0.216,0.589,0.643,3.053,0.643,4.285  s-0.589,4.766-0.858,5.515c-0.267,0.75-0.534,1.124-1.283,1.124c-0.75,0-9.639-0.053-9.639-0.053s-4.605,1.444-10.71,1.713  c-6.103,0.269-10.495-0.804-11.192-0.962c-0.695-0.162-1.125-0.162-1.499-1.341c-0.375-1.176-0.963-3.48-1.017-5.032  C20.504,24.027,20.934,21.029,21.094,20.494L21.094,20.494z M45.19,20.011c0,0-0.268-2.087-0.697-2.998 M44.977,31.203  c0,0-1.178,5.836-4.071,9.904 M55.365,35.625c0,0.16-0.129,0.291-0.289,0.291h-6.624c-0.16,0-0.289-0.131-0.289-0.291v-1.403  c0-0.158,0.129-0.288,0.289-0.288h6.624c0.16,0,0.289,0.13,0.289,0.288V35.625L55.365,35.625z"/>
<text transform="matrix(1 0 0 1 142.8633 9.3848)" font-family="'Helvetica'" font-size="9.0004">vs</text>
<text transform="matrix(1 0 0 1 150.8926 9.3848)" font-family="'Helvetica'" font-size="9.0004">2</text>
<rect x="6.897" y="31.03" fill="#FFFFFF" width="63.535" height="17.128"/>
<polygon fill="none" stroke="#000000" stroke-width="0.4" stroke-miterlimit="500" points="70.433,48.158 70.433,31.03 6.898,31.03   6.898,48.158 70.433,48.158 "/>
<rect x="11.024" y="40.219" fill="#FFFFFF" width="7.916" height="5.802"/>
<polygon fill="none" stroke="#000000" stroke-width="0.4" stroke-miterlimit="500" points="18.94,46.021 11.024,46.021   11.024,40.22 18.94,40.22 18.94,46.021 "/>
<text transform="matrix(1 0 0 1 10.3721 38.2925)" font-family="'Helvetica'" font-size="7.6084">0a</text>
<rect x="27.08" y="40.219" fill="#FFFFFF" width="7.916" height="5.802"/>
<polygon fill="none" stroke="#000000" stroke-width="0.4" stroke-miterlimit="500" points="34.996,46.021 27.08,46.021 27.08,40.22   34.996,40.22 34.996,46.021 "/>
<text transform="matrix(1 0 0 1 26.0693 38.2925)" font-family="'Helvetica'" font-size="7.6084">0b</text>
<rect x="45.296" y="40.004" fill="#FFFFFF" width="7.916" height="5.802"/>
<polygon fill="none" stroke="#000000" stroke-width="0.4" stroke-miterlimit="500" points="53.212,45.806 45.296,45.806   45.296,40.004 53.212,40.004 53.212,45.806 "/>
<text transform="matrix(1 0 0 1 44.8584 38.2925)" font-family="'Helvetica'" font-size="7.6084">0c</text>
<rect x="58.111" y="40.004" fill="#FFFFFF" width="7.916" height="5.802"/>
<polygon fill="none" stroke="#000000" stroke-width="0.4" stroke-miterlimit="500" points="66.027,45.806 58.111,45.806   58.111,40.004 66.027,40.004 66.027,45.806 "/>
<text transform="matrix(1 0 0 1 57.459 38.2925)" font-family="'Helvetica'" font-size="7.6084">0d</text>
<polyline fill="#FFFFFF" points="169.729,17.692 163.033,13.039 139.268,13.039 132.152,17.669 "/>
<polyline fill="none" stroke="#000000" stroke-width="0.4" points="169.729,17.692 163.033,13.039 139.268,13.039 132.152,17.669   "/>
<polyline fill="none" stroke="#000000" stroke-width="0.4" stroke-linejoin="round" points="169.729,17.692 163.033,13.039   139.268,13.039 132.152,17.669 "/>
<rect x="130.691" y="17.013" fill="#FFFFFF" width="39.99" height="24.081"/>
<polygon fill="none" stroke="#000000" stroke-width="0.4" points="130.691,41.094 170.682,41.094 170.682,17.013 130.691,17.013   130.691,41.094 "/>
<polygon fill="none" stroke="#000000" stroke-width="0.4" stroke-linecap="round" stroke-linejoin="round" stroke-miterlimit="500" points="  170.682,41.094 130.691,41.094 130.691,17.013 170.682,17.013 170.682,41.094 "/>
<path fill="#FFFFFF" d="M132.967,17.163c-1.264,0-1.303,0.197-1.582,1.225c-0.275,1.029-1.186,4.863-1.186,6.365  c0,1.504,1.266,6.643,1.426,7.868c0.156,1.227,0.473,4.508,0.592,5.219c0.119,0.713,0.238,1.107,1.107,1.187  c0.871,0.08,8.424,0.397,10.318,0.397c1.9,0,10.518-0.516,10.518-0.516s4.826,0.477,7.752,0.477s5.693-0.239,6.287-0.358  c0.592-0.119,0.947-0.08,0.984-1.463c0.041-1.383,0.438-3.598,0.715-5.931c0.275-2.332,1.186-4.192,1.227-6.009  c0.039-1.819-0.08-2.61-0.439-4.429c-0.352-1.818-0.75-2.817-0.867-3.203c-0.156-0.514-0.354-0.829-1.227-0.829H132.967"/>
<path fill="none" stroke="#000000" stroke-width="0.4" d="M132.967,17.163c-1.264,0-1.303,0.197-1.582,1.225  c-0.275,1.029-1.186,4.863-1.186,6.365c0,1.504,1.266,6.643,1.426,7.868c0.156,1.227,0.473,4.508,0.592,5.219  c0.119,0.713,0.238,1.107,1.107,1.187c0.871,0.08,8.424,0.397,10.318,0.397c1.9,0,10.518-0.516,10.518-0.516  s4.826,0.477,7.752,0.477s5.693-0.239,6.287-0.358c0.592-0.119,0.947-0.08,0.984-1.463c0.041-1.383,0.438-3.598,0.715-5.931  c0.275-2.332,1.186-4.192,1.227-6.009c0.039-1.819-0.08-2.61-0.439-4.429c-0.352-1.818-0.75-2.817-0.867-3.203  c-0.156-0.514-0.354-0.829-1.227-0.829H132.967"/>
<path fill="none" stroke="#000000" stroke-width="0.4" stroke-linecap="round" stroke-linejoin="round" stroke-miterlimit="500" d="  M132.967,17.163c-1.264,0-1.303,0.197-1.582,1.225c-0.275,1.029-1.186,4.863-1.186,6.365c0,1.504,1.266,6.643,1.426,7.868  c0.156,1.227,0.473,4.508,0.592,5.219c0.119,0.713,0.238,1.107,1.107,1.187c0.871,0.08,8.424,0.397,10.318,0.397  c1.9,0,10.518-0.516,10.518-0.516s4.826,0.477,7.752,0.477s5.693-0.239,6.287-0.358c0.592-0.119,0.947-0.08,0.984-1.463  c0.041-1.383,0.438-3.598,0.715-5.931c0.275-2.332,1.186-4.192,1.227-6.009c0.039-1.819-0.08-2.61-0.439-4.429  c-0.352-1.818-0.75-2.817-0.867-3.203c-0.156-0.514-0.354-0.829-1.227-0.829H132.967L132.967,17.163z M132.217,17.163l-1.525-0.15  l0.895,0.584 M169.701,17.636l0.98-0.623l-1.535,0.15 M136.906,29.42c0,0,1.416-3.773,0.137-9.232 M138.396,29.663  c0,0,1.477-4.137,0.197-9.598 M139.857,29.892c0,0,1.521-4.442,0.24-9.901 M141.363,30.013c0,0,1.824-4.502,0.242-10.099   M142.883,30.15c0,0,1.873-4.684,0.291-10.282 M144.434,30.21c-0.205,0.521,1.756-5.153,0.289-10.342 M146.002,30.21  c-0.205,0.521,1.918-4.76,0.289-10.342 M147.553,30.181c-0.205,0.52,1.932-4.702,0.305-10.282 M149.113,30.069  c-0.207,0.52,1.916-4.509,0.289-10.09 M150.709,29.92c-0.205,0.521,1.826-4.418,0.322-9.856 M152.348,29.716  c-0.205,0.519,1.744-4.066,0.242-9.503 M153.965,29.438c-0.207,0.519,1.539-3.545,0.199-9.073 M155.631,29.064  c-0.205,0.52,1.359-2.95,0.166-8.476 M157.322,28.656c0,0,1.059-3.116,0.068-7.845 M158.881,28.656c0,0,1.021-4.23-0.041-8.16   M160.441,28.656c0,0,1.037-4.51-0.096-8.425 M162,28.656c0,0,1.057-4.584-0.141-8.585 M163.555,28.656c0,0,1.08-4.045-0.145-8.646   M165.117,28.656c0,0,1.041-4.063-0.129-8.556"/>
<path fill="#FFFFFF" d="M157.6,22.027c0,0-2.656-0.021-3.863,0.261c-1.205,0.279-1.605,0.601-0.041,0.923  c1.566,0.32,4.08,0.358,4.08,0.358S157.68,22.387,157.6,22.027"/>
<path fill="none" stroke="#000000" stroke-width="0.4" d="M157.6,22.027c0,0-2.656-0.021-3.863,0.261  c-1.205,0.279-1.605,0.601-0.041,0.923c1.566,0.32,4.08,0.358,4.08,0.358S157.68,22.387,157.6,22.027"/>
<path fill="none" stroke="#000000" stroke-width="0.4" stroke-linecap="round" stroke-linejoin="round" stroke-miterlimit="500" d="  M157.6,22.027c0,0-2.656-0.021-3.863,0.261c-1.205,0.279-1.605,0.601-0.041,0.923c1.566,0.32,4.08,0.358,4.08,0.358  S157.68,22.387,157.6,22.027L157.6,22.027z M157.322,28.656c0,0,7.582,0.097,8.223,0.055c0.639-0.038,0.922-0.079,1.045-1.405  c0.119-1.325,0.492-3.86-0.406-6.545c-0.197-0.603-0.438-0.603-0.842-0.681c-0.4-0.081-4.094-0.323-7.951,0.73  c0,0-5.781-0.933-10.883-0.974c-3.578-0.028-9.316,0.281-9.959,0.361s-1.043,0.402-1.166,1.566  c-0.121,1.166-0.393,3.896,0.082,6.265c0.121,0.603,0.121,1.086,0.762,1.286c0.643,0.2,5.424,1.125,11.164,0.884  C153.133,29.958,157.322,28.656,157.322,28.656L157.322,28.656z M133.094,20.494c0.189-0.625,0.482-0.804,1.34-0.911  c0.857-0.108,8.406-0.643,11.832-0.589c3.43,0.053,10.926,1.017,10.926,1.017s3.855-0.803,5.463-0.856  c1.604-0.054,3.801,0.215,4.391,0.32c0.586,0.108,0.855,0.27,1.07,0.857c0.215,0.589,0.641,3.053,0.641,4.285  s-0.588,4.766-0.855,5.515c-0.27,0.75-0.535,1.124-1.283,1.124c-0.75,0-9.641-0.053-9.641-0.053s-4.604,1.444-10.711,1.713  c-6.102,0.269-10.494-0.804-11.189-0.962c-0.695-0.162-1.125-0.162-1.5-1.341c-0.375-1.176-0.963-3.48-1.018-5.032  C132.506,24.027,132.934,21.029,133.094,20.494L133.094,20.494z M157.191,20.011c0,0-0.268-2.087-0.697-2.998 M156.977,31.203  c0,0-1.178,5.836-4.07,9.904 M167.365,35.625c0,0.16-0.129,0.291-0.289,0.291h-6.623c-0.16,0-0.289-0.131-0.289-0.291v-1.403  c0-0.158,0.129-0.288,0.289-0.288h6.623c0.16,0,0.289,0.13,0.289,0.288V35.625L167.365,35.625z"/>
<rect x="118.898" y="31.03" fill="#FFFFFF" width="63.533" height="17.128"/>
<polygon fill="none" stroke="#000000" stroke-width="0.4" stroke-miterlimit="1" points="182.432,48.158 182.432,31.03   118.898,31.03 118.898,48.158 182.432,48.158 "/>
<rect x="123.025" y="40.076" fill="#FFFFFF" width="7.916" height="5.802"/>
<polygon fill="none" stroke="#000000" stroke-width="0.4" stroke-miterlimit="500" points="130.941,45.878 123.025,45.878   123.025,40.076 130.941,40.076 130.941,45.878 "/>
<text transform="matrix(1 0 0 1 122.373 37.8608)" font-family="'Helvetica'" font-size="7.6084">0a</text>
<rect x="138.578" y="39.717" fill="#FFFFFF" width="7.916" height="5.802"/>
<polygon fill="none" stroke="#000000" stroke-width="0.4" stroke-miterlimit="500" points="146.494,45.519 138.578,45.519   138.578,39.717 146.494,39.717 146.494,45.519 "/>
<text transform="matrix(1 0 0 1 138.0684 38.2925)" font-family="'Helvetica'" font-size="7.6084">0b</text>
<rect x="157.297" y="40.148" fill="#FFFFFF" width="7.916" height="5.802"/>
<polygon fill="none" stroke="#000000" stroke-width="0.4" stroke-miterlimit="500" points="165.213,45.95 157.297,45.95   157.297,40.148 165.213,40.148 165.213,45.95 "/>
<text transform="matrix(1 0 0 1 156.8574 38.2925)" font-family="'Helvetica'" font-size="7.6084">0c</text>
<rect x="170.113" y="40.148" fill="#FFFFFF" width="7.916" height="5.802"/>
<polygon fill="none" stroke="#000000" stroke-width="0.4" stroke-miterlimit="500" points="178.029,45.95 170.113,45.95   170.113,40.148 178.029,40.148 178.029,45.95 "/>
<text transform="matrix(1 0 0 1 169.459 38.2925)" font-family="'Helvetica'" font-size="7.6084">0d</text>
<path fill="none" stroke="#000000" stroke-width="0.4" stroke-linecap="round" stroke-miterlimit="500" stroke-dasharray="2,2" d="  M40.5,31v17.281 M152,31v17.281"/>
<polyline fill="none" stroke="#010101" points="13.81,98.302 13.81,161.908 51.857,161.908 "/>
<text transform="matrix(1 0 0 1 149.0234 194.0244)"><tspan x="0" y="0" fill="#010101" font-family="'Helvetica'" font-size="9.0004">Storage</tspan><tspan x="0" y="10.801" fill="#010101" font-family="'Helvetica'" font-size="9.0004">array</tspan></text>
<text transform="matrix(1 0 0 1 15.3574 225.3564)" fill="#010101" font-family="'Helvetica'" font-size="9.0004">Controller 1</text>
<text transform="matrix(1 0 0 1 107.6895 225.3564)" fill="#010101" font-family="'Helvetica'" font-size="9.0004">Controller 2</text>
<rect x="33.841" y="150.006" fill="#D2D3D4" stroke="#010101" stroke-width="0.4" width="9.559" height="64.001"/>
<path fill="#FFFFFF" stroke="#010101" stroke-width="0.5" d="M39.923,161.813c0,3.495-2.889,6.325-6.449,6.325  c-3.563,0-6.447-2.83-6.447-6.325c0-3.489,2.885-6.319,6.447-6.319C37.035,155.493,39.923,158.323,39.923,161.813z"/>
<path fill="#010101" d="M38.468,161.968c0,0.838,0.68,1.518,1.52,1.518s1.52-0.68,1.52-1.518c0-0.839-0.68-1.52-1.52-1.52  S38.468,161.129,38.468,161.968"/>
<path fill="#231F20" d="M23.365,161.968"/>
<line fill="none" x1="41.208" y1="161.771" x2="128.338" y2="161.771"/>
<g>
	<rect x="51.88" y="151.156" fill="#FFFFFF" stroke="#010101" stroke-width="0.5" width="64.629" height="21.108"/>
	<text transform="matrix(1 0 0 1 62.1758 164.6553)" fill="#010101" font-family="'Helvetica'" font-size="9.0004">LUN group</text>
</g>
<path fill="#231F20" d="M23.365,184.925"/>
<text transform="matrix(1 0 0 1 17.6089 112.4805)" fill="#010101" font-family="'Helvetica'" font-size="9.0004">Switch 1</text>
<text transform="matrix(1 0 0 1 119.9756 112.4805)" fill="#010101" font-family="'Helvetica'" font-size="9.0004">Switch 2</text>
<line fill="none" stroke="#010101" stroke-linecap="round" x1="13.601" y1="45.95" x2="13.601" y2="89.989"/>
<g>
	<path fill="#FFFFFF" stroke="#010101" stroke-width="0.4" stroke-linecap="round" stroke-linejoin="round" d="M139.408,92.478   v10.527 M120.127,88.749v10.525l19.281,3.731l30.275-2.792V89.688"/>
	<polygon fill="#FFFFFF" stroke="#010101" stroke-width="0.4" stroke-linecap="round" stroke-linejoin="round" points="   169.684,89.688 139.408,92.478 120.127,88.749 150.404,85.958  "/>
</g>
<g>
	<path fill="#FFFFFF" stroke="#010101" stroke-width="0.4" stroke-linecap="round" stroke-linejoin="round" d="M24.472,92.478   v10.527 M5.191,88.749v10.525l19.281,3.731l30.279-2.792V89.688"/>
	<polygon fill="#FFFFFF" stroke="#010101" stroke-width="0.4" stroke-linecap="round" stroke-linejoin="round" points="   54.751,89.688 24.472,92.478 5.191,88.749 35.47,85.958  "/>
</g>
<text transform="matrix(1 0 0 1 28.0234 164.6904)" fill="#010101" font-family="'Helvetica'" font-size="8.0004">1A</text>
<rect x="126.242" y="150.006" fill="#D2D3D4" stroke="#010101" stroke-width="0.4" width="9.559" height="64.001"/>
<ellipse fill="#FFFFFF" stroke="#010101" stroke-width="0.5" cx="135.759" cy="161.261" rx="6.448" ry="6.322"/>
<text transform="matrix(1 0 0 1 130.6895 163.6904)" fill="#010101" font-family="'Helvetica'" font-size="8.0004">2A</text>
<path fill="#010101" d="M127.301,161.968c0,0.838,0.68,1.518,1.52,1.518c0.838,0,1.518-0.68,1.518-1.518  c0-0.839-0.68-1.52-1.518-1.52C127.98,160.448,127.301,161.129,127.301,161.968"/>
<polyline fill="none" stroke="#010101" points="145.125,88.749 145.125,71.25 49.254,71.25 49.254,46.021 "/>
<polyline fill="none" stroke="#010101" stroke-dasharray="3,3" points="32.833,89.989 32.833,62.5 124.25,62.5 127.301,62.5   127.301,46.021 "/>
<line fill="none" stroke="#010101" stroke-dasharray="3,3" x1="161.255" y1="45.806" x2="161.255" y2="89.218"/>
<text transform="matrix(1 0 0 1 3.3721 55.4595)" font-family="'Helvetica'" font-size="7.6084">z1</text>
<text transform="matrix(1 0 0 1 39.5713 55.4595)" font-family="'Helvetica'" font-size="7.6084">z2</text>
<text transform="matrix(1 0 0 1 129.9238 55.4595)" font-family="'Helvetica'" font-size="7.6084">z3</text>
<text transform="matrix(1 0 0 1 166.123 55.4595)" font-family="'Helvetica'" font-size="7.6084">z4</text>
<text transform="matrix(1 0 0 1 15.3569 134.459)" font-family="'Helvetica'" font-size="7.6084">z1/z3</text>
<text transform="matrix(1 0 0 1 161.2549 135.459)" font-family="'Helvetica'" font-size="7.6084">z2/z4</text>
</svg>