<?xml version="1.0" encoding="UTF-8"?><!-- Generator: Adobe Illustrator 12.0.0, SVG Export Plug-In . SVG Version: 6.00 Build 51448)  --><!DOCTYPE svg PUBLIC "-//W3C//DTD SVG 1.1//EN" "http://www.w3.org/Graphics/SVG/1.1/DTD/svg11.dtd">
<svg xmlns="http://www.w3.org/2000/svg" xmlns:xlink="http://www.w3.org/1999/xlink" version="1.1" id="Layer_1" width="260.51" height="313.5" viewBox="0 0 260.51 313.5" overflow="visible" enable-background="new 0 0 260.51 313.5" xml:space="preserve" preserveAspectRatio="xMidYMid meet" zoomAndPan="magnify" contentScriptType="application/ecmascript" contentStyleType="text/css">
<rect x="156.482" y="223.28" fill="#FFFFFF" width="31.877" height="65.161"/>
<path fill="none" stroke="#000000" stroke-width="0.4" d="M188.359,288.441h-31.877v-65.162h31.877V288.441L188.359,288.441z   M185.986,286.784v-61.545h-27.025l0.066,61.545"/>
<path fill="#FFFFFF" d="M161.006,290.679c0.521,0,0.945-0.442,0.945-0.985s-0.424-0.985-0.945-0.985s-0.945,0.442-0.945,0.985  S160.484,290.679,161.006,290.679"/>
<path fill="none" stroke="#000000" stroke-width="0.4" d="M161.006,290.679c0.521,0,0.945-0.442,0.945-0.985  s-0.424-0.985-0.945-0.985s-0.945,0.442-0.945,0.985S160.484,290.679,161.006,290.679 M160.287,288.562v-0.218 M159.027,288.562  h2.521v-0.218h-2.521V288.562L159.027,288.562z M160.307,289.712v-1.166 M160.076,289.712h0.455v-1.166h-0.455V289.712  L160.076,289.712z"/>
<path fill="#FFFFFF" d="M185.338,302.679c0.521,0,0.943-0.442,0.943-0.985s-0.422-0.985-0.943-0.985s-0.945,0.442-0.945,0.985  S184.816,302.679,185.338,302.679"/>
<path fill="none" stroke="#000000" stroke-width="0.4" d="M185.338,290.679c0.521,0,0.943-0.442,0.943-0.985  s-0.422-0.985-0.943-0.985s-0.945,0.442-0.945,0.985S184.816,290.679,185.338,290.679 M184.617,288.562v-0.218 M183.359,288.562  h2.521v-0.218h-2.521V288.562L183.359,288.562z M184.637,289.712v-1.166 M184.408,289.712h0.455v-1.166h-0.455V289.712  L184.408,289.712z M156.469,286.617h31.785 M183.018,264.985h-1.5v-9.381h1.5V264.985L183.018,264.985z M158.867,227.153h26.996   M158.867,234.968h26.996"/>
<polyline fill="none" stroke="#000000" stroke-width="2" stroke-linecap="round" stroke-dasharray="5 4" points="221.633,99.534   221.633,264.867 186.299,264.867 "/>
<polyline fill="none" stroke="#000000" stroke-width="2" stroke-linecap="round" stroke-dasharray="5 4" points="90.965,265.366   35.965,265.366 35.965,100.2 "/>
<polyline fill="none" stroke="#FFFFFF" stroke-width="3" points="59.819,45.548 59.819,161.172 82.3,161.172 "/>
<rect x="156.482" y="136.613" fill="#FFFFFF" width="31.877" height="65.161"/>
<path fill="none" stroke="#000000" stroke-width="0.4" d="M188.359,201.774h-31.877v-65.162h31.877V201.774L188.359,201.774z   M185.986,200.117v-61.545h-27.025l0.066,61.545"/>
<path fill="#FFFFFF" d="M161.006,204.012c0.521,0,0.945-0.442,0.945-0.985s-0.424-0.986-0.945-0.986s-0.945,0.443-0.945,0.986  S160.484,204.012,161.006,204.012"/>
<path fill="none" stroke="#000000" stroke-width="0.4" d="M161.006,204.012c0.521,0,0.945-0.442,0.945-0.985  s-0.424-0.986-0.945-0.986s-0.945,0.443-0.945,0.986S160.484,204.012,161.006,204.012 M160.287,201.895v-0.218 M159.027,201.895  h2.521v-0.218h-2.521V201.895L159.027,201.895z M160.307,203.045v-1.166 M160.076,203.045h0.455v-1.166h-0.455V203.045  L160.076,203.045z"/>
<path fill="#FFFFFF" d="M185.338,204.012c0.521,0,0.943-0.442,0.943-0.985s-0.422-0.986-0.943-0.986s-0.945,0.443-0.945,0.986  S184.816,204.012,185.338,204.012"/>
<path fill="none" stroke="#000000" stroke-width="0.4" d="M185.338,204.012c0.521,0,0.943-0.442,0.943-0.985  s-0.422-0.986-0.943-0.986s-0.945,0.443-0.945,0.986S184.816,204.012,185.338,204.012 M184.617,201.895v-0.218 M183.359,201.895  h2.521v-0.218h-2.521V201.895L183.359,201.895z M184.637,203.045v-1.166 M184.408,203.045h0.455v-1.166h-0.455V203.045  L184.408,203.045z M156.469,199.95h31.785 M183.018,178.318h-1.5v-9.381h1.5V178.318L183.018,178.318z M158.867,140.486h26.996   M158.867,148.3h26.996"/>
<line x1="101.886" y1="27.688" x2="178.221" y2="27.688"/>
<line fill="none" stroke="#000000" stroke-width="2" x1="101.886" y1="27.688" x2="178.221" y2="27.688"/>
<line x1="101.886" y1="19.688" x2="178.221" y2="19.688"/>
<line fill="none" stroke="#000000" stroke-width="2" x1="101.886" y1="19.688" x2="178.221" y2="19.688"/>
<text transform="matrix(1 0 0 1 227.002 166.1982)" font-family="'Helvetica-Bold'" font-size="9.0004">Storage</text>
<text transform="matrix(1 0 0 1 227.002 177)" font-family="'Helvetica-Bold'" font-size="9.0004">array 1</text>
<text transform="matrix(1 0 0 1 227.002 254.1982)" font-family="'Helvetica-Bold'" font-size="9.0004">Storage</text>
<text transform="matrix(1 0 0 1 227.002 265)" font-family="'Helvetica-Bold'" font-size="9.0004">array 2</text>
<rect x="89.931" y="142.848" fill="#D2D3D4" width="9.559" height="67.076"/>
<polygon fill="none" stroke="#000000" stroke-width="0.4" points="99.49,210.424 89.932,210.424 89.932,142.848 99.49,142.848   99.49,210.424 "/>
<rect x="169.367" y="142.848" fill="#D2D3D4" width="9.561" height="66.576"/>
<polygon fill="none" stroke="#000000" stroke-width="0.4" points="178.928,209.424 169.367,209.424 169.367,142.848   178.928,142.848 178.928,209.424 "/>
<text transform="matrix(1 0 0 1 79.25 7.7314)" font-family="'Helvetica'" font-size="9.0004">vs1</text>
<polyline fill="#FFFFFF" points="102.791,16.039 96.095,11.386 72.33,11.386 65.215,16.016 "/>
<polyline fill="none" stroke="#000000" stroke-width="0.4" points="102.791,16.039 96.095,11.386 72.33,11.386 65.215,16.016 "/>
<polyline fill="none" stroke="#000000" stroke-width="0.4" stroke-linejoin="round" points="102.791,16.039 96.095,11.386   72.33,11.386 65.215,16.016 "/>
<rect x="63.754" y="15.359" fill="#FFFFFF" width="39.992" height="24.081"/>
<polygon fill="none" stroke="#000000" stroke-width="0.4" points="63.754,39.44 103.745,39.44 103.745,15.359 63.754,15.359   63.754,39.44 "/>
<polygon fill="none" stroke="#000000" stroke-width="0.4" stroke-linecap="round" stroke-linejoin="round" stroke-miterlimit="500" points="  103.744,39.44 63.753,39.44 63.753,15.359 103.744,15.359 103.744,39.44 "/>
<path fill="#FFFFFF" d="M66.03,15.51c-1.266,0-1.304,0.197-1.582,1.225c-0.276,1.029-1.187,4.863-1.187,6.365  c0,1.504,1.266,6.643,1.425,7.868c0.157,1.227,0.474,4.508,0.594,5.219c0.118,0.713,0.237,1.107,1.106,1.187  c0.87,0.08,8.423,0.397,10.319,0.397c1.899,0,10.517-0.516,10.517-0.516s4.826,0.477,7.751,0.477c2.927,0,5.693-0.239,6.288-0.358  c0.592-0.119,0.947-0.08,0.986-1.463c0.04-1.383,0.436-3.598,0.713-5.931c0.276-2.332,1.186-4.192,1.226-6.009  c0.039-1.819-0.079-2.61-0.437-4.429c-0.354-1.818-0.75-2.817-0.869-3.203c-0.156-0.514-0.354-0.829-1.225-0.829H66.03"/>
<path fill="none" stroke="#000000" stroke-width="0.4" d="M66.03,15.51c-1.266,0-1.304,0.197-1.582,1.225  c-0.276,1.029-1.187,4.863-1.187,6.365c0,1.504,1.266,6.643,1.425,7.868c0.157,1.227,0.474,4.508,0.594,5.219  c0.118,0.713,0.237,1.107,1.106,1.187c0.87,0.08,8.423,0.397,10.319,0.397c1.899,0,10.517-0.516,10.517-0.516  s4.826,0.477,7.751,0.477c2.927,0,5.693-0.239,6.288-0.358c0.592-0.119,0.947-0.08,0.986-1.463c0.04-1.383,0.436-3.598,0.713-5.931  c0.276-2.332,1.186-4.192,1.226-6.009c0.039-1.819-0.079-2.61-0.437-4.429c-0.354-1.818-0.75-2.817-0.869-3.203  c-0.156-0.514-0.354-0.829-1.225-0.829H66.03"/>
<path fill="none" stroke="#000000" stroke-width="0.4" stroke-linecap="round" stroke-linejoin="round" stroke-miterlimit="500" d="  M66.03,15.51c-1.266,0-1.304,0.197-1.582,1.225c-0.276,1.029-1.187,4.863-1.187,6.365c0,1.504,1.266,6.643,1.425,7.868  c0.157,1.227,0.474,4.508,0.594,5.219c0.118,0.713,0.237,1.107,1.106,1.187c0.87,0.08,8.423,0.397,10.319,0.397  c1.899,0,10.517-0.516,10.517-0.516s4.826,0.477,7.751,0.477c2.927,0,5.693-0.239,6.288-0.358c0.592-0.119,0.947-0.08,0.986-1.463  c0.04-1.383,0.436-3.598,0.713-5.931c0.276-2.332,1.186-4.192,1.226-6.009c0.039-1.819-0.079-2.61-0.437-4.429  c-0.354-1.818-0.75-2.817-0.869-3.203c-0.156-0.514-0.354-0.829-1.225-0.829H66.03L66.03,15.51z M65.28,15.51l-1.526-0.15  l0.893,0.584 M102.762,15.982l0.982-0.623l-1.536,0.15 M69.967,27.767c0,0,1.416-3.773,0.138-9.232 M71.459,28.01  c0,0,1.476-4.137,0.197-9.598 M72.919,28.238c0,0,1.521-4.442,0.242-9.901 M74.424,28.359c0,0,1.826-4.502,0.244-10.099   M75.946,28.497c0,0,1.872-4.684,0.289-10.282 M77.497,28.557c-0.206,0.521,1.755-5.153,0.288-10.342 M79.063,28.557  c-0.204,0.521,1.918-4.76,0.29-10.342 M80.615,28.527c-0.205,0.52,1.931-4.702,0.305-10.282 M82.174,28.416  c-0.206,0.52,1.917-4.509,0.29-10.09 M83.771,28.267c-0.206,0.521,1.825-4.418,0.321-9.856 M85.411,28.063  c-0.205,0.519,1.743-4.066,0.241-9.503 M87.026,27.785c-0.206,0.519,1.539-3.545,0.199-9.073 M88.694,27.411  c-0.205,0.52,1.357-2.95,0.164-8.476 M90.384,27.002c0,0,1.059-3.116,0.07-7.845 M91.944,27.002c0,0,1.02-4.23-0.042-8.16   M93.503,27.002c0,0,1.039-4.51-0.094-8.425 M95.062,27.002c0,0,1.057-4.584-0.141-8.585 M96.618,27.002  c0,0,1.079-4.045-0.147-8.646 M98.179,27.002c0,0,1.041-4.063-0.129-8.556"/>
<path fill="#FFFFFF" d="M90.663,20.374c0,0-2.658-0.021-3.865,0.261c-1.205,0.279-1.605,0.601-0.041,0.923  c1.568,0.32,4.081,0.358,4.081,0.358S90.742,20.733,90.663,20.374"/>
<path fill="none" stroke="#000000" stroke-width="0.4" d="M90.663,20.374c0,0-2.658-0.021-3.865,0.261  c-1.205,0.279-1.605,0.601-0.041,0.923c1.568,0.32,4.081,0.358,4.081,0.358S90.742,20.733,90.663,20.374"/>
<path fill="none" stroke="#000000" stroke-width="0.4" stroke-linecap="round" stroke-linejoin="round" stroke-miterlimit="500" d="  M90.663,20.374c0,0-2.658-0.021-3.865,0.261c-1.205,0.279-1.605,0.601-0.041,0.923c1.568,0.32,4.081,0.358,4.081,0.358  S90.742,20.733,90.663,20.374L90.663,20.374z M90.384,27.002c0,0,7.581,0.097,8.223,0.055c0.64-0.038,0.922-0.079,1.044-1.405  c0.12-1.325,0.493-3.86-0.404-6.545c-0.199-0.603-0.44-0.603-0.843-0.681c-0.401-0.081-4.094-0.323-7.95,0.73  c0,0-5.783-0.933-10.884-0.974c-3.577-0.028-9.316,0.281-9.96,0.361c-0.642,0.08-1.043,0.402-1.165,1.566  c-0.12,1.166-0.393,3.896,0.082,6.265c0.12,0.603,0.12,1.086,0.763,1.286c0.641,0.2,5.422,1.125,11.164,0.884  C86.196,28.305,90.384,27.002,90.384,27.002L90.384,27.002z M66.156,18.841c0.188-0.625,0.482-0.804,1.34-0.911  c0.856-0.108,8.406-0.643,11.833-0.589c3.427,0.053,10.924,1.017,10.924,1.017s3.855-0.803,5.462-0.856  c1.605-0.054,3.801,0.215,4.391,0.32c0.588,0.108,0.855,0.27,1.07,0.857c0.216,0.589,0.643,3.053,0.643,4.285  s-0.589,4.766-0.858,5.515c-0.267,0.75-0.534,1.124-1.283,1.124c-0.75,0-9.639-0.053-9.639-0.053s-4.605,1.444-10.71,1.713  c-6.103,0.269-10.495-0.804-11.192-0.962c-0.695-0.162-1.125-0.162-1.499-1.341c-0.375-1.176-0.963-3.48-1.017-5.032  C65.567,22.374,65.996,19.375,66.156,18.841L66.156,18.841z M90.253,18.357c0,0-0.268-2.087-0.697-2.998 M90.039,29.549  c0,0-1.178,5.836-4.071,9.904 M100.427,33.972c0,0.16-0.129,0.291-0.289,0.291h-6.624c-0.16,0-0.289-0.131-0.289-0.291v-1.403  c0-0.158,0.129-0.288,0.289-0.288h6.624c0.16,0,0.289,0.13,0.289,0.288V33.972L100.427,33.972z"/>
<text transform="matrix(1 0 0 1 187.9258 7.7314)" font-family="'Helvetica'" font-size="9.0004">vs</text>
<text transform="matrix(1 0 0 1 195.9551 7.7314)" font-family="'Helvetica'" font-size="9.0004">2</text>
<rect x="51.96" y="29.376" fill="#FFFFFF" width="63.535" height="17.128"/>
<polygon fill="none" stroke="#000000" stroke-width="0.4" stroke-miterlimit="500" points="115.495,46.504 115.495,29.376   51.961,29.376 51.961,46.504 115.495,46.504 "/>
<rect x="56.087" y="38.565" fill="#FFFFFF" width="7.916" height="5.802"/>
<polygon fill="none" stroke="#000000" stroke-width="0.4" stroke-miterlimit="500" points="64.003,44.368 56.087,44.368   56.087,38.566 64.003,38.566 64.003,44.368 "/>
<text transform="matrix(1 0 0 1 55.4346 36.6392)" font-family="'Helvetica'" font-size="7.6084">0a</text>
<rect x="72.142" y="38.565" fill="#FFFFFF" width="7.916" height="5.802"/>
<polygon fill="none" stroke="#000000" stroke-width="0.4" stroke-miterlimit="500" points="80.058,44.368 72.142,44.368   72.142,38.566 80.058,38.566 80.058,44.368 "/>
<text transform="matrix(1 0 0 1 71.1318 36.6392)" font-family="'Helvetica'" font-size="7.6084">0b</text>
<rect x="90.359" y="38.351" fill="#FFFFFF" width="7.916" height="5.802"/>
<polygon fill="none" stroke="#000000" stroke-width="0.4" stroke-miterlimit="500" points="98.275,44.152 90.359,44.152   90.359,38.351 98.275,38.351 98.275,44.152 "/>
<text transform="matrix(1 0 0 1 89.9209 36.6392)" font-family="'Helvetica'" font-size="7.6084">0c</text>
<rect x="103.174" y="38.351" fill="#FFFFFF" width="7.916" height="5.802"/>
<polygon fill="none" stroke="#000000" stroke-width="0.4" stroke-miterlimit="500" points="111.09,44.152 103.174,44.152   103.174,38.351 111.09,38.351 111.09,44.152 "/>
<text transform="matrix(1 0 0 1 102.5215 36.6392)" font-family="'Helvetica'" font-size="7.6084">0d</text>
<polyline fill="#FFFFFF" points="214.791,16.039 208.096,11.386 184.33,11.386 177.215,16.016 "/>
<polyline fill="none" stroke="#000000" stroke-width="0.4" points="214.791,16.039 208.096,11.386 184.33,11.386 177.215,16.016 "/>
<polyline fill="none" stroke="#000000" stroke-width="0.4" stroke-linejoin="round" points="214.791,16.039 208.096,11.386   184.33,11.386 177.215,16.016 "/>
<rect x="175.754" y="15.359" fill="#FFFFFF" width="39.99" height="24.081"/>
<polygon fill="none" stroke="#000000" stroke-width="0.4" points="175.754,39.44 215.744,39.44 215.744,15.359 175.754,15.359   175.754,39.44 "/>
<polygon fill="none" stroke="#000000" stroke-width="0.4" stroke-linecap="round" stroke-linejoin="round" stroke-miterlimit="500" points="  215.744,39.44 175.754,39.44 175.754,15.359 215.744,15.359 215.744,39.44 "/>
<path fill="#FFFFFF" d="M178.029,15.51c-1.264,0-1.303,0.197-1.582,1.225c-0.275,1.029-1.186,4.863-1.186,6.365  c0,1.504,1.266,6.643,1.426,7.868c0.156,1.227,0.473,4.508,0.592,5.219c0.119,0.713,0.238,1.107,1.107,1.187  c0.871,0.08,8.424,0.397,10.318,0.397c1.9,0,10.518-0.516,10.518-0.516s4.826,0.477,7.752,0.477s5.693-0.239,6.287-0.358  c0.592-0.119,0.947-0.08,0.984-1.463c0.041-1.383,0.438-3.598,0.715-5.931c0.275-2.332,1.186-4.192,1.227-6.009  c0.039-1.819-0.08-2.61-0.439-4.429c-0.352-1.818-0.75-2.817-0.867-3.203c-0.156-0.514-0.354-0.829-1.227-0.829H178.029"/>
<path fill="none" stroke="#000000" stroke-width="0.4" d="M178.029,15.51c-1.264,0-1.303,0.197-1.582,1.225  c-0.275,1.029-1.186,4.863-1.186,6.365c0,1.504,1.266,6.643,1.426,7.868c0.156,1.227,0.473,4.508,0.592,5.219  c0.119,0.713,0.238,1.107,1.107,1.187c0.871,0.08,8.424,0.397,10.318,0.397c1.9,0,10.518-0.516,10.518-0.516  s4.826,0.477,7.752,0.477s5.693-0.239,6.287-0.358c0.592-0.119,0.947-0.08,0.984-1.463c0.041-1.383,0.438-3.598,0.715-5.931  c0.275-2.332,1.186-4.192,1.227-6.009c0.039-1.819-0.08-2.61-0.439-4.429c-0.352-1.818-0.75-2.817-0.867-3.203  c-0.156-0.514-0.354-0.829-1.227-0.829H178.029"/>
<path fill="none" stroke="#000000" stroke-width="0.4" stroke-linecap="round" stroke-linejoin="round" stroke-miterlimit="500" d="  M178.029,15.51c-1.264,0-1.303,0.197-1.582,1.225c-0.275,1.029-1.186,4.863-1.186,6.365c0,1.504,1.266,6.643,1.426,7.868  c0.156,1.227,0.473,4.508,0.592,5.219c0.119,0.713,0.238,1.107,1.107,1.187c0.871,0.08,8.424,0.397,10.318,0.397  c1.9,0,10.518-0.516,10.518-0.516s4.826,0.477,7.752,0.477s5.693-0.239,6.287-0.358c0.592-0.119,0.947-0.08,0.984-1.463  c0.041-1.383,0.438-3.598,0.715-5.931c0.275-2.332,1.186-4.192,1.227-6.009c0.039-1.819-0.08-2.61-0.439-4.429  c-0.352-1.818-0.75-2.817-0.867-3.203c-0.156-0.514-0.354-0.829-1.227-0.829H178.029L178.029,15.51z M177.279,15.51l-1.525-0.15  l0.895,0.584 M214.764,15.982l0.98-0.623l-1.535,0.15 M181.969,27.767c0,0,1.416-3.773,0.137-9.232 M183.459,28.01  c0,0,1.477-4.137,0.197-9.598 M184.92,28.238c0,0,1.521-4.442,0.24-9.901 M186.426,28.359c0,0,1.824-4.502,0.242-10.099   M187.945,28.497c0,0,1.873-4.684,0.291-10.282 M189.496,28.557c-0.205,0.521,1.756-5.153,0.289-10.342 M191.064,28.557  c-0.205,0.521,1.918-4.76,0.289-10.342 M192.615,28.527c-0.205,0.52,1.932-4.702,0.305-10.282 M194.176,28.416  c-0.207,0.52,1.916-4.509,0.289-10.09 M195.771,28.267c-0.205,0.521,1.826-4.418,0.322-9.856 M197.41,28.063  c-0.205,0.519,1.744-4.066,0.242-9.503 M199.027,27.785c-0.207,0.519,1.539-3.545,0.199-9.073 M200.693,27.411  c-0.205,0.52,1.359-2.95,0.166-8.476 M202.385,27.002c0,0,1.059-3.116,0.068-7.845 M203.943,27.002c0,0,1.021-4.23-0.041-8.16   M205.504,27.002c0,0,1.037-4.51-0.096-8.425 M207.063,27.002c0,0,1.057-4.584-0.141-8.585 M208.617,27.002  c0,0,1.08-4.045-0.145-8.646 M210.18,27.002c0,0,1.041-4.063-0.129-8.556"/>
<path fill="#FFFFFF" d="M202.662,20.374c0,0-2.656-0.021-3.863,0.261c-1.205,0.279-1.605,0.601-0.041,0.923  c1.566,0.32,4.08,0.358,4.08,0.358S202.742,20.733,202.662,20.374"/>
<path fill="none" stroke="#000000" stroke-width="0.4" d="M202.662,20.374c0,0-2.656-0.021-3.863,0.261  c-1.205,0.279-1.605,0.601-0.041,0.923c1.566,0.32,4.08,0.358,4.08,0.358S202.742,20.733,202.662,20.374"/>
<path fill="none" stroke="#000000" stroke-width="0.4" stroke-linecap="round" stroke-linejoin="round" stroke-miterlimit="500" d="  M202.662,20.374c0,0-2.656-0.021-3.863,0.261c-1.205,0.279-1.605,0.601-0.041,0.923c1.566,0.32,4.08,0.358,4.08,0.358  S202.742,20.733,202.662,20.374L202.662,20.374z M202.385,27.002c0,0,7.582,0.097,8.223,0.055c0.639-0.038,0.922-0.079,1.045-1.405  c0.119-1.325,0.492-3.86-0.406-6.545c-0.197-0.603-0.438-0.603-0.842-0.681c-0.4-0.081-4.094-0.323-7.951,0.73  c0,0-5.781-0.933-10.883-0.974c-3.578-0.028-9.316,0.281-9.959,0.361s-1.043,0.402-1.166,1.566  c-0.121,1.166-0.393,3.896,0.082,6.265c0.121,0.603,0.121,1.086,0.762,1.286c0.643,0.2,5.424,1.125,11.164,0.884  C198.195,28.305,202.385,27.002,202.385,27.002L202.385,27.002z M178.156,18.841c0.189-0.625,0.482-0.804,1.34-0.911  c0.857-0.108,8.406-0.643,11.832-0.589c3.43,0.053,10.926,1.017,10.926,1.017s3.855-0.803,5.463-0.856  c1.604-0.054,3.801,0.215,4.391,0.32c0.586,0.108,0.855,0.27,1.07,0.857c0.215,0.589,0.641,3.053,0.641,4.285  s-0.588,4.766-0.855,5.515c-0.27,0.75-0.535,1.124-1.283,1.124c-0.75,0-9.641-0.053-9.641-0.053s-4.604,1.444-10.711,1.713  c-6.102,0.269-10.494-0.804-11.189-0.962c-0.695-0.162-1.125-0.162-1.5-1.341c-0.375-1.176-0.963-3.48-1.018-5.032  C177.568,22.374,177.996,19.375,178.156,18.841L178.156,18.841z M202.254,18.357c0,0-0.268-2.087-0.697-2.998 M202.039,29.549  c0,0-1.178,5.836-4.07,9.904 M212.428,33.972c0,0.16-0.129,0.291-0.289,0.291h-6.623c-0.16,0-0.289-0.131-0.289-0.291v-1.403  c0-0.158,0.129-0.288,0.289-0.288h6.623c0.16,0,0.289,0.13,0.289,0.288V33.972L212.428,33.972z"/>
<rect x="163.961" y="29.376" fill="#FFFFFF" width="63.533" height="17.128"/>
<polygon fill="none" stroke="#000000" stroke-width="0.4" stroke-miterlimit="1" points="227.494,46.504 227.494,29.376   163.961,29.376 163.961,46.504 227.494,46.504 "/>
<rect x="168.088" y="38.422" fill="#FFFFFF" width="7.916" height="5.802"/>
<polygon fill="none" stroke="#000000" stroke-width="0.4" stroke-miterlimit="500" points="176.004,44.225 168.088,44.225   168.088,38.422 176.004,38.422 176.004,44.225 "/>
<text transform="matrix(1 0 0 1 167.4355 36.2075)" font-family="'Helvetica'" font-size="7.6084">0a</text>
<rect x="183.641" y="38.063" fill="#FFFFFF" width="7.916" height="5.802"/>
<polygon fill="none" stroke="#000000" stroke-width="0.4" stroke-miterlimit="500" points="191.557,43.866 183.641,43.866   183.641,38.063 191.557,38.063 191.557,43.866 "/>
<text transform="matrix(1 0 0 1 183.1309 36.6392)" font-family="'Helvetica'" font-size="7.6084">0b</text>
<rect x="202.359" y="38.495" fill="#FFFFFF" width="7.916" height="5.802"/>
<polygon fill="none" stroke="#000000" stroke-width="0.4" stroke-miterlimit="500" points="210.275,44.296 202.359,44.296   202.359,38.495 210.275,38.495 210.275,44.296 "/>
<text transform="matrix(1 0 0 1 201.9199 36.6392)" font-family="'Helvetica'" font-size="7.6084">0c</text>
<rect x="215.176" y="38.495" fill="#FFFFFF" width="7.916" height="5.802"/>
<polygon fill="none" stroke="#000000" stroke-width="0.4" stroke-miterlimit="500" points="223.092,44.296 215.176,44.296   215.176,38.495 223.092,38.495 223.092,44.296 "/>
<text transform="matrix(1 0 0 1 214.5215 36.6392)" font-family="'Helvetica'" font-size="7.6084">0d</text>
<polyline fill="none" stroke="#000000" stroke-linecap="round" points="94.269,44.035 94.269,60.087 193.959,60.087   193.959,161.354 159.09,161.354 "/>
<line fill="none" stroke="#FFFFFF" stroke-width="3" x1="206.227" y1="46.079" x2="206.227" y2="94.638"/>
<path fill="#FFFFFF" d="M96.013,161.075c0,3.494-2.887,6.325-6.449,6.325s-6.447-2.831-6.447-6.325c0-3.489,2.885-6.319,6.447-6.319  S96.013,157.586,96.013,161.075"/>
<path fill="none" stroke="#000000" stroke-width="0.5" d="M96.013,161.075c0,3.494-2.887,6.325-6.449,6.325  s-6.447-2.831-6.447-6.325c0-3.489,2.885-6.319,6.447-6.319S96.013,157.586,96.013,161.075L96.013,161.075z"/>
<text transform="matrix(1 0 0 1 84.5527 163.3926)" font-family="'Helvetica-Bold'" font-size="7.2003">1A</text>
<path d="M94.559,161.23c0,0.838,0.68,1.517,1.519,1.517c0.84,0,1.519-0.679,1.519-1.517s-0.679-1.52-1.519-1.52  C95.239,159.711,94.559,160.393,94.559,161.23"/>
<line fill="none" stroke="#000000" x1="96.465" y1="161.107" x2="105.465" y2="161.107"/>
<line fill="none" stroke="#000000" x1="160.799" y1="178.107" x2="171.465" y2="178.107"/>
<polyline fill="none" stroke="#000000" stroke-width="2" stroke-linecap="round" stroke-dasharray="5 4" points="185.799,178.141   206.35,178.141 206.35,45.354 "/>
<text transform="matrix(1 0 0 1 0 109.6553)" font-family="'Helvetica'" font-size="9.0004">Switch 1</text>
<text transform="matrix(1 0 0 1 224.4805 109.6553)" font-family="'Helvetica'" font-size="9.0004">Switch </text>
<text transform="matrix(1 0 0 1 252.4883 109.6553)" font-family="'Helvetica'" font-size="9.0004">2</text>
<text transform="matrix(1 0 0 1 10 83.3213)" font-family="'Helvetica'" font-size="9.0004">Fabric 1</text>
<text transform="matrix(1 0 0 1 212.9824 83.3213)" font-family="'Helvetica'" font-size="9.0004">Fabric </text>
<text transform="matrix(1 0 0 1 240.4883 83.3213)" font-family="'Helvetica'" font-size="9.0004">2</text>
<path fill="none" stroke="#000000" stroke-width="0.4" stroke-linecap="round" stroke-miterlimit="500" stroke-dasharray="2 2" d="  M85.562,29.347v17.281 M197.063,29.347v17.281"/>
<path fill="#FFFFFF" d="M178.023,88.012v10.525l19.279,3.732l30.279-2.792V88.951 M197.303,91.741v10.528"/>
<path fill="none" stroke="#000000" stroke-width="0.4" stroke-linecap="round" stroke-linejoin="round" d="M178.023,88.012v10.525  l19.279,3.732l30.279-2.792V88.951 M197.303,91.741v10.528"/>
<polygon fill="#FFFFFF" points="227.582,88.951 197.303,91.741 178.023,88.012 208.301,85.221 "/>
<polygon fill="none" stroke="#000000" stroke-width="0.4" stroke-linecap="round" stroke-linejoin="round" points="227.582,88.951   197.303,91.741 178.023,88.012 208.301,85.221 227.582,88.951 "/>
<polyline fill="none" stroke="#000000" points="59.388,45.094 59.388,248.145 82.667,248.145 "/>
<polyline fill="none" stroke="#FFFFFF" stroke-width="4" stroke-linecap="round" points="172.336,47.075 172.336,70.354   50.892,70.357 50.892,95.368 50.132,95.368 50.84,179.083 83.345,179.083 "/>
<polyline fill="none" stroke="#000000" stroke-width="2" stroke-linecap="round" stroke-dasharray="5 4" points="172.336,45.421   172.336,70.286 51.047,70.283 51.047,91.034 50.954,97.701 50.954,178.363 82.667,178.363 "/>
<path fill="#FFFFFF" d="M96.013,178.408c0,3.494-2.887,6.325-6.449,6.325s-6.447-2.831-6.447-6.325c0-3.489,2.885-6.319,6.447-6.319  S96.013,174.919,96.013,178.408"/>
<path fill="none" stroke="#000000" stroke-width="0.5" d="M96.013,178.408c0,3.494-2.887,6.325-6.449,6.325  s-6.447-2.831-6.447-6.325c0-3.489,2.885-6.319,6.447-6.319S96.013,174.919,96.013,178.408L96.013,178.408z"/>
<text transform="matrix(1 0 0 1 84.5527 180.7256)" font-family="'Helvetica-Bold'" font-size="7.2003">1B</text>
<path fill="#FFFFFF" d="M31.688,88.012v10.525l19.28,3.732l30.28-2.792V88.951 M50.968,91.741v10.528"/>
<path fill="none" stroke="#000000" stroke-width="0.4" stroke-linecap="round" stroke-linejoin="round" d="M31.688,88.012v10.525  l19.28,3.732l30.28-2.792V88.951 M50.968,91.741v10.528"/>
<polygon fill="#FFFFFF" points="81.248,88.951 50.968,91.741 31.688,88.012 61.966,85.221 "/>
<polygon fill="none" stroke="#000000" stroke-width="0.4" stroke-linecap="round" stroke-linejoin="round" points="81.248,88.951   50.968,91.741 31.688,88.012 61.966,85.221 81.248,88.951 "/>
<path fill="#FFFFFF" d="M185.334,160.523c0,3.494-2.887,6.322-6.449,6.322c-3.561,0-6.447-2.828-6.447-6.322  c0-3.491,2.887-6.321,6.447-6.321C182.447,154.202,185.334,157.032,185.334,160.523"/>
<path fill="none" stroke="#000000" stroke-width="0.5" d="M185.334,160.523c0,3.494-2.887,6.322-6.449,6.322  c-3.561,0-6.447-2.828-6.447-6.322c0-3.491,2.887-6.321,6.447-6.321C182.447,154.202,185.334,157.032,185.334,160.523  L185.334,160.523z"/>
<text transform="matrix(1 0 0 1 174.8789 162.8389)" font-family="'Helvetica-Bold'" font-size="7.2003">2A</text>
<path d="M170.428,161.23c0,0.838,0.68,1.517,1.52,1.517c0.838,0,1.518-0.679,1.518-1.517s-0.68-1.52-1.518-1.52  C171.107,159.711,170.428,160.393,170.428,161.23"/>
<path fill="#FFFFFF" d="M185.334,177.856c0,3.494-2.887,6.322-6.449,6.322c-3.561,0-6.447-2.828-6.447-6.322  c0-3.491,2.887-6.321,6.447-6.321C182.447,171.535,185.334,174.365,185.334,177.856"/>
<path fill="none" stroke="#000000" stroke-width="0.5" d="M185.334,177.856c0,3.494-2.887,6.322-6.449,6.322  c-3.561,0-6.447-2.828-6.447-6.322c0-3.491,2.887-6.321,6.447-6.321C182.447,171.535,185.334,174.365,185.334,177.856  L185.334,177.856z"/>
<text transform="matrix(1 0 0 1 174.8789 180.1719)" font-family="'Helvetica-Bold'" font-size="7.2003">2B</text>
<path d="M170.428,178.204c0,0.839,0.68,1.519,1.52,1.519c0.838,0,1.518-0.68,1.518-1.519c0-0.838-0.68-1.519-1.518-1.519  C171.107,176.686,170.428,177.366,170.428,178.204"/>
<rect x="105.269" y="157.327" fill="#FFFFFF" width="55.331" height="23.938"/>
<polygon fill="none" stroke="#000000" stroke-width="0.5" points="160.6,181.265 105.269,181.265 105.269,157.327 160.6,157.327   160.6,181.265 "/>
<text transform="matrix(1 0 0 1 110.9258 172.5391)" font-family="'Helvetica'" font-size="9.0004">LUN group </text>
<text transform="matrix(1 0 0 1 209.2207 154.3213)" font-family="'Helvetica'" font-size="9.0004">z7</text>
<text transform="matrix(1 0 0 1 226.2207 144.3213)" font-family="'Helvetica'" font-size="9.0004">z8</text>
<text transform="matrix(1 0 0 1 48.8877 214.9873)" font-family="'Helvetica'" font-size="9.0004">z2</text>
<text transform="matrix(1 0 0 1 203.8867 214.9873)" font-family="'Helvetica'" font-size="9.0004">z6</text>
<text transform="matrix(1 0 0 1 38.502 154.3213)" font-family="'Helvetica'" font-size="9.0004">z3</text>
<text transform="matrix(1 0 0 1 23.502 144.3213)" font-family="'Helvetica'" font-size="9.0004">z4</text>
<text transform="matrix(1 0 0 1 181.4219 126.0293)" font-family="'Helvetica'" font-size="9.0004">z5</text>
<text transform="matrix(1 0 0 1 71.189 126.0293)" font-family="'Helvetica'" font-size="9.0004">z1</text>
<polyline fill="none" stroke="#000000" stroke-linecap="round" points="200.959,102.353 200.959,248.033 161.133,248.033 "/>
<path d="M94.559,178.564c0,0.838,0.68,1.517,1.519,1.517c0.84,0,1.519-0.679,1.519-1.517s-0.679-1.52-1.519-1.52  C95.239,177.045,94.559,177.727,94.559,178.564"/>
<rect x="89.931" y="229.516" fill="#D2D3D4" width="9.559" height="67.408"/>
<polygon fill="none" stroke="#000000" stroke-width="0.4" points="99.49,296.924 89.932,296.924 89.932,229.516 99.49,229.516   99.49,296.924 "/>
<rect x="169.367" y="229.516" fill="#D2D3D4" width="9.561" height="67.408"/>
<polygon fill="none" stroke="#000000" stroke-width="0.4" points="178.928,296.924 169.367,296.924 169.367,229.516   178.928,229.516 178.928,296.924 "/>
<path fill="#FFFFFF" d="M96.013,247.742c0,3.494-2.887,6.325-6.449,6.325s-6.447-2.831-6.447-6.325c0-3.489,2.885-6.319,6.447-6.319  S96.013,244.253,96.013,247.742"/>
<path fill="none" stroke="#000000" stroke-width="0.5" d="M96.013,247.742c0,3.494-2.887,6.325-6.449,6.325  s-6.447-2.831-6.447-6.325c0-3.489,2.885-6.319,6.447-6.319S96.013,244.253,96.013,247.742L96.013,247.742z"/>
<text transform="matrix(1 0 0 1 84.5527 250.0596)" font-family="'Helvetica-Bold'" font-size="7.2003">1A</text>
<path d="M94.559,247.897c0,0.838,0.68,1.517,1.519,1.517c0.84,0,1.519-0.679,1.519-1.517s-0.679-1.52-1.519-1.52  C95.239,246.378,94.559,247.06,94.559,247.897"/>
<path fill="#FFFFFF" d="M96.013,265.075c0,3.494-2.887,6.325-6.449,6.325s-6.447-2.831-6.447-6.325c0-3.489,2.885-6.319,6.447-6.319  S96.013,261.586,96.013,265.075"/>
<path fill="none" stroke="#000000" stroke-width="0.5" d="M96.013,265.075c0,3.494-2.887,6.325-6.449,6.325  s-6.447-2.831-6.447-6.325c0-3.489,2.885-6.319,6.447-6.319S96.013,261.586,96.013,265.075L96.013,265.075z"/>
<text transform="matrix(1 0 0 1 84.5527 267.3926)" font-family="'Helvetica-Bold'" font-size="7.2003">1B</text>
<path fill="#FFFFFF" d="M185.334,247.19c0,3.494-2.887,6.322-6.449,6.322c-3.561,0-6.447-2.828-6.447-6.322  c0-3.491,2.887-6.321,6.447-6.321C182.447,240.869,185.334,243.699,185.334,247.19"/>
<path fill="none" stroke="#000000" stroke-width="0.5" d="M185.334,247.19c0,3.494-2.887,6.322-6.449,6.322  c-3.561,0-6.447-2.828-6.447-6.322c0-3.491,2.887-6.321,6.447-6.321C182.447,240.869,185.334,243.699,185.334,247.19L185.334,247.19  z"/>
<text transform="matrix(1 0 0 1 174.8789 249.5059)" font-family="'Helvetica-Bold'" font-size="7.2003">2A</text>
<path d="M170.428,247.897c0,0.838,0.68,1.517,1.52,1.517c0.838,0,1.518-0.679,1.518-1.517s-0.68-1.52-1.518-1.52  C171.107,246.378,170.428,247.06,170.428,247.897"/>
<path fill="#FFFFFF" d="M185.334,264.523c0,3.494-2.887,6.322-6.449,6.322c-3.561,0-6.447-2.828-6.447-6.322  c0-3.491,2.887-6.321,6.447-6.321C182.447,258.202,185.334,261.032,185.334,264.523"/>
<path fill="none" stroke="#000000" stroke-width="0.5" d="M185.334,264.523c0,3.494-2.887,6.322-6.449,6.322  c-3.561,0-6.447-2.828-6.447-6.322c0-3.491,2.887-6.321,6.447-6.321C182.447,258.202,185.334,261.032,185.334,264.523  L185.334,264.523z"/>
<text transform="matrix(1 0 0 1 174.8789 266.8389)" font-family="'Helvetica-Bold'" font-size="7.2003">2B</text>
<path d="M170.428,264.871c0,0.839,0.68,1.519,1.52,1.519c0.838,0,1.518-0.68,1.518-1.519c0-0.838-0.68-1.519-1.518-1.519  C171.107,263.353,170.428,264.033,170.428,264.871"/>
<rect x="105.269" y="243.994" fill="#FFFFFF" width="55.331" height="23.938"/>
<polygon fill="none" stroke="#000000" stroke-width="0.5" points="160.6,267.932 105.269,267.932 105.269,243.994 160.6,243.994   160.6,267.932 "/>
<text transform="matrix(1 0 0 1 110.9258 259.2061)" font-family="'Helvetica'" font-size="9.0004">LUN group </text>
<path d="M94.559,265.231c0,0.838,0.68,1.517,1.519,1.517c0.84,0,1.519-0.679,1.519-1.517s-0.679-1.52-1.519-1.52  C95.239,263.712,94.559,264.394,94.559,265.231"/>
<rect x="70" y="303" fill="none" width="48" height="10.5"/>
<text transform="matrix(1 0 0 1 70 309.4619)" font-family="'Helvetica'" font-size="9">Controller 1</text>
<rect x="152" y="303" fill="none" width="48" height="10.5"/>
<text transform="matrix(1 0 0 1 152 309.4619)" font-family="'Helvetica'" font-size="9">Controller 2</text>
<polyline fill="none" stroke="#000000" points="83.117,161.075 67.333,161.075 67.333,100.333 "/>
<line fill="none" stroke="#000000" x1="160.466" y1="264.774" x2="172.798" y2="264.774"/>
<line fill="none" stroke="#000000" x1="97.133" y1="265.108" x2="105.131" y2="265.108"/>
<line fill="none" stroke="#000000" x1="97.133" y1="248.108" x2="105.131" y2="248.108"/>
<line fill="none" stroke="#000000" x1="97.133" y1="178.775" x2="105.131" y2="178.775"/>
<rect x="31" y="52" fill="none" width="24.5" height="9.5"/>
<text transform="matrix(1 0 0 1 31 58.4619)" font-family="'Helvetica'" font-size="9">z1/z2</text>
<rect x="96" y="51" fill="none" width="24.5" height="9.5"/>
<text transform="matrix(1 0 0 1 96 57.4619)" font-family="'Helvetica'" font-size="9">z5/z6</text>
<rect x="210" y="51" fill="none" width="24.5" height="9.5"/>
<text transform="matrix(1 0 0 1 210 57.4619)" font-family="'Helvetica'" font-size="9">z7/z8</text>
<rect x="150.5" y="74" fill="none" width="24.5" height="9.5"/>
<text transform="matrix(1 0 0 1 150.5 80.4619)" font-family="'Helvetica'" font-size="9">z3/z4</text>
</svg>