<?xml version="1.0" encoding="UTF-8"?><!-- Generator: Adobe Illustrator 16.0.3, SVG Export Plug-In . SVG Version: 6.00 Build 0)  --><!DOCTYPE svg PUBLIC "-//W3C//DTD SVG 1.1//EN" "http://www.w3.org/Graphics/SVG/1.1/DTD/svg11.dtd">
<svg xmlns="http://www.w3.org/2000/svg" xmlns:xlink="http://www.w3.org/1999/xlink" version="1.1" x="0px" y="0px" width="306.5px" height="312.768px" viewBox="0 0 306.5 312.768" enable-background="new 0 0 306.5 312.768" xml:space="preserve" preserveAspectRatio="xMidYMid meet" zoomAndPan="magnify" contentScriptType="application/ecmascript" contentStyleType="text/css">
<g id="Guide">
</g>
<g id="Dimension_Layer">
	<g>
		<rect x="193.47" y="187.518" fill="#FFFFFF" stroke="#000000" stroke-width="0.4" width="35.034" height="90.961"/>
		<polyline fill="none" stroke="#000000" stroke-width="0.4" points="225.897,276.73 225.897,189.587 196.194,189.587     196.267,276.73   "/>
		<path fill="#FFFFFF" stroke="#000000" stroke-width="0.4" d="M198.441,280.839c0.574,0,1.04-0.464,1.04-1.039    c0-0.573-0.466-1.04-1.04-1.04c-0.572,0-1.039,0.467-1.039,1.04C197.402,280.375,197.869,280.839,198.441,280.839"/>
		<line fill="none" stroke="#000000" stroke-width="0.4" x1="197.653" y1="278.608" x2="197.653" y2="278.375"/>
		<path fill="none" stroke="#000000" stroke-width="0.4" d="M199.036,278.608 M196.27,278.608h2.767v-0.233h-2.767V278.608z"/>
		<line fill="none" stroke="#000000" stroke-width="0.4" x1="197.672" y1="279.819" x2="197.672" y2="278.585"/>
		<path fill="none" stroke="#000000" stroke-width="0.4" d="M197.922,279.819 M197.424,279.819h0.498v-1.234h-0.498V279.819z"/>
		<path fill="#FFFFFF" stroke="#000000" stroke-width="0.4" d="M225.182,280.839c0.573,0,1.039-0.464,1.039-1.039    c0-0.573-0.466-1.04-1.039-1.04s-1.04,0.467-1.04,1.04C224.142,280.375,224.608,280.839,225.182,280.839"/>
		<line fill="none" stroke="#000000" stroke-width="0.4" x1="224.393" y1="278.608" x2="224.393" y2="278.375"/>
		<path fill="none" stroke="#000000" stroke-width="0.4" d="M225.777,278.608 M223.009,278.608h2.769v-0.233h-2.769V278.608z"/>
		<line fill="none" stroke="#000000" stroke-width="0.4" x1="224.411" y1="279.819" x2="224.411" y2="278.585"/>
		<path fill="none" stroke="#000000" stroke-width="0.4" d="M224.663,279.819 M224.161,279.819h0.502v-1.234h-0.502V279.819z"/>
		<line fill="none" stroke="#000000" stroke-width="0.4" x1="193.454" y1="276.559" x2="228.388" y2="276.559"/>
		<rect x="220.982" y="203.373" fill="none" stroke="#000000" stroke-width="0.4" width="1.649" height="9.896"/>
		<line fill="none" stroke="#000000" stroke-width="0.4" x1="196.092" y1="191.604" x2="225.761" y2="191.604"/>
		<line fill="none" stroke="#000000" stroke-width="0.4" x1="196.092" y1="199.843" x2="225.761" y2="199.843"/>
	</g>
	<rect x="92" y="198.208" fill="#D1D3D4" stroke="#000000" stroke-width="0.4" width="9.575" height="96.704"/>
	<polygon fill="#D1D3D4" stroke="#000000" stroke-width="0.4" points="210.979,294.935 201.405,294.912 201.405,198.208    210.979,198.208  "/>
	<line stroke="#000000" stroke-width="2" x1="107.174" y1="28.387" x2="198.554" y2="28.387"/>
	<line stroke="#000000" stroke-width="2" x1="107.174" y1="20.372" x2="198.554" y2="20.372"/>
	<g>
		<text transform="matrix(1 0 0 1 232.1514 280.8369)"><tspan x="0" y="0" font-family="'Helvetica'" font-size="9">Storage</tspan><tspan x="0" y="10.8" font-family="'Helvetica'" font-size="9">array</tspan></text>
	</g>
	<line fill="none" stroke="#000000" x1="91.005" y1="210.14" x2="216.849" y2="210.14"/>
	<line fill="none" stroke="#000000" x1="91.005" y1="227.669" x2="216.849" y2="227.669"/>
	<line fill="none" stroke="#000000" x1="91.005" y1="266.122" x2="216.849" y2="266.122"/>
	<line fill="none" stroke="#000000" x1="91.005" y1="247.485" x2="216.849" y2="247.485"/>
	<polyline fill="none" stroke="#0000FF" stroke-linecap="round" stroke-linejoin="round" points="79.391,247.242 55.181,247.242    55.181,120.742  "/>
	<polyline fill="none" stroke="#0000FF" stroke-linecap="round" stroke-linejoin="round" stroke-dasharray="5,4" points="   79.965,265.921 47.749,265.921 47.749,121.622  "/>
	<polyline fill="none" stroke="#000000" points="79.814,209.482 68.689,209.482 68.689,120.074  "/>
	
		<polyline fill="none" stroke="#000000" stroke-width="2" stroke-linecap="round" stroke-linejoin="round" stroke-dasharray="5,4" points="   80.076,227.512 62.237,227.512 62.237,122.124  "/>
	<g>
		<text transform="matrix(1 0 0 1 81.938 9.4761)" font-family="'Helvetica'" font-size="9.0155">vs1</text>
		<g>
			<polyline fill="#FFFFFF" stroke="#000000" stroke-width="0.4" points="107.174,17.871 100.466,13.211 76.661,13.211      69.533,17.849    "/>
			<polyline fill="none" stroke="#000000" stroke-width="0.4" stroke-linejoin="round" points="107.174,17.871 100.466,13.211      76.661,13.211 69.533,17.849    "/>
			<rect x="68.07" y="17.191" fill="#FFFFFF" stroke="#000000" stroke-width="0.4" width="40.059" height="24.122"/>
			
				<rect x="68.069" y="17.191" fill="none" stroke="#000000" stroke-width="0.4" stroke-linecap="round" stroke-linejoin="round" stroke-miterlimit="500" width="40.058" height="24.122"/>
			<path fill="#FFFFFF" stroke="#000000" stroke-width="0.4" d="M70.35,17.342c-1.267,0-1.307,0.197-1.583,1.227     c-0.277,1.03-1.191,4.871-1.191,6.375c0,1.507,1.269,6.656,1.427,7.881c0.159,1.23,0.475,4.517,0.596,5.229     c0.118,0.713,0.236,1.107,1.109,1.188c0.872,0.08,8.437,0.399,10.335,0.399c1.902,0,10.535-0.518,10.535-0.518     s4.834,0.479,7.764,0.479c2.933,0,5.703-0.241,6.298-0.36c0.593-0.119,0.949-0.081,0.988-1.465     c0.04-1.386,0.437-3.604,0.714-5.941c0.277-2.335,1.188-4.199,1.228-6.02c0.039-1.822-0.08-2.614-0.438-4.437     c-0.354-1.82-0.75-2.822-0.87-3.208c-0.156-0.516-0.354-0.831-1.226-0.831C105.162,17.342,70.35,17.342,70.35,17.342"/>
			
				<path fill="none" stroke="#000000" stroke-width="0.4" stroke-linecap="round" stroke-linejoin="round" stroke-miterlimit="500" d="     M107.145,17.816l0.983-0.625l-1.538,0.151 M69.599,17.342l-1.528-0.151l0.894,0.586 M70.35,17.342     c-1.267,0-1.307,0.197-1.583,1.227c-0.277,1.03-1.191,4.871-1.191,6.375c0,1.507,1.269,6.656,1.427,7.881     c0.159,1.23,0.475,4.517,0.596,5.229c0.118,0.713,0.236,1.107,1.109,1.188c0.872,0.08,8.437,0.399,10.335,0.399     c1.902,0,10.535-0.518,10.535-0.518s4.834,0.479,7.764,0.479c2.933,0,5.703-0.241,6.298-0.36     c0.593-0.119,0.949-0.081,0.988-1.465c0.04-1.386,0.437-3.604,0.714-5.941c0.277-2.335,1.188-4.199,1.228-6.02     c0.039-1.822-0.08-2.614-0.438-4.437c-0.354-1.82-0.75-2.822-0.87-3.208c-0.156-0.516-0.354-0.831-1.226-0.831     C105.162,17.342,70.35,17.342,70.35,17.342z"/>
			
				<path fill="none" stroke="#000000" stroke-width="0.4" stroke-linecap="round" stroke-linejoin="round" stroke-miterlimit="500" d="     M102.553,28.855c0,0,1.043-4.07-0.129-8.572 M100.989,28.855c0,0,1.083-4.051-0.146-8.661 M99.432,28.855     c0,0,1.057-4.593-0.143-8.6 M97.869,28.855c0,0,1.042-4.519-0.093-8.441 M96.307,28.855c0,0,1.022-4.237-0.042-8.176      M94.746,28.855c0,0,1.06-3.123,0.069-7.86 M93.053,29.263c-0.204,0.521,1.359-2.956,0.163-8.491 M91.382,29.637     c-0.206,0.521,1.541-3.551,0.198-9.088 M89.764,29.917c-0.206,0.52,1.747-4.074,0.24-9.519 M88.119,30.12     c-0.206,0.521,1.831-4.425,0.324-9.873 M86.522,30.268c-0.208,0.523,1.919-4.515,0.29-10.105 M84.961,30.382     c-0.207,0.521,1.932-4.711,0.304-10.301 M83.405,30.412c-0.205,0.521,1.921-4.768,0.29-10.359 M81.836,30.412     c-0.207,0.521,1.758-5.162,0.289-10.359 M80.283,30.349c0,0,1.875-4.69,0.288-10.297 M78.759,30.214     c0,0,1.827-4.509,0.244-10.116 M77.251,30.092c0,0,1.521-4.449,0.242-9.918 M75.788,29.862c0,0,1.478-4.143,0.198-9.614      M74.293,29.619c0,0,1.419-3.779,0.138-9.247"/>
			<path fill="#FFFFFF" stroke="#000000" stroke-width="0.4" d="M95.024,22.215c0,0-2.662-0.021-3.872,0.262     c-1.207,0.278-1.608,0.601-0.041,0.923c1.571,0.321,4.088,0.359,4.088,0.359S95.103,22.575,95.024,22.215"/>
			
				<path fill="none" stroke="#000000" stroke-width="0.4" stroke-linecap="round" stroke-linejoin="round" stroke-miterlimit="500" d="     M94.746,28.855c0,0,7.593,0.096,8.235,0.053c0.643-0.037,0.925-0.078,1.046-1.406c0.122-1.328,0.495-3.867-0.403-6.556     c-0.201-0.605-0.441-0.605-0.844-0.683c-0.403-0.082-4.102-0.324-7.965,0.731c0,0-5.792-0.934-10.901-0.975     c-3.583-0.029-9.334,0.282-9.978,0.361c-0.643,0.081-1.044,0.404-1.166,1.569c-0.121,1.167-0.395,3.903,0.081,6.276     c0.121,0.604,0.121,1.088,0.765,1.288c0.643,0.201,5.431,1.127,11.183,0.885C90.55,30.159,94.746,28.855,94.746,28.855z      M95.024,22.215c0,0-2.662-0.021-3.872,0.262c-1.207,0.278-1.608,0.601-0.041,0.923c1.571,0.321,4.088,0.359,4.088,0.359     S95.103,22.575,95.024,22.215z"/>
			
				<path fill="none" stroke="#000000" stroke-width="0.4" stroke-linecap="round" stroke-linejoin="round" stroke-miterlimit="500" d="     M94.399,31.407c0,0-1.181,5.846-4.078,9.919 M94.614,20.195c0,0-0.269-2.091-0.697-3.004 M70.477,20.678     c0.188-0.626,0.482-0.804,1.342-0.913c0.856-0.108,8.419-0.644,11.853-0.589c3.434,0.054,10.942,1.019,10.942,1.019     s3.861-0.805,5.471-0.857c1.608-0.056,3.808,0.215,4.398,0.32c0.59,0.108,0.856,0.27,1.073,0.858     c0.215,0.591,0.644,3.059,0.644,4.293c0,1.233-0.59,4.773-0.861,5.524c-0.267,0.751-0.535,1.125-1.285,1.125     c-0.751,0-9.655-0.052-9.655-0.052s-4.613,1.445-10.728,1.714c-6.114,0.27-10.513-0.805-11.211-0.963     c-0.696-0.161-1.127-0.161-1.501-1.344c-0.375-1.178-0.964-3.485-1.018-5.04C69.885,24.218,70.315,21.214,70.477,20.678z"/>
			
				<path fill="none" stroke="#000000" stroke-width="0.4" stroke-linecap="round" stroke-linejoin="round" stroke-miterlimit="500" d="     M104.804,35.835c0,0.161-0.128,0.292-0.29,0.292h-6.634c-0.161,0-0.291-0.131-0.291-0.292v-1.404c0-0.16,0.129-0.29,0.291-0.29     h6.634c0.162,0,0.29,0.129,0.29,0.29V35.835z"/>
		</g>
		<g>
			
				<rect x="56.256" y="31.232" fill="#FFFFFF" stroke="#000000" stroke-width="0.4" stroke-miterlimit="500" width="63.643" height="17.157"/>
		</g>
		
			<rect x="60.389" y="40.438" fill="#FFFFFF" stroke="#000000" stroke-width="0.4" stroke-miterlimit="500" width="7.93" height="5.811"/>
		<text transform="matrix(1 0 0 1 59.7349 38.5059)" font-family="'Helvetica'" font-size="7.6213">0a</text>
		
			<rect x="76.472" y="40.438" fill="#FFFFFF" stroke="#000000" stroke-width="0.4" stroke-miterlimit="500" width="7.93" height="5.811"/>
		<text transform="matrix(1 0 0 1 75.4561 38.5059)" font-family="'Helvetica'" font-size="7.6213">0b</text>
		
			<rect x="94.719" y="40.222" fill="#FFFFFF" stroke="#000000" stroke-width="0.4" stroke-miterlimit="500" width="7.93" height="5.812"/>
		<text transform="matrix(1 0 0 1 94.2788 38.5059)" font-family="'Helvetica'" font-size="7.6213">0c</text>
		
			<rect x="108.999" y="40.222" fill="#FFFFFF" stroke="#000000" stroke-width="0.4" stroke-miterlimit="500" width="7.93" height="5.812"/>
		<text transform="matrix(1 0 0 1 108.3447 38.5059)" font-family="'Helvetica'" font-size="7.6213">0d</text>
		
			<line fill="none" stroke="#000000" stroke-width="0.4" stroke-linecap="round" stroke-miterlimit="500" stroke-dasharray="2" x1="89.438" y1="48.364" x2="89.438" y2="31.807"/>
	</g>
	<g>
		<text transform="matrix(1 0 0 1 211.1377 9.5508)" font-family="'Helvetica'" font-size="9.0156">vs2</text>
		<g>
			<polyline fill="#FFFFFF" stroke="#000000" stroke-width="0.4" points="236.678,17.871 229.968,13.211 206.168,13.211      199.035,17.849    "/>
			<polyline fill="none" stroke="#000000" stroke-width="0.4" stroke-linejoin="round" points="236.678,17.871 229.968,13.211      206.168,13.211 199.035,17.849    "/>
			<rect x="197.574" y="17.191" fill="#FFFFFF" stroke="#000000" stroke-width="0.4" width="40.058" height="24.122"/>
			
				<rect x="197.572" y="17.191" fill="none" stroke="#000000" stroke-width="0.4" stroke-linecap="round" stroke-linejoin="round" stroke-miterlimit="500" width="40.06" height="24.122"/>
			<path fill="#FFFFFF" stroke="#000000" stroke-width="0.4" d="M199.854,17.342c-1.267,0-1.306,0.197-1.585,1.227     c-0.275,1.03-1.189,4.871-1.189,6.375c0,1.507,1.271,6.656,1.429,7.881c0.157,1.23,0.475,4.517,0.596,5.229     c0.117,0.713,0.235,1.107,1.106,1.188c0.874,0.08,8.437,0.399,10.338,0.399s10.534-0.518,10.534-0.518s4.834,0.479,7.764,0.479     s5.705-0.241,6.3-0.36c0.591-0.119,0.948-0.081,0.986-1.465c0.042-1.386,0.438-3.604,0.715-5.941     c0.278-2.335,1.188-4.199,1.229-6.02c0.04-1.822-0.081-2.614-0.438-4.437c-0.356-1.82-0.753-2.822-0.871-3.208     c-0.155-0.516-0.354-0.831-1.227-0.831C234.665,17.342,199.854,17.342,199.854,17.342"/>
			
				<path fill="none" stroke="#000000" stroke-width="0.4" stroke-linecap="round" stroke-linejoin="round" stroke-miterlimit="500" d="     M236.648,17.816l0.983-0.625l-1.538,0.151 M199.104,17.342l-1.529-0.151l0.895,0.586 M199.854,17.342     c-1.267,0-1.306,0.197-1.585,1.227c-0.275,1.03-1.189,4.871-1.189,6.375c0,1.507,1.271,6.656,1.429,7.881     c0.157,1.23,0.475,4.517,0.596,5.229c0.117,0.713,0.235,1.107,1.106,1.188c0.874,0.08,8.437,0.399,10.338,0.399     s10.534-0.518,10.534-0.518s4.834,0.479,7.764,0.479s5.705-0.241,6.3-0.36c0.591-0.119,0.948-0.081,0.986-1.465     c0.042-1.386,0.438-3.604,0.715-5.941c0.278-2.335,1.188-4.199,1.229-6.02c0.04-1.822-0.081-2.614-0.438-4.437     c-0.356-1.82-0.753-2.822-0.871-3.208c-0.155-0.516-0.354-0.831-1.227-0.831C234.665,17.342,199.854,17.342,199.854,17.342z"/>
			
				<path fill="none" stroke="#000000" stroke-width="0.4" stroke-linecap="round" stroke-linejoin="round" stroke-miterlimit="500" d="     M232.058,28.855c0,0,1.042-4.07-0.131-8.572 M230.495,28.855c0,0,1.08-4.051-0.149-8.661 M228.936,28.855     c0,0,1.062-4.593-0.143-8.6 M227.372,28.855c0,0,1.04-4.519-0.093-8.441 M225.812,28.855c0,0,1.021-4.237-0.042-8.176      M224.25,28.855c0,0,1.06-3.123,0.067-7.86 M222.554,29.263c-0.202,0.521,1.364-2.956,0.166-8.491 M220.886,29.637     c-0.205,0.521,1.541-3.551,0.198-9.088 M219.269,29.917c-0.205,0.52,1.748-4.074,0.239-9.519 M217.624,30.12     c-0.204,0.521,1.829-4.425,0.323-9.873 M216.027,30.268c-0.207,0.523,1.92-4.515,0.289-10.105 M214.464,30.382     c-0.203,0.521,1.934-4.711,0.305-10.301 M212.909,30.412c-0.205,0.521,1.92-4.768,0.291-10.359 M211.341,30.412     c-0.205,0.521,1.757-5.162,0.289-10.359 M209.787,30.349c0,0,1.874-4.69,0.289-10.297 M208.263,30.214     c0,0,1.828-4.509,0.245-10.116 M206.755,30.092c0,0,1.522-4.449,0.241-9.918 M205.293,29.862c0,0,1.478-4.143,0.197-9.614      M203.799,29.619c0,0,1.417-3.779,0.136-9.247"/>
			<path fill="#FFFFFF" stroke="#000000" stroke-width="0.4" d="M224.53,22.215c0,0-2.665-0.021-3.872,0.262     c-1.207,0.278-1.609,0.601-0.042,0.923c1.57,0.321,4.088,0.359,4.088,0.359S224.608,22.575,224.53,22.215"/>
			
				<path fill="none" stroke="#000000" stroke-width="0.4" stroke-linecap="round" stroke-linejoin="round" stroke-miterlimit="500" d="     M224.25,28.855c0,0,7.594,0.096,8.236,0.053c0.642-0.037,0.923-0.078,1.044-1.406c0.121-1.328,0.495-3.867-0.402-6.556     c-0.199-0.605-0.442-0.605-0.844-0.683c-0.403-0.082-4.103-0.324-7.967,0.731c0,0-5.792-0.934-10.899-0.975     c-3.585-0.029-9.333,0.282-9.977,0.361c-0.645,0.081-1.047,0.404-1.167,1.569c-0.12,1.167-0.395,3.903,0.08,6.276     c0.12,0.604,0.12,1.088,0.767,1.288c0.641,0.201,5.429,1.127,11.183,0.885C220.055,30.159,224.25,28.855,224.25,28.855z      M224.53,22.215c0,0-2.665-0.021-3.872,0.262c-1.207,0.278-1.609,0.601-0.042,0.923c1.57,0.321,4.088,0.359,4.088,0.359     S224.608,22.575,224.53,22.215z"/>
			
				<path fill="none" stroke="#000000" stroke-width="0.4" stroke-linecap="round" stroke-linejoin="round" stroke-miterlimit="500" d="     M223.903,31.407c0,0-1.183,5.846-4.077,9.919 M224.117,20.195c0,0-0.268-2.091-0.698-3.004 M199.981,20.678     c0.186-0.626,0.482-0.804,1.341-0.913c0.856-0.108,8.42-0.644,11.854-0.589c3.435,0.054,10.941,1.019,10.941,1.019     s3.863-0.805,5.473-0.857c1.608-0.056,3.808,0.215,4.396,0.32c0.59,0.108,0.858,0.27,1.073,0.858     c0.218,0.591,0.644,3.059,0.644,4.293c0,1.233-0.59,4.773-0.858,5.524c-0.269,0.751-0.535,1.125-1.285,1.125     c-0.751,0-9.656-0.052-9.656-0.052s-4.611,1.445-10.728,1.714c-6.114,0.27-10.514-0.805-11.21-0.963     c-0.697-0.161-1.13-0.161-1.502-1.344c-0.376-1.178-0.966-3.485-1.022-5.04C199.393,24.218,199.817,21.214,199.981,20.678z"/>
			
				<path fill="none" stroke="#000000" stroke-width="0.4" stroke-linecap="round" stroke-linejoin="round" stroke-miterlimit="500" d="     M234.31,35.835c0,0.161-0.13,0.292-0.289,0.292h-6.635c-0.161,0-0.291-0.131-0.291-0.292v-1.404c0-0.16,0.13-0.29,0.291-0.29     h6.635c0.159,0,0.289,0.129,0.289,0.29V35.835z"/>
		</g>
		<g>
			
				<rect x="185.761" y="31.232" fill="#FFFFFF" stroke="#000000" stroke-width="0.4" stroke-miterlimit="1" width="63.642" height="17.157"/>
		</g>
		
			<rect x="189.894" y="40.294" fill="#FFFFFF" stroke="#000000" stroke-width="0.4" stroke-miterlimit="500" width="7.93" height="5.811"/>
		<text transform="matrix(1 0 0 1 189.2412 38.0742)" font-family="'Helvetica'" font-size="7.6213">0a</text>
		
			<rect x="205.473" y="39.934" fill="#FFFFFF" stroke="#000000" stroke-width="0.4" stroke-miterlimit="500" width="7.929" height="5.811"/>
		<text transform="matrix(1 0 0 1 204.959 38.5059)" font-family="'Helvetica'" font-size="7.6213">0b</text>
		
			<rect x="224.223" y="40.365" fill="#FFFFFF" stroke="#000000" stroke-width="0.4" stroke-miterlimit="500" width="7.93" height="5.812"/>
		<text transform="matrix(1 0 0 1 223.7793 38.5059)" font-family="'Helvetica'" font-size="7.6213">0c</text>
		
			<rect x="238.505" y="40.365" fill="#FFFFFF" stroke="#000000" stroke-width="0.4" stroke-miterlimit="500" width="7.93" height="5.812"/>
		<text transform="matrix(1 0 0 1 237.8467 38.5059)" font-family="'Helvetica'" font-size="7.6213">0d</text>
		
			<line fill="none" stroke="#000000" stroke-width="0.4" stroke-linecap="round" stroke-miterlimit="500" stroke-dasharray="2" x1="218.943" y1="48.364" x2="218.943" y2="31.807"/>
	</g>
	<rect x="119.052" y="203.57" fill="#FFFFFF" stroke="#000000" stroke-width="0.5" width="65.025" height="28.485"/>
	<rect x="119.052" y="242.449" fill="#FFFFFF" stroke="#000000" stroke-width="0.5" width="65.025" height="28.485"/>
	<text transform="matrix(1 0 0 1 125.0151 221.3955)" font-family="'Helvetica'" font-size="9.0156">LUN Group 1</text>
	<text transform="matrix(0.9917 0 0 1 125.0146 260.8057)" font-family="'Helvetica'" font-size="9.0156">LUN Group 2</text>
	<line fill="none" stroke="#FFFFFF" stroke-width="3" stroke-dasharray="6,4" x1="242.559" y1="47.108" x2="242.559" y2="109.388"/>
	
		<line fill-rule="evenodd" clip-rule="evenodd" fill="none" stroke="#FFFFFF" stroke-width="3" stroke-dasharray="6,4" x1="80.225" y1="47.337" x2="80.225" y2="110.725"/>
	<polyline fill="none" stroke="#FFFFFF" stroke-width="3" points="98.524,47.347 98.524,74.664 219.877,74.664 219.877,110.057  "/>
	<polyline fill="none" stroke="#000000" points="98.524,45.948 98.524,74.664 219.877,74.664 219.877,110.057  "/>
	
		<line fill-rule="evenodd" clip-rule="evenodd" fill="none" stroke="#0000FF" stroke-linecap="round" stroke-linejoin="round" x1="80.296" y1="46.616" x2="80.296" y2="110.725"/>
	<line fill="none" stroke="#FFFFFF" stroke-width="3" x1="64.363" y1="47.347" x2="64.363" y2="110.057"/>
	<path fill="none" stroke="#FFFFFF" stroke-width="3" d="M194.112,48.063"/>
	<line fill="none" stroke="#FFFFFF" stroke-width="3" x1="85.035" y1="111.551" x2="85.035" y2="81.881"/>
	<path fill="none" stroke="#000000" d="M194.112,46.391"/>
	<polyline fill="none" stroke="#FFFFFF" stroke-width="3" points="85.035,81.881 194.112,81.881 194.112,48.063  "/>
	
		<polyline fill="none" stroke="#000000" stroke-width="2" stroke-linecap="round" stroke-linejoin="round" stroke-dasharray="5,4" points="   194.112,46.247 194.112,81.881 85.035,81.881 85.035,109.769  "/>
	
		<line fill="none" stroke="#0000FF" stroke-linecap="round" stroke-linejoin="round" stroke-dasharray="6,4" x1="242.631" y1="46.562" x2="242.631" y2="109.388"/>
	<line fill="none" stroke="#000000" x1="64.363" y1="46.165" x2="64.363" y2="110.057"/>
	<line fill="none" stroke="#FFFFFF" stroke-width="3" x1="228.117" y1="47.347" x2="228.117" y2="109.388"/>
	
		<line fill="none" stroke="#000000" stroke-width="2" stroke-linecap="round" stroke-linejoin="round" stroke-dasharray="5,4" x1="228.117" y1="45.948" x2="228.117" y2="109.388"/>
	<polyline fill="none" stroke="#FFFFFF" stroke-width="3" points="112.891,46.616 112.891,66.065 249.126,66.065 249.126,110.725     "/>
	<polyline fill="none" stroke="#0000FF" stroke-linecap="round" stroke-linejoin="round" points="112.891,46.616 112.891,66.065    249.126,66.065 249.126,110.725  "/>
	<polyline fill="none" stroke="#FFFFFF" stroke-width="3" stroke-linecap="round" stroke-linejoin="round" points="221.511,247.319    253.173,247.319 253.173,120.742  "/>
	<polyline fill="none" stroke="#000000" points="222.034,209.482 238.47,209.482 238.47,120.074  "/>
	
		<polyline fill="none" stroke="#000000" stroke-width="2" stroke-linecap="round" stroke-linejoin="round" stroke-dasharray="5,4" points="   222.297,227.23 245.763,227.23 245.763,123.124  "/>
	<polyline fill="none" stroke="#0000FF" stroke-linecap="round" stroke-linejoin="round" points="222.297,247.195 253.173,247.195    253.173,120.742  "/>
	<polyline fill="none" stroke="#FFFFFF" stroke-width="3" stroke-linecap="round" stroke-linejoin="round" points="221.771,266.157    259.01,266.157 259.01,120.956  "/>
	<polyline fill="none" stroke="#0000FF" stroke-linecap="round" stroke-linejoin="round" stroke-dasharray="5,4" points="   222.297,266.167 259.01,266.167 259.01,120.956  "/>
	<g>
		<path fill="#FFFFFF" stroke="#000000" stroke-width="0.4" stroke-linecap="round" stroke-linejoin="round" d="M233.971,113.934    v10.545 M214.658,110.199v10.543l19.313,3.737l30.32-2.797v-10.542"/>
		<polygon fill="#FFFFFF" stroke="#000000" stroke-width="0.4" stroke-linecap="round" stroke-linejoin="round" points="    264.291,111.139 233.971,113.934 214.658,110.199 244.989,107.402   "/>
	</g>
	<path fill="#FFFFFF" stroke="#000000" stroke-width="0.5" d="M97.891,209.281c0,4.784-3.954,8.656-8.828,8.656   c-4.875,0-8.824-3.872-8.824-8.656c0-4.775,3.949-8.65,8.824-8.65C93.938,200.631,97.891,204.506,97.891,209.281z"/>
	<path fill="#FFFFFF" stroke="#000000" stroke-width="0.5" d="M97.891,228.121c0,4.783-3.954,8.659-8.828,8.659   c-4.875,0-8.824-3.876-8.824-8.659c0-4.774,3.949-8.649,8.824-8.649C93.938,219.472,97.891,223.347,97.891,228.121z"/>
	<path fill="#FFFFFF" stroke="#000000" stroke-width="0.5" d="M97.891,246.962c0,4.783-3.954,8.655-8.828,8.655   c-4.875,0-8.824-3.872-8.824-8.655c0-4.777,3.949-8.651,8.824-8.651C93.938,238.311,97.891,242.185,97.891,246.962z"/>
	<path fill="#FFFFFF" stroke="#000000" stroke-width="0.5" d="M97.891,265.803c0,4.784-3.954,8.658-8.828,8.658   c-4.875,0-8.824-3.874-8.824-8.658c0-4.776,3.949-8.652,8.824-8.652C93.938,257.15,97.891,261.026,97.891,265.803z"/>
	<path fill="#FFFFFF" stroke="#000000" stroke-width="0.5" d="M222.191,209.281c0,4.784-3.955,8.656-8.83,8.656   s-8.823-3.872-8.823-8.656c0-4.775,3.948-8.65,8.823-8.65S222.191,204.506,222.191,209.281z"/>
	<path fill="#FFFFFF" stroke="#000000" stroke-width="0.5" d="M222.191,228.121c0,4.783-3.955,8.659-8.83,8.659   s-8.823-3.876-8.823-8.659c0-4.774,3.948-8.649,8.823-8.649S222.191,223.347,222.191,228.121z"/>
	<path fill="#FFFFFF" stroke="#000000" stroke-width="0.5" d="M222.191,246.962c0,4.783-3.955,8.655-8.83,8.655   s-8.823-3.872-8.823-8.655c0-4.777,3.948-8.651,8.823-8.651S222.191,242.185,222.191,246.962z"/>
	<path fill="#FFFFFF" stroke="#000000" stroke-width="0.5" d="M222.191,265.803c0,4.784-3.955,8.658-8.83,8.658   s-8.823-3.874-8.823-8.658c0-4.776,3.948-8.652,8.823-8.652S222.191,261.026,222.191,265.803z"/>
	<path d="M96.634,210.19c0,0.84,0.682,1.521,1.522,1.521c0.842,0,1.523-0.682,1.523-1.521c0-0.839-0.682-1.522-1.523-1.522   C97.315,208.668,96.634,209.352,96.634,210.19"/>
	<path d="M96.634,227.984c0,0.84,0.682,1.521,1.522,1.521c0.842,0,1.523-0.681,1.523-1.521c0-0.839-0.682-1.522-1.523-1.522   C97.315,226.462,96.634,227.146,96.634,227.984"/>
	<path d="M96.634,247.528c0,0.837,0.682,1.519,1.522,1.519c0.842,0,1.523-0.682,1.523-1.519c0-0.841-0.682-1.522-1.523-1.522   C97.315,246.006,96.634,246.688,96.634,247.528"/>
	<path d="M96.634,266.177c0,0.841,0.682,1.522,1.522,1.522c0.842,0,1.523-0.682,1.523-1.522c0-0.837-0.682-1.521-1.523-1.521   C97.315,264.656,96.634,265.34,96.634,266.177"/>
	<path d="M202.616,210.19c0,0.84,0.679,1.521,1.521,1.521c0.843,0,1.524-0.682,1.524-1.521c0-0.839-0.682-1.522-1.524-1.522   C203.295,208.668,202.616,209.352,202.616,210.19"/>
	<path d="M202.616,227.984c0,0.84,0.679,1.521,1.521,1.521c0.843,0,1.524-0.681,1.524-1.521c0-0.839-0.682-1.522-1.524-1.522   C203.295,226.462,202.616,227.146,202.616,227.984"/>
	<path d="M202.616,247.528c0,0.837,0.679,1.519,1.521,1.519c0.843,0,1.524-0.682,1.524-1.519c0-0.841-0.682-1.522-1.524-1.522   C203.295,246.006,202.616,246.688,202.616,247.528"/>
	<path d="M202.616,266.177c0,0.841,0.679,1.522,1.521,1.522c0.843,0,1.524-0.682,1.524-1.522c0-0.837-0.682-1.521-1.524-1.521   C203.295,264.656,202.616,265.34,202.616,266.177"/>
	<polyline fill="none" stroke="#FFFFFF" stroke-width="3" points="89.334,111.551 89.334,93.997 209.179,93.997 209.179,46.056  "/>
	<polyline fill="none" stroke="#0000FF" stroke-linecap="round" stroke-linejoin="round" stroke-dasharray="5,4" points="   89.334,111.551 89.334,94.068 209.248,94.068 209.248,46.056  "/>
	<g>
		<path fill="#FFFFFF" stroke="#000000" stroke-width="0.4" stroke-linecap="round" stroke-linejoin="round" d="M60.696,113.934    v10.545 M41.384,110.199v10.543l19.313,3.737l30.331-2.797v-10.542"/>
		<g>
			<polygon fill="#FFFFFF" stroke="#000000" stroke-width="0.4" stroke-linecap="round" stroke-linejoin="round" points="     91.027,111.139 60.696,113.934 41.384,110.199 71.712,107.402    "/>
		</g>
	</g>
	<text transform="matrix(1 0 0 1 82.8745 212.874)" font-family="'Helvetica-Bold'" font-size="9">1A</text>
	<text transform="matrix(1 0 0 1 82.8745 232.0566)" font-family="'Helvetica-Bold'" font-size="9">1B</text>
	<text transform="matrix(1 0 0 1 82.8745 250.1553)" font-family="'Helvetica-Bold'" font-size="9">1C</text>
	<text transform="matrix(1 0 0 1 82.8745 269.0859)" font-family="'Helvetica-Bold'" font-size="9">1D</text>
	<text transform="matrix(1 0 0 1 207.749 212.874)" font-family="'Helvetica-Bold'" font-size="9">2A</text>
	<text transform="matrix(1 0 0 1 207.749 232.0566)" font-family="'Helvetica-Bold'" font-size="9">2B</text>
	<text transform="matrix(1 0 0 1 207.749 250.1553)" font-family="'Helvetica-Bold'" font-size="9">2C</text>
	<text transform="matrix(1 0 0 1 207.749 269.0859)" font-family="'Helvetica-Bold'" font-size="9">2D</text>
	<rect x="63.855" y="301.392" fill="none" width="63.591" height="11.376"/>
	<text transform="matrix(1 0 0 1 72.3955 307.8535)" font-family="'Helvetica'" font-size="9">Controller 1</text>
	<rect x="170.818" y="301.392" fill="none" width="63.592" height="11.376"/>
	<text transform="matrix(1 0 0 1 179.3584 307.8535)" font-family="'Helvetica'" font-size="9">Controller 2</text>
	<text transform="matrix(1 0 0 1 2.9082 120.0742)" font-family="'Helvetica'" font-size="9">Switch 1</text>
	<text transform="matrix(1 0 0 1 268.2627 120.0742)" font-family="'Helvetica'" font-size="9">Switch 2</text>
	<text transform="matrix(1 0 0 1 50.0552 57.8823)" font-family="'Helvetica'" font-size="9">z1</text>
	<text transform="matrix(1 0 0 1 68.688 57.8823)" font-family="'Helvetica'" font-size="9">z5</text>
	<text transform="matrix(1 0 0 1 57.583 244.6768)" font-family="'Helvetica'" font-size="9">z5</text>
	<text transform="matrix(1 0 0 1 50.0547 263.3291)" font-family="'Helvetica'" font-size="9">z6</text>
	<text transform="matrix(1 0 0 1 213.3633 57.8818)" font-family="'Helvetica'" font-size="9">z6</text>
	<text transform="matrix(1 0 0 1 71.1558 205.6924)" font-family="'Helvetica'" font-size="9">z1</text>
	<text transform="matrix(1 0 0 1 88.0981 57.8823)" font-family="'Helvetica'" font-size="9">z3</text>
	<text transform="matrix(1 0 0 1 102.6479 57.8823)" font-family="'Helvetica'" font-size="9">z7</text>
	<text transform="matrix(1 0 0 1 245.7617 57.8818)" font-family="'Helvetica'" font-size="9">z8</text>
	<text transform="matrix(1 0 0 1 248.0713 262.001)" font-family="'Helvetica'" font-size="9">z8</text>
	<text transform="matrix(1 0 0 1 229.0879 206.8994)" font-family="'Helvetica'" font-size="9">z3</text>
	<text transform="matrix(1 0 0 1 64.3535 224.2764)" font-family="'Helvetica'" font-size="9">z2</text>
	<text transform="matrix(1 0 0 1 197.4023 57.8818)" font-family="'Helvetica'" font-size="9">z2</text>
	<text transform="matrix(1 0 0 1 230.7002 57.8818)" font-family="'Helvetica'" font-size="9">z4</text>
	<text transform="matrix(1 0 0 1 234.3066 224.2764)" font-family="'Helvetica'" font-size="9">z4</text>
	<text transform="matrix(1 0 0 1 242.6279 244.6768)" font-family="'Helvetica'" font-size="9">z7</text>
</g>
</svg>